<svg class="icon" viewBox="0 0 1024 1024" xmlns="http://www.w3.org/2000/svg" width="200" height="200"><path fill="#3d4451" d="M170.667 768c-3.414 0-10.24 0-13.654-3.413-6.826-6.827-6.826-17.067 0-23.894L737.28 160.427c6.827-6.827 17.067-6.827 23.893 0s6.827 17.066 0 23.893L180.907 764.587c0 3.413-6.827 3.413-10.24 3.413z"/><path fill="#3d4451" d="M358.4 921.6c-10.24 0-17.067-6.827-17.067-17.067v-51.2c0-160.426-3.413-296.96 109.227-406.186C559.787 337.92 696.32 341.333 853.333 341.333h51.2c10.24 0 17.067 6.827 17.067 17.067s-6.827 17.067-17.067 17.067h-51.2c-150.186 0-283.306-3.414-382.293 98.986-98.987 98.987-95.573 228.694-95.573 378.88v51.2c0 10.24-6.827 17.067-17.067 17.067z"/><path fill="#3d4451" d="M392.533 887.467h-68.266c-10.24 0-17.067 6.826-17.067 17.066V972.8c0 10.24 6.827 17.067 17.067 17.067h68.266c10.24 0 17.067-6.827 17.067-17.067v-68.267c0-10.24-6.827-17.066-17.067-17.066zM972.8 307.2h-68.267c-10.24 0-17.066 6.827-17.066 17.067v68.266c0 10.24 6.826 17.067 17.066 17.067H972.8c10.24 0 17.067-6.827 17.067-17.067v-68.266c0-10.24-6.827-17.067-17.067-17.067zM34.133 802.133a85.333 85.333 0 10170.667 0 85.333 85.333 0 10-170.667 0zM716.8 119.467a85.333 85.333 0 10170.667 0 85.333 85.333 0 10-170.667 0zM460.8 409.6c-27.307 0-51.2 23.893-51.2 51.2s23.893 51.2 51.2 51.2 51.2-23.893 51.2-51.2-23.893-51.2-51.2-51.2zm0 68.267c-10.24 0-17.067-6.827-17.067-17.067s6.827-17.067 17.067-17.067 17.067 6.827 17.067 17.067-6.827 17.067-17.067 17.067z"/></svg>