<svg width="36" height="36" xmlns="http://www.w3.org/2000/svg"><path fill="none" d="M-1-1h38v38H-1z"/><g fill-rule="evenodd"><path stroke="null" fill="#ecb360" d="M33.034 17.517A15.517 15.517 0 1117.517 2a15.517 15.517 0 0115.517 15.517"/><path fill="#d76835" d="M28.9 15.966a13.715 13.715 0 01-13.452 13.965A13.714 13.714 0 012 15.966 13.715 13.715 0 0115.448 2 13.715 13.715 0 0128.9 15.966"/><path fill="#d33a41" d="M29.931 14.414a12.163 12.163 0 01-11.9 12.414 12.163 12.163 0 01-11.9-12.414A12.163 12.163 0 0118.034 2a12.164 12.164 0 0111.9 12.414"/><path fill="#b6cb46" d="M28.9 15.448a11.131 11.131 0 01-10.863 11.38 11.13 11.13 0 01-10.865-11.38A11.13 11.13 0 0118.034 4.069 11.13 11.13 0 0128.9 15.449"/><path fill="#66ad4a" d="M27.862 16.483A10.345 10.345 0 1117.517 6.138a10.345 10.345 0 0110.345 10.345"/><path fill="#aed7dc" d="M23.724 14.414a8.276 8.276 0 11-8.276-8.276 8.276 8.276 0 018.276 8.276"/><path fill="#5bb1cf" d="M24.759 13.38a7.241 7.241 0 11-7.241-7.242 7.241 7.241 0 017.241 7.242"/><path fill="#25a8c3" d="M24.759 13.9a6.482 6.482 0 01-6.207 6.725 6.482 6.482 0 01-6.207-6.725 6.481 6.481 0 016.207-6.724 6.481 6.481 0 016.207 6.724"/><path fill="none" d="M22.69 14.93a5.45 5.45 0 01-5.173 5.69 5.45 5.45 0 01-5.172-5.69 5.45 5.45 0 015.172-5.689 5.45 5.45 0 015.173 5.69"/><path fill="#1b1a18" d="M17.517 20.62a5.45 5.45 0 01-5.172-5.69 5.45 5.45 0 015.172-5.689 5.45 5.45 0 015.173 5.69 5.45 5.45 0 01-5.173 5.69v-.001z"/><path fill="#fffffe" d="M20.34 13.29a2.037 2.037 0 01-2.162 1.063c-.7-.236-.871-1.1-.38-1.92a2.038 2.038 0 012.162-1.062c.7.236.871 1.1.38 1.92"/></g></svg>