<svg class="icon" viewBox="0 0 1024 1024" xmlns="http://www.w3.org/2000/svg" width="200" height="200"><defs><style>*{text-shadow:transparent 0 0 0,rgba(0,0,0,.68) 0 0 0!important}@font-face{font-family:element-icons;src:url(chrome-extension://moombeodfomdpjnpocobemoiaemednkg/fonts/element-icons.woff) format(&quot;woff&quot;),url(&quot;chrome-extension://moombeodfomdpjnpocobemoiaemednkg/fonts/element-icons.ttf &quot;) format(&quot;truetype&quot;)}</style></defs><path d="M416.68 110.897v54.468h547.405c15.018 0 27.234-12.216 27.234-27.234s-12.216-27.234-27.234-27.234H416.681z" fill="#FFCC75"/><path d="M220.596 110.897H384v54.468H220.596z" fill="#98D9D5"/><path d="M81.702 187.152c15.726 0 58.555-6.76 106.213-18.24V107.35C140.257 95.87 97.428 89.11 81.702 89.11c-27.03 0-49.021 21.992-49.021 49.021s21.992 49.021 49.021 49.021z" fill="#274B6D"/><path d="M81.702 219.833c22.197 0 74.34-9.13 124.588-21.787h757.795c33.036 0 59.915-26.879 59.915-59.915s-26.879-59.915-59.915-59.915H206.29C156.042 65.56 103.901 56.43 81.702 56.43 36.65 56.429 0 93.082 0 138.13s36.65 81.702 81.702 81.702zm0-130.723c15.726 0 58.555 6.76 106.213 18.24v61.562c-47.658 11.48-90.487 18.24-106.213 18.24-27.03 0-49.021-21.99-49.021-49.02S54.673 89.11 81.702 89.11zm909.618 49.02c0 15.018-12.216 27.234-27.234 27.234H416.681v-54.468h547.404c15.018 0 27.234 12.218 27.234 27.234zM384 110.897v54.468H220.596v-54.468H384z" fill="#082947"/><path d="M942.298 285.195H81.702c-27.03 0-49.021 21.992-49.021 49.021V885.87c0 27.03 21.992 49.021 49.021 49.021h860.596c27.03 0 49.021-21.992 49.021-49.021V334.216c0-27.03-21.992-49.021-49.021-49.021zM203.384 902.209c-76.044 0-137.913-61.867-137.913-137.913s61.867-137.913 137.913-137.913a137.957 137.957 0 0167.721 17.783 16.34 16.34 0 016.192 22.264c-.179.318-.381.61-.577.91a122.314 122.314 0 0123.62 23.62c.3-.196.594-.398.91-.577a16.34 16.34 0 0122.264 6.192 137.94 137.94 0 0117.785 67.721c-.002 76.044-61.869 137.913-137.915 137.913zm0-308.507c-76.044 0-137.913-61.867-137.913-137.913s61.867-137.913 137.913-137.913c76.046 0 137.915 61.867 137.915 137.913S279.43 593.702 203.384 593.702zM512 902.21c-76.044 0-137.913-61.867-137.913-137.913S435.954 626.383 512 626.383s137.913 61.867 137.913 137.913S588.044 902.21 512 902.21zm0-308.507c-76.044 0-137.913-61.867-137.913-137.913S435.954 317.876 512 317.876s137.913 61.867 137.913 137.913S588.044 593.702 512 593.702zM820.616 902.21c-76.046 0-137.915-61.867-137.915-137.913s61.867-137.913 137.915-137.913c76.044 0 137.913 61.867 137.913 137.913S896.662 902.21 820.616 902.21zm0-308.507c-76.046 0-137.915-61.867-137.915-137.913s61.867-137.913 137.915-137.913c76.044 0 137.913 61.867 137.913 137.913s-61.867 137.913-137.913 137.913z" fill="#F2EBD9"/><path d="M203.384 350.557c-58.026 0-105.233 47.206-105.233 105.232S145.358 561.02 203.384 561.02s105.234-47.206 105.234-105.232-47.21-105.232-105.234-105.232z" fill="#F2484B"/><path d="M512 350.557c-58.026 0-105.232 47.206-105.232 105.232S453.974 561.02 512 561.02s105.232-47.206 105.232-105.232S570.026 350.557 512 350.557z" fill="#FF6E1D"/><path d="M820.616 350.557c-58.026 0-105.234 47.206-105.234 105.232S762.59 561.02 820.616 561.02 925.85 513.815 925.85 455.79s-47.207-105.232-105.233-105.232z" fill="#FFCC75"/><path d="M276.717 667.343c-4.675 7.144-14.142 9.538-21.684 5.279a105.22 105.22 0 00-51.65-13.558c-58.025 0-105.232 47.206-105.232 105.232S145.358 869.53 203.384 869.53s105.234-47.207 105.234-105.233a105.197 105.197 0 00-13.56-51.649c-4.26-7.54-1.865-17.009 5.279-21.684a122.255 122.255 0 00-23.62-23.62z" fill="#185F8D"/><path d="M512 659.064c-58.026 0-105.232 47.206-105.232 105.232S453.974 869.53 512 869.53s105.232-47.207 105.232-105.233S570.026 659.064 512 659.064z" fill="#6DA8D6"/><path d="M820.616 659.064c-58.026 0-105.234 47.206-105.234 105.232S762.59 869.53 820.616 869.53 925.85 822.322 925.85 764.296s-47.207-105.232-105.233-105.232z" fill="#98D9D5"/><path d="M942.298 252.514H81.702C36.65 252.514 0 289.167 0 334.216V885.87c0 45.052 36.65 81.702 81.702 81.702h860.596c45.052 0 81.702-36.65 81.702-81.702V334.216c0-45.05-36.65-81.702-81.702-81.702zm49.021 633.355c0 27.03-21.992 49.021-49.021 49.021H81.702c-27.03 0-49.021-21.992-49.021-49.021V334.216c0-27.03 21.992-49.021 49.021-49.021h860.596c27.03 0 49.021 21.992 49.021 49.021V885.87z" fill="#082947"/><path d="M203.384 317.876c-76.044 0-137.913 61.867-137.913 137.913s61.867 137.913 137.913 137.913c76.046 0 137.915-61.867 137.915-137.913S279.43 317.876 203.384 317.876zm0 243.145c-58.026 0-105.233-47.206-105.233-105.232s47.207-105.232 105.233-105.232 105.234 47.206 105.234 105.232-47.21 105.232-105.234 105.232zM512 317.876c-76.044 0-137.913 61.867-137.913 137.913S435.954 593.702 512 593.702s137.913-61.867 137.913-137.913S588.044 317.876 512 317.876zm0 243.145c-58.026 0-105.232-47.206-105.232-105.232S453.974 350.557 512 350.557s105.232 47.206 105.232 105.232S570.026 561.02 512 561.02zm308.616-243.145c-76.046 0-137.915 61.867-137.915 137.913s61.867 137.913 137.915 137.913c76.044 0 137.913-61.867 137.913-137.913s-61.867-137.913-137.913-137.913zm0 243.145c-58.026 0-105.234-47.206-105.234-105.232s47.208-105.232 105.234-105.232S925.85 397.763 925.85 455.789 878.642 561.02 820.616 561.02zM512 626.383c-76.044 0-137.913 61.867-137.913 137.913S435.954 902.21 512 902.21s137.913-61.867 137.913-137.913S588.044 626.383 512 626.383zm0 243.146c-58.026 0-105.232-47.207-105.232-105.233S453.974 659.064 512 659.064s105.232 47.206 105.232 105.232S570.026 869.53 512 869.53zm308.616-243.146c-76.046 0-137.915 61.867-137.915 137.913S744.568 902.21 820.616 902.21c76.044 0 137.913-61.867 137.913-137.913s-61.867-137.913-137.913-137.913zm0 243.146c-58.026 0-105.234-47.207-105.234-105.233s47.208-105.232 105.234-105.232S925.85 706.27 925.85 764.296 878.642 869.53 820.616 869.53zM301.25 690.383c-.316.179-.61.381-.91.577-7.147 4.678-9.541 14.147-5.282 21.687a105.221 105.221 0 0113.56 51.65c0 58.025-47.208 105.232-105.234 105.232S98.15 822.322 98.15 764.296s47.207-105.232 105.233-105.232a105.195 105.195 0 0151.649 13.558c7.545 4.262 17.009 1.865 21.684-5.279.199-.303.4-.595.578-.913a16.34 16.34 0 00-6.192-22.264 137.957 137.957 0 00-67.721-17.783c-76.044 0-137.914 61.867-137.914 137.913S127.335 902.21 203.382 902.21c76.046 0 137.915-61.867 137.915-137.913a137.94 137.94 0 00-17.785-67.721 16.34 16.34 0 00-22.262-6.192z" fill="#082947"/></svg>