<svg xmlns="http://www.w3.org/2000/svg" xmlns:xlink="http://www.w3.org/1999/xlink" style="margin: auto; background: rgba(20, 20, 20, 0); display: block; z-index: 1; position: relative; shape-rendering: auto;" width="1440" height="405" preserveAspectRatio="xMidYMid" viewBox="0 0 1440 405">
<g transform=""><g transform="translate(167.216 239.937)">
  <animateTransform attributeName="transform" type="translate" keyTimes="0;1" values="-100 239.93653035708195;1440 239.93653035708195" dur="50s" repeatCount="indefinite" begin="-15.397045945644273s"/>
  <path d="M84.717,33.597c0.791-2.503,1.186-5.138,1.186-7.773C85.903,11.594,74.308,0,60.079,0 c-9.881,0-18.445,5.534-22.793,13.702c-1.581-0.527-3.426-0.791-5.138-0.791c-9.486,0-17.128,7.642-17.128,17.128 c0,1.186,0.132,2.372,0.395,3.426C6.719,34.783,0,42.424,0,51.515C0,61.66,8.169,69.829,18.314,69.829h63.373 C91.831,69.829,100,61.66,100,51.515C99.868,42.556,93.281,35.046,84.717,33.597z" fill="#223344" transform="scale(0.6793233412902888)"/>
</g><g transform="translate(48.6774 71.442)">
  <animateTransform attributeName="transform" type="translate" keyTimes="0;1" values="-100 71.44197460284714;1440 71.44197460284714" dur="50s" repeatCount="indefinite" begin="-11.548391482921794s"/>
  <path d="M84.717,33.597c0.791-2.503,1.186-5.138,1.186-7.773C85.903,11.594,74.308,0,60.079,0 c-9.881,0-18.445,5.534-22.793,13.702c-1.581-0.527-3.426-0.791-5.138-0.791c-9.486,0-17.128,7.642-17.128,17.128 c0,1.186,0.132,2.372,0.395,3.426C6.719,34.783,0,42.424,0,51.515C0,61.66,8.169,69.829,18.314,69.829h63.373 C91.831,69.829,100,61.66,100,51.515C99.868,42.556,93.281,35.046,84.717,33.597z" fill="#223344" transform="scale(0.669862094279972)"/>
</g><g transform="translate(485.494 30.2236)">
  <animateTransform attributeName="transform" type="translate" keyTimes="0;1" values="-100 30.22355357262141;1440 30.22355357262141" dur="50s" repeatCount="indefinite" begin="-25.730750845170746s"/>
  <path d="M84.717,33.597c0.791-2.503,1.186-5.138,1.186-7.773C85.903,11.594,74.308,0,60.079,0 c-9.881,0-18.445,5.534-22.793,13.702c-1.581-0.527-3.426-0.791-5.138-0.791c-9.486,0-17.128,7.642-17.128,17.128 c0,1.186,0.132,2.372,0.395,3.426C6.719,34.783,0,42.424,0,51.515C0,61.66,8.169,69.829,18.314,69.829h63.373 C91.831,69.829,100,61.66,100,51.515C99.868,42.556,93.281,35.046,84.717,33.597z" fill="#223344" transform="scale(0.3631798112728168)"/>
</g><g transform="translate(1283.65 237.166)">
  <animateTransform attributeName="transform" type="translate" keyTimes="0;1" values="-100 237.16554900547334;1440 237.16554900547334" dur="25s" repeatCount="indefinite" begin="-4.183016642050519s"/>
  <path d="M84.717,33.597c0.791-2.503,1.186-5.138,1.186-7.773C85.903,11.594,74.308,0,60.079,0 c-9.881,0-18.445,5.534-22.793,13.702c-1.581-0.527-3.426-0.791-5.138-0.791c-9.486,0-17.128,7.642-17.128,17.128 c0,1.186,0.132,2.372,0.395,3.426C6.719,34.783,0,42.424,0,51.515C0,61.66,8.169,69.829,18.314,69.829h63.373 C91.831,69.829,100,61.66,100,51.515C99.868,42.556,93.281,35.046,84.717,33.597z" fill="#223344" transform="scale(0.3596978995036911)"/>
</g><g transform="translate(827.811 392.007)">
  <animateTransform attributeName="transform" type="translate" keyTimes="0;1" values="-100 392.00731980599693;1440 392.00731980599693" dur="16.666666666666668s" repeatCount="indefinite" begin="-16.762447343867713s"/>
  <path d="M84.717,33.597c0.791-2.503,1.186-5.138,1.186-7.773C85.903,11.594,74.308,0,60.079,0 c-9.881,0-18.445,5.534-22.793,13.702c-1.581-0.527-3.426-0.791-5.138-0.791c-9.486,0-17.128,7.642-17.128,17.128 c0,1.186,0.132,2.372,0.395,3.426C6.719,34.783,0,42.424,0,51.515C0,61.66,8.169,69.829,18.314,69.829h63.373 C91.831,69.829,100,61.66,100,51.515C99.868,42.556,93.281,35.046,84.717,33.597z" fill="#223344" transform="scale(0.4821652306493223)"/>
</g><g transform="translate(211.487 313.888)">
  <animateTransform attributeName="transform" type="translate" keyTimes="0;1" values="-100 313.8883715975986;1440 313.8883715975986" dur="25s" repeatCount="indefinite" begin="-11.777805392524032s"/>
  <path d="M84.717,33.597c0.791-2.503,1.186-5.138,1.186-7.773C85.903,11.594,74.308,0,60.079,0 c-9.881,0-18.445,5.534-22.793,13.702c-1.581-0.527-3.426-0.791-5.138-0.791c-9.486,0-17.128,7.642-17.128,17.128 c0,1.186,0.132,2.372,0.395,3.426C6.719,34.783,0,42.424,0,51.515C0,61.66,8.169,69.829,18.314,69.829h63.373 C91.831,69.829,100,61.66,100,51.515C99.868,42.556,93.281,35.046,84.717,33.597z" fill="#223344" transform="scale(0.40983081958033846)"/>
</g><g transform="translate(505.28 153.864)">
  <animateTransform attributeName="transform" type="translate" keyTimes="0;1" values="-100 153.86394989212354;1440 153.86394989212354" dur="16.666666666666668s" repeatCount="indefinite" begin="-13.271849643149059s"/>
  <path d="M84.717,33.597c0.791-2.503,1.186-5.138,1.186-7.773C85.903,11.594,74.308,0,60.079,0 c-9.881,0-18.445,5.534-22.793,13.702c-1.581-0.527-3.426-0.791-5.138-0.791c-9.486,0-17.128,7.642-17.128,17.128 c0,1.186,0.132,2.372,0.395,3.426C6.719,34.783,0,42.424,0,51.515C0,61.66,8.169,69.829,18.314,69.829h63.373 C91.831,69.829,100,61.66,100,51.515C99.868,42.556,93.281,35.046,84.717,33.597z" fill="#223344" transform="scale(0.40761471419730083)"/>
</g><g transform="translate(1100.11 282.583)">
  <animateTransform attributeName="transform" type="translate" keyTimes="0;1" values="-100 282.58328881674186;1440 282.58328881674186" dur="25s" repeatCount="indefinite" begin="-26.203477834259647s"/>
  <path d="M84.717,33.597c0.791-2.503,1.186-5.138,1.186-7.773C85.903,11.594,74.308,0,60.079,0 c-9.881,0-18.445,5.534-22.793,13.702c-1.581-0.527-3.426-0.791-5.138-0.791c-9.486,0-17.128,7.642-17.128,17.128 c0,1.186,0.132,2.372,0.395,3.426C6.719,34.783,0,42.424,0,51.515C0,61.66,8.169,69.829,18.314,69.829h63.373 C91.831,69.829,100,61.66,100,51.515C99.868,42.556,93.281,35.046,84.717,33.597z" fill="#223344" transform="scale(0.3138141794129217)"/>
</g><g transform="translate(760.86 181.457)">
  <animateTransform attributeName="transform" type="translate" keyTimes="0;1" values="-100 181.4566868840346;1440 181.4566868840346" dur="50s" repeatCount="indefinite" begin="-34.671205233579826s"/>
  <path d="M84.717,33.597c0.791-2.503,1.186-5.138,1.186-7.773C85.903,11.594,74.308,0,60.079,0 c-9.881,0-18.445,5.534-22.793,13.702c-1.581-0.527-3.426-0.791-5.138-0.791c-9.486,0-17.128,7.642-17.128,17.128 c0,1.186,0.132,2.372,0.395,3.426C6.719,34.783,0,42.424,0,51.515C0,61.66,8.169,69.829,18.314,69.829h63.373 C91.831,69.829,100,61.66,100,51.515C99.868,42.556,93.281,35.046,84.717,33.597z" fill="#223344" transform="scale(0.3498290349930991)"/>
</g><g transform="translate(186.396 85.6949)">
  <animateTransform attributeName="transform" type="translate" keyTimes="0;1" values="-100 85.69492333442665;1440 85.69492333442665" dur="25s" repeatCount="indefinite" begin="-11.37049282992988s"/>
  <path d="M84.717,33.597c0.791-2.503,1.186-5.138,1.186-7.773C85.903,11.594,74.308,0,60.079,0 c-9.881,0-18.445,5.534-22.793,13.702c-1.581-0.527-3.426-0.791-5.138-0.791c-9.486,0-17.128,7.642-17.128,17.128 c0,1.186,0.132,2.372,0.395,3.426C6.719,34.783,0,42.424,0,51.515C0,61.66,8.169,69.829,18.314,69.829h63.373 C91.831,69.829,100,61.66,100,51.515C99.868,42.556,93.281,35.046,84.717,33.597z" fill="#223344" transform="scale(0.45327884731864243)"/>
</g></g>
</svg>
