<svg xmlns="http://www.w3.org/2000/svg" style="margin:auto;background:0 0;z-index:1;position:relative" width="1440" height="405" preserveAspectRatio="xMidYMid" viewBox="0 0 1440 405" display="block"><g transform="translate(167.216 239.937)"><animateTransform attributeName="transform" type="translate" keyTimes="0;1" values="-100 239.93653035708195;1440 239.93653035708195" dur="50s" repeatCount="indefinite" begin="-15.397045945644273s"/><path d="M57.55 22.823c.538-1.7.806-3.49.806-5.28C58.356 7.876 50.479 0 40.813 0c-6.712 0-12.53 3.76-15.484 9.308-1.074-.358-2.327-.537-3.49-.537a11.613 11.613 0 0 0-11.636 11.635c0 .806.09 1.612.269 2.328C4.564 23.629 0 28.82 0 34.995c0 6.892 5.55 12.441 12.441 12.441h43.05c6.892 0 12.441-5.549 12.441-12.44-.09-6.087-4.564-11.188-10.382-12.173z" fill="#234"/></g><g transform="translate(48.677 71.442)"><animateTransform attributeName="transform" type="translate" keyTimes="0;1" values="-100 71.44197460284714;1440 71.44197460284714" dur="50s" repeatCount="indefinite" begin="-11.548391482921794s"/><path d="M56.749 22.505c.53-1.676.794-3.441.794-5.206C57.543 7.766 49.776 0 40.245 0c-6.62 0-12.356 3.707-15.269 9.178-1.059-.353-2.294-.53-3.441-.53A11.45 11.45 0 0 0 10.06 20.123c0 .794.089 1.589.265 2.295C4.5 23.3 0 28.418 0 34.507a12.242 12.242 0 0 0 12.268 12.269h42.451a12.242 12.242 0 0 0 12.267-12.268c-.088-6.001-4.5-11.032-10.237-12.003z" fill="#234"/></g><g transform="translate(485.494 30.224)"><animateTransform attributeName="transform" type="translate" keyTimes="0;1" values="-100 30.22355357262141;1440 30.22355357262141" dur="50s" repeatCount="indefinite" begin="-25.730750845170746s"/><path d="M30.768 12.202c.287-.91.43-1.866.43-2.823C31.198 4.21 26.988 0 21.82 0a9.36 9.36 0 0 0-8.277 4.976 6.086 6.086 0 0 0-1.866-.287 6.208 6.208 0 0 0-6.221 6.22c0 .431.048.862.143 1.245C2.44 12.632 0 15.408 0 18.709a6.637 6.637 0 0 0 6.651 6.651h23.016a6.637 6.637 0 0 0 6.651-6.65c-.048-3.255-2.44-5.982-5.55-6.508z" fill="#234"/></g><g transform="translate(1283.65 237.166)"><animateTransform attributeName="transform" type="translate" keyTimes="0;1" values="-100 237.16554900547334;1440 237.16554900547334" dur="25s" repeatCount="indefinite" begin="-4.183016642050519s"/><path d="M30.473 12.085c.284-.9.426-1.848.426-2.796C30.9 4.17 26.73 0 21.61 0a9.27 9.27 0 0 0-8.198 4.929 6.028 6.028 0 0 0-1.848-.285 6.149 6.149 0 0 0-6.161 6.161c0 .427.047.853.142 1.232C2.417 12.511 0 15.26 0 18.53a6.574 6.574 0 0 0 6.588 6.587h22.795a6.573 6.573 0 0 0 6.587-6.587c-.048-3.223-2.417-5.924-5.497-6.445z" fill="#234"/></g><g transform="translate(827.811 392.007)"><animateTransform attributeName="transform" type="translate" keyTimes="0;1" values="-100 392.00731980599693;1440 392.00731980599693" dur="16.666666666666668s" repeatCount="indefinite" begin="-16.762447343867713s"/><path d="M40.848 16.2c.381-1.208.571-2.478.571-3.749C41.42 5.591 35.83 0 28.968 0c-4.764 0-8.894 2.668-10.99 6.607a8.08 8.08 0 0 0-2.477-.382 8.242 8.242 0 0 0-8.259 8.259c0 .572.064 1.143.19 1.652C3.24 16.77 0 20.456 0 24.839a8.812 8.812 0 0 0 8.83 8.83h30.557a8.812 8.812 0 0 0 8.83-8.83c-.064-4.32-3.24-7.941-7.37-8.64z" fill="#234"/></g><g transform="translate(211.487 313.888)"><animateTransform attributeName="transform" type="translate" keyTimes="0;1" values="-100 313.8883715975986;1440 313.8883715975986" dur="25s" repeatCount="indefinite" begin="-11.777805392524032s"/><path d="M34.72 13.77c.324-1.027.486-2.107.486-3.187C35.206 4.752 30.454 0 24.622 0c-4.05 0-7.56 2.268-9.341 5.616a6.868 6.868 0 0 0-2.106-.325 7.006 7.006 0 0 0-7.02 7.02c0 .486.055.972.163 1.404C2.754 14.255 0 17.387 0 21.112a7.49 7.49 0 0 0 7.506 7.506h25.972a7.49 7.49 0 0 0 7.505-7.506c-.054-3.671-2.754-6.75-6.263-7.343z" fill="#234"/></g><g transform="translate(505.28 153.864)"><animateTransform attributeName="transform" type="translate" keyTimes="0;1" values="-100 153.86394989212354;1440 153.86394989212354" dur="16.666666666666668s" repeatCount="indefinite" begin="-13.271849643149059s"/><path d="M34.532 13.695c.322-1.02.483-2.095.483-3.169C35.015 4.726 30.29 0 24.49 0a10.506 10.506 0 0 0-9.29 5.585 6.83 6.83 0 0 0-2.095-.322 6.968 6.968 0 0 0-6.982 6.981c0 .484.054.967.161 1.397C2.74 14.178 0 17.293 0 20.998a7.45 7.45 0 0 0 7.465 7.465h25.832a7.45 7.45 0 0 0 7.464-7.465c-.053-3.652-2.738-6.713-6.23-7.303z" fill="#234"/></g><g transform="translate(1100.11 282.583)"><animateTransform attributeName="transform" type="translate" keyTimes="0;1" values="-100 282.58328881674186;1440 282.58328881674186" dur="25s" repeatCount="indefinite" begin="-26.203477834259647s"/><path d="M26.585 10.543a8.113 8.113 0 0 0 .373-2.44c0-4.465-3.64-8.103-8.104-8.103A8.088 8.088 0 0 0 11.7 4.3a5.259 5.259 0 0 0-1.613-.248 5.364 5.364 0 0 0-5.375 5.375c0 .372.042.744.124 1.075C2.11 10.915 0 13.313 0 16.166a5.735 5.735 0 0 0 5.747 5.747h19.888a5.735 5.735 0 0 0 5.746-5.747c-.041-2.811-2.108-5.168-4.796-5.623z" fill="#234"/></g><g transform="translate(760.86 181.457)"><animateTransform attributeName="transform" type="translate" keyTimes="0;1" values="-100 181.4566868840346;1440 181.4566868840346" dur="50s" repeatCount="indefinite" begin="-34.671205233579826s"/><path d="M29.636 11.753a9.044 9.044 0 0 0 .415-2.719C30.051 4.056 25.995 0 21.017 0a9.017 9.017 0 0 0-7.973 4.793 5.862 5.862 0 0 0-1.798-.276 5.98 5.98 0 0 0-5.992 5.992c0 .414.047.83.139 1.198C2.35 12.168 0 14.841 0 18.021a6.393 6.393 0 0 0 6.407 6.407h22.17a6.393 6.393 0 0 0 6.406-6.407c-.046-3.134-2.35-5.76-5.347-6.268z" fill="#234"/></g><g transform="translate(186.396 85.695)"><animateTransform attributeName="transform" type="translate" keyTimes="0;1" values="-100 85.69492333442665;1440 85.69492333442665" dur="25s" repeatCount="indefinite" begin="-11.37049282992988s"/><path d="M38.4 15.229c.359-1.135.538-2.33.538-3.524C38.938 5.255 33.682 0 27.233 0c-4.48 0-8.361 2.508-10.332 6.21a7.596 7.596 0 0 0-2.329-.358 7.748 7.748 0 0 0-7.764 7.764c0 .538.06 1.075.18 1.553C3.045 15.766 0 19.229 0 23.351a8.284 8.284 0 0 0 8.301 8.301h28.726c4.598 0 8.3-3.703 8.3-8.301-.059-4.061-3.045-7.465-6.927-8.122z" fill="#234"/></g></svg>
