<svg class="icon" viewBox="0 0 1024 1024" xmlns="http://www.w3.org/2000/svg" width="200" height="200"><defs><style>*{text-shadow:transparent 0 0 0,rgba(0,0,0,.68) 0 0 0!important}@font-face{font-family:element-icons;src:url(chrome-extension://moombeodfomdpjnpocobemoiaemednkg/fonts/element-icons.woff) format(&quot;woff&quot;),url(&quot;chrome-extension://moombeodfomdpjnpocobemoiaemednkg/fonts/element-icons.ttf &quot;) format(&quot;truetype&quot;)}</style></defs><path d="M426.68 512.876l.032 63.084-85.29 106.588 85.382 207.93H597.1l85.446-207.898-85.258-106.62 2.594-135.788c-112.618-31.448-159.868-250.652 4.214-259.646 182.602-9.994 121.922 278.508 121.922 278.508C929.732 421.496 945.41.328 608.688.328c-155.024 0-289.064 109.368-289.064 279.82 0 103.934 49.624 181.322 107.056 232.728z" fill="#FFCE54"/><path d="M401.914 488.422l3.436 3.716v-.562c-1.156-1.062-2.31-2.124-3.436-3.154zm202.184-307.898c32.512-1.75 57.306 5.934 76.108 19.738-19.986-26.638-50.748-43.596-97.406-41.036-142.066 7.776-125.732 173.078-45.72 237.722-60.37-73.764-61.306-209.366 67.018-216.424zM791.79 61.352c101.81 116.892 64.678 322.012-61.118 369.168-2.374 17.584-4.652 28.512-4.652 28.512 155.088-28.542 201.184-279.506 65.77-397.68zM599.882 440.17c-7.496-2.124-14.68-5.06-21.55-8.682l-2.374 123.14 85.29 106.65-85.476 207.868H418.06l8.744 21.33H597.1l85.446-207.898-85.258-106.62 2.594-135.788z" fill="#F6BB42"/><path d="M512 639.918c-211.926 0-383.754 171.796-383.754 383.754h767.508c0-211.958-171.828-383.754-383.754-383.754z" fill="#434A54"/><path d="M512 639.918c-7.152 0-14.272.188-21.33.594 202.028 11.054 362.456 178.354 362.456 383.16h42.628c0-211.958-171.828-383.754-383.754-383.754z" fill="#FFF" opacity=".2"/></svg>