<svg fill="currentColor" class="icon" viewBox="0 0 1024 1024" xmlns="http://www.w3.org/2000/svg" width="200" height="200"><path d="M686.97 765.086L571.93 876.287c-19.877 19.92-47.39 28.237-77.76 28.237s-57.882-8.317-77.802-28.237l-184.78-186.102c-19.92-19.92-29.943-49.053-29.943-79.466s10.024-57.882 29.944-77.802L415.814 346.09c19.92-19.92 47.986-27.512 78.356-27.512s57.883 8.318 77.76 28.237l115.04 111.158c21.924 21.967 58.223 21.2 81.043-1.62 22.82-22.864 23.588-59.163 1.664-81.087L658.39 262.828A215.62 215.62 0 00554.1 205.8L659.328 99.035c22.01-21.925 21.242-58.267-1.578-81.087s-59.162-23.545-81.13-1.62L145.81 447.182c-41.845 41.886-63.727 99.683-63.727 163.58 0 63.897 21.882 123.485 63.726 165.287l185.42 186.016c41.844 41.76 99.684 61.935 163.538 61.935s121.693-21.84 163.58-63.726l111.286-112.48c21.924-21.925 21.157-58.224-1.664-81.044s-59.119-23.588-81-1.664zm200.86-209.86H455.099c-29.944 0-54.172 25.763-54.172 57.413s24.228 57.413 54.172 57.413h432.73c29.902 0 54.172-25.763 54.172-57.413s-24.27-57.413-54.171-57.413z"/></svg>