<?xml version="1.0" encoding="utf-8"?>
<!-- Generator: Adobe Illustrator 19.0.0, SVG Export Plug-In . SVG Version: 6.00 Build 0)  -->
<svg version="1.1" id="图层_1" xmlns="http://www.w3.org/2000/svg" xmlns:xlink="http://www.w3.org/1999/xlink" x="0px" y="0px"
	 viewBox="190 300 250 200" style="enable-background:new 0 0 612 792;" xml:space="preserve">
<style type="text/css">
	.st0{fill:#93A1C2;}
	.st1{fill:#A8A9AF;}
	.st2{fill:#DE6337;}
	.st3{fill:#697080;}
	.st4{fill:#7A849A;}
	.st5{fill:#E86B40;}
	.st6{fill:#484E5A;}
	.st7{fill:#9F9E9F;}
	.st8{fill:#747B8C;}
	.st9{fill:#888787;}
	.st10{fill:#97989A;}
	.st11{fill:#606879;}
	.st12{fill:#666D7C;}
	.st13{fill:#6E798F;}
	.st14{fill:#827D7F;}
	.st15{fill:#9C9B9B;}
	.st16{fill:#4B515D;}
	.st17{fill:#636977;}
	.st18{fill:#E1DFE0;}
	.st19{fill:#9D9A96;}
	.st20{fill:#858586;}
	.st21{fill:#717686;}
	.st22{fill:#626774;}
	.st23{fill:#787F8D;}
	.st24{fill:#CCC7C4;}
	.st25{fill:#5D6677;}
	.st26{fill:#6B6A66;}
	.st27{fill:#596273;}
	.st28{fill:#7B808C;}
	.st29{fill:#AAA395;}
	.st30{fill:#A4A4A4;}
	.st31{fill:#AAA9AA;}
	.st32{fill:#98999A;}
	.st33{fill:#7A808B;}
	.st34{fill:#717683;}
	.st35{fill:#FEFEFE;}
	.st36{fill:#E3E2E2;}
	.st37{fill:#626C81;}
	.st38{fill:#F4F1F0;}
	.st39{fill:#636976;}
	.st40{fill:#5B677D;}
	.st41{fill:#292C30;}
	.st42{fill:#647088;}
	.st43{fill:#5D626E;}
	.st44{fill:#828B9D;}
	.st45{fill:#55585F;}
	.st46{fill:#656A77;}
	.st47{fill:#64708A;}
	.st48{fill:#404550;}
	.st49{fill:#7D818A;}
	.st50{fill:#9A9993;}
	.st51{fill:#848FA4;}
	.st52{fill:#4A5059;}
	.st53{fill:#505B6D;}
	.st54{fill:#F5F3F2;}
	.st55{fill:#FCFBFA;}
	.st56{fill:#B5ACAA;}
	.st57{fill:#B5ABA9;}
	.st58{fill:#958C7A;}
	.st59{fill:#9B938F;}
	.st60{fill:#914C36;}
	.st61{fill:#A09D9A;}
	.st62{fill:#DDBBB1;}
	.st63{fill:#F8F2E9;}
	.st64{fill:#EDCFB5;}
	.st65{fill:#D0C571;}
	.st66{fill:#DFDBDB;}
	.st67{fill:#CEC9C8;}
	.st68{fill:#93A2C1;}
	.st69{fill:#827A4E;}
	.st70{fill:#BEAD88;}
	.st71{fill:#A5A5A5;}
	.st72{fill:#E2E1E1;}
	.st73{fill:#999999;}
	.st74{fill:#877F7E;}
	.st75{fill:#866A63;}
	.st76{fill:#6E6867;}
	.st77{fill:#959495;}
	.st78{fill:#784840;}
	.st79{fill:#929699;}
	.st80{fill:#D7D7D7;}
	.st81{fill:#727271;}
	.st82{fill:#E66A3E;}
	.st83{fill:#9A8B66;}
	.st84{fill:#EFD8AC;}
	.st85{fill:#6C7381;}
	.st86{fill:#B2B080;}
	.st87{fill:#F5DEAB;}
	.st88{fill:#8E8D8D;}
	.st89{fill:#F9F8EF;}
	.st90{fill:#FAF8EF;}
	.st91{fill:#F2F0E5;}
	.st92{fill:#F8F6EA;}
	.st93{fill:#A7A161;}
	.st94{fill:#EBEAE1;}
	.st95{fill:#F6F5F5;}
	.st96{fill:#79473E;}
	.st97{fill:#DEDEDE;}
	.st98{fill:#BB5748;}
	.st99{fill:#7A3E36;}
	.st100{fill:#6C3E33;}
	.st101{fill:#8F4A44;}
	.st102{fill:#805145;}
</style>
<g>
	<path class="st0" d="M380.9,372.2c2.9,0.2,4.9,2.1,7.1,3.7c0.8,2.4,2.6,3.1,4.9,3.3c1.3,0.1,2.3,0.6,2.9,1.9
		c-0.2,2.2,1.8,2.5,3,3.5c3.1,2.4,6.4,4.8,8.3,8.4c1.8,3.5,0.7,6-2.8,5.9c-6.1-0.2-11.7,0.5-17,3.7c-3.9-2.9-4-7.7-6.2-11.3
		c3,7.1,6.5,14.3,7.5,22.2c0.1,1,0.8,1.8,1.5,2.5c1.3,1.2,0.9,2.6,0.8,4c0.1,5.5,0.5,11-0.9,16.4c0.2,2-0.5,3.9-1.3,5.6
		c-1.5,3.5-0.4,6.7,0.6,9.9c2.6,4.3,6.7,7,11.1,9.2c0.5,0.3,0.3-0.7,0.5-1c1.4-0.1,1.9-1.6,3-2.2c1.8,0,2.4-1.4,3.2-2.7
		c2.4-3.6,5.3-6.8,8.3-9.8c2.7-2.7,5.7-4.5,9.6-4.5c1.4,0.8,0.9,2,0.7,3.1c-1.5,2-1.8,4.5-3,6.7c-2.1,4.3-4.1,8.7-6.6,12.7
		c-1.6,2.7-1.7,4.2,1.1,6c2.1,1.4,4.4,3.3,2.7,6.5c-4.7,1.7-9.3,1.4-14,0.1c-2.8-2.1-5.9-1.4-8.8-0.6c-11.5,3.4-23.3,5-35.1,6.8
		c-3.9-0.1-7.7,0.5-11.4,1.5c-4.6,1.7-9.2,3.6-13.5,6.2c-3.8,1.4-7.3,3.7-11.4,4.2c-5,0.7-9.4-1.3-13.8-3.3c-2.6-1.2-5.2-2.1-7.9-3
		c-2.9-1.1-5.9-2-8.8-3.1c-8.7-2.7-17.7-3.9-26.8-4.6c-5.8-0.4-8.9-2.9-9.6-7.8c0.3-0.5,0.6-0.8,1.1-1s0.9-0.2,1.4-0.2
		c2.3,0.5,4.7,1.8,6.9-0.4c2.3-1.4,2.4-5.4,6-5.4c1.7,0.3,2.8,1.6,4.1,2.7c9.6,8.6,17.7,9.7,29.1,4.1c1.9-1,3.9-1.9,5.7-3
		c3.5-1.5,6.3-4.6,10.4-4.7c3.2,1.7,4.6,0.9,6.1-3.5c1.2-2,3.1-3.4,4.8-5c5.6-5.3,10.1-11,9.2-19.4c-0.1-1,0.2-2,0.9-2.8
		c2.9,1.9,5.4,4.3,7.9,6.7c4.8,4.6,8.5,4.3,12.4-1c2.8-3.8,3.6-8.2,3.3-12.8c-0.2-1.9-0.2-3.8-0.5-5.5c-0.1,3.4,0.5,6.8,0.2,10.3
		s-1.7,6.4-3.9,9c-3.4,4-6.9,4.1-10.8,0.6c-7.2-6.4-11.2-14.8-15-23.4c-0.3-0.8,0-2.9-2.1-1.8c-3-3.6-3-3.6,0.7-5.1
		c0.5-0.2,0-0.4,0-0.5c-2.5-4-2.7-8.4-2-13c1.8-6.4-2.2-11.5-3.8-17.1c-0.8-2.7-2.4-5-3.5-7.7c-0.5-1.2-0.4,0.7-1,0.5
		c-2,0.1-3.9,0.3-5-2c4.2-3.7,4.2-4,0.6-9.4c-9.9-4.7-19.3-10.5-29.9-13.6c-6.3-1.9-12.5-3.3-19.1-2.8c-1.4,0.1-3.1,0.7-3.6-1.5
		c6.4-8.2,15-12.2,25.1-13c15.7-1.2,29.4,5,43,11.7c4.6,3.1,9.2,6.1,13.7,9.4c4.7,3.4,8.5,7.8,12.8,11.5
		C369.7,366.8,374.6,370.8,380.9,372.2z"/>
	<path class="st1" d="M393.1,478.2c-13.5,5.7-27.7,9.3-41.3,14.8c-6.8,2.7-13.4,5.7-20.8,6.5c-1.3,0.1-2.8,0.8-3.9,0.4
		c-6.7-2.6-14.2-1.1-20.9-3.8c-11.6-4.5-23.9-7.1-36-10c-4.3-1-8.5-2.2-11.5-5.6c-1.5-1.7-3.3-1.4-5-1.4c-4.3-0.1-8.8,0.9-12.7-1.9
		c-0.5-1.7,0.9-2.1,1.9-2.6c4.7,1.3,9.1-0.8,13.7-1c0.5,0,1,0.1,1.4,0.4c3.4,4.4,7.4,6.5,13.5,6.4c7.5-0.1,14.9,1.9,22.3,3.8
		c3.1,0.9,6,2.4,9.1,3.2c5.8,1.9,11.4,4.5,17,6.8c3.7,1.9,7.1,0.1,10.4-1c3-1,5.8-2.4,8.5-4c3.2-2.2,6.9-3.2,10.6-4.3
		c6.9-1.2,13.9-2,20.8-3.7c6.2-1,12.3-2.3,18.4-3.6C390.2,477.1,391.8,476.6,393.1,478.2z"/>
	<path class="st2" d="M243.3,474.8c-0.8,0.8-1.5,1.5-2.3,2.3V477c-4.3,1.2-8.7-0.7-13,0c-6.5,0.9-12.9-0.2-19.2-2
		c-1.2-0.6-2.4-1.2-3.5-1.8c-1.6-1-1.3-2.5-1.1-4c1.3-2.8,3.7-4.6,6.4-6c10.2-5.7,21-9,32.8-8.6c5.6,0.2,11.3-0.5,16.9,0.5
		c1.1,0.4,1.9,1.2,2.2,2.3c0.1,0.5,0,1.1-0.2,1.6c-1.9,1.5-3.9,0.8-5.9,0.2c-6.3-2.3-12.1,0.4-18.1,1.6c-1.4,0.4-2.9,0.6-4.3,1
		c-8.7,1.6-16.9,4.4-24.7,8.4c-0.2,0.1-0.4,0.2-0.4,0.2c0.3,0.8,0.8-0.2,1.1,0.1c3.8,0,7.6,0,11.4,0c3.5,0.1,7.1,0,10.6,0
		c2.3,0,4.7-0.2,7,0.1C241.3,471,243.7,471.4,243.3,474.8z"/>
	<path class="st3" d="M338,344c-9.8-4.5-19.3-9.3-30.2-11.3c-14.7-2.6-27.2,0.7-37.7,11.4c-1.1,0.1-1.6-0.3-1.4-1.5
		c9.2-9.9,20.8-13.9,34-12.7c13.4,1.2,25.7,6.3,37.2,13.1C339.5,343.8,338.5,343.4,338,344z"/>
	<path class="st4" d="M268.8,342.7c0.5,0.5,0.9,1,1.4,1.5c17.9-1.2,33.3,5.9,48,14.8c1.9,1.1,4.5-0.1,5.6,2.3
		c-2.6,1.1-2.1,4.4-4.1,6c-10-14.1-25.1-17-40.8-18.8c-3.1-0.4-6.3,0.4-9.4-0.6c-1.2-0.6-2.2-1.5-2.6-2.8
		C267.5,344.2,268.1,343.4,268.8,342.7z"/>
	<path class="st5" d="M195.7,436.9c11.7-4.5,23.6-8.3,36.4-8c0.3-0.4,0.6-0.4,1,0c3.5,0.4,7,0.7,10.5,1.1c0.6,0.3,0.7,0.8,0.5,1.4
		c-1.6,1.8-3.6,1.7-5.8,1.4c-4-0.5-8.1-0.7-12.1,0.3c-7.8,0.7-15.3,2.7-22.8,5.1c-1.7,0.5-3.5,1.1-5.4,1
		C196.8,438.7,195.7,438.4,195.7,436.9z"/>
	<path class="st6" d="M393.1,478.2c-6.2,0-12,2.4-18,3.3c-1.6,0.2-3.3,0.4-4.9,0.7c-1.7,0.7-3.6,0.2-5.3,1c-1.6,0.7-2.9,0-2.8-2.1
		c11.5-2.1,23.3-3.3,34.5-6.9c3.5-1.1,7.3-0.3,10.8,0.8c0.9,0.3,0.5,0.5,0,0.7s-1,0.3-1.4,0.4C401.4,474.9,397.3,476.9,393.1,478.2z
		"/>
	<path class="st7" d="M185,428.1c-4.6-8.8-4.6-9.2,5-10.7c5.5-0.9,11.1-1.9,16.7-1.4c3.6-0.6,7.1-0.6,10.7,0c3.7,0.3,7.9-1,11,4
		c-3.5-0.6-5.8-2.1-8.4-2c-6-0.6-11.9-0.6-17.9,0c-4.7,0.7-9.4,1.4-14.1,2.1c-3.4,1.2-1.6,3.8-1.5,5.9
		C186.3,426.8,185.9,427.6,185,428.1z"/>
	<path class="st8" d="M387,402c5.1-3.9,11-4.4,17.2-4.2c4.2,0.1,3.1-2.7,1.8-4.7c-2.3-3.4-5.4-6.2-8.6-8.7c-0.8-0.6-4.1-1-1.5-3.4
		c2.9,2.4,6,4.6,8.8,7.2c1.4,1.3,2.8,2.9,3.7,4.6c2.4,5.1,1.2,6.8-4.4,7c-5.6,0.1-11.4-0.4-15.6,4.5
		C387.1,403.9,386.6,403.2,387,402z"/>
	<path class="st9" d="M185,428.1c0.3-0.7,0.6-1.3,0.9-2c2.1,1.2,2.5,3.7,3.9,5.5c1.8,2.8,3.1,5.8,4.6,8.7c0.4,0.7,0.8,1.4,1.4,2
		c0.5,0.4,0.9,0.9,1.3,1.4c1.5,2.2,2.9,4.4,5,6.1c3.4,2.9,5,6.1,2,10.3c-2.6,0.2-0.9-2.5-2.2-3.2c0.4-2.3-1.3-3.5-2.6-5
		C193,444.9,188.4,436.8,185,428.1z"/>
	<path class="st10" d="M256.7,395.3c-1.6-13-1.4-25.9,2.1-38.6c1.2,0.6,1.7,1.6,2,2.8c0.3,5.8-1.4,11.4-1.4,17.2
		c0,3.5,0.4,6.9,0.8,10.3c0.3,2,0.3,4-0.9,5.7c-3.8-0.4-0.8-3.5-2-4.9c-0.1-0.7-1.1,0-0.5-0.2c0.1,0,0.2,0,0.2,0.2
		C257.3,390.4,258.5,392.9,256.7,395.3z"/>
	<path class="st11" d="M420,476c0.1-3.2-2-5.1-4.3-6.5c-2.4-1.4-2.7-2.7-1.3-5.1c2.7-4.7,5.2-9.5,7.7-14.3c1.8,0,1.5,0.9,1,2
		c-1.6,3.4-2.9,7-5,10.1c-2.2,3.4-2.3,5.7,1.6,7.8C422.3,471.6,423.6,473.9,420,476z"/>
	<path class="st12" d="M425.1,440.9c-8.9,3.1-14,10.3-18.9,17.6c-1.2,1.8-2,1.4-2.3-0.6c3.7-5.5,7.7-10.8,12.9-15
		C419.1,441.1,421.6,438.5,425.1,440.9z"/>
	<path class="st13" d="M387,402c0.4,0.8,0.8,1.5,1.2,2.3c0.7,3.9,1.3,7.8,2,11.7c-0.5-0.4-1.4-0.7-1.5-1.2c-2.9-9-5.8-18.1-9.2-27
		C383.3,391.8,384.3,397.4,387,402z"/>
	<path class="st14" d="M208.9,475.1c6.4,0.3,12.7,0.7,19.1,1c0.7,0.5,1.7,0.8,1.1,2c-7.3,2.8-14.2-1.2-21.3-1.5
		c-0.5,0-1.4-0.5-0.8-1.2C207.3,475,208.2,475.2,208.9,475.1z"/>
	<path class="st15" d="M233.1,428.8c-0.3,0-0.7,0-1,0c0.3-8.8,3.8-16.4,10-22.7C237.9,413.2,235.8,421.1,233.1,428.8z"/>
	<path class="st16" d="M364,364.1c-5.1-2.8-8.3-7.8-13-11.1c0-1.8,1-1.7,2.2-1.1c4.7,2.9,8.7,6.5,11.8,11.2
		C365.2,363.9,364.9,364.4,364,364.1z"/>
	<path class="st17" d="M243.6,430.8c0.1-0.3,0-0.6,0-0.9c1.8-6.4,5.4-11.8,9.3-17c0.9-0.3,1.3,0.2,1.6,1c0,2.6-1.2,4.7-2.6,6.8
		c-3.2,3.3-4.6,7.5-5.3,11.9c-0.4,0.7-1,1-1.8,1c-0.5-0.1-0.9-0.3-1.2-0.7C243.3,432.2,243.3,431.5,243.6,430.8z"/>
	<path class="st18" d="M189,432c-1.6-1.7-2.4-3.8-3.1-6c-0.2-2.3-4.7-6.2,2.1-6.1c-0.3,4.3,3.3,7.1,4,11.1
		C191.1,431.8,190,431.7,189,432z"/>
	<path class="st19" d="M237,484.1c-1.2,0.3-1.6,0.6-1.8,0.5c-1.8-0.7-4.9,0.2-5-2.7c-0.1-2.4,2.6-2,4.2-2.5c0.2-0.1,0.3-0.2,0.5-0.2
		c2.7,0.5,7.1-0.8,7.4,2.7C242.5,485.3,238.2,483.4,237,484.1z"/>
	<path class="st20" d="M260.1,359c-1-0.5-1-1.4-1.3-2.3c0.6-5.3,4-8.8,8-11.8c1.4,0.1,2.2,0.8,2.2,2.2
		C265.6,350.8,263.2,355.2,260.1,359z"/>
	<path class="st21" d="M256.7,395.3c0.1-2.8,0.3-5.5,0.5-8.6c1.7,2-0.3,4.7,1.9,6.2c3.4,4.3,3.3,10.3-0.3,13.5
		c-0.3-0.1-0.6-0.2-0.8-0.4C257.6,402.4,257.2,398.9,256.7,395.3z"/>
	<path class="st22" d="M353.2,351.9c-0.8,0.1-1.7,0.2-2.2,1.1c-4.3-3-8.6-6-13-9c0.4-0.8,1.2-1,2-1
		C344.7,345.5,349.1,348.4,353.2,351.9z"/>
	<path class="st23" d="M364,364.1c0.3-0.3,0.7-0.7,1-1c5.3,3,10.7,6.1,16,9.1c-0.4,0.2-1,0.8-1.2,0.7
		C374.1,370.5,368.3,368.6,364,364.1z"/>
	<path class="st24" d="M189,432c0.2-2.7,2-0.6,3-1c0.4,2.5,2.6,3.9,3.8,5.8c0.4,1,1.2,1.3,2.2,1.5c-0.5,2.1-1.7,3-3.8,2.7
		C191.8,438.3,190.6,435.1,189,432z"/>
	<path class="st25" d="M401,460.1c0.5,1,2.7,0.8,2.2,2.2c-0.5,1.4-2,0.6-2.9,0.1c-4.4-2.4-8.5-5-11-9.5c0.1-0.5,0.4-0.8,0.9-1
		C393.2,455.3,396.7,458.3,401,460.1z"/>
	<path class="st26" d="M201.9,456.9c1.4,0.5,0.8,2.3,1.9,3.1c1.8,1.4,1.3,3.5,1.7,5.3c0.3,1.4-0.6,2.7-0.5,4s0.2,2.6,0.3,3.9
		c-2.2,2.3-2.1-0.4-2.3-1.3C201.8,467.1,201.5,462,201.9,456.9z"/>
	<path class="st27" d="M390,451.9c-0.3,0.3-0.6,0.7-0.9,1c-4.2-5.3-1.2-10.6-0.1-15.9c2.5,0.3,1.1,2,1.1,3.2
		C388.8,444.2,389.1,448,390,451.9z"/>
	<path class="st28" d="M390.2,440.3c-0.4-1.1,0.1-2.5-1.1-3.2c0.9-5.6,0.3-11.4,1.8-17c0,0.3,0.1,0.7,0.1,1c0.8,5,0.6,10.1,0.2,15.1
		C391,437.6,391.2,439.1,390.2,440.3z"/>
	<path class="st29" d="M229.1,478.1c-0.4-0.7-0.7-1.4-1.1-2c4.5-0.9,8.7,1.1,13.1,1C237.2,478.9,233.1,478.1,229.1,478.1z"/>
	<path class="st30" d="M202,417.9c6-1.4,11.9-1.4,17.9,0C214,417.9,208,417.9,202,417.9z"/>
	<path class="st31" d="M243.8,415.2c0.2,3.1-1.7,4.9-2.9,8.2C240,418.8,240.3,418.1,243.8,415.2z"/>
	<path class="st32" d="M254.1,414.1c-0.4-0.4-0.8-0.8-1.2-1.2c1.5-2.4,2-5.7,5.2-6.9l-0.1-0.1C259,409.8,257.8,412.5,254.1,414.1z"
		/>
	<path class="st0" d="M391.2,436.1c-0.1-5-0.1-10.1-0.2-15.1C392.6,426.1,392.4,431.1,391.2,436.1z"/>
	<path class="st33" d="M423.1,452.1c-0.1-0.8-0.1-1.6-1-2c1.1-2.1,1.6-4.6,3.8-6C425.4,446.9,425,449.8,423.1,452.1z"/>
	<path class="st34" d="M392.9,379.1c-3.2,2-4.4-1.4-6.4-2.4c0.5-0.3,1-0.6,1.5-0.9C389.7,377,391.3,378.1,392.9,379.1z"/>
	<path class="st30" d="M217.4,415.9c-3.6,0-7.1,0-10.7,0C210.2,414.8,213.8,414.8,217.4,415.9z"/>
	<path class="st35" d="M254.1,414.1c1.7-2.5,4-4.8,3.9-8.2c3.3-4.1,2-8.6,1.1-13c-1.5-11.3-1.5-22.6,1-33.9c1.6-5,3.9-9.5,8.9-11.9
		c17.6-2.1,32.9,4,47.6,12.8c3.4,2,1.1,5.3,3.3,7.2c1.6,0.9,2.1,2.4,2.1,4.1c1.1,2,3.8-0.1,5,1.8c5.6,7,8.5,15.1,9,24
		c0.1,4.3-0.1,8.6,1.7,12.7c0.4,0.9,1,1.7-1.4,2c-2.9,0.4,0.2,2.8,0.6,4.3c3.6,5.6,7.1,11.3,8.3,18c2.1,13.2-6.6,20.5-15,28
		c-1.4,2.5-3.9,2.5-6.3,2.7c-3.3,1.8-6.5,3.6-9.8,5.3c-6,2.1-12.3,2.7-18.6,3.1c-7.9,0.6-14.3-3.5-20.7-7.5
		c-4.1-0.7-6.7-3.6-9.5-6.2c-0.8-1-1.3-2.2-1.5-3.5c-1-3.4-0.9-6.8,0.1-10.1c0.7-2.4,0.7-4.8,0.2-7.2c0-0.5,0.1-1,0.3-1.4
		c0.4-0.5-0.2,0,0.2-0.4c5.1-5.2,6.6-11,3.7-15.3c1.5,2.7-3.6,5.8-4,10c-0.4,1.6-1,3.2-1.4,4.8c-1.4,2.5,1,5.4-0.7,7.9
		c-2,0.6-3.2-0.8-4.2-2c-3.3-3.8-5.8-8.1-7.8-12.6c-1.5-3.3-0.8-6.4,1-9.4C252.1,418.1,253.1,416.1,254.1,414.1z"/>
	<path class="st36" d="M273.8,465.1c4.8,0,8.2,3.5,12.3,5.2c6.4,2.7,12.8,1.2,19.1,0.4c3-0.4,5.9-0.5,8.9-0.6
		c-3.2,1.7-6.3,3.7-9.6,5.2c-9.9,4.3-18.4,1.1-26.1-5.3c-1.5-1.3-3-2.6-4.5-3.9c-0.2-0.2-0.3-0.4-0.2-0.6
		C273.7,465.2,273.8,465.1,273.8,465.1z"/>
	<path class="st37" d="M345.1,434c-2.8-6-5.5-12-8.3-18c1.8-3.2,2.1,0,2.4,0.7c1.8,4.9,4.6,9.2,7,13.8c1.9,3.6,4.2,6.8,7.2,9.5
		c4.3,3.9,7.8,3.6,11.1-1.4c3.8-5.6,2.5-11.8,2.2-17.9c-0.1-1.1-1.2-2.1,0.1-3.1c5.6,8.7,2.3,20.9-3.7,25.6
		c-2.4,1.9-5.2,2.8-7.9,0.9C351.4,441.3,347.5,438.4,345.1,434z"/>
	<path class="st38" d="M261.9,458.7c0-0.3,0-0.5,0.1-0.8c1.9-0.6,2.7,1,3.8,1.9c0.5,0.4,1,0.9,1.5,1.3c5,4,5,6.4,0,10.5
		c-1.7,0.9-3.4,1.2-5.2,0.5c-0.3-0.1-0.7-0.1-1-0.2c-1.4-1.5-4.6,0.3-5.1-2.8c1.8-2.5,5.2-1.9,7.5-4c-3.1,0.4-5.4,2.1-8.1,2.7
		c-1.6,0.2-3.2,0.1-3.8-1.8c0-3.2,2.1-4.1,4.7-4.4C258.5,461.5,260.7,461,261.9,458.7z"/>
	<path class="st39" d="M294,485c-6.7-1-13.2-2.8-19.9-3.6c-2.7-0.3-5.3,1-7.8,0.2c-4-1.4-7.2-3.9-9.1-7.8c-0.9-1-1.1-2.2,0.1-2.8
		c1-0.6,2.5-1,2.7,1.1c0,4.1,3.8,6.9,9,7.1c9.2,0.4,18.3,1.7,27.2,4.7C295.8,484.9,294.6,484.4,294,485z"/>
	<path class="st40" d="M329,488.6c-4-4.1-7.8-8.4-12.3-12.2c-2,3.2,1.5,6-0.2,8.9c-0.4-0.3-1-0.5-1.1-0.9c-1.1-3.3-3.3-7.6-0.5-9.7
		c3.4-2.4,5.5,2.3,7.8,4.4C328.6,484.6,328.5,484.8,329,488.6z"/>
	<path class="st41" d="M322,371.2c-1.3-1.1-1.5-2.7-2.1-4.1c0.8-2.3-2-6.9,3.9-5.8c0.6,1.2,1.2,2.4,1.8,3.5
		C327.6,368.7,326.7,371,322,371.2z"/>
	<path class="st42" d="M349.2,374.2c1.4,2.5,2.7,5.1,0.8,7.5c-2,2.5-4.8,1.3-7.3,0.7c-3.6-1-6.6-2.9-9.6-5.9
		c3.5-0.7,5.1,1.8,7.3,2.7c6.3,2.6,6.6,2.6,7.8-4C348.2,374.9,348.8,374.6,349.2,374.2z"/>
	<path class="st43" d="M362,481.1c2.3,3.6,5.6-0.4,8.1,1c-6.9,2.4-14,3.2-21.2,3.8c-0.3-2.3,2-1.6,2.8-2.6c0.7,0,0-0.7,0-0.1
		c0,0.2-0.5,0.3-0.9,0.2c-0.5-0.1-0.9-0.3-1.2-0.7C353.8,481.3,357.8,480.6,362,481.1z"/>
	<path class="st44" d="M336,397c-1.9-8.4-4.9-16.4-9-24c0.2-0.7,0.6-2.1,1.3-1c4.3,7.2,7.6,14.9,8.6,23.3
		C337,395.9,336.3,396.5,336,397z"/>
	<path class="st45" d="M339,490c-4.2,3.2-9,4.8-14,6c-1.9,0.5-3.6,0.7-5-1c1.2-3.2,4.3-0.4,6-2c3.7-1.4,7.3-2.8,11-4.1
		C337.5,489.6,338.6,489.2,339,490z"/>
	<path class="st46" d="M326,493.1c-1.6,2-4.5-0.2-6,2c-5.7-2.3-11.4-4.6-17.1-6.9c0.1-0.7,0.6-1.1,1.2-1.3c3.2,0.3,6,1.7,8.8,3
		C317,491.8,321.2,493.6,326,493.1z"/>
	<path class="st47" d="M356.4,390.1c1.1,2.4,1.2,4.3-1.2,5.6c-3,1.6-8.8-2-12-7.3c2.7-0.3,3.8,2,5.4,3
		C353.3,394.4,353.2,394.6,356.4,390.1z"/>
	<path class="st48" d="M339,490c-0.8-0.1-1.6-0.2-2.1-1.1c4-2.7,8.4-4.5,12.9-6.1c0.8,0.3,2.4-0.3,2.4,0.8c0,1.7-2.5,0.9-3.2,2.3
		C345.7,487.3,342.3,488.7,339,490z"/>
	<path class="st49" d="M267,471c4.1-4.7,4.1-4.9-2-11c-0.1-1,0.2-1.5,1.3-1.2c2.5,2.1,5.1,4.2,7.6,6.3c0.1,0.3,0.1,0.6,0,0.9
		c-2.6,1.2-2.1,4.9-4.8,6C268.5,471.4,267.4,471.8,267,471z"/>
	<path class="st50" d="M260,472c-2.4-1.8-3-0.6-2.9,1.7c-0.1,0.1-0.2,0.3-0.3,0.5c-2.3-0.5-4.5-0.1-6.8,0.5
		c-2.5,0.7-5.3,0.6-4.5-3.5c0.5-0.6,1.2-0.8,1.9-0.7c0.9-0.4,0.3,1.9,1.7,0.8c1.9-1.5,3.6-3.3,6.4-2.8c0.2,0.1,0.4,0.3,0.5,0.4
		c1,2,4.6-0.3,5,2.9C260.7,472,260.4,472,260,472z"/>
	<path class="st51" d="M323.8,464.7c1.5-2.2,4.4-1.2,6.3-2.7c1.5,0.2,1.5,0.8,0.6,1.8c-1.6,1.9-4.3,2.5-5.3,4.8
		C323.3,467.7,324.3,466,323.8,464.7z"/>
	<path class="st52" d="M304.1,486.9c-0.4,0.4-0.8,0.8-1.2,1.3c-3.2-0.5-6-2-8.9-3.2c0.5-0.9,1.4-1,2.2-1.2
		C298.9,484.7,301.7,485.3,304.1,486.9z"/>
	<path class="st53" d="M267,471c0.8,0.1,1.6,0.1,2,1c-2.3,2.2-4.6,2.1-6.9,0.1C263.7,471.7,265.4,471.4,267,471z"/>
	<path class="st54" d="M246.1,471c0,4.8,3,3.5,5.3,2.3s3.9-1.1,5.5,0.9c-3.3,0.8-6.7,1.4-9.9,2.4c-2.1,0.7-2-2.1-3.6-1.8
		c-2.7-5-7.5-1.8-11.2-3c-0.3-0.5-0.3-0.9,0.1-1.4c3.5-2.3,7.3-3.2,11.4-3.3c1.4,0.3,2.2,1.2,2.7,2.4
		C246.5,470.1,246.4,470.5,246.1,471z"/>
	<path class="st55" d="M265,438c0.6,2.4,1.1,4.6,0.2,7.2c-1.3,3.6-1,7.4-0.4,11.1c-1.8,0-2.5-1.3-3.1-2.7c-0.2,0.9,0.2,2-0.7,2.7
		c-14.5-1.5-28.9-1.2-42.7,4.4c-5,2-9.5,4.7-13.4,8.5c-1.7-1-0.6-2.2-0.2-3.3c0.9-2,0.6-4.3,0.8-6.4c0.2-2.3,0.7-4.3,3.5-4.7
		c1.9-0.3,3.9,1.1,5.8,0c3-1.2,4-3.7,4.7-6.6c1.1-4.7,2.5-5.1,6.5-2.5c2.2,1.5,4.3,3.3,6.9,4.1c3.6,1.2,7.2,1.7,9.6-2.5
		c1.9-3.3,5.2-2.2,8.1-2.4c2.7,0.6,4.9,3.1,7.9,2.6c3.5-0.2,4.4-2.4,4.1-5.4c-0.1-1.1-0.8-2.2-0.2-3.3
		C263.2,438.1,263.9,437.5,265,438z"/>
	<path class="st56" d="M245.8,470.1c-0.6-0.7-1.2-1.5-1.9-2.2c-0.3-1.6,0-3.4-1.8-4.6c-1.2-0.8-2.2-2.1-0.5-3.5
		c5-1.7,10.1-2.6,15.3-1.2c1.6,0,3.3,0.1,4.9,0.1c0.6,3.4-1.2,4.5-4.2,4.3c-2.6-0.1-4.9,0.2-5.9,3.1
		C249.9,467.6,247.7,468.6,245.8,470.1z"/>
	<path class="st57" d="M221.1,471.9c-4.1-0.1-8.3,1.1-12.3-0.7c5.5-4.5,11.7-7.1,19-6.5c0.5,0.2,0.8,0.5,1.2,0.9
		c0.7,1.4-0.2,2.2-1.3,2.8c-1.7,0.2-1.9,1.9-2.8,2.9C223.6,471.7,222.2,471.1,221.1,471.9z"/>
	<path class="st58" d="M229,466.2c-0.4-0.1-0.7-0.2-1.1-0.2c0.3-3.7,3.4-3.3,5.8-4.2c0,0,0.2,0,0.5-0.2c0.8-0.6-0.5-0.3-0.3-0.7
		c1.2-1.2,2.6-0.8,4-0.8c1.2-0.1,2.4-0.3,3.2,1c1.4,2.1,7.1,2.3,2.9,6.7c-4,1-8.1,2-12.1,3c-0.4,0.4-0.8,0.5-1.2,0.2
		c-0.6-0.4-1-1-0.9-1.8c2.9-3.1,7-2.6,10.9-4c-1.9-1.1-3.7-0.7-5.4-0.2C233.2,465.6,231.3,466.9,229,466.2z"/>
	<path class="st59" d="M233.9,460.9c0.6,0.1,1.3,0.1,2.2,0.2c-2.2,2.7-6.4,1.8-8.1,4.9c-6.8-1.8-12,2.5-17.9,4.4
		c-0.5,0.1-0.9,0.5-1.3,0.7c-2.9-1.1,0-1.6,0.3-1.8C216.8,464.9,225,461.9,233.9,460.9z"/>
	<path class="st60" d="M241.1,461.2c-1.1-0.2-2.4,0-3.2-1c5.4-2.6,11.1-3.3,17-3.1c1.1,0,1.9,0.5,2.1,1.6
		C251.7,459.6,246,458.1,241.1,461.2z"/>
	<path class="st61" d="M261.1,456.4c0-2-1.8-3.9-0.2-6.4c1.8,2.1,1.6,5.1,3.9,6.3c0.5,0.8,0.9,1.7,1.4,2.5c-0.4,0.4-0.8,0.8-1.3,1.2
		c-1-0.7-2-1.4-3-2.1C261.7,457.4,261.4,456.9,261.1,456.4z"/>
	<path class="st62" d="M231,470.8c0.3,0,0.6,0.1,0.9,0.1c0.1,0.3,0.1,0.6,0.1,0.9c-3.7,0-7.3,0-11,0c1.1-1.3,2.7-0.7,4-1
		C227,469.1,229,470.1,231,470.8z"/>
	<path class="st63" d="M194.1,441c1.3-0.9,2.6-1.8,3.8-2.7c9.2-2.5,18.1-6.2,27.9-6.5c1.9-0.1,3.9-1.1,5.4,0.8
		c-0.5,1.3-1.7,1.5-2.8,1.7c-10.5,1.5-20.8,3.5-30.5,8.1c-0.9,0.4-1.9,0.2-2.9,0.4C194.1,442.5,194.1,441.7,194.1,441z"/>
	<path class="st64" d="M230.9,432.8c-1.5-1.5-3.5-0.5-5.2-1.1c4-1.5,8.1-0.8,12.1-0.5c2,0.2,3.9,0.2,5.7-0.5c0,0.7,0.1,1.5,0.1,2.2
		C239.4,435.3,235.2,435.3,230.9,432.8z"/>
	<path class="st65" d="M230.9,432.8c4.3,0.1,8.5,0.1,12.8,0.2h0.4c0.8,1,1,2.1,0.8,3.4c-0.2,1.5-2,3.4,1.1,4c1.1,0.2,2.1,0.5,3,1
		c0.7,0.5,1.2,1.1,1.6,1.9c0.3,0.8,0.7,1.6,0.1,2.4c-3.3,0.8-6.9,0.4-8.9,4.8c-1.4,3.1-5.6,1.9-8.6,1c-3.1-1-5.9-2.9-8.5-5
		c-2.3-1.9-3.6-1.9-3.9,1.6c-0.3,3.7-1.4,7.2-5.9,8.1c-2.1,0.1-3.9-1.3-6.1-1.2c-3.3-1.1-5-4.1-7.5-6.1c-1.9-1.5-3.4-3.5-5.6-4.8
		c-0.3-0.4-0.6-0.8-0.9-1.2C206,436,218.4,434.1,230.9,432.8z"/>
	<path class="st66" d="M202,448c2.4,2,4.8,4,7.1,6c0.4,0.6,1.3,0.9,1,1.8c-3-0.1-3.1,1.8-3.3,4.1c-0.2,2.1,1.7,5.1-2,6
		c-1.3-1.8-0.5-4-1-6c1.6-4.1,0.1-7.2-3-9.9C200.5,449,201,448.4,202,448z"/>
	<path class="st67" d="M202,448c-0.4,0.7-0.8,1.4-1.2,2.2c-2.2-1.6-3.5-3.9-4.9-6.2C198.6,444.4,200.4,446,202,448z"/>
	<path class="st68" d="M250,443.6c-0.3-0.5-0.7-1-1-1.5c-2.4-2.6-5.2-5-3.3-9.1c0.2-5,1.6-9.5,5.4-12.9
		c-2.2,10.6,4.2,17.2,10.8,23.8c1.3,2.7-0.4,3.5-2.6,4C255.4,448.4,252.8,445.9,250,443.6z"/>
	<path class="st69" d="M245.7,433c-0.2,3.5,2.6,5.9,3.3,9.1c-0.9-0.3-1.8-0.7-2.7-1c-2.4-0.5-2.3-2.4-2.3-4.2c0-1.3,0-2.6,0-3.9
		C244.6,433,245.2,433,245.7,433z"/>
	<path class="st70" d="M238.8,481.7c-2.3,1.6-3.7,1.6-5.4,0C235.3,480.6,236.7,480.8,238.8,481.7z"/>
	<path class="st71" d="M265.9,374.9c2.7-10,9.5-13.8,19.1-10.3c3.9,1.4,7.8,2.8,11.2,5.2c-0.1,1.2,0.1,2.4-0.5,3.5
		c-0.4,0.6-1,1-1.8,0.7c-3.5-4.9-8.9-6.1-14.2-7.5c-2.5-0.6-4.4,0.9-6.3,2.4c-2.2,1.8-3.2,4.6-5.4,6.5
		C267.1,375.6,266.4,375.5,265.9,374.9z"/>
	<path class="st72" d="M280,428c-0.8-1-1.5-2.7-2.8-0.7c-0.8,1.2-1.3,2-2.5,0.7c-0.9-1-0.5-1.9,0.3-3c3.6-4.5,9.9-5.7,15.2-2.8
		C287.7,425.7,284.3,427.6,280,428z"/>
	<path class="st73" d="M263.1,431c0-0.3-0.1-0.7,0.1-1c2.5-4.6,5.1-9.2,2.1-14.7c7.4,6.5,7.2,14.4,0,21.8c-2.1-0.9-2.4-2.3-1.3-4.2
		c2.2-1.8,2.2-1.8,3.7-4.6c-1.4,0.7-1.3,2.4-2.5,3C264.3,431.6,263.7,431.6,263.1,431z"/>
	<path class="st74" d="M265.9,374.9c0.7,0,1.4,0.1,2.1,0.1c1.3,0,2.3,0.5,2.3,2c-1.3,1.9-2.4,3.9-3.2,6c-0.2,0.6-0.4,1.1-0.3,1.7
		c2.6,2,5.5,0.6,8.3,0.9c4,0,7.9,0,11.9,0c2.7,0.6,6.2-1.5,8,2.3c-8.9,0.1-17.8,0-26.7,0.2c-3.6,0.1-4.8-1.2-4.3-4.6
		C264.4,380.6,264.6,377.7,265.9,374.9z"/>
	<path class="st75" d="M295,387.9c-2.5-1.8-5.5-0.5-8.2-1.1c-0.1-0.6,0.2-1.1,0.7-1.4c9.3-1,18.5-1,26.8,4.1c0.2,0.6,0,1.2-0.4,1.6
		C307.7,390,301.3,389,295,387.9z"/>
	<path class="st76" d="M295,373c-0.1-1.2-0.3-2.5,1.1-3.1c5,3,9.9,5.9,14.9,8.9c1.7,1,3,2.5,3.8,4.3c-0.3,0.3-0.7,0.6-1.2,0.7
		c-2.1-0.2-3.9-1-5.5-2.5c-2.5-2.8-5.4-5-9.2-5.7C297.4,375.1,296.4,373.7,295,373z"/>
	<path class="st77" d="M280,428c3.4-1.9,6.8-3.9,10.2-5.8c0.9,0,1.7,0,2.6,0c0.6,4.7-3.3,3.9-5.9,4.7c-1.7,1-3.4,2.1-5.2,3
		C279.8,430.6,279.2,429.9,280,428z"/>
	<path class="st78" d="M314.1,383.1c0.2,0,0.5,0,0.7-0.1c1.6,1.4,3.3,2.7,4.7,4.3c1.2,1.3,2.5,3,1.2,4.9s-3,0.2-4.5-0.1
		c-0.8-0.2-1.5-0.6-2.3-0.9c0-0.5-0.1-0.9-0.1-1.4c1.6-1.1,2.9-1,4,0.2C317.1,387.8,312.3,387.1,314.1,383.1z"/>
	<path class="st79" d="M259,447.1c1.9-0.2,3-1.1,3-3.2c0.2-2.7-1.8-5.4,0-8c1.3,0.8,1.2,2.1,1.3,3.3c-0.3,2.3,1.3,4.5,0.3,6.9
		c-0.9,2-1.9,3.6-4.4,3C258.4,448.4,258.4,447.7,259,447.1z"/>
	<path class="st80" d="M286.9,426.8c1.4-2.3,5.5-1.1,5.9-4.7c1.4,0.7,2.4,2.3,4.3,1.9c0.3,1.8-1.2,1.6-2.2,2
		c-1.2,0.4-2.7,0.4-2.7,2.2C289.7,430.2,288.6,427.5,286.9,426.8z"/>
	<path class="st71" d="M292.1,428.3c-1.5-0.4-2.2-1.1-0.4-2c1.7-0.9,3.5-1.4,5.3-2.1c0.8,0.2,1.9,0.1,2.2,0.6c0.7,1-0.5,1.2-1.2,1.5
		C296.1,426.9,294.1,427.6,292.1,428.3z"/>
	<path class="st81" d="M263.2,439.1c-1.3-0.7-1-2.1-1.3-3.3c0.4-1.6,0.8-3.2,1.2-4.8c0.6,0,1.2,0,1.9,0c0.6,0.7,0.7,1.3-0.1,1.9
		c-1.6,1.5-0.4,2.9,0.3,4.2c-0.1,0.3-0.2,0.6-0.2,0.8C264.4,438.4,263.8,438.8,263.2,439.1z"/>
	<path class="st82" d="M256,466.9c2.3-1.1,4.6-2.3,6.9-3.4c1-0.5,2.3-1,3,0.4c0.8,1.6-0.5,2.5-1.8,2.9c-2.6,0.8-5.3,1.5-8,2.2v-0.1
		c-0.4-0.2-0.6-0.5-0.7-1C255.5,467.5,255.7,467.2,256,466.9z"/>
	<path class="st83" d="M256,466.9c0,0.4,0,0.8,0,1.2c-2.9,0.5-5.4,2.2-8.4,2.8c-0.5,0-1,0-1.6,0c-0.1-0.3-0.2-0.6-0.2-0.8
		c0.7-3.3,3.2-3.8,5.9-4C253,467.4,254.5,467,256,466.9z"/>
	<path class="st84" d="M247.6,470.9c1.9-3.6,5.4-2.5,8.4-2.8c0.1,0.3,0.1,0.5,0.1,0.8c-2.2-0.2-3.5,1.6-5.1,2.5
		C249.8,472.1,248.4,473.4,247.6,470.9z"/>
	<path class="st85" d="M259,447.1c0,0.6,0,1.3,0,1.9c-3.4,0.5-5.7-1.6-8.2-3.3c-0.3-0.7-0.5-1.4-0.8-2.1
		C253.4,443.8,255.4,447.4,259,447.1z"/>
	<path class="st86" d="M210.2,455.8c-0.3-0.6-0.7-1.2-1-1.8c2.1,0.2,4.3,0.5,5.9,2.1C213.3,457.9,211.8,456,210.2,455.8z"/>
	<path class="st87" d="M229,466.2c4.3-1.7,8.5-4.9,14-1.2c-4.3,3.3-9.4,2.1-13.1,4.9c-1.4,0.9-2.7,0.7-3.7-0.6
		c-0.5-0.6-0.7-1.5,0.7-1.4C228,467.8,228.5,467.1,229,466.2z"/>
	<path class="st88" d="M226.9,468c-0.3,2.6,1.7,1.9,3.1,2c0.3,0.3,0.7,0.5,1,0.8c-2,0-3.9,0.1-5.9,0.1
		C224.3,469,223.7,467.3,226.9,468z"/>
	<path class="st89" d="M217,444c0.2-2.4-0.4-5.3,3-5.9c2.8-0.5,5.3-1.3,7.2,2.4c1.7,3.3,5.5,4,9.2,3.7c1.8-0.2,3.7-0.4,3.3,2.2
		c-0.3,2.4-2.4,2.1-3.9,1.7c-3.8-0.9-6.9-3.2-9.9-5.6C220.5,438.1,220,438.2,217,444L217,444z"/>
	<path class="st90" d="M217,444c0,0.8,0.2,1.7,0.1,2.5c-0.1,1.9,0.4,4.3-1.9,5.3c-2.1,1-3.9-0.4-5.4-1.7c-2.8-2.3-6.1-4.1-8.3-7.3
		c1.8-1.8,3.2-0.8,4.6,0.5c1,0.9,1.9,1.9,3,2.7C212.5,448.6,215.4,448.7,217,444L217,444z"/>
	<path class="st91" d="M237,436.8c0.9,0.3,2.7-0.5,2.3,1.5c-0.5,2.2-2.3,3.7-4.2,3.2c-2.7-0.6-5.8-1.1-6.9-4.4
		C231,434.9,234,436.6,237,436.8z"/>
	<path class="st92" d="M214.4,441.1c-0.9,1.1,0.5,4.1-2.5,3.8c-2.1-0.2-4.4-1.7-4.2-3.4c0.4-2.5,3.6-1.4,5.4-2.2
		C214.3,438.8,214.9,439.8,214.4,441.1z"/>
	<path class="st93" d="M237,436.8c-3,0.1-5.9,0.2-8.9,0.3c-0.7-1.1-2-0.9-4.2-1.7C229.2,434.8,233.2,434.5,237,436.8z"/>
	<path class="st94" d="M244.1,436.9c0.8,1.4,1.5,2.8,2.3,4.2c-1.4,1.4-2.5,0.4-3.3-0.6C241.8,438.9,242.9,437.9,244.1,436.9z"/>
	<path class="st95" d="M270.1,377c-0.7-0.7-1.4-1.3-2.1-2c3.1-8.9,8-11.4,16.7-8.3c2.3,0.8,4.5,2.1,6.8,2.9c2.1,0.8,2.7,2.2,2.5,4.2
		c-0.9,4-3.5,5.2-6.8,3c-2.4-1.5-4.1-3.8-6.1-5.7c-1-0.8-1.9-2.1-2.9,0c-0.9,2.1-1.3,4.5-2.8,6.4C273.3,379,271.5,379.6,270.1,377z"
		/>
	<path class="st96" d="M280.9,369.8c2.4,1,3.7,3.3,5.5,5c3.7,3.5,4.7,3.4,7.6-0.9c0.4-0.3,0.7-0.6,1.1-0.9c2.5-1.6,2.7,1.3,4,2
		c2.1,0.8,3.8,2.1,4.2,4.6c-1.6,2-3.1,0.6-4.2-0.4c-1.8-1.7-3.2-1.3-5.3-0.2c-5.1,2.8-14-2.6-14-8.4
		C279.7,370.1,280.3,369.8,280.9,369.8z"/>
	<path class="st97" d="M264.8,432.9c0-0.6,0.1-1.3,0.1-1.9c0.6-2,1-4.1,2.8-5.5C269.3,429.7,268.6,431.5,264.8,432.9z"/>
	<path class="st98" d="M280.9,369.8c0.6,4.4,3.7,6.8,7.2,8.7c2.8,1.5,5.1,0.4,6.8-2.2c1.2-1.9,2.1-0.5,3.2,0.3
		c1.6,1.1,2.3,4,5.1,2.9c2.3-1.4,3.8,0.6,5.5,1.5c1.8,0.7,3.6,1.4,5.4,2.2c0,3.2,3.8,4,4.6,7.1c-1.7-0.2-3.3-0.3-4.8-0.5
		c-8.7-3.2-17.7-3.8-26.9-3.7c-4.2,1-8.4,0.2-12.6,0.5c-1.9,0-3.9-0.1-5.8,0c-2,0.2-3-0.7-3.5-2.5c0.3-0.4,0.7-0.7,1-1.1
		c2.2-2,4.2-4.2,7.5-4.3c1.3-0.1,2.3-1.2,2.6-2.7c0.9-1.8,1.3-3.8,1.4-5.8C278.3,367,279.6,368,280.9,369.8z"/>
	<path class="st99" d="M276.9,376.1c0.1,1.3-0.5,2.3-1.7,2.8c-3,1.4-6.1,2.7-9.2,4.1c1.6-1.8,0.9-5.2,4-6c1.6,1.2,3.2,1,4.8,0
		C275.5,376.6,275.8,375.4,276.9,376.1z"/>
	<path class="st100" d="M274,386.1c4.3,0,8.7,0,13-0.1c0,0.3-0.1,0.5-0.2,0.8c-4.2,0-8.5,0-12.7,0c-0.4-0.2-0.5-0.3-0.4-0.5
		C273.8,386.1,273.9,386.1,274,386.1z"/>
	<path class="st101" d="M274,386.1c0,0.3,0,0.5,0,0.8c-2.1,0-4.2,0.1-6.3,0.2c-2.1,0.1-3-0.8-2.7-2.9
		C267.5,387.3,271,385.5,274,386.1z"/>
	<path class="st35" d="M308.7,380.9c-2.1,0.4-3.6-1.2-5.5-1.5c-1.9-0.9-2.6-3.1-4.1-4.4C302.3,374.4,306.8,377.3,308.7,380.9z"/>
	<path class="st102" d="M276.9,376.1c-0.7,0.3-1.4,0.6-2,0.9c0.9-2.3,1.8-4.6,2.6-6.9C278.5,372.2,278,374.2,276.9,376.1z"/>
</g>
</svg>
