<svg t="1596041182573" class="icon" viewBox="0 0 1024 1024" version="1.1" xmlns="http://www.w3.org/2000/svg" p-id="9451" fill="#929999"><path d="M1002.325333 267.776L756.394667 21.802667a63.189333 63.189333 0 0 0-98.133334 10.794666l-174.933333 274.901334a318.634667 318.634667 0 0 0-233.301333 34.133333 63.189333 63.189333 0 0 0-12.8 99.2l345.813333 345.813333a64 64 0 0 0 52.736 18.005334A63.274667 63.274667 0 0 0 682.666667 773.888a316.757333 316.757333 0 0 0 34.133333-233.258667l274.901333-174.933333a63.146667 63.146667 0 0 0 10.794667-97.92z m-264.533333-121.514667l-90.453333 142.208a21.717333 21.717333 0 0 1-29.482667 6.528 21.333333 21.333333 0 0 1-6.528-29.44l90.496-142.165333a21.333333 21.333333 0 1 1 35.968 22.869333zM275.370667 658.304l-253.44 253.397333a64 64 0 0 0 0 90.538667 64.725333 64.725333 0 0 0 90.496 0l253.44-253.44a64 64 0 1 0-90.496-90.496z" p-id="9452"></path></svg>
