<svg class="icon" viewBox="0 0 1024 1024" xmlns="http://www.w3.org/2000/svg" fill="#929999"><path d="M1002.325 267.776L756.395 21.803a63.19 63.19 0 0 0-98.134 10.794L483.328 307.5a318.635 318.635 0 0 0-233.301 34.133 63.19 63.19 0 0 0-12.8 99.2L583.04 786.645a64 64 0 0 0 52.736 18.006 63.275 63.275 0 0 0 46.89-30.763A316.757 316.757 0 0 0 716.8 540.629l274.901-174.933a63.147 63.147 0 0 0 10.795-97.92zM737.792 146.261L647.339 288.47a21.717 21.717 0 0 1-29.483 6.528 21.333 21.333 0 0 1-6.528-29.44l90.496-142.165a21.333 21.333 0 1 1 35.968 22.87zM275.371 658.304L21.93 911.701a64 64 0 0 0 0 90.539 64.725 64.725 0 0 0 90.496 0l253.44-253.44a64 64 0 1 0-90.496-90.496z"/></svg>
