<svg class="icon" viewBox="0 0 1024 1024" xmlns="http://www.w3.org/2000/svg" width="200" height="200"><path d="M895.2 893.7H128.8c-4.4 0-8-3.6-8-8V243.6c0-4.4 3.6-8 8-8h766.4c4.4 0 8 3.6 8 8v642.1c0 4.4-3.6 8-8 8z" fill="#FFF"/><path d="M891.7 898H132.3c-8.7 0-15.9-7.1-15.9-15.9v-635c0-8.7 7.1-15.9 15.9-15.9h759.3c8.7 0 15.9 7.1 15.9 15.9v635.1c0 8.7-7.1 15.8-15.8 15.8zM132.3 239.9c-4 0-7.2 3.2-7.2 7.2v635.1c0 4 3.2 7.2 7.2 7.2h759.3c4 0 7.2-3.2 7.2-7.2V247.1c0-4-3.2-7.2-7.2-7.2H132.3z" fill="#262626"/><path d="M182.5 315c-9.5 0-17.3 7.8-17.3 17.3v502.3c0 9.5 7.8 17.3 17.3 17.3h251.2L591.2 315H182.5z" fill="#FCE8DD"/><path d="M834.7 315H591.2L433.7 851.9h400.9c9.5 0 17.3-7.8 17.3-17.3V332.3c.1-9.5-7.7-17.3-17.2-17.3z" fill="#D2B7AE"/><path d="M954.6 257.7H69.4l55.7-127.4h773.8z" fill="#FFF"/><path d="M954.6 262H69.4c-1.5 0-2.8-.7-3.6-2-.8-1.2-.9-2.8-.3-4.1l55.6-127.4c.7-1.6 2.2-2.6 4-2.6H899c1.7 0 3.3 1 4 2.6L958.5 256c.6 1.3.5 2.9-.3 4.1-.8 1.2-2.2 1.9-3.6 1.9zm-878.5-8.6H948l-51.8-118.8H127.9L76.1 253.4z" fill="#262626"/><path d="M950.6 333.1H73.4c-2.2 0-4-1.8-4-4v-71.4h885.1v71.4c.1 2.2-1.7 4-3.9 4z" fill="#FFF"/><path d="M948.8 337.4H75.2c-5.6 0-10.1-4.5-10.1-10.1v-69.7c0-2.4 1.9-4.3 4.3-4.3h885.1c2.4 0 4.3 1.9 4.3 4.3v69.7c.1 5.6-4.5 10.1-10 10.1zM73.8 262v65.3c0 .8.6 1.4 1.4 1.4h873.6c.8 0 1.4-.6 1.4-1.4V262H73.8z" fill="#262626"/></svg>
