<?xml version="1.0" encoding="utf-8"?>
<!-- Generator: Adobe Illustrator 19.0.0, SVG Export Plug-In . SVG Version: 6.00 Build 0)  -->
<svg version="1.2" baseProfile="tiny" id="图层_1"
	 xmlns="http://www.w3.org/2000/svg" xmlns:xlink="http://www.w3.org/1999/xlink" x="0px" y="0px" viewBox="190 300 250 200"
	 xml:space="preserve">
<g>
	<path fill="#5E6571" d="M280,475.5c-3.9-2.3-6.7-5.5-8.1-9.9c-0.7-1.2-0.5-2.1,1-2.3c1.9,0.7,2.6,2.4,3.8,3.8
		c1.6,1.9,2.8,1.5,3.5-0.8c0.6-2.1,1-4.2,1.1-6.4c0.5-10.8,0.2-21.5,0.9-32.3c-0.3-0.7-0.6-1.4-0.3-2.2c1.3-1,2.5-2.1,3.8-3.1
		c0.6-0.3,1.2-0.2,1.7,0.3c0.2,0.3,0.5,0.6,0.5,0.9c-0.8,15.9,1,31.9-3.3,47.6c-0.6,1.3-1.1,2.8-1.7,4.2
		C282.2,476.8,281.1,477.2,280,475.5z"/>
	<path fill="#737A88" d="M385,421.5c8.6,8.6,17.9,16.6,26.1,25.6c3.3,3.6,5.5,7.8,7.5,12.1c2.3,5,0.4,8.9-4.6,10.2
		c1.9-1.9-0.8-1.3-1.1-1.9c3.9-5.1,1.5-9.5-1.6-13.6c-6.8-9-15.3-16.5-23.6-24.2c-1.8-1.7-3.9-3.1-4.2-5.9
		C383.6,422.9,384.2,422.2,385,421.5z"/>
	<path fill="#8A8A8A" d="M280,475.5c3.9,0.9,0.6-3.7,3-4c1.9,2.2,1,4.6,0.9,7.1c-0.3,7.4-2,14.7-0.9,22.2c0.8,5.2,1.9,10,5.1,14.2
		c0.5,2.8-2,1.9-3.2,2.6c-4-4.1-5.6-9.3-6-14.8C278.5,493.6,278.5,484.5,280,475.5z"/>
	<path fill="#747474" d="M331.8,343.2c0.4-0.7,0.6-1.6,1.1-2.1c3.4-3.2,4.6-6.9,2.3-11.2c-1.8-3.4-4.2-5.8-8.5-5.7
		c-5,0.1-7.8,2.9-9.7,7.1c-0.2,0.4-0.4,0.8-0.8,1.6c-2.3-2.7-0.8-4.7,0.7-6.5c4-4.6,10.3-6,15.3-3.6c4.7,2.3,7.4,8,6.5,13.9
		c-0.1,1-0.5,1.9-0.8,2.9c-1.3,1.5-1.6,3.8-3.6,4.6C333.4,344.5,331.8,345.9,331.8,343.2z"/>
	<path fill="#737982" d="M386,523.4c-11.7,0.3-23.3,0.7-35,1c-0.3-1.9,1.6-1.9,2.5-2.8c2.4-2.2,5.5-2.7,8.6-2.8
		c4.3,0.4,8.7-1.8,13,0.3c0.7,0,1.4,0,2.1,0.1c1.2,0,2.5,0,3.7,0c0.8,0,1.6,0.1,2.3,0.2c0.8,0.2,1.5,0.5,1.9,1.3
		c-0.8,2.5-3.1,0.7-4.8,1.6c-0.3,0,0.7,0.8,0.3,0.2c-0.2-0.2,0-0.5,0.3-0.4C382.7,522.6,385,520.5,386,523.4z"/>
	<path fill="#878787" d="M346,524.5c-17.5,1.1-34.9-0.1-52.4-0.1c-0.6,0-1.2-0.5-1.8-0.8c0.8-1.5,2.2-2.3,3.7-2.9
		c1.1-0.3,2.3-0.2,3.4,0c10.6,0.9,21.1,0.1,31.7,0.4c3.8,0.1,7.6-0.2,11.4,0.3C343.7,522,345.8,522,346,524.5z"/>
	<path fill="#5F6675" d="M407.1,493.7c-1.4,6,0.4,10,6.5,12.4c2.6,1,4.3,0.7,6.2-0.6c1.1-0.6,2-0.5,2.5,0.8c-2.8,5-4,5.6-8.6,4.2
		c-2-1.3-4.2-2.2-6.3-3.3c-2.7-1.4-4.9-3.5-4.6-6.6c0.7-7.4,0.2-14.9,1.7-22.3c3.2-1.7,2.9,1.2,3,2.6
		C407.5,485.1,407.9,489.4,407.1,493.7z"/>
	<path fill="#616D83" d="M412.8,467.4c0.8,0.1,1.5,0.2,2.3,0.3c-0.4,0.6-0.7,1.2-1.1,1.8c-1.2,0.4-2.5,0.7-3.7,1.1
		c-2.5-0.3-3.7,3.3-6.5,2c-1.6-2.1-1.7-4.6-2.1-7.1c-0.9-4.7-1.9-9.4-3.9-13.9c-1-2.3-3.2-5.8-0.3-7.1c3.4-1.5,4.1,2.9,5.3,5.2
		c1.8,3.4,3.1,7,3.7,10.8C407,464.5,408.8,466.9,412.8,467.4z"/>
	<path fill="#50545F" d="M385,421.5c0,0.8-0.2,1.6-1,2c-1.5,0.4-2.6-0.6-3.5-1.5c-6.7-6.9-13.4-13.9-21-19.8
		c-0.7-0.5-0.9-1.3-0.8-2.2c0.9-1.4,2-1.2,3.3-0.5C371.4,405,377.7,413.7,385,421.5z"/>
	<path fill="#868686" d="M331.8,343.2c3.6,1.4,3.9-2.9,6.2-3.7c-0.4,4.2-2.7,7.6-5.9,10c-3.2,2.5-4.9,5.2-4.1,9.3
		c0.4,2.2-0.7,3.9-1.8,5.5c-1,1.6-1.9,0.6-2.3-0.8c1.7-3.3,1.6-6.6,0.2-10C323.9,348,329.3,346.7,331.8,343.2z"/>
	<path fill="#888E9B" d="M330,386.4c10,1.5,19.8,3.4,27.8,10.2c-0.4,1.2-1,2.2-2.4,2.3c-7.3-3-14.8-5.9-22.3-8.3
		c-0.2-2-2.7-1.9-3.3-3.6C329.9,386.8,329.9,386.6,330,386.4z"/>
	<path fill="#8A8B8F" d="M287,422.5c-0.4-0.1-0.9-0.1-1.3-0.2c2-8.6,5.5-16.5,10.4-23.8c1.4-0.3,1.6,0.8,1.9,1.7
		c1,2.6-0.3,4.8-1.3,7c-2.5,4.3-5.4,8.4-6.6,13.4C289.8,422,289.2,423.7,287,422.5z"/>
	<path fill="#777D8A" d="M297,400.6c-0.3-0.7-0.6-1.4-0.9-2.1c4.4-4.5,8.1-9.8,14.8-11.1c2.9-0.5,5.9-0.9,8.8-1.3
		c0.8,0.5,0.9,1.3,0.7,2.1c-0.9,2-2.7,2.3-4.5,2.5c-5.3,0.5-9.9,2.2-13.1,6.8C301.6,399.3,299.7,401,297,400.6z"/>
	<path fill="#535967" d="M430,512.8c-1,0.2-0.6,1.2-1,1.8c-1.4,7.7-3.5,9.2-10.7,7.6c-0.8-0.5-1-1.3-0.9-2.2c0.3-1.1,1.1-1.7,2-2.3
		c2.7-2.4,4.1-6.1,7.5-7.9c1.6-0.8,2.8-2.1,4.8-2.1c0.5,0.1,0.9,0.3,1.3,0.6C433.1,510.5,431.9,511.9,430,512.8z"/>
	<path fill="#7C8189" d="M433,508.5c-0.4,0-0.7-0.1-1.1-0.1c-0.2-2.9-2.1-2.8-4.3-2.4c-1.9,0.3-3.6,2-5.6,0.6
		c-0.5-0.9-1.3-1-2.2-1.1c3-3.8,7.4-4,11.6-4.5c2-0.3,4.7-0.6,5.6,1.9c0.9,2.6,0,4.9-2.7,6.1C433.7,509.1,433.3,509,433,508.5z"/>
	<path fill="#4A5260" d="M386,523.4c-1.7-1.8-4.1-0.3-6.1-1.2c1.5-1.6,3.9,0.1,5.2-1.6c0.5-0.7,1.1-1,1.9-1.1
		c0.7-0.1,1.5-0.2,2.3-0.2c1.2,0,2.5,0,3.7,0.2c2.2,0.8,4.3,0.1,6.5-0.2c1.8-0.1,3.7-0.2,5.3,1c0.3,0.4,0.5,0.9,0,1.3
		c-0.7,0.6-1.5,0.4-2.4,0.2c0.8,0.3,1.7,0.1,2.4,0.6c0.5,0.3,0.4,0.9,0.2,1.3c-1.1,0.4-2.1,0.4-3.1-0.1
		C396.6,523.6,391.3,523.5,386,523.4z"/>
	<path fill="#8C8D90" d="M401.9,523.6c1-0.1,2.1-0.3,3.1-0.4c4.2-1.3,8.5-2.7,13-1.8c5.8,1,9.8-0.7,11.1-6.9
		c-0.1,1.3,0.1,2.7-0.2,3.9c-1,3.6-2.4,6.9-7.3,5.9C415,522.9,408.3,525.8,401.9,523.6z"/>
	<path fill="#AAAAA9" d="M267.7,423.2c3-6.9,7.3-12.6,14.8-15.1C277.2,412.7,272.4,417.8,267.7,423.2z"/>
	<path fill="#727684" d="M281.9,425.4c0.4,0.4,0.7,0.7,1.1,1.1c0.3,1.9-1,3.1-1.8,4.5c-2.9,4.9-6.1,9.5-7.7,15.1
		c-0.3,1.1-0.7,2.3-2,2.6c-1.6-0.9-1.1-2.1-0.6-3.4C272.4,437.5,276.5,431.1,281.9,425.4z"/>
	<path fill="#828794" d="M270.9,445.3c0.2,1.1-0.2,2.4,1.1,3.2c2.3,4.9,2.3,9.9,1,15.1c-0.3,0.7-0.7,1.3-1,2
		C268.9,459,268.5,452.2,270.9,445.3z"/>
	<path fill="#78818D" d="M404.1,472.5c2.3,0,3.7-2.8,6.2-1.8c-3,1.5-3.3,3.8-2.9,6.9c0.7,5.3,1.3,10.8-0.3,16.1
		c-0.1-3.7,0-7.5-0.2-11.2c-0.1-1.5,0.5-3.5-2-3.9C401.7,477,402.5,474.8,404.1,472.5z"/>
	<path fill="#606060" d="M294.9,521.7c-0.8,1-1.7,1.8-3.1,1.9c-3-1.2-4.8-3.8-6.9-6c0.2-2.6,1.9-0.9,3-1.1
		C290.5,517.9,293.9,518.1,294.9,521.7z"/>
	<path fill="#818181" d="M324.1,371.5c0.2-2.8,1.8-3.5,4-2.2c2.2,1.3,2.5,3.7,1.3,5.6c-1.4,2.2-3.2,2.1-4.6-0.3
		C325.1,373.5,326.8,372.1,324.1,371.5z"/>
	<path fill="#9C9FA6" d="M320.1,386.6c-3,0.7-6,1.2-9.1,0.8c6.3-2.3,12.6-2.8,19.1-1c0,0-0.1,0.5-0.1,0.5
		C326.6,388.4,323.3,388.4,320.1,386.6z"/>
	<path fill="#4A4A4A" d="M324.1,353.5c0.3-0.1,0.8-0.3,0.9-0.2c1.9,2.2,1.2,8.4-1.1,10.2C323.3,360.2,323.5,356.9,324.1,353.5z"/>
	<path fill="#AFAEAF" d="M280.5,417.3c-2.4,2.8-4.9,5.5-7.6,8.6C273.1,421.6,274.1,420.5,280.5,417.3z"/>
	<path fill="#606060" d="M350.2,521.2c-0.9,0-1.8,0-2.7,0c-1,0.1-2.1,0.2-3.1,0.4c-0.5,0.2-1,0.5-1.3,1c1,0.6,2,1.3,2.9,1.9
		c1.7,0,3.3,0,5-0.1c1-0.7,2-1.3,3.1-2c-0.2-0.2-0.4-0.4-0.6-0.6C352.4,521.5,351.3,521.3,350.2,521.2z"/>
	<path fill="#464646" d="M324.1,371.5c1.1-0.5,2.3-3,3.4-0.6c0.9,1.9-0.7,3.3-2.7,3.7C323.7,373.8,324,372.7,324.1,371.5z"/>
	<path fill="#6A6F7B" d="M355.9,398.5c0.6-0.7,1.3-1.3,1.9-2c1.1,1.3,3.4,1,4.1,2.9c-1.1,0-2.3-0.2-3,1.1
		C357.3,400.9,356,400.6,355.9,398.5z"/>
	<path fill="#FEFEFE" d="M370.3,479.5c-0.6-5.6-3.6-10.8-2.9-16.6c0.9-4.7-2.3-6.2-5.8-7.6c-1.4-1-2.9-1.6-4.5-2.2
		c-1.4-0.4-2.9-0.8-4.4-1.1c-17.8-2.5-35.7-3.2-53.6-0.8c-6.4,1.5-6.4,1.4-6.8-3.7c-0.1-8.9,2.5-16.2,11.3-20
		c1.7-0.8,3.5-0.6,5.3-0.8c10.7-0.9,19.9,3.7,29.1,8c5.6,3,11.6,5.4,16.1,10.1c2.9,2.4,4.9,5.6,7.4,8.4c1,0.8,1.8,1.8,3.3,1.3
		c1.4-1.3,1.4-3,1.3-4.6c-0.8-7.9-2-15.6-7.9-21.5c-0.7-0.8-1.2-1.6-1.8-2.4c-11-12.3-24.1-21.5-39.1-28.3c-5.9-2.6-11-0.8-15.9,2.4
		c-2.4,1.5-3.6,4.3-5.4,6.4c-3.2,4.1-5.8,8.6-6.9,13.8c-0.2,1.2-0.5,2.3-2.1,2.2c-1.3,11.6-1.4,23.3-1.6,34.9
		c-0.1,4.8-1.2,9.5-2.4,14.1c-0.6,8.1-1.5,16.2-1.6,24.3c-0.1,7.5,0.5,15,6.5,20.7c1.7,2.6,4.7,3.4,7,5.1c1-0.6,2-0.2,3-0.1
		c11.9,0.9,23.8,0.2,35.7,0.4c2.8,0,5.9,1,8.2-0.6c0,0,0,0,0.1-0.1c-0.3,0-0.5,0-0.8,0c-0.5,0-1-0.1-1.5-0.3
		c-0.8-0.1-1.6-0.1-2.4-0.2c-6-0.7-6.4-8.5-1-9.8c0.7-2.2,2.7-4.1,5.6-3.6c0,0,0,0,0,0c0.6-0.3,0.2,0,0.6-0.2
		c0.8-0.4,1.6-0.8,2.4-1.2c2.2-1,4.5-1.9,7-1.7c2.7,0.2,5,2.2,5,5c0,2.2-0.5,4-1.5,5.6c0.3,1,0.2,2.1-0.2,3.1c1.3,0.1,2.3-0.9,3-2
		c2.2-3.3,5.3-6,7-9.7C369.9,497.9,371,488.9,370.3,479.5z"/>
	<path fill="#94A1C0" d="M273,463.6c-1.1-5-1-10-1-15.1c1.3-8.5,6.2-15.2,11.1-21.9c1.2,0.8,1.1,2.1,0.9,3.2
		c-2.1,11.6,0,23.5-2.1,35.2c-0.2,1.1-0.5,2.2-0.8,3.4c-0.7,3.6-2.7,2.9-4.4,1.1C275.2,467.7,274.2,465.5,273,463.6z"/>
	<path fill="#94A2C2" d="M366,462.5c1.2-4.4-3.1-4.2-5-6c0.7-1,1.7-1.6,2.9-2c2.5-3.4,0.5-6.8,0.2-10.2c-0.7-6-2.8-11.3-7.1-15.7
		c0.5-1.6,2.1-3,1.4-5.3c-1.5,0.6-1.2,2.5-2.4,3.1c-8.2-8.3-17.3-15.5-27.3-21.5c-14.1-8.4-19.5-11.6-32.7,1.6c0.1-2,2.3-3.7,1-5.9
		c2.5-1.8,5-3.5,6.9-6.2c2.5-3.7,6.9-4.2,10.9-4.9c1.8-0.3,3.6,0,5.2-1.1c4.5-1.9,8.8-0.6,13,1c7.9,2.3,15.8,4.6,22.9,9
		c1,0.7,2,1.4,3,2.1c7.7,5.2,14,11.9,20.3,18.7c1.4,1.6,3.2,2.9,4.8,4.3c4.1,6.3,10.7,10.2,15.7,15.7c5.8,6.3,12.4,11.9,16.1,19.9
		c1.7,3.7,1.6,6.7-2.9,8.2c-4,1.8-6.4,1.3-7.1-3.8c-0.7-5.1-2.4-10-4.7-14.6c-0.8-1.6-1.6-3.2-3.7-3.9c2.9,9,6.1,17.9,6.8,27.4
		c0.2,2-0.7,4.2,0.9,6.1c-0.1,6.2,0.5,12.5-0.9,18.6c-1,4.4,0.3,7.8,4.9,9.4c2.4,3.8,0.4,13,0,13.3c-2.4,0.8-3.8,0.4-3.9,0.6
		c-2,0-4,0-6,0c-2.4-0.5-3.8,0.4-6.1-0.2c-1.3,0.1-2.6,0.2-4,0.2c-1.7,0.3-3.3-0.1-3.9,0c-0.7-0.1-1.3-0.1-2-0.2
		c-1.5,0.1-6-0.7-8.2,0c-4.2-2.7-8.8,1.2-13-0.9c-1.9-2.3,0.1-9.8,2.2-13c4-8.6,5.2-17.7,4.9-27c3.1,0.9,3.6,4.1,5.2,6.3
		c4.4,6,9.3,6.4,14.3,0.8c3.1-3.5,4.1-6.2,5.6-15.6c-0.8,4.8-1.7,9.6-4.5,13.7c-5.4,7.8-11.5,7.5-15.9-0.8c-3-5.6-5.7-11.3-6.3-17.7
		C367.4,464.8,367,463.5,366,462.5z"/>
	<path fill="#C0C0C0" d="M343.8,521.2c-0.9,0.1-1.7,0.1-2.6,0.1c-0.3,0-0.7-0.1-1-0.1c-1,0.4-2.4,0.5-4,0.5
		c-12.7-0.2-25.5-0.1-38.2-0.1c1.5,1.5,3.5,0.8,5.2,0.9c13.3,0.1,26.6,0.1,39.9,0.2c0.3-0.1,0.5-0.2,0.8-0.2
		c0.6-0.3,1.2-0.5,1.4-1.2C344.8,521.2,344.3,521.2,343.8,521.2z"/>
	<path fill="#C0C0C0" d="M350.8,521.2c-1.1,0-2.3,0-3.4,0c1.4,0.6,2.8,0.6,4.3-0.1C351.4,521.1,351.1,521.2,350.8,521.2z"/>
	<path fill="#94A1BD" d="M422,506.5c2.8-0.4,5.1-2.6,8.1-2c1.1,0.2,2.6-0.5,3.3,0.6c1,1.5-1.1,2.2-1.4,3.4c-2.3,0.5-4.2,3.4-5,3.5
		c-4.3,0.4-2.4,6.9-6.8,6.5c-0.7-0.2-1-1.5-1.1-1.3c-2.1,3.4-3.3,1.7-4-0.8c-0.5-1.6-2.5-3.9-2.5-3.9s-1.9-1-1.2-2.2
		c0.6-1.2,1.6-1.6,2.9-0.9C418,512.1,419.5,507.9,422,506.5z"/>
	<path fill="#666A7B" d="M333,389.5c-4.4,0.6-8.6-1.3-13-1c0-0.6,0-1.2,0-1.8c3.3-0.4,6.6-0.2,9.9,0.3
		C330.5,388.3,333.8,386.5,333,389.5z"/>
	<path fill="#3F4253" d="M409.1,519.6c1.6-0.3,3.3,2,4.8-0.2l0.1,0c1.3,0.1,2.7,0.2,4,0.3c0,0.6,0,1.2,0.1,1.8
		c-4.2,1.2-8.5,2.7-13,1.8c-2.9-1-1.1-1.9,0-2.8c0,0-0.1-0.2-0.1-0.2C406.2,519.5,407.8,520.5,409.1,519.6L409.1,519.6z"/>
	<path fill="#737982" d="M351.7,521.1c-0.3,0.1-0.6,0.1-1,0.1c-1.5,0-3,0-4.4,0c-0.4,0.1-0.9,0.2-1.3,0.3c-0.4,0.3-0.7,0.6-1.1,0.9
		c3.4,0,6.8,0,10.2,0c0-0.4-0.1-0.7-0.1-1.1C353.2,521.2,352.5,521.1,351.7,521.1z"/>
	<path fill="#64312A" d="M357.8,454.6c-16.3-3.5-32.8-3.3-49.4-2.8c-3.5,0.1-6.9,0.5-10.3,0.7c-1.1,0.7-2.3,0.6-3.4,0.4
		c-2.7-0.3-2.6-1.5-0.8-3.2c17-4.1,34.2-3.5,51.4-1.4c3.4,0.4,7,0.4,10.3,1.4c1.7,0.5,3.5,0.8,4.7,2.2c0.5,0.8,1.2,1.6,0.4,2.5
		C360,455.4,358.8,455,357.8,454.6z"/>
	<path fill="#4E5B72" d="M366,462.5c2.2,0.2,2.6,1.9,2.7,3.5c0.5,6.8,3.6,12.7,6.8,18.5c3.3,5.9,7,6.2,11.7,1.2
		c4.1-4.4,4.7-10,5.6-15.6c0.2-1.1,0.4-2.1,0.7-3.4c3.6,2.2,1.6,5,1.5,7.3c-0.4,5.7-2.6,10.5-6.6,14.6c-4.6,4.6-10.6,4.3-14.4-1.1
		c-1.8-2.5-3.3-5.3-4.9-8C368,473.8,365,468.5,366,462.5z"/>
	<path fill="#959694" d="M303,426.5c8-2.6,15.6-1.3,23.2,1.8c4.4,1.8,9,3.3,13,6c-0.1,0.2-0.2,0.4-0.3,0.6c-1.3,0.8-2.4,2.2-4.2,1.7
		c-2.6-1.8-5.4-3.1-8.3-4.3c-2.5-1.1-2.5,0.8-3.1,2.1c-3.2-1.8-6.2-0.1-9.4,0.2c-0.6-2.1,1.4-3.1,2.1-5c-3.7-1.3-7.2-1.2-10.7,0.2
		c-1.5,0.2-2.1-0.8-2.6-2C302.5,427.3,302.7,426.9,303,426.5z"/>
	<path fill="#969798" d="M303,426.5c0,0.3,0,0.6,0,0.9c0,0.9,0,1.8,0.1,2.7c0,1.2-0.1,2.3-0.7,3.3c-0.3,0.3-0.7,0.5-1.2,0.4
		c-0.8-0.6-1.5-1.1-2.1,0.3c-0.5,1.2-0.3,2.5-1,3.6c-2.8,0-0.9,1.8-1.1,2.9c0,0.7-0.2,1.4-0.6,2c-0.5,0.5-1,0.8-1.6,1.1
		c-1.7,0.8-0.6,4.3-3.7,3.8C290.1,438.4,294.9,429.9,303,426.5z"/>
	<path fill="#939290" d="M339.2,434.3c5.7,2.7,11.7,5.1,15.9,10.2c-0.7,0.9-1.7,0.9-2.7,0.7c-1.1-0.3-2.1-1.1-3.2-1.3
		c-1.1-0.2-2.3-0.3-3.3-0.9c-2.1-2.6-5.3-3.5-8.1-5.2c-0.8-1.3-0.3-2.3,0.9-3C338.9,434.6,339.1,434.4,339.2,434.3z"/>
	<path fill="#86615C" d="M352,444.4c1,0,2,0,3.1,0c2.9,2.1,5.2,4.8,6.8,8c-0.6,0.6-1.3,0.6-2,0.1c-1.2-0.7-2.5-1.2-3.9-1.1
		C354.8,449,350.6,448.3,352,444.4z"/>
	<path fill="#192036" d="M356.1,426.4c0-0.2,0.1-0.3,0.1-0.5c0.5-1.9-0.7-4.5,2.1-5.4c0.9-0.3,1.5,0.5,1.5,1.4
		c-0.1,2.5,1.5,5.8-2.8,6.6C356,428.2,356.3,427.2,356.1,426.4z"/>
	<path fill="#7B4C45" d="M291.1,447.4c1.5-0.6,1.8-1.6,1.4-3.1c-0.4-1.4,0.5-1.6,1.6-1.6c1.9,2.6,1.7,5.2,0,7.7
		c-0.3,1.8-0.3,1.8,4,2C291.3,454.5,291.1,454.3,291.1,447.4z"/>
	<path fill="#595353" d="M359.9,452.6c0.7,0,1.3,0,2-0.1c0.7,0.7,1.4,1.4,2.1,2.1c0,2.1-1.3,2.2-2.9,2c-1.1-0.6-2.2-1.3-3.3-1.9
		C358.6,454,361.3,455.4,359.9,452.6z"/>
	<path fill="#707F9D" d="M368.5,450.5c6.4,3.2,8,3.1,15.3-1.6c-0.2,3.9-2.7,5.5-5.5,6.2C374,456.2,370.8,454.1,368.5,450.5z"/>
	<path fill="#677693" d="M365.6,440.7c7.9,2.8,10,1.8,13.1-5.4c0.8,3.9,0,7.4-3.7,8.8C372,445.2,368.3,445.6,365.6,440.7z"/>
	<path fill="#FEFEFE" d="M350.8,521.2c-2,0-3.9,0-5.9,0c0,0.1,0.1,0.2,0.1,0.3c3,0.6,6,0.2,9-0.2c0.1-0.5,0.2-1.1,0.3-1.6
		C353.4,520.6,352.2,521.2,350.8,521.2z"/>
	<path fill="#9AA5BF" d="M413.8,519.4c-3.5-1.2-1.4-3.4-1.1-5.3C414.5,515.6,413.8,517.5,413.8,519.4
		C413.9,519.4,413.8,519.4,413.8,519.4z"/>
	<path fill="#929EBE" d="M396.8,512.3c-0.1,0.9-0.6,1.7-1.5,1.7c-1,0.1-1.3-0.8-1.3-1.7c0-0.9,0.4-1.7,1.4-1.7
		C396.4,510.7,396.9,511.3,396.8,512.3z"/>
	<path fill="#B55648" d="M294,450.5c0-2.6,0-5.2,0-7.7c0.6-0.1,1.3-0.2,1.9-0.3c1.4-1.3,2.9-2.5,3.3-4.5c0.5-1.1,1.3-2,2.2-2.7
		c1.6-1.5,3.3-1.8,5.4-0.8c3.7,1.7,7.4,2.7,11.1-0.2c1.3-1,2.8-0.5,4,0.7c1.7,2.4,3.2,5,6.4,5.7c2.9,1.8,5.5-1.5,8.3-0.6
		c4.3,5.7,4.7,5.7,13.3,2.8c1,0.1,1.6,0.8,2,1.7c0.5,2.8,3.8,4,4,7c-7.8-1-15.6-2.3-23.5-2.8C319.6,447.8,306.8,448.8,294,450.5z"/>
	<path fill="#835B56" d="M321.7,435.5c-1.2-0.7-2.4-1.5-3.6-0.2c-3.6,3.9-8,2.4-11.4,0.5c-2.5-1.3-3.4-0.7-4.9,0.6
		c-0.8-1-0.6-2,0.1-3c0-1.3,0.1-2.6,0.1-3.9c1.3-0.6,2.2,1.5,3.5,0.6c2.8,1.5,5.7,2.8,8.5,4.4c3-2,6-4.2,9.1-0.1
		c2,0.1,2.7,1.1,2.1,3C323.1,438.5,322.9,436.1,321.7,435.5z"/>
	<path fill="#F3F6F6" d="M325,437.5c0.2-1.5-1.2-2.1-1.8-3.1c-0.7-3.2-0.4-5.3,3.5-3.1c2.8,1.6,6.8,1.3,8.3,5.2
		c-1.2,3.3-4,3.6-6.9,3.8C326.6,439.8,324.8,439.7,325,437.5z"/>
	<path fill="#ECF0F0" d="M314.1,434.5c-4.2,1.2-6.1-2.5-8.9-4.3c-0.4-0.1-0.5-0.3-0.4-0.5c0.1-0.2,0.2-0.3,0.3-0.3
		c3.4-3.3,7.4-1.6,11.2-1.1c1.5,0.2,1.3,1.3,0.7,2.2C316.1,431.9,315,433.2,314.1,434.5z"/>
	<path fill="#906F6A" d="M328.1,439.4c2.6-0.2,4.9-1.2,6.9-2.9c1.2-0.7,1.9-2.6,3.9-1.8c-0.2,1-0.5,2-0.7,2.9c1.1,1,2,2.2,1.2,3.8
		c-1.2,0.7-1.7-0.1-2.2-0.9c-3,0.1-5.6,3.7-9,1.3C328.2,441,327.2,440.2,328.1,439.4z"/>
	<path fill="#574948" d="M305.1,429.4c0.1,0.3,0.1,0.5,0.1,0.8c-0.3,0.7-0.3,2.1-1.2,1.7c-0.8-0.3-1.3-1.6-2-2.4
		c-0.2-0.9,0.3-1.6,0.9-2.2C303.7,428.1,304.4,428.7,305.1,429.4z"/>
	<path fill="#957979" d="M302,433.5c0,1-0.1,2-0.1,3c-0.6,0.7-1.2,1.3-1.9,2c-1.1,1-2.1,2.3-3.9,2.1c-0.5-1.2-0.9-2.3-1.5-3.8
		c1.3,0.2,2.4,0.4,3.4,0.6c0.6-1.6,1-3.4,3-3.9C301.4,433.5,301.7,433.5,302,433.5z"/>
	<path fill="#E2DCE3" d="M301.1,433.5c-1,1.3-1,3.4-3,3.9c-2.5-2.9,0-4.8,1.8-5.9C301.7,430.5,300.7,432.7,301.1,433.5z"/>
	<path fill="#905D50" d="M296.1,440.5c1-1.2,2-2.4,3.9-2.1c0.3,3-1.7,3.7-4.1,4C296,441.8,296.1,441.2,296.1,440.5z"/>
	<path fill="#6D332D" d="M337,440.5c0.7,0.3,1.3,0.7,2,1c2.2,0.7,4.6,0.5,6.9,0.9c1.4,0.1,2.7,0.2,4.1,0.4c-2.4,2.8-5.5,3.8-9,2.8
		C338.4,444.9,336.7,443.4,337,440.5z"/>
	<path fill="#EFEFEF" d="M345.9,442.4c-2.5,1.1-4.9,2.1-6.9-0.9c-0.3-1.3-0.6-2.6-0.9-3.9C341.4,438,344.7,438.4,345.9,442.4z"/>
	<path fill="#6C3529" d="M328.1,439.4c0.2,0.8,1,1.6,0,2.4c-3-1.2-6.1-2.3-6.3-6.3c1.1,0.7,2.1,1.4,3.2,2
		C326,438.1,327,438.8,328.1,439.4z"/>
	<polyline fill="#94A1BD" points="414,509.4 408.9,506.6 409,519.6 412.9,520.7 418.2,519.6 420.1,518.4 	"/>
	<path fill="#94A1BD" d="M409,519.6"/>
	<path fill="#94A1BD" d="M412.4,512.5"/>
</g>
</svg>
