<svg class="icon" viewBox="0 0 1024 1024" xmlns="http://www.w3.org/2000/svg" width="200" height="200"><path d="M218.88 456.96h159.573L265.387 343.893c-43.094 0-78.08-34.986-78.08-78.506a78.08 78.08 0 0178.08-78.08c43.52 0 78.506 34.986 78.506 78.08L456.96 378.453V218.88a78.507 78.507 0 010-110.507 77.227 77.227 0 01110.08 0c30.293 30.294 30.293 79.787 0 110.507v159.573l113.493-113.066a78.08 78.08 0 01156.16 0c0 43.52-34.986 78.506-78.08 78.506L645.547 456.96H805.12a78.507 78.507 0 01110.507 0c30.72 30.293 30.72 79.787 0 110.08-30.294 30.293-79.787 30.293-110.507 0H645.547l113.066 113.493c43.094 0 78.08 34.56 78.08 78.08a78.08 78.08 0 01-78.08 78.08c-43.52 0-78.08-34.986-78.08-78.08L567.04 645.547V805.12c30.293 30.72 30.293 80.213 0 110.507-30.293 30.72-79.787 30.72-110.08 0a78.507 78.507 0 010-110.507V645.547L343.893 758.613c0 43.094-34.986 78.08-78.506 78.08a78.08 78.08 0 010-156.16L378.453 567.04H218.88c-30.72 30.293-80.213 30.293-110.507 0a77.227 77.227 0 010-110.08 78.507 78.507 0 01110.507 0z" fill="#FFB300"/></svg>
