<svg class="icon" viewBox="0 0 1024 1024" xmlns="http://www.w3.org/2000/svg" width="200" height="200"><path d="M714.422 721.028V322.263c95.86 15.855 169.29 99.096 169.29 199.382s-73.43 183.528-169.29 199.383zm-384 17.375c0 18.234-14.832 33.032-33.033 33.032H148.744c-18.167 0-33.032-14.798-33.032-33.032V325.5c0-18.168 14.865-33.032 33.032-33.032H297.39c18.201 0 33.033 14.864 33.033 33.032v412.903zm60.35-444.845l257.651-179.365v791.552l-256.33-139.496c2.576-8.918 4.426-18.134 4.426-27.879V325.467c0-11.231-2.279-21.868-5.747-31.942zm323.716-38.053V50.935h-.496a32.537 32.537 0 0 0-32.57-32.57c-6.936 0-12.981 2.644-18.266 6.31l-.595-.859-312.915 217.848a98.073 98.073 0 0 0-52.19-15.26H148.81c-54.668 0-99.096 44.46-99.096 99.096v412.903c0 54.668 44.428 99.097 99.096 99.097h148.645c20.613 0 39.771-6.375 55.66-17.177L665.633 990.44l.43-.859a31.777 31.777 0 0 0 15.36 4.36 32.57 32.57 0 0 0 32.57-32.57h.462V787.82c132.46-16.385 235.355-129.388 235.355-266.142 0-136.753-102.929-249.79-235.355-266.14z"/></svg>
