<?xml version="1.0" standalone="no"?><!DOCTYPE svg PUBLIC "-//W3C//DTD SVG 1.1//EN" "http://www.w3.org/Graphics/SVG/1.1/DTD/svg11.dtd"><svg t="1593450791748" class="icon" viewBox="0 0 1024 1024" version="1.1" xmlns="http://www.w3.org/2000/svg" p-id="999" xmlns:xlink="http://www.w3.org/1999/xlink" width="200" height="200"><defs><style type="text/css">@font-face { font-family: element-icons; src: url("chrome-extension://moombeodfomdpjnpocobemoiaemednkg/fonts/element-icons.woff") format("woff"), url("chrome-extension://moombeodfomdpjnpocobemoiaemednkg/fonts/element-icons.ttf ") format("truetype"); }
</style></defs><path d="M714.421677 721.028129V322.26271c95.859613 15.855484 169.290323 99.096774 169.290323 199.382709 0 100.285935-73.43071 183.527226-169.290323 199.38271z m-384 17.374968c0 18.233806-14.831484 33.032258-33.032258 33.032258h-148.645161c-18.167742 0-33.032258-14.798452-33.032258-33.032258v-412.903226c0-18.167742 14.864516-33.032258 33.032258-33.032258h148.645161c18.200774 0 33.032258 14.864516 33.032258 33.032258v412.903226zM390.771613 293.557677l257.651613-179.365161V905.744516l-256.330323-139.495226c2.576516-8.91871 4.426323-18.13471 4.426323-27.879225v-412.903226c0-11.230968-2.279226-21.867355-5.747613-31.942194z m323.716129-38.053161V50.935742h-0.495484a32.536774 32.536774 0 0 0-32.569806-32.569807c-6.936774 0-12.981677 2.642581-18.266839 6.309162l-0.594581-0.858839-312.91458 217.847742a98.072774 98.072774 0 0 0-52.190968-15.260903h-148.645161c-54.668387 0-99.096774 44.461419-99.096775 99.096774v412.903226c0 54.668387 44.428387 99.096774 99.096775 99.096774h148.645161c20.612129 0 39.770839-6.375226 55.659355-17.176774l312.518193 170.116129 0.42942-0.858839a31.777032 31.777032 0 0 0 15.36 4.360258 32.569806 32.569806 0 0 0 32.569806-32.569806h0.462452V787.819355c132.459355-16.384 235.354839-129.387355 235.354838-266.140903 0-136.753548-102.928516-249.789935-235.354838-266.140904z" p-id="1000"></path></svg>