{"asset":{"version":"2.0","generator":"GLTFExporter"},"scenes":[{"nodes":[0],"name":"AuxScene"}],"scene":0,"nodes":[{"mesh":0}],"bufferViews":[{"buffer":0,"byteOffset":0,"byteLength":61932,"target":34962,"byteStride":12},{"buffer":0,"byteOffset":61932,"byteLength":61932,"target":34962,"byteStride":12},{"buffer":0,"byteOffset":123864,"byteLength":86460,"target":34963}],"buffers":[{"byteLength":210324,"uri":"data:application/octet-stream;base64,"}],"accessors":[{"bufferView":0,"componentType":5126,"count":5161,"max":[74.5501708984375,49.74376678466797,53.71384048461914],"min":[-22.60289192199707,-4.721647262573242,-95.2568130493164],"type":"VEC3"},{"bufferView":1,"componentType":5126,"count":5161,"max":[0.9998829960823059,1,0.999960720539093],"min":[-0.9998829960823059,-0.9995653033256531,-1],"type":"VEC3"},{"bufferView":2,"componentType":5125,"count":21615,"max":[5160],"min":[0],"type":"SCALAR"}],"materials":[{"pbrMetallicRoughness":{"metallicFactor":0.5,"roughnessFactor":0.5}}],"meshes":[{"primitives":[{"mode":4,"attributes":{"POSITION":0,"NORMAL":1},"indices":2,"material":0}]}]}