<?xml version="1.0" encoding="utf-8"?>
<!-- Generator: Adobe Illustrator 24.0.0, SVG Export Plug-In . SVG Version: 6.00 Build 0)  -->
<svg version="1.0" id="图层_1" xmlns="http://www.w3.org/2000/svg" xmlns:xlink="http://www.w3.org/1999/xlink" x="0px" y="0px"
	 viewBox="0 0 2560 1600" enable-background="new 0 0 2560 1600" xml:space="preserve">
<g>
	<path fill="#141619" d="M2559.99,2.1c0,531.93,0,1063.87,0,1595.81c-3.31,1.81-6.89,0.91-10.33,0.91
		c-48.53,0.07-97.06,0.05-145.55,0.05c-11.62-4.12-19.91-13.21-29.34-20.45c-35.24-27.04-71.78-52.2-108.91-76.52
		c-57.77-37.84-117.77-71.87-179.51-102.74c-28.83-14.41-58.1-28.02-87.78-40.72c-41.12-17.6-82.64-34.16-124.93-48.69
		c-58-19.93-116.81-37.03-176.51-51.24c-51.9-12.35-104.34-21.71-156.96-29.78c-39.02-5.98-78.43-9.69-117.89-12.63
		c-53.85-4.02-107.71-5.89-161.68-5.3c-46.9,0.51-93.67,3.27-140.42,7.23c-60.45,5.13-120.36,13.78-179.91,25.14
		c-71.57,13.65-142.01,31.8-211.38,54.04c-73.7,23.62-145.36,52.34-215.45,85.2c-54.72,25.66-107.89,54.2-159.66,85.21
		c-61.4,36.78-120.58,76.93-176.99,121.09c-5.12,4.01-9.84,9.21-16.97,10.16c-48.71,0-97.39,0.02-146.06-0.04
		c-3.45,0-7,0.78-10.34-0.84c-2.31-3.5-1.43-7.45-1.43-11.21C1.95,1062.25,1.95,537.72,1.99,13.2c0-3.75-0.88-7.71,1.46-11.19
		c3.35-1.62,6.93-0.83,10.39-0.83c845.26-0.04,1690.53-0.04,2535.79,0C2553.09,1.18,2556.68,0.3,2559.99,2.1z"/>
	<path fill="#C9CACB" d="M4.01,2.25C3.89,5.75,3.67,9.26,3.67,12.77c-0.02,524.86-0.02,1049.72,0,1574.59
		c0,3.5,0.25,7.01,0.38,10.51c0.57,0.49,0.73,0.94,0.49,1.36c-0.23,0.4-0.45,0.6-0.67,0.6c-1.2-0.79-4.07,1.87-3.86-1.92
		c0.12-2.23,0.02-4.47,0.02-6.71c0-527.46,0-1054.92,0-1582.38c0-2.24,0.1-4.48-0.02-6.71C-0.2-1.69,2.67,0.97,3.87,0.18
		c0.66,0.42,0.9,0.86,0.72,1.34C4.41,2,4.22,2.25,4.01,2.25z"/>
	<path fill="#7C7D7F" d="M4.01,2.25C3.96,1.56,3.92,0.87,3.87,0.18c849.16,0,1698.32,0,2547.49,0c2.88,0,5.76,0,8.63,0.08
		c0.02,0,0,1.2,0,1.84c-847.84,0-1695.68,0-2543.51,0.01C12.32,2.11,8.17,2.2,4.01,2.25z"/>
	<path fill="#2F333A" d="M3.87,1599.82c0.06-0.65,0.12-1.3,0.18-1.95c53.04-0.02,106.08-0.04,159.12-0.06
		c3.49-3.27,7.78-4.04,12.36-4.09c7.64-0.08,15.28-0.3,22.91,0.01c9.78,0.39,18.99-0.56,26.88-7.23c3.64-3.07,7.97-3.82,12.53-1.77
		c13.15,8.96,27.95,9.01,43.13,8.98c115.95-0.23,231.91-0.1,347.86-0.18c8.62-0.01,17.21,0.68,25.82,0.47
		c16.29-0.9,32.59-0.38,48.88-0.4c68.41-0.07,136.82-0.05,205.24,0c6.06,0,12.14-0.4,18.18,0.46c11.19,0.69,22.34-0.53,33.52-0.52
		c165,0.05,330.01,0.03,495.01,0.06c6.06,0,12.15-0.4,18.18,0.65c7.66,1.77,15.18-0.8,22.82-0.78c63.76,0.2,127.52,0.05,191.28,0.2
		c5.91,0.01,12.2-1.35,17.57,2.69c1,1.01,1.23,2.17,0.7,3.48C1138.65,1599.82,571.26,1599.82,3.87,1599.82z"/>
	<path fill="#2B3036" d="M1706.03,1599.82c-0.01-0.59-0.01-1.18-0.02-1.78c4.29-6.26,10.95-4.33,16.7-4.35
		c54.61-0.23,109.22-0.17,163.83-0.1c15.95,0.02,31.92-0.52,47.87,0.37c146.57-0.88,293.13-0.17,439.7-0.4
		c5.43-0.01,10.86-0.01,16.28,0.15c3.95,0.12,7.63,0.79,10.31,4.07c53.1,0.04,106.2,0.08,159.3,0.12c0,0.64,0.02,1.84,0,1.84
		c-2.88,0.08-5.75,0.08-8.63,0.08C2269.58,1599.82,1987.81,1599.82,1706.03,1599.82z"/>
	<path fill="#101214" d="M821.37,302.26c0-6.07,0.08-12.14-0.01-18.21c-0.27-17.88,1.16-35.57,3.27-53.37
		c2.01-16.99,5.94-33.29,11.61-49.21c5.6-15.7,14.14-29.91,24.32-43.17c9.99-13.02,21.82-24.14,34.64-34.2
		c5.24-4.12,11.05-7.64,16.96-10.76c23.66-12.49,48.81-20.55,75.39-23.72c11.06-1.32,22.23-2.03,33.37-2.2
		c22.69-0.33,45.4-0.42,68.09,0c20.74,0.38,41.36,2.37,61.57,7.41c22.83,5.69,44.13,14.81,63.38,28.46
		c19,13.47,34.18,30.47,46.7,50.05c14.79,23.14,21.38,48.8,25.38,75.6c2.08,13.92,4.04,27.71,3.76,41.82
		c-0.09,4.38,1.74,8.76,2.11,13.19c1.07,13.08,4.19,25.33,10.1,37.31c5.21,10.56,5.37,22.79,7,34.5
		c3.01,21.67,1.59,43.36,1.53,65.03c-0.04,15.58-2.02,31.1-5.64,46.38c-1.91,8.06-6.35,14.14-13.22,17.91
		c-5.71,3.14-9.48,7.56-12.12,13.05c-3.29,6.84-8.64,11.31-15.58,13.27c-11.64,3.28-23.42,6.16-35.29,8.48
		c-9.99,1.95-20.18,2.85-30.28,4.25c-12.61,1.75-25.23,3.5-37.83,5.32c-10.41,1.5-20.77,3.34-31.2,4.59
		c-11.05,1.33-22.15,2.39-33.26,3.14c-13.35,0.9-26.75,2.13-40.1,1.79c-20.04-0.51-40.04-2.56-60.08-3.37
		c-15.15-0.61-29.73-3.99-44.15-8.05c-27.79-7.82-52.38-21.17-73.41-41.44c-19.5-18.8-34.12-40.49-43.37-65.75
		c-5.05-13.77-7.88-28.09-10.14-42.69C820.97,352.57,821.52,327.43,821.37,302.26z"/>
	<path fill="#101214" d="M2400.69,1597.78c-23.34,0.05-46.69,0.13-70.03,0.13c-127.6,0-255.2-0.01-382.8-0.03
		c-4.48,0-8.95-0.07-13.43-0.11c-4.77-10.47-1.61-21.57,8.03-24.37c7.21-2.09,10.59-6.42,12.4-12.96c0.93-3.38,1.98-6.72,2.96-10.09
		c1.11-3.82,3.45-8.04,7.59-7.51c8.31,1.08,9.18-4.19,10.69-9.9c1.22-4.6,3.59-8.82,4.74-13.51c1.24-5.04,4.66-8.81,9.88-9.2
		c7.81-0.58,9.84-5.9,11.57-11.95c1.32-4.6,1.43-9.41,2.76-14.05c1.72-6.01,4.82-9.85,11.46-8.89c4.15,0.6,5.85-1.38,6.92-4.78
		c0.29-0.91,0.93-1.71,1.13-2.63c3.16-14.43,10.69-26.09,21.83-35.73c4.6-3.98,0.99-6.78-2.62-8.7
		c-9.57-5.1-19.21-10.09-29.11-14.51c-34.36-15.3-68.94-30.09-104.2-43.23c-4.59-1.71-7.63-5.81-12.42-6.94
		c-15.52-7.36-31.65-13.12-48.06-18.01c-14.53-4.34-27.99-11.86-43.11-14.38c-20.13-5.39-40.05-11.48-60.09-17.24
		c-22.79-4.73-45.04-11.54-67.77-16.53c-56.92-12.5-114.11-23.49-172.03-30.21c-13.53-1.57-26.84-5.39-40.67-4.21
		c-16.08-2.92-32.38-3.67-48.59-4.9c-39.5-2.99-79.07-4.12-118.7-4.41c-31.28-0.23-62.56,0.03-93.78,0.88
		c-23.85,0.65-47.87,1.43-71.6,4.91c-6.35,0.93-12.72-0.87-19.03,0.28c-12.91,3.87-26.4,3.87-39.64,5.35
		c-45.58,5.09-90.83,12.08-135.78,21.17c-30.57,6.18-61.23,11.96-91.29,20.41c-2.81,0.79-5.76-0.07-8.44,1.14
		c-17.66,6.54-36.19,10.16-54.23,15.49c-62.55,18.47-123.99,40.02-184.17,65.16c-77.64,32.44-152.67,70.04-225,113.09
		c-44.22,26.32-87.28,54.31-128.84,84.64c-3.33,2.43-6.71,5-11.16,5.08c-2.83,1.22-6.2,1.83-8.38,3.77
		c-7.11,6.3-15.05,8.33-24.48,7.84c-13.31-0.7-26.68-0.27-40.03-0.32c0.63-4.58,4.04-7.23,7.27-9.73
		c13.88-10.74,27.63-21.69,41.94-31.82c26.07-18.45,52.31-36.68,78.85-54.43c16.71-11.17,34.04-21.44,51.24-31.88
		c18.82-11.42,37.74-22.67,56.74-33.78c8.27-4.84,16.77-9.27,25.28-13.68c13.6-7.05,27.3-13.9,40.92-20.92
		c4.54-2.34,8.79-5.25,13.41-7.39c29.57-13.66,58.98-27.72,88.9-40.6c31.37-13.51,63.17-26.07,94.95-38.6
		c12.48-4.92,25.5-8.44,38.16-12.9c47.95-16.89,96.78-30.82,146.15-42.77c32.27-7.81,64.73-14.88,97.29-21.39
		c26.26-5.25,52.73-9.54,79.22-13.53c18.26-2.75,36.7-4.24,55.06-6.31c15.5-1.75,31-3.53,46.5-5.29c1.27-0.14,2.54-0.29,3.82-0.35
		c13.69-0.68,27.5-0.45,41.05-2.25c14.37-1.91,28.77-0.42,43.01-1.83c35.11-3.47,70.26-1.2,105.38-1.56
		c21.68-0.22,43.39,0.87,65.06,1.89c18.13,0.86,36.25,2.2,54.33,3.85c14.9,1.36,29.72,3.57,44.59,5.23
		c13.61,1.53,27.28,2.58,40.87,4.31c13.59,1.73,27.15,3.8,40.65,6.13c27.97,4.82,55.92,9.82,83.84,14.93
		c10.36,1.9,20.68,4.06,30.92,6.54c23.28,5.64,46.65,11.02,69.71,17.48c33.82,9.47,67.55,19.34,101.05,29.89
		c23.75,7.48,47.14,16.12,70.53,24.7c18.58,6.82,37.08,13.95,55.31,21.66c20.59,8.7,40.87,18.13,61.22,27.39
		c16.28,7.41,32.6,14.75,48.65,22.64c16.34,8.04,32.41,16.63,48.49,25.17c10.15,5.39,20.21,10.96,30.15,16.73
		c23.47,13.63,47.07,27.05,70.18,41.28c22.29,13.72,44.2,28.08,65.95,42.65c18.82,12.61,37.36,25.65,55.66,39
		c13.91,10.14,27.19,21.14,40.9,31.56C2399.2,1591.98,2400.83,1594.27,2400.69,1597.78z"/>
	<path fill="#101214" d="M1642.71,615.85c1.84-4.38,3.28-8.99,5.6-13.1c9.77-17.28,20.99-33.66,34.19-48.43
		c14.67-16.42,29.75-32.57,45.82-47.61c14.89-13.94,31.64-25.78,48.95-36.69c24.14-15.22,49.49-28.25,76.28-37.84
		c18.57-6.64,37.93-11.39,57.25-15.52c16.79-3.59,33.94-6.15,51.06-7.27c16.17-1.06,32.52-0.12,48.75,0.8
		c11.42,0.65,22.8,2.51,34.13,4.26c25.63,3.95,50.97,9.54,74.95,19.45c25.38,10.48,50.17,22.21,73.27,37.48
		c15.49,10.23,30.34,21.22,44.64,32.9c9.61,7.85,17.89,17.34,26.74,26.12c23.48,23.32,42.59,49.85,59.21,78.44
		c12.28,21.12,22.08,43.33,30.27,66.11c6.34,17.64,10.21,36.25,14.06,54.67c4.98,23.78,5.93,47.98,6.15,72.29
		c0.27,30.52-3.45,60.48-10.33,90.05c-5.43,23.36-13.93,45.72-23.48,67.77c-9.07,20.96-20.89,40.27-33.37,59.13
		c-9.11,13.77-20.26,26.22-30.85,38.96c-6.52,7.84-13.33,15.51-20.68,22.56c-21.02,20.16-44.04,37.73-68.81,53.14
		c-28.41,17.68-58.64,31.17-90.46,41.24c-19.21,6.08-38.86,10.12-58.86,12.87c-20.3,2.79-40.61,3.92-61.07,3.7
		c-15.98-0.17-31.8-1.8-47.61-3.9c-30.92-4.1-60.66-12.72-89.39-24.52c-33.23-13.65-64.29-31.35-92.66-53.48
		c-17.13-13.36-33.51-27.69-48.02-43.88c-18.12-20.22-35.05-41.49-49.02-64.82c-19.14-31.94-33.51-65.93-43.22-102.01
		c-5.16-19.19-8.58-38.64-11.04-58.2c-2.34-18.64-3.87-37.58-2.15-56.35c2.03-22.18,3.6-44.51,9.4-66.16
		c1.3-4.85,3.81-9.38,5.77-14.05c8.07-4.66,12.47,3.95,18.91,5.22c5.85,2.73,11.15,5.99,12.55,13c1.11,14.2-3.76,27.71-4.95,41.71
		c-2.66,31.3-2.58,62.37,2.65,93.31c8.07,47.78,24.54,92.43,51.25,133.06c6.51,13.24,16.45,24.06,25.6,35.41
		c29.05,36.05,65.53,63.07,105.31,86.05c16.86,7.56,33.51,15.56,51.09,21.41c21.74,7.43,44.16,11.85,66.73,15.67
		c15.47,2.61,31.3,3.32,46.69,3.08c30.22-0.48,60.29-3.89,89.84-11.82c49.56-13.29,94.05-36.01,133.67-68.3
		c35.33-28.79,62.92-63.82,84.73-103.9c12.3-22.62,21.84-46.17,29.66-70.47c5.95-18.51,9.21-37.73,11.34-57.11
		c4.57-41.6,2.54-82.85-7.62-123.48c-10.55-42.17-27.89-81.4-53.23-116.89c-4.98-6.97-9.03-14.57-14.58-21.11
		c-8.92-8.09-16.33-17.61-24.75-26.22c-13.8-14.11-29.04-26.46-44.29-38.88c-16.37-9.94-32.38-20.4-49.73-28.69
		c-37.74-18.04-77.02-30.18-118.84-34.14c-93.66-8.87-177.82,15.71-252.33,72.39c-44.39,33.78-77.91,76.86-101.54,127.52
		c-2.54,5.45-4.48,11.32-8.99,15.7c-3.03,2.1-6.47,1.51-9.17,0.08c-14.63-7.74-29.94-14.38-42.7-25.33
		c-4.29-5.97-4.16-12.04,0.86-17.19c5.44-5.58,11.81-5.01,17.99-0.86c6.14,2.55,11.25,7.05,17.37,9.72c3.4,1.48,7.25,4.28,9.95-0.54
		c2.23-3.99-0.98-6.24-3.87-8.48C1645.2,621.89,1641.37,620.43,1642.71,615.85z"/>
	<path fill="#1C1F22" d="M489.39,548.92c8.24-8.02,18.67-11.97,29.34-15.14c9.16-2.72,18.55-3.96,28.21-4.54
		c15.73-0.94,31.12-0.2,46.17,4.26c15.48,4.59,30.07,11.19,40.32,24.35c8.33,10.7,13.97,22.96,16.88,36.18
		c3.5,15.88,4.9,31.77,2.6,48.28c-2.21,15.87-6.91,30.42-14.86,44.03c-8.27,14.16-21.09,22.74-36.39,27.96
		c-5.11,1.74-10.06,4.13-15.28,5.37c-6.78,1.6-13.72,2.6-20.65,3.41c-25.46,3.01-48.7-4.13-70.53-16.46
		c-14.99-8.46-22.98-22.67-28.84-38.16c-5.7-15.07-7.89-30.8-7.69-46.88c0.06-5.11,0.02-10.21,0.02-15.32
		c4.16-3.47,7.74-0.54,11.35,1.13c6.32,2.92,11.37,7.95,17.77,10.78c4.92,2.4,9.95,4.68,11.85,10.47
		c7.07,19.29,14.44,37.54,36.21,46.26c28.85,11.56,63.69-5.28,72.79-35.07c11.61-37.99-24.14-74.6-62.69-66.68
		c-4.65,0.95-9.63,0.2-13.97,2.76c-5.9,0.86-10.34-2.52-15.06-5.12c-6.14-5.8-14.92-7.04-21.4-12.33
		C492.42,555.9,488.08,554.28,489.39,548.92z"/>
	<path fill="#1F2227" d="M449.15,600.44c-14.13-8.09-28.29-16.13-42.39-24.27c-22.95-13.25-45.88-26.54-68.79-39.85
		c-2.48-1.44-4.89-3.02-7.2-4.72c-1.99-1.47-3.12-3.77-1.42-5.76c0.96-1.11,3.56-1.72,5.03-1.28c3.33,1.01,6.54,2.59,9.58,4.34
		c18.27,10.49,36.47,21.12,54.74,31.63c2.18,1.26,4.52,2.45,6.94,3.01c1.2,0.28,3.35-0.6,3.97-1.62c0.63-1.04,0.46-3.37-0.34-4.3
		c-1.62-1.89-3.75-3.49-5.93-4.75c-21.83-12.63-43.73-25.16-65.59-37.75c-4.7-2.71-9.35-5.52-13.98-8.35c-1.63-1-3.24-2.07-4.71-3.3
		c-1.93-1.62-2.79-3.98-1.01-5.85c0.99-1.04,3.43-1.36,5.01-1.01c2.12,0.46,4.08,1.78,6.01,2.9c5.8,3.37,11.54,6.83,17.32,10.22
		c1.1,0.64,2.23,1.31,3.44,1.67c2.75,0.84,6.1,2.04,7.81-1c1.95-3.47-1.54-4.94-3.83-6.53c-3.41-2.37-6.88-4.66-10.32-6.98
		c-2.63-1.77-4.59-4-2.39-7.11c1.97-2.8,4.6-1.33,6.84-0.06c9.7,5.54,19.37,11.15,29.04,16.75c5.53,3.2,10.98,6.53,16.59,9.58
		c1.6,0.87,3.61,1.33,5.43,1.34c2.43,0.01,4.1-3.08,2.56-4.9c-2.02-2.38-4.42-4.63-7.08-6.26c-8.17-5-16.56-9.63-24.8-14.51
		c-1.89-1.12-3.95-2.39-5.13-4.14c-0.88-1.3-1.2-3.93-0.44-5.12c0.68-1.07,3.25-1.48,4.85-1.26c1.81,0.25,3.53,1.43,5.19,2.39
		c32.64,18.81,65.28,37.63,97.88,56.53c2.15,1.25,3.93,3.12,5.89,4.7c-2.21,8.29-9.03,13.98-12.22,21.72
		c-4.39,2.97-8.5,0.98-12.54-0.86c-5.76-2.63-10.84-6.52-16.15-8.81c6.78,7.18,20.16,7.18,23.53,19.43
		C457.26,584.59,454.43,593.1,449.15,600.44z"/>
	<path fill="#23262B" d="M1588.98,648.45c-20.19-11.53-40.39-23.05-60.56-34.62c-5.8-3.33-11.74-6.48-17.21-10.3
		c-6.24-4.36-5.75-10.42,0.54-14.68c2.86-1.93,5.47-1.23,8.07,0.21c8.09,4.46,16.11,9.05,24.21,13.48c2.49,1.36,5.07,2.78,7.79,3.42
		c3.7,0.87,7.05-0.42,9.02-3.86c1.89-3.32,1.86-6.91-0.64-9.85c-1.82-2.14-4.17-3.92-6.53-5.47c-3.72-2.45-7.7-4.5-11.48-6.87
		c-4.79-3-6.45-8.79-3.91-13.06c2.16-3.63,7.07-4.98,11.78-2.92c3.8,1.66,7.53,3.5,11.13,5.55c16.59,9.48,33.15,19.03,49.66,28.66
		c1.87,1.09,3.37,2.81,5.03,4.24c1.77,6.07-3.7,9.11-5.98,13.3C1603.72,627.06,1596.47,637.85,1588.98,648.45z"/>
	<path fill="#292E33" d="M1625.38,711.93c-5.74-2.65-11.47-5.31-17.21-7.96c-12.86-7.69-25.75-15.34-38.58-23.08
		c-4.37-2.63-8.86-5.16-12.83-8.31c-4.62-3.67-5.37-8.72-2.67-12.68c2.7-3.96,7.3-4.66,12.76-1.71c6.18,3.34,12.24,6.89,18.4,10.26
		c1.94,1.06,3.96,2.22,6.08,2.7c6.61,1.5,11.54-2.75,10.94-9.42c-0.23-2.51-1.2-4.94-1.83-7.41c-1.29-1.36-2.23-2.99-3.48-4.38
		c-2.37-2.63-2.84-5.52-0.65-8.45c1.9-2.54,4.54-3.22,7.47-2.12c1.46,0.55,2.84,1.25,4.42,1.36c2.86,1.32,5.83,2.46,8.57,4
		c11.36,6.37,22.62,12.89,33.98,19.26c1.63,0.91,3.56,1.27,5.36,1.89c0.56,0.78,0.76,1.64,0.63,2.58
		c-9.68,12.88-18.65,26.24-27.06,39.99C1628.68,710.08,1627.33,711.38,1625.38,711.93z"/>
	<path fill="#23262B" d="M886.64,916.92c-14.38-8.28-28.8-16.51-43.14-24.87c-6.89-4.02-13.76-8.1-20.39-12.52
		c-3.66-2.44-4.11-5.15-2.43-8.13c1.97-3.5,5.12-4.52,8.87-2.49c6.73,3.65,13.35,7.53,20.03,11.27c2.54,1.43,5.13,2.73,8.1,1
		c4.56-2.65,5.2-8.45,0.8-12.05c-3.68-3.01-7.96-5.29-12.03-7.81c-2.36-1.46-4.4-3.58-3.45-6.18c0.89-2.44,2.85-4.97,5.05-6.27
		c1.44-0.85,4.37-0.08,6.23,0.81c4.59,2.21,8.97,4.88,13.4,7.43c19.37,11.14,38.74,22.29,58.09,33.47c2.2,1.27,4.51,2.51,6.33,4.22
		c2.69,2.52,3.11,6.9,1.43,9.7c-1.66,2.76-5.58,3.86-9.42,1.98c-5.15-2.53-10.03-5.62-15.09-8.35c-8.22-4.44-11.68-2.42-12.9,7.42
		C894.14,910.29,890.99,914.11,886.64,916.92z"/>
	<path fill="#2F333A" d="M932.67,928.51c11.49,6.2,23.06,12.27,34.46,18.63c10.85,6.06,21.53,12.43,32.29,18.65
		c1.1,0.64,2.29,1.16,3.33,1.89c4.13,2.9,5.08,5.49,3.3,8.75c-2.56,4.7-6.6,6.2-11.01,3.67c-11.06-6.35-22-12.91-33.03-19.3
		c-3.03-1.75-6.08-3.59-9.35-4.76c-4.12-1.48-8.17,0.46-9.49,4.1c-1.38,3.8,0.89,6.22,3.73,7.87c10.75,6.25,21.62,12.28,32.41,18.45
		c3.32,1.9,6.62,3.85,9.77,6.01c3.03,2.07,3.58,5.19,2.54,8.51c-1.18,3.76-4.36,4.5-7.69,4.12c-2.14-0.24-4.37-0.99-6.24-2.07
		c-20.97-12.14-41.88-24.37-62.77-36.64c-1.33-0.78-2.31-2.14-3.45-3.23c-3.68-3.95-4.12-8.62-1.7-13.07
		C915.01,940.47,918.37,928.61,932.67,928.51z"/>
	<path fill="#292E33" d="M464.37,566.05c0.04-9.93,4.58-16.99,13.53-21.25c3.83,1.37,7.66,2.74,11.49,4.12
		c6.57,4.19,13.17,8.34,19.7,12.59c3.11,2.02,6.1,4.23,9.14,6.36c-0.54,4.75-5.05,6.32-7.65,9.39
		c-8.97,10.59-15.61,22.38-19.5,35.71c-0.99,3.39-2.09,6.74-5.51,8.57c-8.96-5.1-17.92-10.19-26.88-15.29
		c-3.18-1.94-6.36-3.88-9.55-5.81c-1.52-10.09,3.6-17.65,9.52-24.9C461.68,573.05,463.28,569.7,464.37,566.05z"/>
	<path fill="#262A2F" d="M932.67,928.51c-7.7,4.74-13.12,11.48-17.41,19.34c-2.63,4.83-4.12,9.81-3.8,15.31
		c-2.08-0.78-4.33-1.28-6.23-2.38c-14.91-8.6-29.77-17.27-44.58-26.03c-1.88-1.11-3.73-2.57-5.04-4.29c-2.22-2.91-1.76-6,0.68-8.69
		c2.2-2.44,4.73-2.97,7.69-1.22c4.94,2.92,9.89,5.82,14.93,8.56c2.21,1.2,4.56,2.4,6.99,2.87c3.12,0.6,5.53-1.17,7.12-3.82
		c1.58-2.63,0.62-4.97-1.32-6.91c-1.57-1.57-3.37-2.89-5.07-4.33c0.53-5.99,1.88-11.3,9.49-11.4c8.27,5.08,16.57,10.12,24.8,15.25
		C924.91,923.25,928.76,925.92,932.67,928.51z"/>
	<path fill="#262A2F" d="M1608.22,640.7c-2.38,0.32-4.76,0.69-7.15,0.95c-2.85,0.32-3.99,1.74-3.13,4.56
		c0.83,2.7,1.67,5.39,2.51,8.09c-3.82-1.95-7.65-3.9-11.47-5.85c-0.38-4.87,0.84-9.13,3.64-13.3c5.42-8.06,10.15-16.59,15.54-24.67
		c2.04-3.06,5.12-5.43,7.72-8.11c6.18,1.53,11.17,5.01,15.51,9.55c-0.45,5.76-0.84,11.54-5.96,15.5c-1.97-0.95-3.87-2.1-5.93-2.81
		c-8.62-2.99-14.22,1.63-13.07,10.8C1606.66,637.22,1607.6,638.94,1608.22,640.7z"/>
	<path fill="#23262B" d="M1625.43,627.42c-0.04-5.94-0.87-12.19,5.96-15.5c3.78,1.31,7.55,2.62,11.32,3.93
		c3.5,2.16,7.18,4.09,10.45,6.55c6.5,4.88,5.45,13.69-2.04,16.83c-1.83,0.77-4.66,1.02-6.26,0.13
		C1638.23,635.67,1631.89,631.45,1625.43,627.42z"/>
	<path fill="#1E2126" d="M1521.74,652.22c-6.82-2.7-14.97-6.15-20-14.15c-1.7-2.69-0.95-5.63,1.27-7.89
		c2.51-2.55,5.59-5.18,9.22-3.41c6.26,3.07,12.31,6.64,18.11,10.51c3.23,2.16,3.49,5.95,2.31,9.54
		C1531.48,650.4,1528.03,652.33,1521.74,652.22z"/>
	<path fill="#1A1D20" d="M236.07,1586.52c1.55-1.92,2.77-4.31,4.71-5.69c19-13.47,37.88-27.13,57.26-40.04
		c21.24-14.14,42.73-27.93,64.56-41.13c20.2-12.21,40.79-23.81,61.57-35c28.39-15.29,56.93-30.31,85.77-44.71
		c18.83-9.4,38.22-17.7,57.52-26.13c22.22-9.71,44.56-19.16,66.97-28.44c10.9-4.52,21.97-8.71,33.14-12.52
		c29.31-10.01,58.62-20.06,88.12-29.46c22.18-7.07,44.66-13.22,67.04-19.66c4.59-1.32,9.32-2.11,13.99-3.15
		c17.8,4.93,32.27,16.31,48,25.15c35.22,19.79,70.02,40.3,105.05,60.44c12.47,10.1,27.82,15.25,41.15,23.92
		c17.53,11.4,38.03,18.41,51.71,35.46c2.98,3.71,6.77,6.8,8.21,11.6c3.21,8.8,10.39,15.7,12.02,25.26c0.58,3.39,1.67,6.7,1.69,10.18
		c-0.33,2.69-0.88,5.4,0.74,7.94c1.18,3.23,1.76,6.5,0.74,9.88c-2.53,15.38-4.08,30.95-10.76,45.39c-2.02,4.37,0.01,7.05,5.05,5.52
		c6.64-2.01,14.09-1.74,19.68-6.83c0.68-0.62,1.66-1.11,2.56-1.27c19.24-3.36,36.18-13.72,55.42-17.57
		c13.28-2.66,25.9-8.71,38.84-13.16c12.36-4.25,25.29-7.3,37.08-12.25c15-6.3,31.24-8.96,45.58-16.74c1.69-0.92,3.4-2.23,5.21-2.36
		c15.48-1.12,28.62-10.07,43.49-12.89c11.28-2.14,20.25-10.26,31.03-12.15c15.87-2.78,29.69-11.03,45.16-14.34
		c5.71-1.22,6.58-6.52,9.88-9.74c5.41-3.32,9.96-0.1,14.27,2.34c24.7,13.99,49.79,27.4,73.63,42.81
		c24.15,15.61,49.47,29.2,73.91,44.28c6.44,3.97,15.04,7.66,13.16,16.8c-1.7,8.27-10.84,9.7-17.71,10.82
		c-10.97,1.79-20.48,7.1-30.68,10.61c-16.88,5.81-34.23,10.27-50.9,16.31c-11.92,4.32-24.67,5.99-36.04,11.75
		c-9.91,0.05-19.83,0.14-29.74,0.14c-167.91-0.01-335.82-0.03-503.74-0.05c-4.48,0-8.95-0.06-13.43-0.09
		c-3.16-8.33,3.16-9.53,8.59-11.3c2.03-0.66,4.91-0.08,5.42-2.92c0.48-2.67-2.17-3.75-3.83-5.05
		c-13.4-10.48-28.66-17.97-43.16-26.68c-37.8-22.69-75.69-45.28-114.37-66.42c-31.38-17.15-62.94-13.24-91.16,7.34
		c-31.28,22.81-40.9,54.88-33.32,92.41c0.87,4.32,3.04,8.64-0.78,12.64c-60.74,0.04-121.48,0.09-182.22,0.1
		c-69.69,0.02-139.39-0.22-209.08,0.21C251.78,1598.16,243.65,1593.65,236.07,1586.52z"/>
	<path fill="#141619" d="M1473.89,1597.75c2.1-7.37,133.77-51.08,131.9-52.99c-2.87-2.92-168.59-101.48-170.33-102.22
		c-5.96,1.56-214.44-120.81-227.69-127.76c-29.74-16.73-94.96-54.93-94.73-62.02c0.3-9.39,329.13-12.56,349.49,0.12
		c1.58,0.98,3.64,1.09,5.45,1.67c57.42,27.61,273.05,155.24,299.91,169.16c54.9,28.46,111.52-5.18,125.17-55.58
		c1.21-4.46,1.44-9.71,6.79-11.9c22.46,9.08,45.12,17.68,67.31,27.36c26.62,11.61,52.84,24.15,79.23,36.29
		c0.29,0.13,0.57,0.28,0.85,0.43c2.9,1.57,7.59,3.43,7.96,3.63c2.65,1.4-117.85,170.24-120.78,173.84
		c-62.12,0.04-124.25,0.08-186.37,0.14c-14.02,0.01-28.03,0.08-42.05,0.13c-70.34-0.06-140.68-0.11-211.02-0.17
		C1487.96,1597.86,1480.92,1597.79,1473.89,1597.75z"/>
	<path fill="#1F2227" d="M654.36,1597.77c-4.21-12.85-6.49-25.95-5.72-39.54c1.09-19.36,7.42-36.46,19.45-51.96
		c14.96-19.27,34.72-29.93,58.02-33.95c18.93-3.27,37.7-1.07,54.78,8.62c23.32,13.23,46.43,26.83,69.58,40.35
		c26.19,15.3,52.36,30.62,78.44,46.1c5.2,3.09,9.98,6.88,14.88,10.46c1.27,0.92,2.4,2.13,3.32,3.41c3.09,4.29,2.1,7.31-2.93,8.42
		c-2.46,0.54-5.07,0.5-7.62,0.56c-5.1,0.13-8.57,2.21-9.57,7.51c-45.91,0.04-91.83,0.11-137.74,0.11
		C744.28,1597.87,699.32,1597.81,654.36,1597.77z"/>
	<path fill="#1A1D20" d="M938.06,381.87c-7.06-7.63-11.27-17-14.95-26.42c-6.3-16.11-9.71-32.77-9.88-50.37
		c-0.22-22.51,3.72-43.78,13.65-63.89c16.64-33.69,41.95-57.93,77.36-71.66c14.8-5.74,30.06-8.78,45.6-9.71
		c12.89-0.77,26.08-0.26,38.26,5.53c-3.21,9.6,1.36,14.59,9.7,18.76c10.78,5.39,21.27,11.46,31.5,17.91
		c1.34,0.85,2.79,1.53,4.12,2.41c6.9,4.59,9.29,10.5,6.49,15.97c-2.81,5.49-9.11,6.79-16.75,3.31c-3.18-1.45-6.25-3.15-9.17-5.09
		c-1.87-1.24-3.84-2.3-5.91-3.09c-2.01-0.77-4.51-2.11-5.78,0.76c-0.91,2.08,1.02,3.56,2.58,4.57c6.41,4.14,13.09,7.83,19.77,11.51
		c5.29,2.91,10.85,5.36,15.44,9.46c5.86,3.78,12.81,5.6,18.16,10.2c5.05,4.35,9.19,9.23,5.29,16.37c-3.1,5.68-10.14,6.83-17.64,2.6
		c-7.98-4.5-15.69-9.48-23.29-14.56c-15.04-6.93-28.73-16.26-43.08-24.44c-4.7-2.68-9.42-5.31-14.36-7.52
		c-1.59-0.71-3.21-0.39-4.04,1.31c-0.63,1.29,0.03,2.57,0.98,3.43c2.85,2.56,6.09,4.56,9.4,6.48c12.37,7.19,25.24,13.53,37.27,21.34
		c2.67,1.74,5.55,3.14,7.29,6.02c3.7,6.53,2.83,11.87-3.98,15.69c-5.92,1.58-11.12-0.16-16.25-3.19
		c-10.11-5.96-19.99-12.32-30.44-17.68c-2.38-1.22-5.33-4.18-7.39-0.66c-2,3.42,1.79,4.77,4.13,6.19
		c13.55,8.23,27.77,15.3,41.05,24.01c4.3,2.73,9.25,4.37,13.11,7.8c4.74,4.22,7.25,9.27,3.53,15.19c-3.76,5.97-9.52,5.98-15.19,3.16
		c-8.84-4.4-17.33-9.47-25.74-14.66c-4.07-2.51-8.31-4.73-12.74-6.54c-1.24-0.51-2.58-0.55-3.49,0.59
		c-1.26,1.58-0.48,2.96,0.74,4.15c2.99,2.92,6.89,4.61,10.07,7.25c5.11,4.25,8.25,9.42,4.19,15.79c-3.82,5.99-9.47,5.43-15.24,2.72
		c-7.52-3.53-14.39-8.19-21.66-12.17c-2.17-1.19-4.95-3.15-6.67-0.11c-1.73,3.07,1.44,4.51,3.57,5.67
		c8.13,4.41,16.03,9.19,23.93,13.99c3,1.83,5.98,3.69,8.26,6.42c3.1,3.72,4.5,7.84,1.82,12.3c-2.58,4.29-6.67,5.7-11.54,4.87
		c-1.9-0.32-3.49-1.55-5.36-1.98c-15.31-8.57-30.28-17.74-45.51-26.44c-3.17-1.81-7.82-6.64-10.59-1.57
		c-2.24,4.1,4.13,5.35,6.92,7.58c3.48,2.77,7.82,4.41,10.82,7.85c3.46,3.97,4.79,8.41,1.89,13.17c-2.97,4.87-7.54,5.39-12.61,3.8
		c-5.86-1.84-10.62-5.86-16.21-8.2c-2-0.84-4.55-2.04-5.72,0.89c-0.89,2.23,1.34,3.32,2.92,4.33c12.12,7.73,24.78,14.54,37.29,21.59
		c3.05,1.72,6.42,2.89,9.13,5.26c3.11,3.47,8.01,3.79,11.46,6.81c5.08,4.44,8.31,9.4,4.29,15.76c-4,6.32-10.07,5.69-16.15,3.04
		c-2.06-0.9-3.6-2.66-5.73-3.4c-4.5-0.67-7.2-4.67-11.31-6.08c-5.67-3.49-11.16-7.31-17.29-10.04c-7.46-4.89-15.23-9.28-23.02-13.6
		c-2.74-1.52-6.72-5.07-9.11-0.74c-2.09,3.81,2.82,4.9,5.27,6.52c7.96,5.28,16.9,8.94,24.56,14.78c5.42,2.76,11.29,5.06,12.25,12.25
		c0.57,5.53-1.98,9.17-6.88,11.38c-3.87,0.98-7.69,0.73-11.08-1.45C972.95,404.13,953.42,396.24,938.06,381.87z"/>
	<path fill="#262A2F" d="M1109.14,276.52c6.79-3.86,6.91-4.27,3.88-13.52c2.03-4.38,5.31-7.52,9.63-9.62
		c7.19,3.92,14.38,7.82,21.55,11.77c2.77,1.52,5.35,3.44,8.24,4.66c3.26,1.38,6.18,0.48,8.25-2.65c2.09-3.15,1.87-6.1-1.07-8.41
		c-3.45-2.72-7.14-5.14-10.77-7.64c-3.6-2.48-7.24-4.88-10.86-7.32c-0.39-3.08,1.14-5.37,2.91-7.69
		c5.33-6.99,11.25-13.54,15.67-21.23c1.32-2.3,2.89-5.16,6.58-3.8c9.44,8.06,15.5,18.67,20.93,29.43
		c12.6,24.97,15.47,51.9,12.97,79.3c-0.94,10.35-4.65,20.48-7.38,30.63c-1.99,7.38-1.78,8.7,4.57,12.52
		c7.66,4.61,15.43,9.02,23.1,13.6c3.21,1.91,5.26,4.61,5.01,8.61c-0.25,4.15-2.96,6.71-6.96,5.83c-2.75-0.61-5.43-1.89-7.9-3.3
		c-10.54-5.99-20.98-12.17-31.51-18.2c-1.92-1.1-3.99-2.12-6.12-2.6c-3.3-0.74-6.63-0.35-8.11,3.26c-1.3,3.14-1.1,6.48,1.84,8.71
		c3.04,2.31,6.39,4.22,9.65,6.22c3.54,2.17,7.16,4.19,10.7,6.36c2.68,1.64,4.51,3.83,2.83,7.12c-1.61,3.14-4.37,4.87-7.89,3.98
		c-2.41-0.61-4.72-1.89-6.88-3.2c-8.74-5.28-17.37-10.76-26.13-16.02c-3-1.8-6.12-3.54-9.41-4.66c-3.71-1.26-7.31,0.6-8.83,3.85
		c-1.52,3.23-0.01,5.88,2.39,7.54c6.81,4.72,13.79,9.21,20.85,13.53c10.34,6.33,20.83,12.42,31.23,18.67
		c1.35,0.81,3.11,1.71,3.62,2.99c0.88,2.18,1.72,4.97,1.04,6.99c-0.5,1.51-3.4,3.02-5.27,3.07c-2.71,0.08-5.72-0.66-8.13-1.94
		c-7.6-4.06-15.26-8.12-22.35-12.97c-5.88-4.02-10.64-4.13-16.47,0.1c-11.46,8.31-24.16,14.44-37.82,18.2
		c-18.86,5.19-37.92,8.75-57.61,4.88c-7.8-1.53-15.76-2.38-23.47-4.27c-4.22-1.03-8.07-3.57-12.08-5.43
		c-0.89-1.48-1.16-3.37-0.07-4.44c9.19-9.04,14.85-20.75,23.25-30.37c3.23,1.32,6.47,2.63,9.7,3.95c4.97,2.04,7.77,1.46,9.97-2.07
		c2.18-3.51,1.38-6.54-2.82-9.67c-4.3-3.2-8.72-6.25-13.08-9.36c9.59-9.95,15.39-22.8,25.04-32.71c2.48,0.57,4.93,1.42,7.44,1.63
		c3.18,0.27,5.46-1.53,6.84-4.31c1.37-2.76,0.05-5.02-1.92-6.8c-1.87-1.69-3.93-3.26-6.1-4.53c-9.08-5.29-18.25-10.44-27.36-15.67
		c-1.65-0.95-3.35-1.9-4.79-3.12c-2.85-2.43-3.01-5.39-1.29-8.61c2-3.75,4.71-5.14,8.65-3.85c2.08,0.68,3.99,1.95,5.92,3.05
		c7.46,4.28,14.87,8.65,22.35,12.89c4.78,2.71,7.5,2.27,9.82-1.27c2.23-3.42,1.54-7.1-2.19-10.04c-1.73-1.37-3.85-2.24-5.73-3.44
		c-2.69-1.71-5.48-3.32-7.94-5.31c-3.81-3.09-4.46-6.64-2.25-10.03c2.44-3.74,6.13-4.5,10.83-1.96c4.76,2.58,9.42,5.34,14.1,8.07
		c8.25,4.82,16.44,9.74,24.73,14.49c5.03,2.88,8.4,2.29,10.77-1.54c2.28-3.69,1.22-7.47-3.21-10.58c-4.16-2.92-8.44-5.65-12.67-8.47
		C1099.98,283.06,1106.19,280.72,1109.14,276.52z"/>
	<path fill="#2F333A" d="M1163.14,211.07c-5.43,8.09-10.65,16.32-16.38,24.18c-2.37,3.25-5.82,5.71-8.77,8.54
		c-12.28-6.73-24.56-13.45-36.82-20.2c-1.11-0.61-2.2-1.35-3.09-2.24c-2.59-2.57-2.81-5.69-1.35-8.81c1.46-3.1,4.55-3.84,7.35-2.96
		c3.9,1.23,7.61,3.18,11.25,5.1c4.51,2.37,8.7,5.4,13.34,7.43c2.96,1.3,6.41,0.88,8.4-2.48c1.96-3.29,0.83-7.55-2.58-10.07
		c-0.76-0.57-1.65-0.96-2.48-1.44c-13.56-7.75-27.14-15.48-40.68-23.25c-2.21-1.27-4.41-2.59-6.45-4.12
		c-5.51-4.12-5.63-7.49-0.52-12.43c1.14-1.1,2.49-1.99,3.74-2.97c1.2,0.01,2.39,0.02,3.59,0.03c15.2,6.78,29.35,15.62,44.41,22.65
		c1.81,0.42,4.09,0.29,5.36,1.36c6.7,5.65,13.2,11.55,19.62,17.52C1162.13,207.9,1162.47,209.67,1163.14,211.07z"/>
	<path fill="#2B3036" d="M938.06,381.87c8.7,4.44,17.55,8.62,26.06,13.39c9.95,5.56,19.57,11.71,29.44,17.42
		c1.83,1.06,4.17,1.25,6.28,1.84c4.28,8.22,3.24,11-5.77,15.38c-13.03-4.17-23.45-12.62-33.45-21.36
		C951.84,400.88,943.12,392.83,938.06,381.87z"/>
	<path fill="#292E33" d="M994.06,429.91c2.16-5.04,7.06-9.05,5.77-15.38c3.8-2.09,5.97-5.17,5.82-9.65
		c3.68-3.99,7.02-8.31,11.47-11.54c3.2,1.91,6.41,3.82,9.61,5.73c0.29,5.29-2.33,9.33-4.81,13.83c-4.65,8.46-12.13,14.1-18.37,20.97
		C1000.39,432.55,997.23,431.23,994.06,429.91z"/>
	<path fill="#1A1D20" d="M1136.1,188.04c-2.79,2.78-5.89,2.1-8.76,0.43c-10.99-6.38-21.94-12.84-32.81-19.42
		c-1.23-0.75-1.91-2.42-2.84-3.66c11.07,0.91,20.53,6.29,30.21,10.99c3.42,1.66,6.76,3.61,9.76,5.92
		C1133.51,183.73,1134.64,186.09,1136.1,188.04z"/>
	<path fill="#262A2F" d="M1206.17,404.82c6.13,2.57,12.01,4.56,15.09,10.34c0.7,1.32,0.23,3.81-0.58,5.27
		c-1.51,2.69-4.55,4.51-7.3,3.04c-4.41-2.36-8.52-5.46-12.21-8.84c-1.04-0.95-0.85-4.34,0.01-5.97
		C1202.06,406.96,1204.44,406.06,1206.17,404.82z"/>
	<path fill="#23262B" d="M1113.04,1252.76c2.4,2.4,4.43,5.46,7.27,7.11c23.09,13.42,46.38,26.5,69.51,39.86
		c6.59,3.81,12.82,8.21,19.22,12.35c5.56,7.52,4.39,11.74-3.83,15.14c-13.53,5.59-27.28,10.46-41.59,13.62
		c-7.51,1.66-14.95,3.34-20.92,8.73c-1.15,1.03-2.8,1.79-4.35,1.91c-16.76,1.34-31.17,10.63-47.52,13.71
		c-13.7,2.58-26.32,9.37-39.24,14.61c-15.84,6.41-32.27,9.97-48.81,13.28c-5.04,1.01-9.78-2.23-14.46-4.21
		c-7.93-4.02-16.08-7.67-23.76-12.11c-29.25-16.9-58.32-34.1-87.52-51.08c-10.74-6.25-21.74-12.07-32.46-18.36
		c-2.92-1.71-5.25-4.44-7.85-6.69c17.93-4.44,35.86-8.89,53.79-13.31c1.85-0.46,3.78-0.65,5.63-1.11
		c37.13-9.31,74.91-15.31,112.6-21.66c17.89-3.01,35.87-5.6,53.89-7.63C1079.38,1255,1096.23,1254.1,1113.04,1252.76z"/>
	<path fill="#1A1D20" d="M1899.86,1356.22c-4.76,31.76-20.92,56.08-49.06,71.42c-19.93,10.87-41.34,14.3-63.89,7.74
		c-14.59-4.25-27.81-11.09-40.84-18.6c-19.09-11-38.32-21.77-57.37-32.84c-6.56-3.81-12.77-8.22-19.14-12.36
		c5.32-5.66,11.22-2.62,15.54,0.45c11.36,8.08,24.46,5.81,34.84,2.28c9.47-3.22,19.23-7.2,28.66-11.29
		c5.35-2.31,10.22-4.97,16.2-4.4c0.95,0.09,2.38,0.6,2.78,0.11c8.63-10.46,22.77-5.92,32.91-12.16c2.75-1.69,5.73-2.62,8.93-3.15
		c3.17-0.52,7.65,1.58,8.98-3.21c1.41-5.07-3.71-5-6.26-6.9c-3.25-2.44-7.55-4.35-4.41-9.68c9.78,2.74,19.71,5.08,29.32,8.32
		c19,6.41,37.84,13.26,56.69,20.11C1896,1352.88,1897.83,1354.81,1899.86,1356.22z"/>
	<path fill="#1E2126" d="M1633.11,1350.49c-5.67-2.84-11.49-5.44-17-8.58c-18.57-10.6-37.01-21.42-55.53-32.09
		c-14.93-8.6-29.91-17.12-44.87-25.67c-13.86-7.91-27.77-15.73-41.53-23.8c-2.38-1.39-4.14-3.84-6.19-5.8
		c12.67,1.1,25.38,1.84,38,3.38c20.22,2.47,40.43,5.09,60.53,8.34c18.54,2.99,36.93,6.84,55.37,10.42
		c14.07,2.73,28.13,5.48,42.14,8.49c16.2,3.49,32.37,7.15,48.49,10.99c10.54,2.51,20.98,5.44,31.44,8.26
		c1.5,0.4,2.86,1.28,4.29,1.94c3.52,8.19-0.19,17.09-11.43,19.46c-19.4,4.1-36.59,14.72-56.23,17.58c-2.88,0.42-5.75,1.27-7.97,3.03
		C1660.26,1356.21,1646.99,1356.11,1633.11,1350.49z"/>
	<path fill="#1C1F22" d="M1633.11,1350.49c1.15-0.47,2.31-1.36,3.45-1.34c6.6,0.15,13.22,0.92,19.8,0.64
		c2.91-0.13,6.15-1.71,8.53-3.55c5.73-4.43,11.78-6.9,19.14-7.62c5.53-0.55,10.83-3.46,16.21-5.39
		c10.73-3.86,21.11-8.48,32.68-10.14c4.75-0.68,9.28-5.2,13.15-8.8c1.71-1.59,1.53-5.22,2.2-7.93c5.27,1.18,10.58,2.17,15.79,3.57
		c11.09,2.98,22.16,6.07,33.17,9.35c3.62,1.08,7.03,2.88,10.54,4.35c0.46,4.35,3.85,5.35,7.24,6.58c12.08,4.37,11.97,4.38,6.64,16
		c-1.37,2.99-3.07,3.94-5.92,2.43c-5.65-2.97-10.22-1.81-14.59,2.79c-1.55,1.62-4.41,2.38-6.79,2.73c-3.13,0.47-6.38,0.28-9.57,0.13
		c-4.97-0.22-8.74,1.02-10.25,6.44c-1.07,3.83-3.59,4.91-7.36,3.06c-5.82-2.86-10.89-2.05-15.67,2.71c-1.8,1.79-4.97,2.38-7.63,3.08
		c-3.06,0.81-6.25,1.16-9.39,1.67c-3.32,0.53-6.12,1.67-7.37,5.2c-1.28,3.61-3.83,4.83-7.56,3.78c-5.4-1.52-10.56-0.99-15.93,0.93
		c-2.68,0.95-6.31,0.47-9.13-0.48c-4.51-1.52-8.59-4.26-13.05-5.95c-3.8-1.44-7.89-2.12-11.85-3.14
		c-8.63-4.48-17.35-8.78-25.84-13.5C1639.94,1355.98,1636.63,1353.04,1633.11,1350.49z"/>
	<path fill="#1A1D20" d="M1656.1,667.67c-0.01-0.61,0-1.22,0.02-1.82c2.99-7.68,5.43-15.64,9.08-23
		c12.8-25.84,28.33-50.03,46.94-72.05c13.78-16.31,29.2-31.02,45.71-44.75c25.55-21.24,53.64-38.13,83.77-51.58
		c24.26-10.83,49.67-18.43,75.83-23.54c30.94-6.05,62.25-7.43,93.45-5.33c25.04,1.69,49.84,6.14,74.11,13.83
		c24.5,7.76,48.22,17,70.68,29.34c11.46,6.3,22.31,13.7,33.38,20.68c1.02,0.65,1.66,1.9,2.48,2.88
		c-1.25,8.51-5.11,11.43-14.79,11.58c-3.93,0.06-7.45-0.95-10.78-2.8c-16.18-7.51-30.82-17.8-46.47-26.32
		c-15.12-8.22-29.42-17.9-44.88-25.5c-8.86-4.36-16.67-1.57-19.8,6.42c-2.86,7.3-0.54,13.1,7.89,18.18
		c20.75,12.5,41.71,24.63,62.89,36.4c7.24,4.02,14.65,7.74,21.42,12.58c12.74,7.2,25.53,14.3,38.05,21.88
		c5.68,3.44,10.27,7.79,11.61,14.53c1.71,8.57,1.19,16.82-6.55,22.55c-8.3,6.15-17.57,6.23-26.26,1.44
		c-12.86-7.09-25.81-14.05-38.27-21.84c-4.62-2.89-9.45-5.37-14.25-7.88c-8.07-4.22-16.14-2.15-20.04,4.68
		c-3.79,6.64-1.32,14.85,6.54,19.5c24.72,14.65,49.51,29.21,74.66,43.13c10.9,6.03,21.44,12.67,32.4,18.6
		c10.26,6.89,21.53,12.01,32.06,18.4c4.08,2.47,8.41,4.51,11.76,8.04c6.96,7.35,8.81,17.06,4.83,25.5
		c-4.09,8.65-12.27,12.89-22.92,11.86c-5.53-0.54-10.37-2.87-15.02-5.72c-17.6-10.78-36.09-20.07-53.25-31.57
		c-22.2-11.58-43.22-25.27-65.26-37.12c-13.96-7.51-26.24-17.73-40.71-24.3c-16.15-7.5-30.68-17.87-46.39-26.18
		c-9.18-4.86-17.56-2.44-21.36,6.35c-2.97,6.86-0.82,12.88,6.72,17.65c14.5,9.17,29.79,17.01,44.54,25.8
		c11.94,10.3,27.16,14.87,40.28,23.18c15.55,9.85,31.89,18.48,47.67,28.01c6.51,3.93,11.66,8.98,11,17.55
		c1.45,13.33-2.01,18.88-14.16,22.86c-9.31,2.02-17.3-1.02-25.34-5.68c-31.98-18.55-64.06-36.94-95.95-55.66
		c-4.67-2.74-9.48-5.68-15.27-3.47c-5.47,2.09-9.2,6.03-9.97,11.85c-0.91,6.85,2.92,11.45,8.56,14.69
		c17.14,9.84,34.33,19.59,51.36,29.61c19.77,11.64,39.88,22.67,59.69,34.28c9.64,6.74,20.65,11.02,30.52,17.35
		c3.2,2.05,6.59,3.85,9.63,6.15c9.38,7.1,12.16,18,7.2,27.89c-5.17,10.32-15.9,14.71-27.52,10.81c-7.58-2.55-14.14-7.13-20.7-11.63
		c-6.02-4.12-12.09-8.21-19.01-10.73c-11.42-6.02-22.38-12.86-33.31-19.72c-8.28-3.45-15.61-8.64-23.44-12.92
		c-3.93-2.15-7.77-4.51-12.04-5.85c-6.9-2.17-12.69-0.52-16.48,5.96c-3.67,6.28-1.74,11.76,3.14,16.37
		c5.38,5.08,12.06,8.37,18.31,12.16c5.72,3.48,11.45,6.95,17.07,10.65c12.13,7.43,15.86,18.98,9.57,29.53
		c-7.24,12.14-19.4,15.19-31.67,7.91c-1.08-0.64-2.08-1.44-3.23-1.91c-10.12-4.1-18.86-10.67-28.28-16.03
		c-12.03-6.53-23.52-14.02-35.74-20.25c-9.17-4.67-15.45-3.39-19.63,4.03c-4.36,7.76-2.03,14.15,6.94,19.74
		c11.08,6.9,23,12.38,33.69,19.95c9.2,4.85,18.46,9.58,26.99,15.61c12.16,6.72,25.6,11.55,34.15,23.52
		c5.13,8.74,6.43,17.28-1.05,25.48c-7.34,8.05-15.06,8.96-28.76,3.4c-12.19-4.73-22.59-12.75-34.07-18.81
		c-33.07-18.07-64.93-38.26-97.93-56.45c-3.07-1.69-6.1-3.51-9.2-5.14c-7.61-4.02-15.81-2.46-19.64,3.5
		c-4.26,6.63-2.14,16.15,5.27,20.97c12.59,8.19,26.11,14.8,38.92,22.65c3.82,2.34,7.75,4.48,10.92,7.71
		c7.55,7.7,9.14,17.76,4.2,26.33c-4.88,8.46-14.65,12.34-24.9,9.78c-5.33-1.33-10.08-3.99-14.74-6.83
		c-12.01-7.31-24.25-14.21-36.52-21.07c-8.94-5-16.59-3.59-20.83,3.69c-4.45,7.64-2.25,14.16,7.24,19.64
		c32.64,18.84,65.47,37.34,97.99,56.39c12.7,7.17,25.5,14.14,37.75,22.11c6.5,3.44,12.73,7.32,19.13,10.9
		c11.5,6.43,14.93,21.6,7.93,32.5c-7.15,11.14-21.31,13.54-32.57,5.37c-3.9-2.83-8.16-5-12.32-7.32
		c-16.65-7.52-31.7-17.93-47.57-26.85c-33.31-18.78-66.27-38.19-99.39-57.32c-5.34-3.08-10.76-4.33-16.23-0.82
		c-4.43,2.84-5.98,7.51-5.69,12.47c0.35,6,4.49,9.56,9.34,12.46c16.13,9.67,32.62,18.74,48.77,28.37
		c15.57,9.29,32.17,16.86,46.78,27.82c9.18,9.66,10.9,18.37,5.57,28.07c-4.52,8.23-13.04,11.73-24.3,10.04
		c-16.95-6.8-31.96-17.22-47.78-26.15c-28.93-16.32-57.53-33.23-86.36-49.72c-6.48-3.71-11.68-8.85-17.41-13.4
		c-4.28-6.31-9.12-12.32-12.74-18.99c-18.56-34.17-32.19-70.12-39.1-108.56c-3.17-17.63-4.44-35.32-5.77-53.13
		c-1.03-13.79,0.76-27.29,0.77-40.92c0.01-11.03,2.7-22.06,4.34-33.07c0.89-5.98,2.08-11.91,3.14-17.86
		c0.93-1.21,2.21-1.72,3.67-1.84c8.28,1,14.52,6.44,21.38,10.33c16.11,9.14,31.97,18.74,48.07,27.92c1.11,0.63,2.1,1.5,3.29,1.96
		c3.96,1.55,8.7,5.75,11.9,0.49c3.34-5.5-2.63-7.82-6.19-9.86c-14.14-8.09-28.09-16.52-42.36-24.4
		c-11.08-6.12-15.14-13.69-11.41-21.09c3.59-7.13,12.92-8.19,23.78-2.06c13.91,7.85,27.79,15.77,41.55,23.88
		c1.93,1.14,3.76,2.4,5.85,3.26c2.9,1.2,5.81,1.68,7.57-1.49c1.75-3.15-0.03-5.51-2.73-7.18c-9.53-5.86-19.35-11.21-29.03-16.8
		c-15.21-8.79-30.65-17.17-45.63-26.37C1662.37,675.41,1656.81,674.06,1656.1,667.67z"/>
	<path fill="#262A2F" d="M2122.37,736.85c11.58-4.16,13.28-6.82,13.62-21.28c13.99-3.3,17.71-15.53,22.8-26.46
		c1.07-2.3,1.36-4.91,3.98-6.13c2.88,1.28,5.9,2.32,8.61,3.89c16.52,9.57,32.89,19.4,49.49,28.8c3.47,1.97,7.67,3.15,11.65,3.62
		c7.57,0.89,13.7-1.69,17.31-9.04c3.69-7.52,2.23-14.38-2.84-20.36c-2.38-2.8-5.87-4.8-9.13-6.7c-10.45-6.08-21.05-11.9-31.52-17.94
		c-1.31-0.76-2.23-2.2-3.33-3.33c19.51-24.22,34.43-51.35,49.7-78.26c1.68-2.96,2.24-6.76,6.03-8.16c3.35,3.81,6.98,7.41,10,11.47
		c19.17,25.74,34.38,53.62,46.47,83.41c7.48,18.44,13.21,37.33,17.06,56.67c3.97,19.95,7.87,40.07,7.11,60.66
		c-0.3,7.98-0.22,15.98-0.01,23.96c0.35,12.83-1.21,25.46-3.38,38.04c-2.22,12.86-3.84,25.87-6.97,38.5
		c-2.99,12.05-7.23,23.83-11.53,35.5c-12.34,33.48-29.82,64.27-51.15,92.74c-13.37,17.85-28.25,34.4-45.35,49.1
		c-15.31,13.17-30.98,25.65-48.08,36.3c-22.56,14.05-46.34,25.57-71.52,34.27c-21.19,7.32-42.86,12.6-64.95,16.07
		c-9.73,1.53-19.67,1.8-29.51,2.63c-5.71,0.48-11.42,1.01-17.14,1.39c-3.18,0.21-6.39,0.37-9.56,0.2
		c-7.95-0.43-15.91-0.86-23.83-1.67c-10.77-1.11-21.6-2.04-32.21-4.04c-14.08-2.65-28.02-6.09-41.92-9.58
		c-4.57-1.15-8.84-3.52-13.24-5.33c-0.5-0.93-0.48-2.29,0.3-2.53c14.52-4.39,16.93-19.66,26.01-28.92c1.95-1.99,2.68-5.14,4.64-7.23
		c5.34-5.69,8.71-11.11,0.58-17.36c-1.99-1.53-2.8-4.43-1.23-6.99c1.58-2.56,4.28-2.43,6.88-2.24c1.6,0.12,3.11,0.72,4.7,0.94
		c6.07,0.83,9.43-3.14,12.55-7.27c3.46-4.57,0.05-7.39-2.68-10.7c-1.9-2.3-6.09-5.54,0.18-8.03c5.57,3.09,11.04,6.38,16.74,9.24
		c7.13,3.58,14.22,3.44,20.64-1.74c10.19-8.24,9.14-23.88-1.96-31c-6.69-4.29-13.39-8.58-20.08-12.88c0.55-6.15,3.24-8.86,8.53-5.81
		c9.75,5.64,14.28,0,19.78-6.15c4.94-5.52,8.98-11.49,12.68-17.89c5.83-10.09,13.7-18.83,19.87-28.76c1.81-2.91,3.75-5.79,5.56-8.76
		c2.84-4.68,1.75-7.07-3.09-9.52c-5.1-2.58-10.45-6.02-5.73-13.27c2.62,1.13,5.15,2.7,7.88,3.29c7.38,1.59,13.88-0.16,18.81-6.22
		c4.43-5.45,5.21-11.4,2.27-17.8c-0.66-1.44-1.38-2.86-2.07-4.29c-0.99-8.67,5.09-6.41,7.46-3.48c6.67,8.28,10.16,3.15,13.21-2.43
		c10.19-18.62,26.94-32.81,35.34-52.63c1.24-2.94,3.5-5.42,6.13-7.19c6.96-4.69,5.6-8.5-0.34-13.1c-4.04-3.14-9.18-6.83-4.22-13.24
		c10.63,5.82,21.25,11.65,31.89,17.45c3.08,1.68,6.08,3.68,9.37,4.77c9.35,3.08,18.22-0.88,22.37-9.57
		c3.94-8.24,1.6-17.26-6.71-22.46c-11.09-6.94-22.6-13.21-33.85-19.9c-2.13-1.27-3.91-3.14-5.85-4.74
		C2108.54,760.78,2112.66,746.37,2122.37,736.85z"/>
	<path fill="#2B3036" d="M2258.75,575.51c-1.01,3.93-1.21,8.35-3.18,11.72c-9.73,16.67-19.96,33.06-29.97,49.58
		c-3.43,5.66-7.05,11.25-9.95,17.18c-2.69,5.51-6.39,8.51-12.64,7.94c-3.5-1.51-7.18-2.69-10.47-4.57
		c-29.35-16.75-58.63-33.62-87.92-50.46c-3.59-2.07-7.14-4.21-10.7-6.33c-6.78-4.03-9.54-10.64-8.94-17.82
		c0.63-7.44,5.57-12.5,12.8-15.27c5.71-2.19,10.69-0.65,15.51,2.1c16.88,9.65,33.64,19.53,50.6,29.03
		c3.48,1.95,7.61,3.38,11.56,3.71c8.65,0.72,15.84-3.81,17.64-10.15c2.61-9.2-0.39-18.08-7.97-22.61
		c-11.22-6.71-22.58-13.18-33.8-19.87c-2.14-1.28-3.97-3.08-5.94-4.65c-0.55-1.28-0.45-2.83,0.68-3.32
		c9.48-4.07,14.04-11.68,15.99-21.36c0.24-1.21,1.51-1.92,2.68-2.44c2.42,0.51,4.83,1.09,7.26,1.53c7.88,1.42,14.87,0.31,19.54-7.11
		c8.88,6.68,18.45,12.64,26.5,20.21C2232.42,546.04,2247.24,559.25,2258.75,575.51z"/>
	<path fill="#292E33" d="M1920.96,1045.51c-2.17,2.9,0.49,3.86,2.13,5.16c9.13,7.25,9.25,10.45,1.62,19
		c-5.27,5.92-11.02,8.41-18.58,4.85c-0.86-0.41-1.77-0.95-2.67-0.97c-0.74-0.01-1.61,0.53-2.19,1.08c-0.22,0.21,0.03,1.34,0.4,1.67
		c2.61,2.33,5.48,4.37,7.92,6.85c3.8,3.85,4.01,5.14,0.28,8.73c-5.14,4.95-8.27,11.18-12.3,16.85c-5.33,7.5-11.31,14.48-15.13,23
		c-1.51,3.37-4.5,4.04-8.07,3.47c-1.7-0.27-3.55,0.38-5.33,0.62c-9.26-3.25-18.67-6.14-27.73-9.88c-8.2-3.38-16.02-7.69-24-11.59
		c-1.76-2.25-2.09-4.98-0.55-7.11c6.59-9.11,11.8-19.22,19.81-27.29c2.55-0.03,5.11,0.15,7.63-0.11
		c16.53-1.69,20.88-17.92,13.61-29.02c-1.21-1.85-2.72-3.51-4.09-5.26c8.48-7.83,12.52-19.16,21.17-26.85
		C1890.24,1027.65,1905.6,1036.58,1920.96,1045.51z"/>
	<path fill="#2F333A" d="M1836.57,1079.96c-0.15,9.04-6.13,15.05-11.05,21.69c-3,4.05-5.49,8.46-8.21,12.71
		c-22.37-11.65-43.23-25.61-62.29-42.09c-10.57-9.13-20.85-18.67-30.54-28.72c-13.25-13.73-25.14-28.66-35.53-44.72
		c-1.02-1.58-1.66-3.41-2.48-5.12c4.04,1.77,8.29,3.19,12.1,5.37c27.58,15.78,55.07,31.73,82.59,47.6c17.34,10,34.71,19.95,52.03,30
		C1834.5,1077.45,1835.45,1078.85,1836.57,1079.96z"/>
	<path fill="#2B3036" d="M1656.1,667.67c3.86,2.53,7.72,5.05,11.58,7.58c1.8,1.93,1.82,4.3,0.5,6.2
		c-9.18,13.26-15.65,28.38-27.39,39.88c-1.23-0.05-2.46-0.1-3.7-0.15c-3.9-3.09-7.81-6.17-11.72-9.25c0.91-3,1.24-6.38,2.85-8.95
		c6.09-9.7,12.56-19.16,18.98-28.64C1649.38,671.15,1651.89,668.23,1656.1,667.67z"/>
	<path fill="#23262B" d="M531.6,573.71c3.47-4.18,8.62-3.91,13.22-4.68c20.06-3.35,37.51,1.12,52.78,15.58
		c11.24,10.65,17.04,23.54,17.75,38.03c0.63,12.71-2.72,25.57-10.83,36.01c-13.23,17.04-31.16,26.03-52.61,24.02
		c-22.17-2.08-40.33-11.98-48.79-34.38c-2.35-6.22-4.03-12.7-6.02-19.06c4.88-3.94,9.12-0.77,13.17,1.49
		c10.58,5.9,20.4,13.11,31.09,18.81c16.7,8.91,34.13,2.68,41.05-14.38c5.27-12.97-0.7-28.46-14.28-35.5
		c-9.63-4.99-19.04-10.38-28.53-15.6C535.68,581.89,530.48,580.06,531.6,573.71z"/>
	<path fill="#2F333A" d="M531.6,573.71c12.14,7.01,24.1,14.36,36.48,20.93c10.61,5.63,17.38,13.96,20.07,25.44
		c0.83,3.56,0.65,7.64-0.12,11.26c-4.58,21.58-29.32,34.38-50.31,21.15c-9.45-5.96-18.93-11.88-28.55-17.57
		c-3.81-2.25-8.03-3.81-12.06-5.68c-3.85-2.56-7.69-5.12-11.54-7.69c0.94-15.19,8.03-27.9,16.29-40.1c2.13-3.15,4.37-6.41,7.23-8.82
		c2.56-2.16,6.06-3.21,9.14-4.76C522.69,569.82,527.15,571.76,531.6,573.71z"/>
	<path fill="#141619" d="M464.37,566.05c1.47,1.56,3.2,2.96,4.33,4.74c0.72,1.13,1.26,3.36,0.66,4.13c-0.93,1.18-2.91,2.1-4.45,2.11
		c-2.08,0.01-4.16-0.94-6.25-1.48c-8.11-5-16.21-10.01-24.33-14.99c-1.9-1.16-4-2.03-5.77-3.35c-1.99-1.47-2.72-3.6-1.28-5.87
		c1.4-2.21,3.57-2.72,5.82-1.51c5.04,2.72,9.9,5.78,14.98,8.42C453.42,561.02,458.94,563.46,464.37,566.05z"/>
	<path fill="#1F2227" d="M988.31,1388.85c12.9,1.74,25.11-1.77,37.25-5.19c9.74-2.74,19.88-4.42,28.59-10.27
		c1.98-1.33,4.86-1.25,7.29-1.97c3.04-0.9,6.62-1.22,8.94-3.08c6.29-5.05,13.98-5.87,21.21-8.05c6.69-2.02,13.53-3.52,20.29-5.32
		c1.53-0.41,3.32-0.76,4.39-1.78c4.58-4.31,10.07-4.94,15.95-4.7c4.35,0.18,8.25-1.44,11.19-4.56c3.28-3.48,7.25-4.64,11.78-5.5
		c8.69-1.66,16.87-5.4,25.89-6.09c3.26-0.25,6.32-2.76,9.53-4.11c3.78-1.59,7.51-3.49,11.46-4.48c8.77-2.21,8.9-2.14,6.98-11.67
		c3.22,1.33,6.64,2.31,9.62,4.04c32.38,18.88,64.68,37.89,97.03,56.83c2.74,1.6,5.64,2.94,8.47,4.4c5.9,10.66,3.52,15.66-8.64,17.38
		c-5.81,0.82-10.87,2.93-16.02,5.75c-8.87,4.86-18.9,7.71-28.41,10.42c-11.82,3.36-23.36,7.95-35.71,10.24
		c-8.4,1.56-17.57,5.35-25.47,9.9c-11.6,6.69-24.91,7.1-37.12,11.45c-5.65,2.02-11.34,3.85-16.99,5.99
		c-17.46,6.61-34.91,13.38-53.03,18.09c-7.52,1.95-10.48-4.58-14.66-8.69c-6.84-7.15-13.4-14.59-20.62-21.32
		c-3.9-3.64-8.79-6.32-13.49-8.98c-8.87-5.03-18-9.58-26.87-14.61c-11.92-6.76-23.72-13.75-35.51-20.75
		C990.31,1391.44,989.41,1389.99,988.31,1388.85z"/>
	<path fill="#1E2126" d="M1088.11,1457.89c0.31,0.06,0.72,0.02,0.92,0.21c7.22,6.53,14.68,5.33,22.71,1.37
		c3.92-1.93,8.63-2.15,12.8-3.67c8.75-3.2,16.66-8.93,26.53-8.76c6.79-5.94,14.78-8.52,23.72-8.59c1.2-0.01,2.59-0.52,3.55-1.24
		c4.86-3.67,10.41-4.22,16.27-4.5c2.99-0.14,6.16-1.58,8.81-3.17c5.24-3.13,10.32-6.19,16.72-6.42c2.02-0.07,4.52-1.18,5.88-2.66
		c3.88-4.22,8.59-5.15,13.9-4.78c0.32,0.02,0.67,0.08,0.95-0.02c12.46-4.3,25.66-6.37,37.52-12.54c2.7-1.41,5.91-1.83,8.85-2.8
		c3.56-1.17,7.63-1.69,10.51-3.82c5.14-3.79,10.55-5.74,16.81-5.75c1.27,0,2.57,0.04,3.82-0.18c5.23-0.89,6.87-3.11,6.36-8.5
		c-0.15-1.58-0.39-3.15-0.59-4.73c16.31,9.42,32.67,18.75,48.89,28.32c6.26,3.69,12.2,7.93,18.28,11.93
		c5.62,7.53,5.03,13.19-3.68,15c-24.26,5.04-45.48,18.05-69.21,24.59c-19.21,5.3-38.95,9.95-56.6,20.08
		c-5.35,3.07-11.48,4.4-17.43,4.86c-13.71,1.05-26.1,6.29-37.95,12.19c-14.79,7.37-31.12,9.45-46.15,15.58
		c-12.95,5.28-26.96,7.22-39.43,14.24c-12.51,7.05-16.99,2.92-17.42-14.47c-0.64-3.2-1.28-6.39-1.92-9.59c0-1.92,0-3.84,0-5.75
		c-2.43-11.23-5.96-22.04-12-31.93C1088.74,1461.09,1088.57,1459.4,1088.11,1457.89z"/>
	<path fill="#1C1F22" d="M1103.46,1509.67c1.32,3.89,2.66,7.77,3.95,11.67c0.74,2.21,2.14,3.07,4.37,2.21
		c2.68-1.04,5.68-1.66,7.92-3.31c7.16-5.24,15.42-7.13,23.79-9.15c5.82-1.4,11.4-3.82,17.13-5.62c10.63-3.33,21.45-6.1,31.88-9.95
		c9.19-3.39,17.81-8.27,26.94-11.85c5.56-2.18,11.57-3.29,17.43-4.59c4.66-1.03,9.42-1.56,14.12-2.46c1.87-0.36,3.88-0.74,5.46-1.71
		c10.46-6.35,22-9.93,33.58-13.44c4.22-1.28,8.47-2.49,12.71-3.71c0.61-0.17,1.33-0.05,1.88-0.32c12.37-5.87,26.04-7.81,38.6-13.51
		c11.99-5.44,23.89-12.04,37.52-13.2c1.25-0.11,2.47-0.6,3.69-0.99c10.21-3.23,9.16-4.77,6.86-12.16c5.31,2.66,10.76,5.07,15.9,8.03
		c9.51,5.47,18.83,11.26,28.23,16.92c-0.46,10.6-1.2,11.43-10.84,13.49c-7.19,1.53-14.22,3.32-20.14,8.24
		c-2.04,1.69-5.36,3.08-7.86,2.77c-9.5-1.2-17.72,2.32-25.21,6.95c-7.87,4.86-16.28,7.39-25.12,8.64c-4.95,0.7-9.29,1.96-12.97,5.36
		c-3.74,3.45-8.25,4.71-13.25,4.43c-6.25-0.35-12.33,0.89-17.41,4.31c-7.95,5.36-17.01,7.04-25.98,9.12
		c-4.71,1.09-9.16,2.35-13.05,5.53c-2.14,1.75-4.96,3.35-7.63,3.64c-13.2,1.47-25.34,5.96-37.14,11.74
		c-1.98,0.97-4.16,1.73-6.32,2.12c-9.18,1.65-17.82,4.67-26.03,9.16c-2.68,1.46-6.1,1.52-9.15,2.35
		c-6.42,1.73-13.37,2.51-19.09,5.57c-7.21,3.86-14.64,6.26-22.49,7.71c-6.37,1.18-12.45,2.8-17.47,7.19
		c-0.94,0.82-2.09,1.59-3.28,1.9c-7.07,1.87-14.16,3.67-21.28,5.35c-4.23,1-5.86-0.69-5-5.26c0.59-3.12,1.27-6.32,2.51-9.22
		c5.46-12.7,8.95-25.88,10.45-39.61C1101.87,1512.53,1102.86,1511.12,1103.46,1509.67z"/>
	<path fill="#1C1F22" d="M1101.55,1494.33c1.96,1.92,1.96,3.84,0,5.75C1099.58,1498.16,1099.58,1496.25,1101.55,1494.33z"/>
	<path fill="#2F333A" d="M1055.53,349.21c0.16,3.91-0.91,7.23-3.46,10.44c-3.11,3.92-5.46,8.44-8.15,12.69
		c-3.18,5.01-7.43,8.52-13.43,9.57c-6.79-3.42-13.69-6.67-20.36-10.31c-9.49-5.19-18.87-10.59-28.21-16.07
		c-4.71-2.76-5.82-5.65-4.13-9.24c1.87-3.97,5.77-5.45,10.5-3.55c2.93,1.18,5.63,2.95,8.42,4.47c3.63,1.98,7.25,3.98,10.89,5.95
		c2.89,1.56,5.54,1.37,7.65-1.34c2.23-2.86,2.41-5.98,0.05-8.74c-1.4-1.64-3.36-2.88-5.23-4.03c-4.06-2.51-8.41-4.59-12.27-7.37
		c-2.17-1.57-4.36-3.93-5.17-6.39c-1.68-5.05,1.79-8.98,7.08-8.37c2.45,0.28,5,1.19,7.15,2.43c15.43,8.93,30.77,17.99,46.1,27.09
		C1054.01,347.04,1054.69,348.27,1055.53,349.21z"/>
	<path fill="#2F333A" d="M1122.64,253.37c-1.53,7.77-1.79,8.03-9.63,9.62c-2.34-0.96-4.82-1.67-7.01-2.91
		c-12.75-7.18-25.47-14.42-38.12-21.77c-3.56-2.07-6.98-4.44-10.26-6.94c-2.74-2.09-4.17-4.79-2.22-8.31
		c1.87-3.37,4.9-4.79,8.85-3.88c0.92,0.21,1.84,0.55,2.65,1.03C1085.5,231.25,1104.07,242.32,1122.64,253.37z"/>
	<path fill="#2F333A" d="M1109.14,276.52c1.26,6.6-3.37,9.85-7.6,13.31c-9.77-5.26-19.56-10.49-29.32-15.79
		c-4.47-2.43-8.85-5-13.28-7.5c-1.11-0.62-2.3-1.12-3.34-1.84c-3.83-2.65-4.96-6.95-2.9-10.78c2.14-3.98,5.84-4.92,10.6-2.23
		c8.57,4.85,17.02,9.92,25.5,14.94c3.83,2.27,7.48,4.86,11.44,6.86C1103,274.9,1106.16,275.54,1109.14,276.52z"/>
	<path fill="#2F333A" d="M994.08,395.3c-9.99-5.41-20.09-10.65-29.93-16.32c-4.25-2.45-5.22-6.21-3.57-9.65
		c1.88-3.92,6.09-5.89,10.41-3.49c9.89,5.51,20.71,9.59,28.92,17.82C1004.09,390.61,1001.98,394.41,994.08,395.3z"/>
	<path fill="#2B3036" d="M994.08,395.3c4.08-2.81,6.46-6.46,5.83-11.63c6.28,2.27,12.69,4.29,17.22,9.67
		c-0.97,9.68-1.87,10.58-11.47,11.54C1001.79,401.68,997.94,398.49,994.08,395.3z"/>
	<path fill="#2F333A" d="M1899.84,988.02c-3.22-1.36-6.63-2.4-9.64-4.12c-29.94-17.09-59.82-34.29-89.71-51.47
		c-1.38-0.79-2.74-1.66-4.01-2.61c-8.55-6.35-9.94-15.04-3.94-24.37c4.61-7.16,15.01-9.85,22.93-5.49
		c10.07,5.54,19.91,11.48,29.88,17.2c6.92,3.97,13.65,8.39,20.9,11.65c10.96,4.93,21.84-0.53,24.97-11.67
		c1.63-5.81,0.03-10.94-3.71-15.11c-2.7-3.02-6.23-5.46-9.76-7.53c-13.49-7.92-27.1-15.62-40.71-23.33
		c-8.29-4.69-11.16-11.91-9.99-21c1.29-10.04,12.35-17.15,22.09-14.18c2.11,0.64,4.15,1.66,6.06,2.78
		c26.74,15.61,53.43,31.3,80.18,46.9c6.89,4.02,13.98,7.71,20.88,11.72c1.88,1.09,3.4,2.79,5.09,4.21
		c2.61,4.24,0.73,7.92-1.34,11.65c-8.88,15.94-19.58,30.6-30.82,44.94c-5.5,7.01-9.49,15.12-14.92,22.25
		C1910.55,985.3,1906.4,988.79,1899.84,988.02z"/>
	<path fill="#292E33" d="M1899.84,988.02c9.86-5.63,14.84-15.41,20.83-24.35c2.47-3.69,5.13-7.24,7.66-10.89
		c8.31-12.03,18.07-23.06,24.68-36.26c2.55-5.1,5.55-9.97,8.34-14.94c8.39,4.35,16.8,8.68,25.17,13.08
		c2.51,1.32,4.91,2.87,7.37,4.31c-0.11,6.19,3.84,9.04,9.01,10.79c1.18,0.4,2.5,0.42,3.74,0.65c6.89,1.28,7.26,2.53,2.94,8.38
		c-1.65,2.24-2.75,4.88-4.25,7.25c-1.49,2.34-2.74,5.14-4.86,6.7c-3.89,2.87-6.16,6.35-6.53,11.06c-0.28,3.55-1.84,5.92-5.29,7.1
		c-3.62,1.23-5.35,4.11-6.64,7.57c-3.18,8.46-8.32,15.62-14.82,21.92c-2.48,2.4-4.51,5.29-6.56,8.1c-3.28,4.49-4.39,4.84-9.37,2.17
		c-2.79-1.5-5.39-3.4-8.29-4.62c-3.04-1.28-5.65-0.53-6.66,3.1C1923.36,1003.44,1911.2,996.42,1899.84,988.02z"/>
	<path fill="#2F333A" d="M2122.37,736.85c-0.08,1.58,0.39,3.49-0.32,4.68c-4.37,7.28-8.85,14.49-13.61,21.52
		c-3.06,4.52-8.05,4.51-12.89,4.38c-9.35-4.78-18.91-9.21-28.03-14.41c-27.73-15.8-55.16-32.13-83-47.75
		c-10.88-6.11-17.11-21.03-2.71-32.01c6.38-4.86,13-4.61,19.71-0.75c8.85,5.1,17.69,10.23,26.52,15.37
		c25.93,15.09,51.89,30.14,77.76,45.34C2111.03,736.3,2116.54,737.04,2122.37,736.85z"/>
	<path fill="#292E33" d="M2078.34,801.88c-0.15,3.84,1.39,6.79,4.61,8.89c1.87,1.22,3.75,2.44,5.55,3.76
		c6.73,4.91,6.73,10.3-0.45,14.95c-3.88,2.51-7.82,4.96-8.83,9.56c-2.4,10.94-10.6,17.92-17.17,25.97
		c-3.03,3.71-5.61,7.5-8.05,11.65c-4.83,8.2-10.66,15.86-16.58,23.34c-3.29,4.16-6.13,3.33-8.46-1.64c-0.94-2.01-1.4-4.41-2.79-6.02
		c-2.51-2.92-4.37-1.53-5.39,1.62c-9.34-5.92-18.69-11.84-28.01-17.78c-1.59-1.01-3.08-2.18-4.62-3.28
		c-0.68-1.13-1.2-2.51-0.55-3.61c5.24-8.91,10.05-18.13,17.85-25.23c3.5,1.44,6.99,2.92,10.52,4.31c7.18,2.82,12.97,0.93,19.2-6.18
		c5.47-6.25,6.46-12.61,2.14-19.01c-2.43-3.6-5.87-6.5-8.86-9.72c-1.81-1.97-1.63-4.2-0.29-6.15c5.69-8.31,10.41-17.32,17.58-24.58
		C2056.58,789.11,2067.46,795.49,2078.34,801.88z"/>
	<path fill="#2F333A" d="M1874.88,1018.71c0.16,3.6-0.53,6.79-2.95,9.77c-2.8,3.44-5.42,7.15-7.37,11.12
		c-2.35,4.78-5.95,6.3-10.84,5.96c-3.22-1.36-6.63-2.41-9.64-4.14c-27.95-16.06-55.85-32.22-83.73-48.4
		c-2.47-1.43-4.95-2.98-7.04-4.9c-8.88-8.17-7.48-16.59-1.82-24.85c4.6-6.71,14.47-8.06,22.5-3.45
		c14.39,8.28,28.65,16.76,43.01,25.1c16.56,9.61,33.18,19.14,49.75,28.74C1869.51,1015.27,1872.18,1017.03,1874.88,1018.71z"/>
	<path fill="#2F333A" d="M2164.74,517.91c-0.2,5.89,0.29,11.66-3.45,17.14c-3.05,4.47-6.04,7.79-11.72,8.11
		c-1.43,0.08-2.79,1.22-4.19,1.87c-8.77-4.48-17.73-8.65-26.29-13.5c-19.67-11.15-39.12-22.7-58.72-33.97
		c-7.17-4.12-11.79-9.37-10.9-18.36c1.25-12.72,13.48-20.43,24.97-14.69c11.1,5.54,21.7,12.08,32.47,18.27
		c15.47,8.88,30.94,17.75,46.3,26.82C2157.28,511.99,2160.91,515.12,2164.74,517.91z"/>
	<path fill="#2B3036" d="M2162.77,682.99c0.37,7.13-0.06,13.69-6.05,19.19c-3.08,2.83-4.01,7.85-6.53,11.46
		c-4.26,6.12-4.46,5.97-11.47,2.76c-0.86-0.39-1.82-0.55-2.73-0.82c-1.1-6.17-4.98-9.85-10.31-12.9
		c-27.38-15.69-54.63-31.61-81.88-47.53c-2.15-1.26-3.96-3.09-5.93-4.65c3.24-4.78,7.92-3.62,12.06-2.3
		c6.21,1.98,9.37-0.93,12.51-5.64c3.54-5.32-0.85-7.28-3.46-10.21c-2.81-3.16-5.71-6.41-1.76-10.72
		c8.92,4.87,17.93,9.59,26.74,14.65c23.19,13.32,46.32,26.75,69.43,40.23C2156.65,678.4,2159.64,680.81,2162.77,682.99z"/>
	<path fill="#2F333A" d="M1640.8,721.33c-0.75-5.6,2.42-9.69,5.46-13.76c1.51-2.03,3.61-3.65,4.96-5.77
		c5.59-8.78,10.99-17.69,16.47-26.54c2.66,1.06,5.48,1.84,7.94,3.24c19.68,11.2,39.28,22.52,58.92,33.78
		c3.6,2.06,7.42,3.77,10.85,6.07c6,4.03,6.26,10.39,1.01,15.34c-2.63,2.48-5.44,3.22-8.7,1.48c-2.53-1.35-5.05-2.72-7.53-4.16
		c-15.18-8.79-30.3-17.68-45.55-26.34c-2.39-1.36-5.3-2.08-8.05-2.42c-3.2-0.39-6.73-0.07-8.12,3.55
		c-1.43,3.71-1.54,7.73,1.51,10.75c1.99,1.97,4.62,3.34,7.09,4.75c15.23,8.7,30.5,17.32,45.73,26.02c1.93,1.1,3.84,2.33,5.54,3.76
		c3.64,3.08,4.48,6.46,2.77,10.14c-1.98,4.27-5.55,6.73-9.88,5.91c-3.06-0.58-6.12-1.85-8.84-3.42
		c-16.84-9.73-33.6-19.61-50.35-29.5C1654.91,729.97,1647.87,725.62,1640.8,721.33z"/>
	<path fill="#2F333A" d="M2057.21,621.61c-0.09,3.45,1.12,6.13,4.24,7.94c2.2,1.27,4.26,2.78,6.3,4.31
		c2.77,2.08,3.14,4.63,1.12,7.45c-1.67,2.32-3.33,4.65-5.1,6.9c-4.85,6.17-6.76,6.46-14.74,3.99c-3.56-1.1-7.44-1.18-11.17-1.72
		c-5.65-2.87-11.39-5.59-16.93-8.66c-9.47-5.24-18.92-10.54-28.21-16.09c-12.59-7.52-13.34-21.63-1.78-30.76
		c5.84-4.61,12.19-5.54,18.69-1.72C2025.55,602.61,2041.36,612.15,2057.21,621.61z"/>
	<path fill="#2F333A" d="M1961.27,857.53c-12.51-6.92-25.11-13.65-37.48-20.81c-8.59-4.97-10.54-14.84-5.29-24.06
		c4.87-8.57,14.18-11.42,22.81-6.64c11.11,6.15,22.1,12.53,33.08,18.92c1.59,0.93,2.8,2.49,4.19,3.76c1.23,1.48,2.35,3.01,2.42,5.04
		C1981.24,842.21,1969.81,855.98,1961.27,857.53z"/>
	<path fill="#2B3036" d="M2045.7,782.72c0.23,4.79-0.74,8.71-4.38,12.63c-5,5.38-8.67,12-12.9,18.09
		c-11.03-6.31-22.49-11.99-32.99-19.08c-12.02-8.13-12.31-20.95-1.65-29.66c5.98-4.89,12.72-4.07,18.93-1.15
		c8.06,3.79,15.71,8.44,23.45,12.88C2039.46,778.31,2042.53,780.61,2045.7,782.72z"/>
	<path fill="#2B3036" d="M1961.27,857.53c7.78-5.78,10.81-15.06,16.37-22.47c1.13-1.5,0.66-4.2,0.93-6.35
		c8.95,5.12,17.9,10.24,26.85,15.35c-0.44,9.67-7.44,15.8-12.48,22.97c-1.45,2.06-3.2,3.92-4.81,5.87
		C1979.17,867.77,1970.22,862.65,1961.27,857.53z"/>
	<path fill="#1A1D20" d="M2248.59,861.47c0.23,6.86-7.21,12.93-12.48,10.26c-7.55-3.83-14.82-8.44-21.58-13.55
		c-4.4-3.33-4.23-6.72-1.42-10.8c2.53-3.67,7.21-5.97,10.64-4.07c7.43,4.12,14.57,8.79,21.61,13.55
		C2247.02,857.97,2247.83,860.34,2248.59,861.47z"/>
	<path fill="#1A1D20" d="M2154,861.11c2.62,0.77,4.26,0.98,5.61,1.71c6.44,3.46,12.96,6.8,19.13,10.71
		c4.62,2.92,6.03,8.67,3.85,12.48c-2.62,4.59-7.85,6.26-13.1,3.6c-5.95-3.01-11.77-6.32-17.41-9.88c-4.36-2.74-6.18-8.07-3.99-12.49
		C2149.33,864.72,2152.14,862.97,2154,861.11z"/>
	<path fill="#1A1D20" d="M2237.23,926.43c-0.73-0.21-2.41-0.36-3.76-1.11c-5.86-3.24-11.96-6.18-17.32-10.12
		c-6.57-4.82-6.38-11.88,0.07-15.58c1.95-1.12,5.25-1.71,7.13-0.83c7.19,3.39,14.26,7.16,20.97,11.41c4.04,2.56,5.08,6.85,3.72,9.94
		C2246.46,923.76,2242.02,926.56,2237.23,926.43z"/>
	<path fill="#F9FAFA" d="M531.55,624.67c0.27-13.18,11.95-24.17,25.13-23.66c13.55,0.52,23.86,11.52,23.55,25.13
		c-0.3,13.48-11.47,24.05-24.96,23.63C541.92,649.35,531.27,638.08,531.55,624.67z"/>
</g>
</svg>
