<?xml version="1.0" encoding="utf-8"?>
<!-- Generator: Adobe Illustrator 24.0.0, SVG Export Plug-In . SVG Version: 6.00 Build 0)  -->
<svg version="1.1" baseProfile="tiny" id="图层_1"
	 xmlns="http://www.w3.org/2000/svg" xmlns:xlink="http://www.w3.org/1999/xlink" x="0px" y="0px" viewBox="0 0 240.51 220.04"
	 xml:space="preserve">
<circle fill="#FFFFFF" cx="120.74" cy="113.68" r="103.83"/>
<g>
	<path fill="#F2AA02" d="M156.75,55.54c-7.11,2.27-12.72,7.04-18.84,11.52c-11.61-4.15-23.35-4.35-35.34,0.12
		c-5.47-4.59-11.24-8.72-18.06-11.61c1.88-9.14,5.9-16.48,13.15-21.92c1.53,0.02,2.6-0.63,3.08-2.13c0,0-0.06,0.04-0.06,0.04
		c1.52,0.14,2.52-0.57,3.11-1.93c0,0-0.02,0.01-0.02,0.01c0.84,0.02,1.59-0.18,2.03-0.99c0,0-0.01,0-0.01,0
		c1.13,0,2.31,0.16,2.99-1.09c0,0-0.06,0.03-0.06,0.03c8.1-1.47,16.19-1.15,24.28,0.01c0.3-0.1,0.55-0.03,0.77,0.2
		c0.69,0.29,1.38,0.57,2.06,0.86c11.67,4.93,18.03,14.17,21.12,26.06C156.83,54.98,156.76,55.25,156.75,55.54z"/>
	<path fill="#4F4A47" d="M169.78,170.78c3.58-8.42,2.85-17.65,4.93-26.36c0.65-2.74,0.82-5.59,1.21-8.39
		c0.28-0.04,0.55-0.08,0.83-0.13c10.09,9.2,16.88,20.32,19.69,33.76c0.44,2.11,0.97,4.27-0.7,6.15c-3.56,0.33-5.07-3.38-8.11-4.12
		c-2.86-0.69-5.91-2.81-8.01,1.26c0,0-0.35-0.09-0.35-0.09c-0.52,0.34-1.05,0.68-1.57,1.02l-0.47,0.09
		c-1.41,0.03-2.71,1.29-4.8-0.05C171.84,173.23,170.81,172,169.78,170.78z"/>
	<path fill="#4F4A47" d="M64.62,136.08c1.46,9.99,2.82,19.99,4.47,29.95c0.33,2.02,1.74,3.86,2.65,5.79
		c-2.28-0.2-3.02,2.51-5.13,2.73c-1.92-0.89-3.46-2.61-5.74-2.75c-1.59-0.84-3.3-1.01-5.06-0.96c-4.3,0.22-6.5,5.01-10.9,5
		c-1.56-3.3-0.46-6.54,0.4-9.71c3.22-11.85,9.6-21.78,18.61-30.06C64.15,136.07,64.38,136.08,64.62,136.08z"/>
	<path fill="#EE9EC2" d="M70.79,93.09c-2.9-9.97-4.98-18.88-2.3-28.87c8.41-0.98,15.12,3.22,22.97,7.31
		C82.99,77.36,76.5,84.22,70.79,93.09z"/>
	<path fill="#EE9EC2" d="M169.37,92.43c-5.33-8.08-11.43-15.2-20.37-20.55c7.68-4.61,14.49-8.28,22.66-7.82
		C174.46,72.25,173.49,84.04,169.37,92.43z"/>
	<path fill="#EE9FC3" d="M120.28,173.57c-4.67-1.85-7.39-6.02-6.32-10.33c0.83-3.36,2.53-6.48,6.59-6.31
		c3.72,0.15,5.32,3.15,6.08,6.34C127.67,167.57,124.96,171.75,120.28,173.57z"/>
	<path fill="#233438" d="M158.97,139.4c-1.52,0.17-2.88,0.44-4.05,0.74c-11.79,2.5-21.44,11.06-18.83,17.36
		c6.3-7.89,14.91-11.98,23.74-15.71c2.14-0.5,3.11-2.31,3.26-2.59C161.88,139.18,160.49,139.22,158.97,139.4z"/>
	<path fill="#3F4748" d="M60.87,171.79c2.28,0.14,3.82,1.86,5.74,2.75c2.11-0.22,2.85-2.94,5.13-2.73c0.66,0.51,1.33,1.01,2.95,2.24
		c-3.4,0.08-4.36,2.11-6.54,3.86c-6.89-5.57-14-6.28-19.57,1c-2.82-0.26-3.54-1.4-3.67-3.08c4.4,0.01,6.6-4.78,10.9-5
		c0.63-0.04,1.42-0.04,2.33,0.11C59.29,171.13,60.21,171.48,60.87,171.79z"/>
	<path fill="#78716D" d="M100.57,188.01c8.9,0.48,17.8,1.45,26.73,0.8c5.02-0.37,10.11-0.5,15.91-2.44c0,0,0,0,0,0
		c-0.01-0.02,2.37-0.91,7.13-2.68c1.94-0.72,3.88-1.45,5.82-2.17c-2.57,2.06-6.65,4.79-12.19,6.33c-3.65,1.02-6.59,1.01-8.31,1.19
		C123.93,190.22,112.19,190.84,100.57,188.01z"/>
	<g>
		<path fill="#334143" d="M187.63,171.7c-2.86-0.69-5.91-2.81-8.01,1.26c2.07,0.19,4.34-0.99,6.15,0.92
			c0.93-0.12,1.62,0.2,2.01,1.09c1.86,1.3,3.31,3.25,5.64,3.72c1.59-0.39,2.31-1.35,2.32-2.87
			C192.18,176.15,190.67,172.43,187.63,171.7z"/>
		<path fill="#334143" d="M185.78,173.89c0,0-0.01-0.01-0.01-0.01c-0.01,0-0.01,0-0.02,0C185.75,173.88,185.78,173.89,185.78,173.89
			z"/>
		<path fill="#334143" d="M172.42,173.93c-0.58-0.7-1.61-1.92-2.64-3.15c-0.48,0.51-0.97,1.02-1.45,1.53
			c0.5,0.82,0.99,1.64,1.49,2.46c0.63,0.71,1.26,1.42,1.89,2.12c0.76,0.06,1.51,0.12,2.27,0.18c0,0,0.03,0,0.03,0
			c0.26-0.98,0.95-1.29,1.89-1.21c0.33-0.07,0.58-0.25,0.77-0.52c0.18-0.46,0.37-0.91,0.55-1.37
			C175.82,174.01,174.51,175.27,172.42,173.93z"/>
	</g>
	<path fill="#102126" d="M85.68,140.14c-2.97-0.72-5.93-0.8-9.57,0.07c1.83,1.1,3.12,1.66,4.64,1.58
		c8.99,3.65,17.49,8.08,24.26,16.06C106.17,150.36,97.07,142.55,85.68,140.14z"/>
	<path fill="#6A6B69" d="M176.67,175.34c0.18-0.46,0.37-0.91,0.55-1.37c0,0,0.48-0.09,0.48-0.09c0.53-0.34,1.05-0.68,1.57-1.02
		c0,0,0.35,0.08,0.35,0.09c2.07,0.19,4.35-1,6.16,0.93C182.56,173.24,179.66,174.59,176.67,175.34z"/>
	<path fill="#E3E2E2" d="M59.75,67.67c0.29-3.34,0.58-6.68,0.94-10.74c-2.56,3.79-1.77,7.35-1.95,10.75
		c-2.6,7.57,0.28,14.75,1.75,22.04C59.26,82.39,59.89,75.02,59.75,67.67z"/>
	<path fill="#6A6B69" d="M168.34,172.3c0.5,0.82,0.99,1.64,1.49,2.46c-2.04-0.66-2.44,1.79-3.98,2.09
		c-0.37-0.36-0.74-0.71-1.11-1.07C165.93,174.63,167.14,173.47,168.34,172.3z"/>
	<path fill="#6A6B69" d="M165.74,165.58c-3.06,0-6.12,0-9.18,0C159.61,164.34,162.67,164.57,165.74,165.58z"/>
	<path fill="#6A6B69" d="M73.46,165.47c4.4-1.06,7.41-0.84,10.45,0C80.91,165.47,77.9,165.47,73.46,165.47z"/>
	<path fill="#ECEBEA" d="M176.76,135.9c-0.28,0.04-0.55,0.08-0.83,0.13c0-1.74,0-3.48,0-5.92
		C177.3,132.42,176.62,134.2,176.76,135.9z"/>
	<g>
		<path fill="#D1D0CE" d="M64.89,105.63C64.89,105.63,64.88,105.64,64.89,105.63C64.88,105.64,64.89,105.63,64.89,105.63
			c-0.1-1.07,0.13-2.27-1.1-2.92l-0.03,0.02c0,1.12-0.27,2.31,0.91,3.08c0,0,0.08-0.07,0.15-0.12c-0.06,0.05-0.15,0.12-0.15,0.12
			c0.06,1.64,0.12,3.28,0.19,4.92c-1.27,0.92-1.1,2.3-1.09,3.6c0.04,7.24,0.1,14.48,0.15,21.72c0.23,0.01,0.47,0.02,0.7,0.02
			c0.75-8.45-0.86-16.99,1.06-25.39C65.54,108.98,66.53,107.1,64.89,105.63z"/>
		<path fill="#D1D0CE" d="M61.19,92.65c-0.74,1.28-0.45,2.25,0.57,3.08l0.02-0.02C61.57,94.73,62.27,93.56,61.19,92.65z"/>
		<path fill="#D1D0CE" d="M61.78,95.71c0,0-0.02,0.02-0.02,0.02c0.06,0.74,0.12,1.48,0.28,3.45C62.81,97.05,62.72,96.3,61.78,95.71z
			"/>
		<path fill="#D1D0CE" d="M63.6,100.46c-0.81,0.9-0.89,1.69,0.16,2.28c0,0,0.03-0.02,0.03-0.02
			C63.73,101.96,63.66,101.21,63.6,100.46z"/>
	</g>
	<path fill="#6A6B69" d="M185.75,173.88c0.94-0.13,1.63,0.19,2.02,1.09C187.1,174.61,186.43,174.24,185.75,173.88z"/>
	<path fill="#4F4A47" d="M79.01,155.24c-3.44-1.62-5.21-2.41-5.58-2.71c-0.11-0.09,0.11-0.3,0.17-0.29c0.77,0.23,5.07,2.49,7,2.95
		c0.86,0.49,1.79,1.05,1.73,1.17C82.29,156.47,81.39,156.37,79.01,155.24z"/>
	<path fill="#4F4A47" d="M158.33,155.94c0.83-0.38,1.66-0.77,2.5-1.15c2.02-0.92,2.56-1.19,3.46-1.56c0.64-0.26,1.58-0.63,2.75-1.01
		c0.13,0.11,0.36,0.32,0.25,0.47c-0.36,0.5-2,0.53-4.02,1.44c-2.44,1.1-3.57,1.91-4.62,2.12
		C158.46,156.28,158.38,156.01,158.33,155.94z"/>
	<g>
		<path fill="#D1D0CE" d="M164.89,53.49c3.95-0.66,7.92-0.78,11.84-1.39C172.7,51.69,168.64,51.01,164.89,53.49z"/>
		<path fill="#D1D0CE" d="M156.96,54.72c-0.13,0.26-0.2,0.53-0.21,0.82c0.77,0,1.54,0,2.44,0C158.56,54.38,157.69,54.8,156.96,54.72
			z"/>
		<path fill="#D1D0CE" d="M161.43,54.29c0.27-0.02,0.52-0.04,0.95-0.08C161.92,53.89,161.64,53.63,161.43,54.29z"/>
	</g>
	<path fill="#78716D" d="M174.01,177.07c0.26-0.98,0.95-1.29,1.89-1.21C175.53,176.68,174.91,177.1,174.01,177.07z"/>
	<path fill="#78716D" d="M171.71,176.89c0.76,0.06,1.51,0.12,2.27,0.18C173.14,178,172.4,177.86,171.71,176.89z"/>
	<path fill="#D69612" d="M105.8,28.65C105.8,28.65,105.8,28.65,105.8,28.65c-0.67,0.33-1.34,0.65-2.01,0.98
		c-1.3,0.19-2.35,0.78-3.08,1.9c-1.35,0.22-2.3,1.03-3.05,2.12c1.51,0.02,2.58-0.62,3.07-2.09c1.49,0.12,2.47-0.58,3.06-1.92
		C104.63,29.65,105.37,29.46,105.8,28.65c1.13,0,2.31,0.15,2.99-1.09C107.62,27.46,106.62,27.83,105.8,28.65z"/>
	<path fill="#D69612" d="M135.84,28.66c-0.69-0.29-1.37-0.57-2.06-0.86C134.47,28.09,135.15,28.37,135.84,28.66z"/>
	<path fill="#78716D" d="M82.12,156.07c0.11,0.01,0.22,0.01,0.33,0.01c-0.06,0.2-0.13,0.41-0.19,0.61c-0.11-0.11-0.25-0.2-0.31-0.33
		C81.93,156.3,82.06,156.16,82.12,156.07z"/>
	<path fill="#78716D" d="M158.65,156.24c-0.06,0.1-0.12,0.2-0.18,0.3c-0.16-0.11-0.33-0.22-0.49-0.33c0.12-0.1,0.24-0.28,0.35-0.27
		C158.44,155.94,158.54,156.13,158.65,156.24z"/>
	<g>
		<path fill="#D1D0CE" d="M180.82,87.71c0-0.01,0-0.01,0-0.02C180.81,87.7,180.81,87.7,180.82,87.71
			C180.81,87.71,180.81,87.72,180.82,87.71C180.81,87.72,180.81,87.72,180.82,87.71L180.82,87.71z"/>
		<path fill="#D1D0CE" d="M180.82,82.92c0,1.59,0,3.18,0,4.77C182.29,86.19,181.87,84.57,180.82,82.92z"/>
		<path fill="#D1D0CE" d="M180.81,87.72c-1.63,1.4-0.8,3.29-0.99,4.98C181.5,91.32,180.58,89.41,180.81,87.72z"/>
		<path fill="#D1D0CE" d="M178.83,96.66c1.43-1.02,0.85-2.56,0.97-3.92C178.37,93.77,178.92,95.3,178.83,96.66z"/>
		<path fill="#D1D0CE" d="M179.8,92.74c0,0,0.01-0.01,0.01-0.01l0,0c0-0.01,0-0.01,0-0.02c0,0-0.01,0.01-0.01,0.01
			C179.8,92.72,179.8,92.73,179.8,92.74z"/>
		<path fill="#D1D0CE" d="M178.65,99.28c0.05-1.01,0.1-1.76,0.14-2.51C177.98,97.39,177.41,98.06,178.65,99.28z"/>
		<path fill="#D1D0CE" d="M178.79,96.77c0.02-0.01,0.03-0.02,0.05-0.04c0,0-0.01-0.01-0.02-0.02l0.02,0.02c0-0.02,0-0.05,0-0.07
			c-0.02,0.01-0.03,0.03-0.04,0.04C178.79,96.72,178.79,96.75,178.79,96.77z"/>
		<path fill="#D1D0CE" d="M177,101.97c0.2,0.01,0.4,0.02,0.61,0.03c-0.08-0.24-0.17-0.49-0.26-0.75
			C177.22,101.51,177.11,101.74,177,101.97z"/>
		<path fill="#D1D0CE" d="M176.28,105.33c0.51-0.33,0.53-0.69,0.07-1.08C175.83,104.57,175.84,104.93,176.28,105.33z"/>
		<polygon fill="#D1D0CE" points="175.17,107.3 175.45,107.33 175.35,107.01 		"/>
	</g>
	<path fill="#2E3E41" d="M164.73,175.79c-22.34,12.12-44.61,12.8-54.09,10.85c-1.67-0.34-3.37-0.21-3.37-0.21
		c-3.61-0.3-8.6-0.99-14.53-2.63c-5.77-1.6-11.31-4-16.47-7.62l0,0c-0.31-0.15-0.67-0.35-1.04-0.63c-0.65-0.49-1.09-1.02-1.37-1.43
		c-0.83-0.02-1.29,0.09-1.39,0.35c-0.18,0.46,0.8,1.37,2.94,2.72c5.63,5.56,12.75,8.01,20.21,9.77c0.72,0.16,1.45,0.32,2.18,0.48
		c0.66,0.15,1.33,0.29,1.99,0.44c0,0,0.38,0.15,0.38,0.15l0.4-0.02c8.9,0.48,17.8,1.45,26.73,0.8c5.02-0.37,10.11-0.5,15.91-2.44
		c1.81-0.6,0.33-0.17,13.48-5.05c5.04-1.87,9.1-3.34,8.94-4.64C165.58,176.26,165.11,175.59,164.73,175.79z"/>
	<path fill="#78716D" d="M73.61,152.24c-0.05,0.08-0.11,0.19-0.17,0.29c-0.16-0.11-0.33-0.22-0.49-0.32
		c0.12-0.1,0.23-0.28,0.34-0.27C73.4,151.94,73.5,152.13,73.61,152.24z"/>
	<path fill="#78716D" d="M167.15,152.06c0.11,0.01,0.22,0.01,0.34,0.01c-0.06,0.2-0.13,0.41-0.19,0.61
		c-0.11-0.11-0.25-0.2-0.31-0.33C166.96,152.29,167.09,152.16,167.15,152.06z"/>
	<g>
		<path fill="#E3E2E2" d="M78.49,54.13c0.5,0.67,1.02,0.65,1.58,0.08C79.58,53.53,79.05,53.57,78.49,54.13z"/>
		<path fill="#E3E2E2" d="M62.67,52.66L62.67,52.66c-0.13,0.16-0.26,0.32-0.58,0.71c0.39-0.32,0.54-0.44,0.69-0.57
			c3-0.03,6-0.07,9-0.1c1.24,1.26,2.59,1.32,4.5,0.25c-1.78-0.49-3.16-0.87-4.53-1.24C68.73,52.07,65.52,50.66,62.67,52.66z"/>
	</g>
	<path fill="#334143" d="M179.27,172.88c-0.52,0.34-1.05,0.68-1.57,1.02C178.22,173.55,178.74,173.21,179.27,172.88z"/>
</g>
</svg>
