<svg xmlns="http://www.w3.org/2000/svg" width="36" height="36.016"><g data-name="组 9277"><path data-name="路径 13807" d="M9.185 9.747L1.474 26.318l1.313 6.727 6.4 1.969 4.594-3.446 1.8-3.61 3.61-4.922-6.729-5.413 2.133-8.7z" fill="#fff"/><path d="M18.561.04a1.59 1.59 0 00-.379.127 3.762 3.762 0 01-.364.162 1.584 1.584 0 00-.339.182.616.616 0 01-.186.11.967.967 0 00-.239.178 1.08 1.08 0 01-.232.178c-.019 0-.035.021-.035.047a.409.409 0 01-.134.16.381.381 0 00-.134.172.284.284 0 01-.111.147c-.061.048-.111.109-.111.135a1.589 1.589 0 01-.223.47.679.679 0 01-.6.333 5 5 0 00-.622.136 5.448 5.448 0 01-.579.137 2.652 2.652 0 00-.546.162 2.259 2.259 0 01-.433.145 1.038 1.038 0 00-.309.109 2.342 2.342 0 01-.391.168 2.021 2.021 0 00-.349.146.735.735 0 01-.341.161.284.284 0 00-.155.072 2.457 2.457 0 01-.338.212 5.726 5.726 0 00-.743.451 3.035 3.035 0 01-.306.2c-.067.035-.123.078-.123.1s-.075.079-.167.136a2.085 2.085 0 00-.218.149c-.028.025-.168.147-.311.269a9.642 9.642 0 00-.942.882 10.568 10.568 0 00-.823.973.444.444 0 01-.145.157.185.185 0 00-.091.106 1.38 1.38 0 01-.18.274 1.032 1.032 0 00-.154.231 1 1 0 01-.128.223 4.752 4.752 0 00-.433.743 1.931 1.931 0 01-.175.312 1.534 1.534 0 00-.157.326 3.713 3.713 0 01-.2.446.823.823 0 00-.108.275.8.8 0 01-.1.271 2.506 2.506 0 00-.185.49 1.64 1.64 0 01-.135.376 1.854 1.854 0 00-.2.579 1.141 1.141 0 01-.105.293 3.873 3.873 0 00-.186.51 2.086 2.086 0 01-.114.334c-.253.343-.092.422.864.423.712 0 .916.062.885.268a2.365 2.365 0 01-.267.6 1.189 1.189 0 00-.161.294 1.231 1.231 0 01-.135.267 2.117 2.117 0 00-.178.323.852.852 0 01-.152.256.667.667 0 00-.115.245c-.046.135-.1.245-.123.245a.932.932 0 00-.176.3 1.891 1.891 0 01-.169.323.976.976 0 00-.122.223 2.841 2.841 0 01-.207.374.716.716 0 00-.12.245.692.692 0 01-.134.247.754.754 0 00-.132.226 1.793 1.793 0 01-.178.346 1.8 1.8 0 00-.178.346.576.576 0 01-.1.192 2.09 2.09 0 00-.189.342.988.988 0 01-.136.245.922.922 0 00-.129.254.9.9 0 01-.16.284.623.623 0 00-.132.226 2.661 2.661 0 01-.2.4 1.348 1.348 0 00-.152.308.465.465 0 01-.1.181 1.438 1.438 0 00-.182.337.764.764 0 01-.122.238 4.306 4.306 0 00-.445.827 4.426 4.426 0 01-.238.419.658.658 0 00-.114.245.212.212 0 01-.074.139 1.391 1.391 0 00-.2.329 9.23 9.23 0 01-.238.464 1.016 1.016 0 00-.111.245.5.5 0 01-.111.178.468.468 0 00-.111.188 1.437 1.437 0 01-.208.464 1.207 1.207 0 00-.12.317 2.59 2.59 0 01-.157.429 2.644 2.644 0 00-.163.53 2.791 2.791 0 01-.137.483 7.384 7.384 0 00-.018 2.7 3.472 3.472 0 01.138.519 3.273 3.273 0 00.181.608 2.535 2.535 0 01.155.423 1.205 1.205 0 00.145.347 1.534 1.534 0 01.163.318 1.078 1.078 0 00.147.28.79.79 0 01.124.207.845.845 0 00.116.2c.031.033.133.171.225.305s.214.307.269.383a12.67 12.67 0 001.092 1.088.9.9 0 01.2.148 1.719 1.719 0 00.29.21 1.235 1.235 0 01.214.14 3.99 3.99 0 00.733.417 1.834 1.834 0 01.313.177 1.057 1.057 0 00.319.128 2.589 2.589 0 01.429.157 2.612 2.612 0 00.53.162 4.192 4.192 0 01.525.138 7.567 7.567 0 002.822 0 2.787 2.787 0 01.494-.136 2.724 2.724 0 00.552-.166 2.6 2.6 0 01.431-.158 1.139 1.139 0 00.317-.123 1.762 1.762 0 01.325-.162.851.851 0 00.256-.133.957.957 0 01.253-.159 2.153 2.153 0 00.363-.23.383.383 0 01.168-.1c.032 0 .1-.06.153-.134s.125-.134.161-.134a3.624 3.624 0 00.575-.524 4.636 4.636 0 00.777-.875.5.5 0 01.129-.161.9.9 0 00.158-.245.815.815 0 01.162-.245c.018 0 .061-.065.094-.145a3.818 3.818 0 01.206-.387 1.145 1.145 0 00.146-.312.96.96 0 01.1-.27 3.533 3.533 0 00.205-.579 2.514 2.514 0 01.139-.426 2.254 2.254 0 00.1-.458c.079-.49.091-.513.379-.778a2.519 2.519 0 00.178-.182 1.485 1.485 0 01.129-.134 9.65 9.65 0 00.207-.192c.481-.457 1.8-.266 1.505.218a2.029 2.029 0 00-.161.4 1.038 1.038 0 01-.136.318 1.255 1.255 0 00-.155.333 3.887 3.887 0 01-.2.48 1.029 1.029 0 00-.113.283.809.809 0 01-.1.252 3.057 3.057 0 00-.188.423 1.68 1.68 0 01-.155.338 1.175 1.175 0 00-.129.29 1.784 1.784 0 01-.2.474 2.242 2.242 0 00-.139.334 2.823 2.823 0 01-.194.434.64.64 0 00-.1.242 1.043 1.043 0 01-.13.316 2.252 2.252 0 00-.182.422 1.474 1.474 0 01-.157.353 1.137 1.137 0 00-.136.295 1.9 1.9 0 01-.131.334 4.33 4.33 0 00-.179.423 1.366 1.366 0 01-.132.29c-.141.174-.16.357-.04.4s20.954.063 21.076.016c.064-.025.071-.909.071-9.563 0-9.306-.012-10.242-.137-10.474a4.927 4.927 0 01-.126-.67 7.74 7.74 0 00-.2-.951 6.628 6.628 0 01-.163-.646 1.152 1.152 0 00-.109-.357 1.5 1.5 0 01-.136-.379 2.2 2.2 0 00-.138-.407 2.7 2.7 0 01-.155-.4 1.661 1.661 0 00-.158-.376 1.418 1.418 0 01-.148-.325 1.886 1.886 0 00-.18-.385 1.27 1.27 0 01-.142-.277.873.873 0 00-.124-.236 1.443 1.443 0 01-.159-.29 1.22 1.22 0 00-.187-.307.37.37 0 01-.1-.158 1.579 1.579 0 00-.2-.337 2.1 2.1 0 01-.2-.319.441.441 0 00-.1-.143 4.813 4.813 0 01-.279-.362A15.641 15.641 0 0030.95 6.46c-.482-.432-.713-.63-.814-.7a3.38 3.38 0 01-.267-.213 6.866 6.866 0 00-.468-.351l-.453-.311c-.078-.054-.245-.158-.372-.231s-.324-.2-.439-.272a1.7 1.7 0 00-.319-.172 1 1 0 01-.246-.135 1.563 1.563 0 00-.357-.176 1.127 1.127 0 01-.292-.139 1.476 1.476 0 00-.357-.157 1.7 1.7 0 01-.353-.148 1.543 1.543 0 00-.357-.137 3.4 3.4 0 01-.452-.162 2.85 2.85 0 00-.49-.153 4.06 4.06 0 01-.529-.156 3.785 3.785 0 00-.666-.15 1.78 1.78 0 01-1.261-.624 3.013 3.013 0 01-.3-.344 7.118 7.118 0 00-1.336-1.15.36.36 0 01-.156-.111.347.347 0 00-.167-.111 2.187 2.187 0 01-.4-.162 2.9 2.9 0 00-1.537-.152m1.015 2.276a4.123 4.123 0 01.978.907 5.846 5.846 0 001.9 1.688.363.363 0 01.168.166.477.477 0 00.18.189.241.241 0 01.133.163c0 .056.047.1.132.133a.237.237 0 01.16.157.27.27 0 00.154.163.276.276 0 01.152.154.187.187 0 00.116.126.266.266 0 01.139.162.244.244 0 00.151.164.274.274 0 01.155.15.376.376 0 00.161.174.343.343 0 01.154.166.241.241 0 00.133.139c.049.013.089.043.089.067a.912.912 0 00.189.234c.17.171.526.563.97 1.065.086.1.219.239.3.315a.778.778 0 01.167.227.382.382 0 00.161.165c.074.042.134.109.134.149a.409.409 0 00.132.2.527.527 0 01.161.3c.02.127.058.193.131.226.1.047.2.346.2.613a.507.507 0 00.078.23c.128.2.143 10.644.016 11.174a5.861 5.861 0 00-.116.828c-.038.614-.081.831-.191.95a.709.709 0 00-.122.388c-.034.3-.085.445-.182.5a.7.7 0 00-.112.307.876.876 0 01-.18.417.5.5 0 00-.127.258.353.353 0 01-.192.286.65.65 0 00-.124.235.457.457 0 01-.166.244.266.266 0 00-.123.169.356.356 0 01-.131.193.345.345 0 00-.13.173 1.037 1.037 0 01-.2.3c-.1.106-.252.279-.346.384s-.2.216-.23.245-.123.117-.2.194a1.271 1.271 0 01-.241.191c-.055.028-.1.075-.1.105s-.111.124-.244.21a1.094 1.094 0 00-.263.209c-.011.029-.1.068-.19.087l-.17.034.134.03c.074.017 1.459.033 3.078.036a19.318 19.318 0 013.031.069 2.413 2.413 0 01-.1 1.648c-.041.016-.063.093-.063.22a.967.967 0 01-.218.637.424.424 0 00-.113.259.371.371 0 01-.161.294.269.269 0 00-.131.2.231.231 0 01-.114.182.6.6 0 00-.18.233 1.224 1.224 0 01-.223.317c-.086.087-.2.205-.255.263a1.934 1.934 0 01-.757.363c-.362.119-8.628.141-8.855.023a.246.246 0 01-.12-.357 2.521 2.521 0 00.152-.335c.052-.135.144-.345.206-.468a1.22 1.22 0 00.114-.29.888.888 0 01.108-.252 2.772 2.772 0 00.183-.417 2.773 2.773 0 01.183-.417.845.845 0 00.106-.252 1.093 1.093 0 01.117-.286 3.929 3.929 0 00.2-.445 4.3 4.3 0 01.2-.45 1.152 1.152 0 00.116-.286.831.831 0 01.106-.245 2.662 2.662 0 00.184-.427 1.33 1.33 0 01.135-.312 1.184 1.184 0 00.128-.28 3.927 3.927 0 01.177-.423 3.378 3.378 0 00.161-.383 3.344 3.344 0 01.184-.417 1.27 1.27 0 00.128-.31.886.886 0 01.114-.261c.331-.565.342-.563-2.773-.547l-2.5.013-1.141 1.146c-.628.63-1.143 1.152-1.144 1.159l-.06.615a2.694 2.694 0 01-.153.811 1.147 1.147 0 00-.1.271 1.774 1.774 0 01-.206.57 1.075 1.075 0 00-.127.26 1.246 1.246 0 01-.179.324.489.489 0 00-.112.19.859.859 0 01-.178.26 1.3 1.3 0 00-.178.231c0 .024-.384.407-.874.872a4.852 4.852 0 01-.788.516.51.51 0 00-.167.109.736.736 0 01-.274.133 1.829 1.829 0 00-.37.153 2.856 2.856 0 01-.691.2l-.713.136a4.213 4.213 0 01-1.137 0 5.424 5.424 0 01-1.466-.356 1.375 1.375 0 00-.336-.133 1.016 1.016 0 01-.3-.145l-.374-.234-.3-.185a5.779 5.779 0 01-1.324-1.333c-.049-.08-.121-.192-.159-.25a3.656 3.656 0 01-.4-.72 1.269 1.269 0 00-.129-.312 6.352 6.352 0 01-.373-1.624 4.357 4.357 0 01.093-1.349c.025-.11.071-.331.1-.49a2.361 2.361 0 01.156-.49 2.506 2.506 0 00.148-.385.587.587 0 01.114-.238 1.02 1.02 0 00.157-.3 1.93 1.93 0 01.2-.386.883.883 0 00.133-.26.741.741 0 01.133-.245 1.43 1.43 0 00.184-.338.533.533 0 01.113-.212.831.831 0 00.151-.256c.065-.141.2-.4.294-.568s.23-.422.3-.557a2.067 2.067 0 01.2-.334.571.571 0 00.1-.2 1.155 1.155 0 01.146-.29 1.591 1.591 0 00.163-.309 1.177 1.177 0 01.143-.267 2.3 2.3 0 00.2-.355 1.247 1.247 0 01.129-.245.948.948 0 00.188-.371.179.179 0 01.062-.117 1.629 1.629 0 00.2-.329c.076-.152.178-.337.225-.411a.6.6 0 00.089-.2.567.567 0 01.108-.2 2.175 2.175 0 00.2-.359 1.686 1.686 0 01.156-.29 1.209 1.209 0 00.133-.261 1.092 1.092 0 01.163-.287.321.321 0 00.088-.155.9.9 0 01.22-.413c.022 0 .071-.093.11-.207a1.493 1.493 0 01.182-.354.592.592 0 00.112-.2 1.8 1.8 0 01.178-.346 1.46 1.46 0 00.178-.371.21.21 0 01.074-.137 1.411 1.411 0 00.2-.329c.071-.147.207-.408.3-.579s.225-.42.288-.553a1.224 1.224 0 01.176-.29.608.608 0 00.118-.227 1.238 1.238 0 01.157-.312 1.7 1.7 0 00.18-.334.672.672 0 01.134-.234.688.688 0 00.133-.245 1.33 1.33 0 01.151-.3 3.886 3.886 0 00.262-.49c.1-.221.214-.451.244-.513l.055-.111 1.514-.022c1.442-.021 1.522-.027 1.693-.118a2 2 0 01.623-.149c.36-.043.463-.072.545-.155a.69.69 0 01.473-.161.324.324 0 00.2-.11.833.833 0 01.334-.18c.131-.038.238-.087.238-.108 0-.056.3-.226.4-.226a.133.133 0 00.113-.093.327.327 0 01.172-.153 2.224 2.224 0 00.634-.508l.2-.2V4.948l.143-.28c.138-.27.144-.3.168-.972.026-.734.052-.821.347-1.194a1.167 1.167 0 011.239-.186m-3.7 10.157a1.737 1.737 0 00-.724.4 1.078 1.078 0 00-.189.206.736.736 0 01-.106.171 10.576 10.576 0 00-.154 3.444 1.656 1.656 0 003.1.32l.167-.323V13.66l-.148-.281a2.016 2.016 0 00-.7-.762 1.574 1.574 0 00-1.248-.145" fill="#2e1d17" fill-rule="evenodd"/><path d="M18.862 2.489c-.2.108-.242.165-.428.613l-.12.29-.023 2.742-.023 2.742-.1.136a1.985 1.985 0 01-.206.231c-.346.315-.467.413-.512.413-.028 0-.083.05-.124.112s-.095.111-.121.111a1.392 1.392 0 00-.3.178 1.344 1.344 0 01-.3.178.513.513 0 00-.185.113 1.236 1.236 0 01-.37.183.811.811 0 00-.282.128 1.349 1.349 0 01-.55.2.8.8 0 00-.254.095 3.551 3.551 0 01-.8.2c-.345.057-.682.117-.749.133a.456.456 0 01-.243-.021.684.684 0 00-.367-.01c-.134.022-.2.043-.149.046.315.017.327.15.063.674-.432.857-.994 1.953-1.029 2.006a2.678 2.678 0 00-.13.267c-.048.11-.127.271-.176.357-.1.171-.373.762-.551 1.181a5.862 5.862 0 00-.062 4.5 4.79 4.79 0 00.436.761.347.347 0 01.084.126c0 .1 1.8 1.938 3.912 4 .416.4.546.558.546.645v.113l.137-.1.138-.1h2.66c2.792 0 2.863 0 2.935.166a1.225 1.225 0 01-.176.814.735.735 0 00-.122.245 1.1 1.1 0 01-.189.479.907.907 0 00-.129.3 1.275 1.275 0 01-.159.364.593.593 0 00-.1.188 1.61 1.61 0 01-.222.562.905.905 0 00-.132.315.977.977 0 01-.156.346.736.736 0 00-.133.309 1.064 1.064 0 01-.137.351 1.873 1.873 0 00-.181.417 1.021 1.021 0 01-.159.339.281.281 0 00-.085.144 1.459 1.459 0 01-.225.567.607.607 0 00-.11.272 1.045 1.045 0 01-.161.37.68.68 0 00-.129.251 1.207 1.207 0 01-.2.513.8.8 0 00-.141.491c.03.079 8.4.094 8.686.015a4.612 4.612 0 001.461-1.67.635.635 0 01.112-.2 1.191 1.191 0 00.16-.332 2.456 2.456 0 01.134-.358 3.8 3.8 0 00.217-1.18c0-.438.288-.4-3.283-.4-3.508 0-3.349.015-3.2-.3a2.367 2.367 0 01.832-.668 1.178 1.178 0 00.184-.142 9.28 9.28 0 01.3-.27c.18-.161.235-.213.392-.37a7.718 7.718 0 00.811-.965 1.007 1.007 0 01.156-.2.724.724 0 00.156-.227.422.422 0 01.109-.17 1.447 1.447 0 00.2-.328 1.525 1.525 0 01.152-.279.879.879 0 00.114-.247 1.69 1.69 0 01.162-.344.733.733 0 00.107-.223 3.313 3.313 0 01.219-.678 2.079 2.079 0 00.112-.427c.04-.208.117-.57.171-.8l.1-.424v-5.783c0-5.325-.006-5.782-.075-5.885a2.176 2.176 0 01-.166-.375 1.3 1.3 0 00-.182-.36.353.353 0 01-.09-.133 9.339 9.339 0 00-1.18-1.412c-.062-.049-.113-.1-.113-.124a4.366 4.366 0 00-.424-.465 5.919 5.919 0 01-.424-.455 2.57 2.57 0 00-.267-.3c-.38-.392-.767-.806-1.2-1.285a25.958 25.958 0 00-.546-.585.89.89 0 01-.167-.2c0-.018-.055-.066-.123-.107a6.327 6.327 0 01-1.17-1.109c-.11-.129-.266-.3-.346-.375a.538.538 0 01-.145-.19c0-.027-.059-.091-.131-.143a.476.476 0 01-.159-.18.307.307 0 00-.148-.144.373.373 0 01-.161-.15c-.089-.2-.736-.262-1.047-.1m-1.827 9.758a.828.828 0 01.241.131.592.592 0 00.212.11.447.447 0 01.213.157.455.455 0 00.168.151.285.285 0 01.131.148 1.194 1.194 0 00.147.238c.156.191.175.4.176 1.967 0 1.607-.025 1.871-.2 2.063a.436.436 0 00-.108.162 1.309 1.309 0 01-.491.44.117.117 0 00-.1.065c-.107.279-1.474.324-1.768.058a1.622 1.622 0 00-.275-.187.592.592 0 01-.212-.178 2.422 2.422 0 00-.2-.278.823.823 0 01-.18-.389.534.534 0 00-.069-.227 8.722 8.722 0 01-.014-3.01c.053-.159.107-.34.121-.4a1.844 1.844 0 01.74-.8.51.51 0 00.194-.115 2.057 2.057 0 011.28-.108" fill="#f38b4b" fill-rule="evenodd"/><path d="M18.997 2.65c-.536.2-.683.491-.716 1.4-.024.668-.03.7-.168.972l-.143.28v3.861l-.2.2a2.224 2.224 0 01-.634.508.327.327 0 00-.172.153.133.133 0 01-.113.093c-.1 0-.4.17-.4.226 0 .021-.107.07-.238.108a.833.833 0 00-.334.18.325.325 0 01-.2.11.69.69 0 00-.485.157c-.083.083-.185.112-.547.154a1.753 1.753 0 00-.64.16l-.2.108h-1.485c-.817 0-1.494.015-1.506.033a8.831 8.831 0 001.1.033c1.116 0 1.122 0 1.165.1a.379.379 0 00.41.17c.066-.017.4-.077.749-.133a3.55 3.55 0 00.8-.2.8.8 0 01.254-.095 1.349 1.349 0 00.55-.2.811.811 0 01.281-.128 1.236 1.236 0 00.37-.183.513.513 0 01.185-.113 1.343 1.343 0 00.3-.178 1.391 1.391 0 01.3-.178c.026 0 .08-.05.121-.111s.1-.112.124-.112c.045 0 .166-.1.512-.413a1.985 1.985 0 00.206-.231l.1-.136.023-2.741.023-2.741.12-.29c.186-.448.226-.505.428-.613.312-.166.958-.107 1.047.1a.373.373 0 00.161.15.306.306 0 01.148.144.476.476 0 00.159.18c.072.051.131.116.131.143a.538.538 0 00.145.19c.08.077.235.246.345.375a6.326 6.326 0 001.17 1.108c.067.04.123.088.123.107a.89.89 0 00.167.2c.092.093.338.357.546.585.437.479.824.892 1.2 1.284a2.57 2.57 0 01.267.3 5.916 5.916 0 00.423.455 4.365 4.365 0 01.423.465c0 .019.051.075.113.124a9.337 9.337 0 011.18 1.412.353.353 0 00.09.133 1.3 1.3 0 01.182.36 2.176 2.176 0 00.166.375c.069.1.075.56.075 5.884v5.772l-.1.423c-.054.233-.131.594-.171.8a2.078 2.078 0 01-.112.426 3.312 3.312 0 00-.219.678.733.733 0 01-.107.223 1.689 1.689 0 00-.162.344.88.88 0 01-.114.247 1.524 1.524 0 00-.152.278 1.447 1.447 0 01-.2.328.422.422 0 00-.109.17.724.724 0 01-.156.227 1.007 1.007 0 00-.156.2 7.716 7.716 0 01-.811.965 7.518 7.518 0 01-.392.37l-.3.27a1.178 1.178 0 01-.184.142 2.367 2.367 0 00-.831.668c-.149.312-.309.3 3.207.3 3.578 0 3.275-.038 3.275.41a3.8 3.8 0 01-.217 1.172 2.457 2.457 0 00-.134.358 1.191 1.191 0 01-.16.332.635.635 0 00-.112.2 4.611 4.611 0 01-1.461 1.67c-.281.078-8.654.063-8.685-.015a.8.8 0 01.141-.491 1.207 1.207 0 00.2-.513.68.68 0 01.128-.251 1.045 1.045 0 00.161-.37.607.607 0 01.11-.272 1.459 1.459 0 00.225-.567.281.281 0 01.085-.144 1.021 1.021 0 00.159-.339 1.872 1.872 0 01.181-.417 1.063 1.063 0 00.137-.351.736.736 0 01.133-.309.977.977 0 00.156-.346.905.905 0 01.132-.315 1.61 1.61 0 00.222-.562.593.593 0 01.1-.188 1.275 1.275 0 00.159-.364.907.907 0 01.129-.3 1.1 1.1 0 00.189-.479.735.735 0 01.122-.245c.25-.366.258-.879.016-.948-.154-.043-5.3-.042-5.453 0-.449.126-.1.144 2.474.131 3.217-.017 3.2-.02 2.867.547a.885.885 0 00-.114.261 1.27 1.27 0 01-.128.31 3.346 3.346 0 00-.184.417 3.375 3.375 0 01-.161.383 3.926 3.926 0 00-.177.423 1.185 1.185 0 01-.128.28 1.33 1.33 0 00-.135.312 2.661 2.661 0 01-.184.427.831.831 0 00-.106.245 1.152 1.152 0 01-.116.286 4.3 4.3 0 00-.2.45 3.931 3.931 0 01-.2.445 1.093 1.093 0 00-.117.286.845.845 0 01-.106.252 2.772 2.772 0 00-.183.417 2.77 2.77 0 01-.183.417.888.888 0 00-.108.252 1.221 1.221 0 01-.114.29 6.233 6.233 0 00-.206.468 2.521 2.521 0 01-.152.335.246.246 0 00.12.357c.227.117 8.493.1 8.855-.023a1.935 1.935 0 00.757-.363c.054-.058.168-.177.255-.263a1.224 1.224 0 00.249-.307.6.6 0 01.18-.233.231.231 0 00.114-.182.269.269 0 01.131-.2.371.371 0 00.161-.294.424.424 0 01.113-.259.967.967 0 00.218-.637c0-.128.022-.2.063-.22a2.413 2.413 0 00.1-1.648 19.322 19.322 0 00-3.031-.069c-1.62 0-3-.019-3.078-.036l-.134-.03.169-.034c.093-.018.179-.058.19-.087a1.094 1.094 0 01.263-.209c.133-.086.243-.18.244-.21s.047-.077.1-.105a1.269 1.269 0 00.241-.191c.077-.077.168-.164.2-.194s.137-.14.23-.245.249-.278.346-.384a1.036 1.036 0 00.2-.3.345.345 0 01.13-.173.356.356 0 00.131-.193.266.266 0 01.123-.169.457.457 0 00.166-.244.65.65 0 01.124-.235.353.353 0 00.192-.286.5.5 0 01.127-.258.876.876 0 00.18-.417.7.7 0 01.112-.307c.1-.058.149-.2.182-.5a.709.709 0 01.122-.388c.109-.119.153-.336.191-.95a5.861 5.861 0 01.116-.828c.127-.53.113-10.978-.016-11.174a.507.507 0 01-.078-.23c0-.267-.1-.567-.2-.613-.072-.033-.111-.1-.131-.226a.527.527 0 00-.161-.3.409.409 0 01-.132-.2c0-.04-.06-.108-.134-.149a.382.382 0 01-.161-.165.778.778 0 00-.167-.227c-.077-.076-.21-.217-.3-.315-.443-.5-.8-.894-.97-1.065a.912.912 0 01-.189-.234c0-.024-.04-.054-.089-.067a.241.241 0 01-.133-.139.343.343 0 00-.154-.166.376.376 0 01-.161-.174.274.274 0 00-.155-.15.244.244 0 01-.151-.164.266.266 0 00-.139-.162.187.187 0 01-.116-.126.276.276 0 00-.152-.154.27.27 0 01-.154-.163.237.237 0 00-.16-.157c-.085-.03-.132-.077-.132-.133a.241.241 0 00-.133-.163.477.477 0 01-.18-.189.364.364 0 00-.168-.166 5.846 5.846 0 01-1.9-1.688c-.817-.954-1.233-1.164-1.848-.932m-2.944 9.971a.478.478 0 00-.206.108.51.51 0 01-.194.115 1.844 1.844 0 00-.74.8 5.508 5.508 0 01-.121.4 8.721 8.721 0 00.014 3.01.534.534 0 01.069.227.823.823 0 00.18.389 2.422 2.422 0 01.2.277.592.592 0 00.212.178 1.623 1.623 0 01.275.187c.294.266 1.661.221 1.768-.058a.117.117 0 01.1-.065 1.308 1.308 0 00.491-.44.436.436 0 01.108-.162c.178-.192.2-.456.2-2.063 0-1.564-.02-1.776-.176-1.967a1.193 1.193 0 01-.147-.238.285.285 0 00-.131-.148.455.455 0 01-.168-.151.447.447 0 00-.213-.157.592.592 0 01-.212-.11 1.932 1.932 0 00-1.315-.13m.964.211a1.653 1.653 0 011.1.907l.146.279v3.031l-.167.323a1.643 1.643 0 01-2.912.145 7.86 7.86 0 01-.035-3.908.736.736 0 00.106-.171 1.792 1.792 0 01.535-.454 1.449 1.449 0 011.231-.152" fill="#a85d35" fill-rule="evenodd"/><path d="M18.109.071a.846.846 0 00-.2.1 1.361 1.361 0 01-.265.13 1.162 1.162 0 00-.288.156 1.259 1.259 0 01-.221.148 3.545 3.545 0 00-1 1.109c-.05.112-.107.2-.127.2s-.05.035-.065.077c-.105.291-.182.342-.583.385a3.661 3.661 0 00-.925.18 2.417 2.417 0 01-.464.131 2.221 2.221 0 00-.512.16 1.441 1.441 0 01-.364.131 1.276 1.276 0 00-.373.147 1.468 1.468 0 01-.366.158.963.963 0 00-.31.138 1.445 1.445 0 01-.342.173.9.9 0 00-.288.15.486.486 0 01-.183.115 1.239 1.239 0 00-.265.155 3.039 3.039 0 01-.326.215.69.69 0 00-.21.153c0 .018-.055.057-.122.086a6.664 6.664 0 00-1.06.84 1.106 1.106 0 01-.241.188c-.02 0-.037.027-.037.059s-.051.086-.113.12a.568.568 0 00-.185.181.334.334 0 01-.152.142.186.186 0 00-.111.1 1.34 1.34 0 01-.226.278 6.419 6.419 0 00-.674.841 2.082 2.082 0 01-.189.243 1.034 1.034 0 00-.148.217 1.293 1.293 0 01-.142.221 4.284 4.284 0 00-.429.737 1.908 1.908 0 01-.179.314 1.22 1.22 0 00-.144.3 1.34 1.34 0 01-.112.259 1.712 1.712 0 00-.2.487.444.444 0 01-.083.182 2.064 2.064 0 00-.181.446 2.437 2.437 0 01-.158.421 1.775 1.775 0 00-.132.379 2.134 2.134 0 01-.157.433 2.139 2.139 0 00-.156.464 1.37 1.37 0 01-.131.386c-.181.206-.212.725-.051.846.006 0 .378.019.828.033l.818.026-.01.166a.477.477 0 01-.1.26 1.118 1.118 0 00-.165.309c-.043.118-.095.215-.116.215a.954.954 0 00-.173.3 1.876 1.876 0 01-.168.321.969.969 0 00-.121.221 2.819 2.819 0 01-.205.371.708.708 0 00-.117.235.782.782 0 01-.125.248 2.2 2.2 0 00-.186.34 1.88 1.88 0 01-.185.327.667.667 0 00-.124.247.426.426 0 01-.105.2 1.061 1.061 0 00-.164.3.79.79 0 01-.129.249 1.088 1.088 0 00-.153.269 2.017 2.017 0 01-.179.332 1.294 1.294 0 00-.149.3.584.584 0 01-.112.212 1.093 1.093 0 00-.158.279 2.129 2.129 0 01-.2.368.51.51 0 00-.1.2.635.635 0 01-.108.226 7.694 7.694 0 00-.478.893 1.718 1.718 0 01-.165.288.916.916 0 00-.178.368.2.2 0 01-.073.124 1.39 1.39 0 00-.2.326c-.07.146-.176.345-.236.442a.761.761 0 00-.109.249.206.206 0 01-.072.131 1.154 1.154 0 00-.179.3 1.677 1.677 0 01-.171.314.974.974 0 00-.129.255.978.978 0 01-.156.283.332.332 0 00-.091.152 1.775 1.775 0 01-.151.345 3.482 3.482 0 00-.2.457 3.464 3.464 0 01-.155.388 2.646 2.646 0 00-.159.464 2.134 2.134 0 01-.137.408 9.694 9.694 0 000 3.59 2.679 2.679 0 01.135.425 2.7 2.7 0 00.157.464c.057.122.138.319.18.439a1.959 1.959 0 00.181.371.6.6 0 01.1.229.407.407 0 00.111.2 1.126 1.126 0 01.177.277 1.451 1.451 0 00.187.3c.067.081.191.241.277.355a12.6 12.6 0 001.331 1.336c.107.08.284.214.394.3a1.519 1.519 0 00.343.2c.079.026.144.065.144.086a5.808 5.808 0 001.057.53.575.575 0 01.2.084 2.049 2.049 0 00.448.16 3.616 3.616 0 01.5.159 10.267 10.267 0 003.6.017 3 3 0 01.484-.152 2.924 2.924 0 00.521-.172 3.669 3.669 0 01.385-.165 1.986 1.986 0 00.358-.17.614.614 0 01.216-.1.534.534 0 00.2-.105 2.366 2.366 0 01.3-.183 1.9 1.9 0 00.294-.193c.077-.064.283-.225.458-.359a8.151 8.151 0 001.55-1.68 2.989 2.989 0 01.188-.277.716.716 0 00.121-.2 1.423 1.423 0 01.156-.283 1.893 1.893 0 00.2-.391.667.667 0 01.106-.221 1.243 1.243 0 00.138-.357 2.8 2.8 0 01.152-.442 3.523 3.523 0 00.2-.948.542.542 0 01.135-.323.359.359 0 00.107-.17c0-.035.055-.092.123-.127a.506.506 0 00.184-.177.317.317 0 01.142-.139.265.265 0 00.128-.113c.142-.265 1.251-.286 1.17-.021a5.888 5.888 0 00-.065.235 1.7 1.7 0 01-.144.332 2.288 2.288 0 00-.168.388 1.05 1.05 0 01-.114.265 1.369 1.369 0 00-.2.476.671.671 0 01-.1.227 2.372 2.372 0 00-.181.4 1.307 1.307 0 01-.14.31 1.133 1.133 0 00-.128.3 1.927 1.927 0 01-.16.383 1.927 1.927 0 00-.16.383 1.165 1.165 0 01-.126.3 1.742 1.742 0 00-.159.354 2.71 2.71 0 01-.169.393 2.143 2.143 0 00-.15.354 1.389 1.389 0 01-.14.315 1.3 1.3 0 00-.135.31 2.641 2.641 0 01-.183.424.834.834 0 00-.105.243 1.481 1.481 0 01-.133.324c-.273.538-.293.738-.086.845s20.985.1 21.131 0l.1-.069v-9.73c0-9.757-.008-10.34-.154-10.764a5.723 5.723 0 01-.2-.974 1.12 1.12 0 00-.091-.315 3.17 3.17 0 01-.152-.531 2.889 2.889 0 00-.17-.554 2.285 2.285 0 01-.141-.39 1.9 1.9 0 00-.159-.393 1.164 1.164 0 01-.126-.31 1.735 1.735 0 00-.153-.381c-.085-.17-.186-.379-.224-.464s-.147-.294-.241-.464-.222-.412-.283-.537a.854.854 0 00-.152-.243.882.882 0 01-.159-.237 3.179 3.179 0 00-.412-.619 2.061 2.061 0 01-.2-.3.685.685 0 00-.154-.21c-.018 0-.067-.059-.11-.13a1.965 1.965 0 00-.2-.263c-.066-.073-.19-.215-.275-.314-.284-.334-.4-.461-.92-.984a4.525 4.525 0 00-.564-.52c-.027 0-.077-.05-.109-.111s-.075-.111-.093-.111a1.25 1.25 0 01-.247-.179 5.75 5.75 0 00-.929-.721 1.4 1.4 0 01-.261-.183.435.435 0 00-.169-.111.451.451 0 01-.172-.114 1.389 1.389 0 00-.318-.2.754.754 0 01-.225-.135A.8.8 0 0028 4.21a2.294 2.294 0 01-.317-.169 1.828 1.828 0 00-.31-.156 1.538 1.538 0 01-.3-.158.971.971 0 00-.288-.128 1.083 1.083 0 01-.3-.13 1.587 1.587 0 00-.376-.158 2.876 2.876 0 01-.414-.155 1.952 1.952 0 00-.377-.131 3.53 3.53 0 01-.442-.14 4.807 4.807 0 00-.686-.177 3.685 3.685 0 01-.575-.144 2.212 2.212 0 00-.409-.114c-.318-.062-.444-.169-1.183-1.008a1 1 0 00-.244-.227c-.025 0-.075-.049-.111-.109a.978.978 0 00-.22-.219 9.282 9.282 0 00-.9-.594c-.12-.065-.271-.148-.334-.184a9.2 9.2 0 00-2.106-.036m1.981.229a2.17 2.17 0 00.4.161.344.344 0 01.166.111.357.357 0 00.155.111 7.063 7.063 0 011.306 1.143 2.99 2.99 0 00.3.342 1.766 1.766 0 001.251.619 3.756 3.756 0 01.661.149 4.029 4.029 0 00.525.155 2.829 2.829 0 01.487.152 3.378 3.378 0 00.448.161 1.531 1.531 0 01.354.136 1.683 1.683 0 00.351.147 1.464 1.464 0 01.354.156 1.119 1.119 0 00.289.138 1.551 1.551 0 01.354.175 1 1 0 00.244.134 1.686 1.686 0 01.316.171c.114.076.31.2.436.27s.292.176.369.23l.45.309c.17.117.379.274.464.349a3.353 3.353 0 00.265.211c.1.068.329.265.807.693a15.519 15.519 0 011.913 2.146c.1.138.222.3.276.359a.437.437 0 01.1.142 2.081 2.081 0 00.2.316 1.567 1.567 0 01.2.334.367.367 0 00.1.157 1.211 1.211 0 01.185.3 1.432 1.432 0 00.158.288.866.866 0 01.123.234 1.26 1.26 0 00.141.275 1.872 1.872 0 01.179.382 1.407 1.407 0 00.147.322 1.648 1.648 0 01.157.373 2.68 2.68 0 00.154.4 2.181 2.181 0 01.137.4 1.489 1.489 0 00.135.376 1.143 1.143 0 01.109.354 6.577 6.577 0 00.162.641 7.68 7.68 0 01.2.944 4.891 4.891 0 00.126.665c.124.231.136 1.16.136 10.393 0 8.588-.006 9.465-.07 9.489-.121.046-20.791.031-20.913-.016s-.1-.228.04-.4a1.355 1.355 0 00.131-.288 4.3 4.3 0 01.177-.42 1.887 1.887 0 00.13-.332 1.128 1.128 0 01.135-.293 1.463 1.463 0 00.156-.35 2.234 2.234 0 01.18-.419 1.034 1.034 0 00.129-.314.635.635 0 01.1-.24 2.8 2.8 0 00.193-.43 2.226 2.226 0 01.138-.332 1.771 1.771 0 00.2-.471 1.166 1.166 0 01.128-.287 1.666 1.666 0 00.154-.335 3.033 3.033 0 01.186-.42.8.8 0 00.1-.25 1.021 1.021 0 01.112-.28 3.857 3.857 0 00.2-.476 1.245 1.245 0 01.153-.331 1.03 1.03 0 00.124-.309 2.014 2.014 0 01.16-.4c.291-.481-1.017-.67-1.494-.217a7.472 7.472 0 01-.205.19 1.474 1.474 0 00-.128.133 2.5 2.5 0 01-.177.181c-.286.263-.3.286-.376.772a2.236 2.236 0 01-.1.454 2.494 2.494 0 00-.138.423 3.506 3.506 0 01-.2.575.953.953 0 00-.1.268 1.136 1.136 0 01-.145.31 3.786 3.786 0 00-.2.384c-.033.079-.075.144-.093.144a.808.808 0 00-.161.243.891.891 0 01-.157.243.5.5 0 00-.128.16 4.6 4.6 0 01-.771.868 3.6 3.6 0 01-.57.52c-.036 0-.107.06-.159.133s-.12.133-.151.133a.38.38 0 00-.166.1 2.137 2.137 0 01-.36.229.949.949 0 00-.251.158.844.844 0 01-.254.132 1.749 1.749 0 00-.322.161 1.131 1.131 0 01-.315.122 2.576 2.576 0 00-.428.156 2.7 2.7 0 01-.548.165 2.767 2.767 0 00-.49.135 7.508 7.508 0 01-2.8 0 4.16 4.16 0 00-.52-.137 2.591 2.591 0 01-.526-.161 2.57 2.57 0 00-.426-.155 1.049 1.049 0 01-.316-.127 1.82 1.82 0 00-.311-.176 3.959 3.959 0 01-.727-.414 1.225 1.225 0 00-.212-.139 1.706 1.706 0 01-.288-.208.9.9 0 00-.2-.147 12.571 12.571 0 01-1.097-1.077c-.055-.075-.175-.246-.267-.38s-.193-.27-.224-.3a.838.838 0 01-.116-.2.783.783 0 00-.124-.206 1.069 1.069 0 01-.146-.278 1.522 1.522 0 00-.162-.316 1.2 1.2 0 01-.144-.344 2.516 2.516 0 00-.154-.42 3.248 3.248 0 01-.179-.6 3.445 3.445 0 00-.137-.515 7.327 7.327 0 01.017-2.675 2.77 2.77 0 00.136-.48 2.624 2.624 0 01.162-.526 2.569 2.569 0 00.155-.426 1.2 1.2 0 01.119-.315 1.426 1.426 0 00.206-.46.464.464 0 01.111-.187.492.492 0 00.111-.177 1.008 1.008 0 01.11-.243c.061-.107.167-.314.236-.46a1.38 1.38 0 01.2-.326.211.211 0 00.073-.138.653.653 0 01.113-.243 4.394 4.394 0 00.237-.415 4.273 4.273 0 01.441-.821.758.758 0 00.121-.236 1.427 1.427 0 01.18-.335.461.461 0 00.1-.179 1.337 1.337 0 01.151-.306 2.64 2.64 0 00.2-.4.619.619 0 01.131-.224.9.9 0 00.159-.282.915.915 0 01.128-.252.98.98 0 00.135-.243 2.074 2.074 0 01.187-.34.572.572 0 00.1-.19 1.788 1.788 0 01.177-.343 1.779 1.779 0 00.177-.343.749.749 0 01.131-.224.687.687 0 00.133-.245.71.71 0 01.119-.243 2.819 2.819 0 00.205-.371.969.969 0 01.121-.221 1.876 1.876 0 00.168-.321.925.925 0 01.175-.3c.022 0 .077-.109.123-.243a.662.662 0 01.115-.243.846.846 0 00.158-.265 2.1 2.1 0 01.176-.321 1.222 1.222 0 00.134-.265 1.179 1.179 0 01.16-.292 2.346 2.346 0 00.265-.593c.03-.2-.172-.265-.879-.266-.948 0-1.108-.079-.857-.42a2.07 2.07 0 00.113-.332 3.843 3.843 0 01.185-.506 1.133 1.133 0 00.1-.291 1.839 1.839 0 01.2-.574 1.627 1.627 0 00.134-.373 2.486 2.486 0 01.184-.487.794.794 0 00.1-.269.816.816 0 01.107-.273 3.684 3.684 0 00.2-.442 1.522 1.522 0 01.155-.324 1.916 1.916 0 00.174-.31 4.716 4.716 0 01.43-.737.989.989 0 00.127-.221 1.024 1.024 0 01.153-.229 1.369 1.369 0 00.178-.272.183.183 0 01.09-.105.44.44 0 00.144-.155 10.487 10.487 0 01.816-.966 9.568 9.568 0 01.935-.875l.309-.267a2.068 2.068 0 01.216-.147c.091-.056.166-.116.166-.135s.055-.061.122-.1a3.012 3.012 0 00.3-.2 5.681 5.681 0 01.737-.448 2.437 2.437 0 00.336-.21.282.282 0 01.154-.072.729.729 0 00.339-.16 2.006 2.006 0 01.346-.145 2.324 2.324 0 00.388-.166 1.03 1.03 0 01.306-.108 2.241 2.241 0 00.439-.134 2.632 2.632 0 01.542-.16 5.406 5.406 0 00.575-.136 4.958 4.958 0 01.617-.135.674.674 0 00.6-.33 1.577 1.577 0 00.221-.467c0-.026.05-.087.111-.134a.282.282 0 00.111-.146.378.378 0 01.133-.171.406.406 0 00.133-.159c0-.026.016-.047.035-.047a1.072 1.072 0 00.23-.177.96.96 0 01.237-.177.612.612 0 00.185-.109 1.571 1.571 0 01.336-.181 3.734 3.734 0 00.361-.16 2.623 2.623 0 011.9.024m-9.541 10.8a.23.23 0 00-.07.118 5.359 5.359 0 01-.443.9 1.32 1.32 0 00-.15.3.682.682 0 01-.132.243.666.666 0 00-.133.232 1.684 1.684 0 01-.178.332 1.228 1.228 0 00-.156.31.6.6 0 01-.117.226 1.215 1.215 0 00-.175.288c-.062.131-.191.378-.286.548s-.23.429-.3.575a1.4 1.4 0 01-.2.326.209.209 0 00-.073.135 1.449 1.449 0 01-.177.368 1.788 1.788 0 00-.177.343.588.588 0 01-.111.2 1.481 1.481 0 00-.181.351c-.038.113-.088.205-.109.205a.891.891 0 00-.218.41.318.318 0 01-.088.154 1.084 1.084 0 00-.162.285 1.2 1.2 0 01-.132.259 1.674 1.674 0 00-.155.288 2.159 2.159 0 01-.2.356.563.563 0 00-.107.2.6.6 0 01-.088.195 5.92 5.92 0 00-.223.408 1.616 1.616 0 01-.2.326.178.178 0 00-.061.116.941.941 0 01-.186.368 1.237 1.237 0 00-.128.243 2.28 2.28 0 01-.195.352 1.168 1.168 0 00-.142.265 1.578 1.578 0 01-.162.306 1.146 1.146 0 00-.145.287.566.566 0 01-.1.2 2.051 2.051 0 00-.195.332c-.065.134-.2.383-.293.553s-.228.424-.292.564a.825.825 0 01-.149.254.529.529 0 00-.112.21 1.419 1.419 0 01-.183.335.735.735 0 00-.132.243.877.877 0 01-.132.258 1.915 1.915 0 00-.195.383 1.012 1.012 0 01-.155.3.582.582 0 00-.113.236 2.487 2.487 0 01-.147.382 2.343 2.343 0 00-.154.487 29.29 29.29 0 01-.1.487 4.324 4.324 0 00-.092 1.339 6.3 6.3 0 00.37 1.612 1.26 1.26 0 01.128.31 3.628 3.628 0 00.395.715c.038.057.109.169.158.248a5.734 5.734 0 001.314 1.323l.3.183.371.232a1.008 1.008 0 00.3.144 1.364 1.364 0 01.333.132 5.382 5.382 0 001.455.353 4.18 4.18 0 001.128 0c.109-.022.428-.083.708-.135a2.834 2.834 0 00.686-.2 1.815 1.815 0 01.367-.152.73.73 0 00.272-.132.506.506 0 01.166-.108 4.814 4.814 0 00.782-.512c.486-.461.867-.841.867-.865a1.288 1.288 0 01.177-.23.852.852 0 00.177-.258.485.485 0 01.111-.189 1.236 1.236 0 00.178-.322 1.067 1.067 0 01.126-.258 1.76 1.76 0 00.2-.565 1.138 1.138 0 01.1-.269 2.673 2.673 0 00.152-.8l.059-.61c.001-.01.5-.515 1.114-1.128a6.863 6.863 0 001.032-1.145c-.039-.008-.072-.037-.072-.064a4.411 4.411 0 00-.6.556 7.592 7.592 0 01-.638.606c-.021 0-.05.037-.064.081a.315.315 0 01-.138.142.565.565 0 00-.183.18.477.477 0 01-.174.167c-.057.026-.1.07-.1.1a.521.521 0 01-.159.189c-.154.133-.161.152-.216.6a6.262 6.262 0 01-.131.73 7.313 7.313 0 00-.116.482 2.814 2.814 0 01-.2.538 2.033 2.033 0 00-.155.385.257.257 0 01-.087.142.469.469 0 00-.116.173 5.482 5.482 0 01-.763 1.013l-.177.163a6.2 6.2 0 01-.77.6c-.067.035-.122.079-.122.1s-.075.06-.166.092a1.917 1.917 0 00-.336.167 1.759 1.759 0 01-.42.175 1.573 1.573 0 00-.347.128 6.664 6.664 0 01-3.212 0 1.66 1.66 0 00-.36-.132 1.7 1.7 0 01-.42-.173 1.9 1.9 0 00-.312-.163.781.781 0 01-.238-.144.78.78 0 00-.2-.137 3.268 3.268 0 01-.761-.669c-.477-.482-.535-.55-.63-.741-.045-.091-.1-.166-.116-.166a.777.777 0 01-.145-.255 1.2 1.2 0 00-.183-.315.205.205 0 01-.072-.133 2.684 2.684 0 00-.223-.648 6.794 6.794 0 01.017-3.1 3.081 3.081 0 00.144-.39 1.818 1.818 0 01.161-.384 1.521 1.521 0 00.141-.289 2.605 2.605 0 01.2-.395 1.13 1.13 0 00.138-.277.552.552 0 01.107-.194 1.71 1.71 0 00.185-.34.666.666 0 01.133-.232.682.682 0 00.132-.243 1.245 1.245 0 01.153-.3 1.584 1.584 0 00.171-.308 1.637 1.637 0 01.153-.288 1.239 1.239 0 00.134-.264 1.377 1.377 0 01.184-.324.448.448 0 00.108-.21.444.444 0 01.1-.207 1.621 1.621 0 00.185-.324 1.453 1.453 0 01.14-.267 1.711 1.711 0 00.152-.288 1.613 1.613 0 01.17-.308 1.412 1.412 0 00.159-.288 2.123 2.123 0 01.178-.332 1.535 1.535 0 00.153-.287.964.964 0 01.116-.223 1.663 1.663 0 00.153-.284 1.4 1.4 0 01.176-.3.535.535 0 00.108-.212 1.009 1.009 0 01.132-.28 4.37 4.37 0 00.223-.389l.23-.455a2.569 2.569 0 01.191-.323 1.05 1.05 0 00.133-.265 1.027 1.027 0 01.154-.282 1.024 1.024 0 00.154-.288.912.912 0 01.128-.255 1.386 1.386 0 00.157-.288.918.918 0 01.138-.246 1.376 1.376 0 00.171-.308 2.081 2.081 0 01.173-.329 1.006 1.006 0 00.118-.223 1.845 1.845 0 01.184-.327.685.685 0 00.124-.239.514.514 0 01.1-.2 2.023 2.023 0 00.186-.336 2.111 2.111 0 01.18-.332.872.872 0 00.123-.251.74.74 0 01.131-.243 1.44 1.44 0 00.181-.324 1.178 1.178 0 01.137-.265 1.341 1.341 0 00.146-.265 1.415 1.415 0 01.18-.305.393.393 0 00.095-.155c0-.226.1-.249 1.128-.266 1.15-.019 1.3-.052 1.118-.238a9.565 9.565 0 00-2.266.016M7.025 24.825c-.237.071-.7.4-.7.5a.617.617 0 01-.111.188.715.715 0 00-.111.177c0 .035-.294.663-.492 1.049a1.463 1.463 0 00-.127.3 2.911 2.911 0 01-.177.428 2.91 2.91 0 00-.177.429.677.677 0 01-.093.205 2.388 2.388 0 00-.177.416 1.537 1.537 0 01-.133.323c-.1.126.341.173.479.051a1.1 1.1 0 01.293-.142 3.356 3.356 0 00.42-.182 1.328 1.328 0 01.242-.11 2.537 2.537 0 00.331-.138c.162-.076.375-.166.473-.2a1.6 1.6 0 00.277-.127 2.345 2.345 0 01.343-.156 1.257 1.257 0 00.3-.148.805.805 0 01.227-.118 1.555 1.555 0 00.766-2.021.944.944 0 01-.122-.224 1.061 1.061 0 00-.232-.236 1.608 1.608 0 00-1.5-.264" fill="#747474" fill-rule="evenodd"/></g></svg>