<?xml version="1.0" encoding="utf-8"?>
<!-- Generator: Adobe Illustrator 24.0.0, SVG Export Plug-In . SVG Version: 6.00 Build 0)  -->
<svg version="1.1" id="图层_1" xmlns="http://www.w3.org/2000/svg" xmlns:xlink="http://www.w3.org/1999/xlink" x="0px" y="0px"
	 viewBox="0 0 3947.1 1094.6" style="enable-background:new 0 0 3947.1 1094.6;" xml:space="preserve">
<style type="text/css">
	.st0{fill:#101214;}
	.st1{fill:#1C1F22;}
	.st2{fill:#1F2227;}
	.st3{fill:#23262B;}
	.st4{fill:#292E33;}
	.st5{fill:#2F333A;}
	.st6{fill:#262A2F;}
	.st7{fill:#1E2126;}
	.st8{fill:#1A1D20;}
	.st9{fill:#2B3036;}
	.st10{fill:#141619;}
	.st11{fill:#F9FAFA;}
</style>
<path class="st0" d="M834.2,512.4c-1.8-4.4-3.3-9-5.6-13.1c-9.8-17.3-21-33.7-34.2-48.4c-14.7-16.4-29.8-32.6-45.8-47.6
	c-14.9-13.9-31.6-25.8-48.9-36.7c-24.1-15.2-49.5-28.3-76.3-37.8c-18.6-6.6-37.9-11.4-57.3-15.5c-16.8-3.6-33.9-6.1-51.1-7.3
	c-16.2-1.1-32.5-0.1-48.8,0.8c-11.4,0.6-22.8,2.5-34.1,4.3c-25.6,4-51,9.5-75,19.5c-25.4,10.5-50.2,22.2-73.3,37.5
	c-15.5,10.2-30.3,21.2-44.6,32.9c-9.6,7.9-17.9,17.3-26.7,26.1c-23.5,23.3-42.6,49.8-59.2,78.4c-12.3,21.1-22.1,43.3-30.3,66.1
	c-6.3,17.6-10.2,36.3-14.1,54.7c-5,23.8-5.9,48-6.1,72.3c-0.3,30.5,3.4,60.5,10.3,90c5.4,23.4,13.9,45.7,23.5,67.8
	c9.1,21,20.9,40.3,33.4,59.1c9.1,13.8,20.3,26.2,30.9,39c6.5,7.8,13.3,15.5,20.7,22.6c21,20.2,44,37.7,68.8,53.1
	c28.4,17.7,58.6,31.2,90.5,41.2c19.2,6.1,38.9,10.1,58.9,12.9c20.3,2.8,40.6,3.9,61.1,3.7c16-0.2,31.8-1.8,47.6-3.9
	c30.9-4.1,60.7-12.7,89.4-24.5c33.2-13.7,64.3-31.3,92.7-53.5c17.1-13.4,33.5-27.7,48-43.9c18.1-20.2,35.1-41.5,49-64.8
	c19.1-31.9,33.5-65.9,43.2-102c5.2-19.2,8.6-38.6,11-58.2c2.3-18.6,3.9-37.6,2.2-56.3c-2-22.2-3.6-44.5-9.4-66.2
	c-1.3-4.8-3.8-9.4-5.8-14c-8.1-4.7-12.5,4-18.9,5.2c-5.8,2.7-11.2,6-12.6,13c-1.1,14.2,3.8,27.7,4.9,41.7
	c2.7,31.3,2.6,62.4-2.7,93.3c-8.1,47.8-24.5,92.4-51.3,133.1c-6.5,13.2-16.4,24.1-25.6,35.4c-29.1,36.1-65.5,63.1-105.3,86.1
	c-16.9,7.6-33.5,15.6-51.1,21.4c-21.7,7.4-44.2,11.8-66.7,15.7c-15.5,2.6-31.3,3.3-46.7,3.1c-30.2-0.5-60.3-3.9-89.8-11.8
	c-49.6-13.3-94.1-36-133.7-68.3c-35.3-28.8-62.9-63.8-84.7-103.9c-12.3-22.6-21.8-46.2-29.7-70.5c-5.9-18.5-9.2-37.7-11.3-57.1
	c-4.6-41.6-2.5-82.8,7.6-123.5c10.6-42.2,27.9-81.4,53.2-116.9c5-7,9-14.6,14.6-21.1c8.9-8.1,16.3-17.6,24.8-26.2
	c13.8-14.1,29-26.5,44.3-38.9c16.4-9.9,32.4-20.4,49.7-28.7c37.7-18,77-30.2,118.8-34.1c93.7-8.9,177.8,15.7,252.3,72.4
	c44.4,33.8,77.9,76.9,101.5,127.5c2.5,5.5,4.5,11.3,9,15.7c3,2.1,6.5,1.5,9.2,0.1c14.6-7.7,29.9-14.4,42.7-25.3
	c4.3-6,4.2-12-0.9-17.2c-5.4-5.6-11.8-5-18-0.9c-6.1,2.5-11.3,7-17.4,9.7c-3.4,1.5-7.3,4.3-9.9-0.5c-2.2-4,1-6.2,3.9-8.5
	C831.7,518.5,835.5,517,834.2,512.4z"/>
<path class="st1" d="M3568,193.4c-8.2-8-18.7-12-29.3-15.1c-9.2-2.7-18.5-4-28.2-4.5c-15.7-0.9-31.1-0.2-46.2,4.3
	c-15.5,4.6-30.1,11.2-40.3,24.3c-8.3,10.7-14,23-16.9,36.2c-3.5,15.9-4.9,31.8-2.6,48.3c2.2,15.9,6.9,30.4,14.9,44
	c8.3,14.2,21.1,22.7,36.4,28c5.1,1.7,10.1,4.1,15.3,5.4c6.8,1.6,13.7,2.6,20.7,3.4c25.5,3,48.7-4.1,70.5-16.5
	c15-8.5,23-22.7,28.8-38.2c5.7-15.1,7.9-30.8,7.7-46.9c-0.1-5.1,0-10.2,0-15.3c-4.2-3.5-7.7-0.5-11.4,1.1c-6.3,2.9-11.4,8-17.8,10.8
	c-4.9,2.4-10,4.7-11.9,10.5c-7.1,19.3-14.4,37.5-36.2,46.3c-28.8,11.6-63.7-5.3-72.8-35.1c-11.6-38,24.1-74.6,62.7-66.7
	c4.7,1,9.6,0.2,14,2.8c5.9,0.9,10.3-2.5,15.1-5.1c6.1-5.8,14.9-7,21.4-12.3C3565,200.4,3569.3,198.8,3568,193.4z"/>
<path class="st2" d="M3608.3,244.9c14.1-8.1,28.3-16.1,42.4-24.3c23-13.3,45.9-26.5,68.8-39.8c2.5-1.4,4.9-3,7.2-4.7
	c2-1.5,3.1-3.8,1.4-5.8c-1-1.1-3.6-1.7-5-1.3c-3.3,1-6.5,2.6-9.6,4.3c-18.3,10.5-36.5,21.1-54.7,31.6c-2.2,1.3-4.5,2.5-6.9,3
	c-1.2,0.3-3.4-0.6-4-1.6c-0.6-1-0.5-3.4,0.3-4.3c1.6-1.9,3.8-3.5,5.9-4.8c21.8-12.6,43.7-25.2,65.6-37.8c4.7-2.7,9.4-5.5,14-8.4
	c1.6-1,3.2-2.1,4.7-3.3c1.9-1.6,2.8-4,1-5.9c-1-1-3.4-1.4-5-1c-2.1,0.5-4.1,1.8-6,2.9c-5.8,3.4-11.5,6.8-17.3,10.2
	c-1.1,0.6-2.2,1.3-3.4,1.7c-2.8,0.8-6.1,2-7.8-1c-2-3.5,1.5-4.9,3.8-6.5c3.4-2.4,6.9-4.7,10.3-7c2.6-1.8,4.6-4,2.4-7.1
	c-2-2.8-4.6-1.3-6.8-0.1c-9.7,5.5-19.4,11.1-29,16.8c-5.5,3.2-11,6.5-16.6,9.6c-1.6,0.9-3.6,1.3-5.4,1.3c-2.4,0-4.1-3.1-2.6-4.9
	c2-2.4,4.4-4.6,7.1-6.3c8.2-5,16.6-9.6,24.8-14.5c1.9-1.1,4-2.4,5.1-4.1c0.9-1.3,1.2-3.9,0.4-5.1c-0.7-1.1-3.3-1.5-4.9-1.3
	c-1.8,0.3-3.5,1.4-5.2,2.4c-32.6,18.8-65.3,37.6-97.9,56.5c-2.1,1.3-3.9,3.1-5.9,4.7c2.2,8.3,9,14,12.2,21.7c4.4,3,8.5,1,12.5-0.9
	c5.8-2.6,10.8-6.5,16.1-8.8c-6.8,7.2-20.2,7.2-23.5,19.4C3600.1,229.1,3603,237.6,3608.3,244.9z"/>
<path class="st3" d="M887.9,545.1c20.2-11.5,40.4-23,60.6-34.6c5.8-3.3,11.7-6.5,17.2-10.3c6.2-4.4,5.8-10.4-0.5-14.7
	c-2.9-1.9-5.5-1.2-8.1,0.2c-8.1,4.5-16.1,9-24.2,13.5c-2.5,1.4-5.1,2.8-7.8,3.4c-3.7,0.9-7.1-0.4-9-3.9c-1.9-3.3-1.9-6.9,0.6-9.8
	c1.8-2.1,4.2-3.9,6.5-5.5c3.7-2.5,7.7-4.5,11.5-6.9c4.8-3,6.4-8.8,3.9-13.1c-2.2-3.6-7.1-5-11.8-2.9c-3.8,1.7-7.5,3.5-11.1,5.5
	c-16.6,9.5-33.2,19-49.7,28.7c-1.9,1.1-3.4,2.8-5,4.2c-1.8,6.1,3.7,9.1,6,13.3C873.2,523.7,880.4,534.4,887.9,545.1z"/>
<path class="st4" d="M851.5,608.5c5.7-2.7,11.5-5.3,17.2-8c12.9-7.7,25.8-15.3,38.6-23.1c4.4-2.6,8.9-5.2,12.8-8.3
	c4.6-3.7,5.4-8.7,2.7-12.7s-7.3-4.7-12.8-1.7c-6.2,3.3-12.2,6.9-18.4,10.3c-1.9,1.1-4,2.2-6.1,2.7c-6.6,1.5-11.5-2.8-10.9-9.4
	c0.2-2.5,1.2-4.9,1.8-7.4c1.3-1.4,2.2-3,3.5-4.4c2.4-2.6,2.8-5.5,0.7-8.5c-1.9-2.5-4.5-3.2-7.5-2.1c-1.5,0.5-2.8,1.3-4.4,1.4
	c-2.9,1.3-5.8,2.5-8.6,4c-11.4,6.4-22.6,12.9-34,19.3c-1.6,0.9-3.6,1.3-5.4,1.9c-0.6,0.8-0.8,1.6-0.6,2.6
	c9.7,12.9,18.7,26.2,27.1,40C848.2,606.7,849.6,608,851.5,608.5z"/>
<path class="st3" d="M2647.7,673.8c14.4-8.3,28.8-16.5,43.1-24.9c6.9-4,13.8-8.1,20.4-12.5c3.7-2.4,4.1-5.2,2.4-8.1
	c-2-3.5-5.1-4.5-8.9-2.5c-6.7,3.7-13.3,7.5-20,11.3c-2.5,1.4-5.1,2.7-8.1,1c-4.6-2.7-5.2-8.5-0.8-12c3.7-3,8-5.3,12-7.8
	c2.4-1.5,4.4-3.6,3.5-6.2c-0.9-2.4-2.8-5-5-6.3c-1.4-0.8-4.4-0.1-6.2,0.8c-4.6,2.2-9,4.9-13.4,7.4c-19.4,11.1-38.7,22.3-58.1,33.5
	c-2.2,1.3-4.5,2.5-6.3,4.2c-2.7,2.5-3.1,6.9-1.4,9.7c1.7,2.8,5.6,3.9,9.4,2c5.2-2.5,10-5.6,15.1-8.3c8.2-4.4,11.7-2.4,12.9,7.4
	C2640.2,667.2,2643.3,671,2647.7,673.8z"/>
<path class="st5" d="M2601.6,685.4c-11.5,6.2-23.1,12.3-34.5,18.6c-10.8,6.1-21.5,12.4-32.3,18.7c-1.1,0.6-2.3,1.2-3.3,1.9
	c-4.1,2.9-5.1,5.5-3.3,8.8c2.6,4.7,6.6,6.2,11,3.7c11.1-6.3,22-12.9,33-19.3c3-1.8,6.1-3.6,9.3-4.8c4.1-1.5,8.2,0.5,9.5,4.1
	c1.4,3.8-0.9,6.2-3.7,7.9c-10.8,6.3-21.6,12.3-32.4,18.5c-3.3,1.9-6.6,3.8-9.8,6c-3,2.1-3.6,5.2-2.5,8.5c1.2,3.8,4.4,4.5,7.7,4.1
	c2.1-0.2,4.4-1,6.2-2.1c21-12.1,41.9-24.4,62.8-36.6c1.3-0.8,2.3-2.1,3.5-3.2c3.7-4,4.1-8.6,1.7-13.1
	C2619.3,697.4,2615.9,685.5,2601.6,685.4z"/>
<path class="st4" d="M3593,210.5c0-9.9-4.6-17-13.5-21.3c-3.8,1.4-7.7,2.7-11.5,4.1c-6.6,4.2-13.2,8.3-19.7,12.6
	c-3.1,2-6.1,4.2-9.1,6.4c0.5,4.8,5,6.3,7.6,9.4c9,10.6,15.6,22.4,19.5,35.7c1,3.4,2.1,6.7,5.5,8.6c9-5.1,17.9-10.2,26.9-15.3
	c3.2-1.9,6.4-3.9,9.5-5.8c1.5-10.1-3.6-17.7-9.5-24.9C3595.7,217.5,3594.1,214.2,3593,210.5z"/>
<path class="st6" d="M2601.6,685.4c7.7,4.7,13.1,11.5,17.4,19.3c2.6,4.8,4.1,9.8,3.8,15.3c2.1-0.8,4.3-1.3,6.2-2.4
	c14.9-8.6,29.8-17.3,44.6-26c1.9-1.1,3.7-2.6,5-4.3c2.2-2.9,1.8-6-0.7-8.7c-2.2-2.4-4.7-3-7.7-1.2c-4.9,2.9-9.9,5.8-14.9,8.6
	c-2.2,1.2-4.6,2.4-7,2.9c-3.1,0.6-5.5-1.2-7.1-3.8c-1.6-2.6-0.6-5,1.3-6.9c1.6-1.6,3.4-2.9,5.1-4.3c-0.5-6-1.9-11.3-9.5-11.4
	c-8.3,5.1-16.6,10.1-24.8,15.3C2609.4,680.2,2605.5,682.8,2601.6,685.4z"/>
<path class="st6" d="M868.7,537.3c2.4,0.3,4.8,0.7,7.2,1c2.8,0.3,4,1.7,3.1,4.6c-0.8,2.7-1.7,5.4-2.5,8.1c3.8-2,7.7-3.9,11.5-5.8
	c0.4-4.9-0.8-9.1-3.6-13.3c-5.4-8.1-10.2-16.6-15.5-24.7c-2-3.1-5.1-5.4-7.7-8.1c-6.2,1.5-11.2,5-15.5,9.5c0.4,5.8,0.8,11.5,6,15.5
	c2-1,3.9-2.1,5.9-2.8c8.6-3,14.2,1.6,13.1,10.8C870.2,533.8,869.3,535.5,868.7,537.3z"/>
<path class="st3" d="M851.5,524c0-5.9,0.9-12.2-6-15.5c-3.8,1.3-7.6,2.6-11.3,3.9c-3.5,2.2-7.2,4.1-10.4,6.5
	c-6.5,4.9-5.4,13.7,2,16.8c1.8,0.8,4.7,1,6.3,0.1C838.7,532.3,845,528.1,851.5,524z"/>
<path class="st7" d="M955.2,548.8c6.8-2.7,15-6.2,20-14.2c1.7-2.7,0.9-5.6-1.3-7.9c-2.5-2.5-5.6-5.2-9.2-3.4
	c-6.3,3.1-12.3,6.6-18.1,10.5c-3.2,2.2-3.5,6-2.3,9.5C945.4,547,948.9,548.9,955.2,548.8z"/>
<path class="st8" d="M1931.5,300.6c7.1-7.6,11.3-17,15-26.4c6.3-16.1,9.7-32.8,9.9-50.4c0.2-22.5-3.7-43.8-13.7-63.9
	c-16.6-33.7-42-57.9-77.4-71.7c-14.8-5.7-30.1-8.8-45.6-9.7c-12.9-0.8-26.1-0.3-38.3,5.5c3.2,9.6-1.4,14.6-9.7,18.8
	c-10.8,5.4-21.3,11.5-31.5,17.9c-1.3,0.9-2.8,1.5-4.1,2.4c-6.9,4.6-9.3,10.5-6.5,16c2.8,5.5,9.1,6.8,16.8,3.3
	c3.2-1.4,6.3-3.1,9.2-5.1c1.9-1.2,3.8-2.3,5.9-3.1c2-0.8,4.5-2.1,5.8,0.8c0.9,2.1-1,3.6-2.6,4.6c-6.4,4.1-13.1,7.8-19.8,11.5
	c-5.3,2.9-10.8,5.4-15.4,9.5c-5.9,3.8-12.8,5.6-18.2,10.2c-5.1,4.3-9.2,9.2-5.3,16.4c3.1,5.7,10.1,6.8,17.6,2.6
	c8-4.5,15.7-9.5,23.3-14.6c15-6.9,28.7-16.3,43.1-24.4c4.7-2.7,9.4-5.3,14.4-7.5c1.6-0.7,3.2-0.4,4,1.3c0.6,1.3,0,2.6-1,3.4
	c-2.8,2.6-6.1,4.6-9.4,6.5c-12.4,7.2-25.2,13.5-37.3,21.3c-2.7,1.7-5.6,3.1-7.3,6c-3.7,6.5-2.8,11.9,4,15.7
	c5.9,1.6,11.1-0.2,16.3-3.2c10.1-6,20-12.3,30.4-17.7c2.4-1.2,5.3-4.2,7.4-0.7c2,3.4-1.8,4.8-4.1,6.2c-13.6,8.2-27.8,15.3-41.1,24
	c-4.3,2.7-9.3,4.4-13.1,7.8c-4.7,4.2-7.3,9.3-3.5,15.2c3.8,6,9.5,6,15.2,3.2c8.8-4.4,17.3-9.5,25.7-14.7c4.1-2.5,8.3-4.7,12.7-6.5
	c1.2-0.5,2.6-0.5,3.5,0.6c1.3,1.6,0.5,3-0.7,4.1c-3,2.9-6.9,4.6-10.1,7.3c-5.1,4.3-8.3,9.4-4.2,15.8c3.8,6,9.5,5.4,15.2,2.7
	c7.5-3.5,14.4-8.2,21.7-12.2c2.2-1.2,4.9-3.1,6.7-0.1c1.7,3.1-1.4,4.5-3.6,5.7c-8.1,4.4-16,9.2-23.9,14c-3,1.8-6,3.7-8.3,6.4
	c-3.1,3.7-4.5,7.8-1.8,12.3c2.6,4.3,6.7,5.7,11.5,4.9c1.9-0.3,3.5-1.5,5.4-2c15.3-8.6,30.3-17.7,45.5-26.4c3.2-1.8,7.8-6.6,10.6-1.6
	c2.2,4.1-4.1,5.4-6.9,7.6c-3.5,2.8-7.8,4.4-10.8,7.9c-3.5,4-4.8,8.4-1.9,13.2c3,4.9,7.5,5.4,12.6,3.8c5.9-1.8,10.6-5.9,16.2-8.2
	c2-0.8,4.5-2,5.7,0.9c0.9,2.2-1.3,3.3-2.9,4.3c-12.1,7.7-24.8,14.5-37.3,21.6c-3.1,1.7-6.4,2.9-9.1,5.3c-3.1,3.5-8,3.8-11.5,6.8
	c-5.1,4.4-8.3,9.4-4.3,15.8c4,6.3,10.1,5.7,16.2,3c2.1-0.9,3.6-2.7,5.7-3.4c4.5-0.7,7.2-4.7,11.3-6.1c5.7-3.5,11.2-7.3,17.3-10
	c7.5-4.9,15.2-9.3,23-13.6c2.7-1.5,6.7-5.1,9.1-0.7c2.1,3.8-2.8,4.9-5.3,6.5c-8,5.3-16.9,8.9-24.6,14.8c-5.4,2.8-11.3,5.1-12.3,12.3
	c-0.6,5.5,2,9.2,6.9,11.4c3.9,1,7.7,0.7,11.1-1.5C1896.6,322.8,1916.2,314.9,1931.5,300.6z"/>
<path class="st6" d="M1760.5,195.2c-6.8-3.9-6.9-4.3-3.9-13.5c-2-4.4-5.3-7.5-9.6-9.6c-7.2,3.9-14.4,7.8-21.6,11.8
	c-2.8,1.5-5.3,3.4-8.2,4.7c-3.3,1.4-6.2,0.5-8.3-2.6s-1.9-6.1,1.1-8.4c3.4-2.7,7.1-5.1,10.8-7.6c3.6-2.5,7.2-4.9,10.9-7.3
	c0.4-3.1-1.1-5.4-2.9-7.7c-5.3-7-11.3-13.5-15.7-21.2c-1.3-2.3-2.9-5.2-6.6-3.8c-9.4,8.1-15.5,18.7-20.9,29.4
	c-12.6,25-15.5,51.9-13,79.3c0.9,10.4,4.7,20.5,7.4,30.6c2,7.4,1.8,8.7-4.6,12.5c-7.7,4.6-15.4,9-23.1,13.6c-3.2,1.9-5.3,4.6-5,8.6
	c0.3,4.1,3,6.7,7,5.8c2.8-0.6,5.4-1.9,7.9-3.3c10.5-6,21-12.2,31.5-18.2c1.9-1.1,4-2.1,6.1-2.6c3.3-0.7,6.6-0.4,8.1,3.3
	c1.3,3.1,1.1,6.5-1.8,8.7c-3,2.3-6.4,4.2-9.7,6.2c-3.5,2.2-7.2,4.2-10.7,6.4c-2.7,1.6-4.5,3.8-2.8,7.1c1.6,3.1,4.4,4.9,7.9,4
	c2.4-0.6,4.7-1.9,6.9-3.2c8.7-5.3,17.4-10.8,26.1-16c3-1.8,6.1-3.5,9.4-4.7c3.7-1.3,7.3,0.6,8.8,3.9c1.5,3.2,0,5.9-2.4,7.5
	c-6.8,4.7-13.8,9.2-20.8,13.5c-10.3,6.3-20.8,12.4-31.2,18.7c-1.3,0.8-3.1,1.7-3.6,3c-0.9,2.2-1.7,5-1,7c0.5,1.5,3.4,3,5.3,3.1
	c2.7,0.1,5.7-0.7,8.1-1.9c7.6-4.1,15.3-8.1,22.3-13c5.9-4,10.6-4.1,16.5,0.1c11.5,8.3,24.2,14.4,37.8,18.2
	c18.9,5.2,37.9,8.8,57.6,4.9c7.8-1.5,15.8-2.4,23.5-4.3c4.2-1,8.1-3.6,12.1-5.4c0.9-1.5,1.2-3.4,0.1-4.4c-9.2-9-14.8-20.8-23.3-30.4
	c-3.2,1.3-6.5,2.6-9.7,4c-5,2-7.8,1.5-10-2.1c-2.2-3.5-1.4-6.5,2.8-9.7c4.3-3.2,8.7-6.3,13.1-9.4c-9.6-10-15.4-22.8-25-32.7
	c-2.5,0.6-4.9,1.4-7.4,1.6c-3.2,0.3-5.5-1.5-6.8-4.3c-1.4-2.8-0.1-5,1.9-6.8c1.9-1.7,3.9-3.3,6.1-4.5c9.1-5.3,18.3-10.4,27.4-15.7
	c1.7-1,3.3-1.9,4.8-3.1c2.8-2.4,3-5.4,1.3-8.6c-2-3.8-4.7-5.1-8.7-3.9c-2.1,0.7-4,2-5.9,3c-7.5,4.3-14.9,8.6-22.3,12.9
	c-4.8,2.7-7.5,2.3-9.8-1.3c-2.2-3.4-1.5-7.1,2.2-10c1.7-1.4,3.8-2.2,5.7-3.4c2.7-1.7,5.5-3.3,7.9-5.3c3.8-3.1,4.5-6.6,2.3-10
	c-2.4-3.7-6.1-4.5-10.8-2c-4.8,2.6-9.4,5.3-14.1,8.1c-8.3,4.8-16.4,9.7-24.7,14.5c-5,2.9-8.4,2.3-10.8-1.5
	c-2.3-3.7-1.2-7.5,3.2-10.6c4.2-2.9,8.4-5.6,12.7-8.5C1769.6,201.8,1763.4,199.4,1760.5,195.2z"/>
<path class="st5" d="M1706.5,129.8c5.4,8.1,10.7,16.3,16.4,24.2c2.4,3.3,5.8,5.7,8.8,8.5c12.3-6.7,24.6-13.4,36.8-20.2
	c1.1-0.6,2.2-1.4,3.1-2.2c2.6-2.6,2.8-5.7,1.3-8.8s-4.6-3.8-7.3-3c-3.9,1.2-7.6,3.2-11.3,5.1c-4.5,2.4-8.7,5.4-13.3,7.4
	c-3,1.3-6.4,0.9-8.4-2.5c-2-3.3-0.8-7.6,2.6-10.1c0.8-0.6,1.7-1,2.5-1.4c13.6-7.8,27.1-15.5,40.7-23.3c2.2-1.3,4.4-2.6,6.4-4.1
	c5.5-4.1,5.6-7.5,0.5-12.4c-1.1-1.1-2.5-2-3.7-3c-1.2,0-2.4,0-3.6,0c-15.2,6.8-29.3,15.6-44.4,22.6c-1.8,0.4-4.1,0.3-5.4,1.4
	c-6.7,5.6-13.2,11.6-19.6,17.5C1707.5,126.6,1707.1,128.4,1706.5,129.8z"/>
<path class="st9" d="M1931.5,300.6c-8.7,4.4-17.5,8.6-26.1,13.4c-10,5.6-19.6,11.7-29.4,17.4c-1.8,1.1-4.2,1.3-6.3,1.8
	c-4.3,8.2-3.2,11,5.8,15.4c13-4.2,23.5-12.6,33.5-21.4C1917.8,319.6,1926.5,311.5,1931.5,300.6z"/>
<path class="st4" d="M1875.5,348.6c-2.2-5-7.1-9-5.8-15.4c-3.8-2.1-6-5.2-5.8-9.6c-3.7-4-7-8.3-11.5-11.5c-3.2,1.9-6.4,3.8-9.6,5.7
	c-0.3,5.3,2.3,9.3,4.8,13.8c4.7,8.5,12.1,14.1,18.4,21C1869.2,351.2,1872.4,349.9,1875.5,348.6z"/>
<path class="st8" d="M1733.5,106.7c2.8,2.8,5.9,2.1,8.8,0.4c11-6.4,21.9-12.8,32.8-19.4c1.2-0.8,1.9-2.4,2.8-3.7
	c-11.1,0.9-20.5,6.3-30.2,11c-3.4,1.7-6.8,3.6-9.8,5.9C1736.1,102.4,1735,104.8,1733.5,106.7z"/>
<path class="st6" d="M1663.4,323.5c-6.1,2.6-12,4.6-15.1,10.3c-0.7,1.3-0.2,3.8,0.6,5.3c1.5,2.7,4.6,4.5,7.3,3
	c4.4-2.4,8.5-5.5,12.2-8.8c1-1,0.8-4.3,0-6C1667.5,325.7,1665.2,324.8,1663.4,323.5z"/>
<path class="st8" d="M820.8,564.3c0-0.6,0-1.2,0-1.8c-3-7.7-5.4-15.6-9.1-23c-12.8-25.8-28.3-50-46.9-72
	c-13.8-16.3-29.2-31-45.7-44.8c-25.6-21.2-53.6-38.1-83.8-51.6c-24.3-10.8-49.7-18.4-75.8-23.5c-30.9-6-62.3-7.4-93.4-5.3
	c-25,1.7-49.8,6.1-74.1,13.8c-24.5,7.8-48.2,17-70.7,29.3c-11.5,6.3-22.3,13.7-33.4,20.7c-1,0.6-1.7,1.9-2.5,2.9
	c1.3,8.5,5.1,11.4,14.8,11.6c3.9,0.1,7.4-1,10.8-2.8c16.2-7.5,30.8-17.8,46.5-26.3c15.1-8.2,29.4-17.9,44.9-25.5
	c8.9-4.4,16.7-1.6,19.8,6.4c2.9,7.3,0.5,13.1-7.9,18.2c-20.8,12.5-41.7,24.6-62.9,36.4c-7.2,4-14.6,7.7-21.4,12.6
	c-12.7,7.2-25.5,14.3-38.1,21.9c-5.7,3.4-10.3,7.8-11.6,14.5c-1.7,8.6-1.2,16.8,6.6,22.5c8.3,6.2,17.6,6.2,26.3,1.4
	c12.9-7.1,25.8-14,38.3-21.8c4.6-2.9,9.4-5.4,14.3-7.9c8.1-4.2,16.1-2.2,20,4.7c3.8,6.6,1.3,14.8-6.5,19.5
	c-24.7,14.7-49.5,29.2-74.7,43.1c-10.9,6-21.4,12.7-32.4,18.6c-10.3,6.9-21.5,12-32.1,18.4c-4.1,2.5-8.4,4.5-11.8,8
	c-7,7.3-8.8,17.1-4.8,25.5c4.1,8.7,12.3,12.9,22.9,11.9c5.5-0.5,10.4-2.9,15-5.7c17.6-10.8,36.1-20.1,53.3-31.6
	c22.2-11.6,43.2-25.3,65.3-37.1c14-7.5,26.2-17.7,40.7-24.3c16.2-7.5,30.7-17.9,46.4-26.2c9.2-4.9,17.6-2.4,21.4,6.3
	c3,6.9,0.8,12.9-6.7,17.7c-14.5,9.2-29.8,17-44.5,25.8c-11.9,10.3-27.2,14.9-40.3,23.2c-15.6,9.8-31.9,18.5-47.7,28
	c-6.5,3.9-11.7,9-11,17.5c-1.4,13.3,2,18.9,14.2,22.9c9.3,2,17.3-1,25.3-5.7c32-18.5,64.1-36.9,95.9-55.7c4.7-2.7,9.5-5.7,15.3-3.5
	c5.5,2.1,9.2,6,10,11.8c0.9,6.8-2.9,11.5-8.6,14.7c-17.1,9.8-34.3,19.6-51.4,29.6c-19.8,11.6-39.9,22.7-59.7,34.3
	c-9.6,6.7-20.6,11-30.5,17.3c-3.2,2-6.6,3.8-9.6,6.2c-9.4,7.1-12.2,18-7.2,27.9c5.2,10.3,15.9,14.7,27.5,10.8
	c7.6-2.5,14.1-7.1,20.7-11.6c6-4.1,12.1-8.2,19-10.7c11.4-6,22.4-12.9,33.3-19.7c8.3-3.5,15.6-8.6,23.4-12.9c3.9-2.2,7.8-4.5,12-5.8
	c6.9-2.2,12.7-0.5,16.5,6c3.7,6.3,1.7,11.8-3.1,16.4c-5.4,5.1-12.1,8.4-18.3,12.2c-5.7,3.5-11.4,7-17.1,10.7
	c-12.1,7.4-15.9,19-9.6,29.5c7.2,12.1,19.4,15.2,31.7,7.9c1.1-0.6,2.1-1.4,3.2-1.9c10.1-4.1,18.9-10.7,28.3-16
	c12-6.5,23.5-14,35.7-20.3c9.2-4.7,15.4-3.4,19.6,4c4.4,7.8,2,14.2-6.9,19.7c-11.1,6.9-23,12.4-33.7,20c-9.2,4.8-18.5,9.6-27,15.6
	c-12.2,6.7-25.6,11.5-34.2,23.5c-5.1,8.7-6.4,17.3,1.1,25.5c7.3,8,15.1,9,28.8,3.4c12.2-4.7,22.6-12.8,34.1-18.8
	c33.1-18.1,64.9-38.3,97.9-56.5c3.1-1.7,6.1-3.5,9.2-5.1c7.6-4,15.8-2.5,19.6,3.5c4.3,6.6,2.1,16.2-5.3,21
	c-12.6,8.2-26.1,14.8-38.9,22.7c-3.8,2.3-7.8,4.5-10.9,7.7c-7.6,7.7-9.1,17.8-4.2,26.3s14.7,12.3,24.9,9.8c5.3-1.3,10.1-4,14.7-6.8
	c12-7.3,24.3-14.2,36.5-21.1c8.9-5,16.6-3.6,20.8,3.7c4.4,7.6,2.3,14.2-7.2,19.6c-32.6,18.8-65.5,37.3-98,56.4
	c-12.7,7.2-25.5,14.1-37.8,22.1c-6.5,3.4-12.7,7.3-19.1,10.9c-11.5,6.4-14.9,21.6-7.9,32.5c7.2,11.1,21.3,13.5,32.6,5.4
	c3.9-2.8,8.2-5,12.3-7.3c16.7-7.5,31.7-17.9,47.6-26.8c33.3-18.8,66.3-38.2,99.4-57.3c5.3-3.1,10.8-4.3,16.2-0.8
	c4.4,2.8,6,7.5,5.7,12.5c-0.3,6-4.5,9.6-9.3,12.5c-16.1,9.7-32.6,18.7-48.8,28.4c-15.6,9.3-32.2,16.9-46.8,27.8
	c-9.2,9.7-10.9,18.4-5.6,28.1c4.5,8.2,13,11.7,24.3,10c16.9-6.8,32-17.2,47.8-26.2c28.9-16.3,57.5-33.2,86.4-49.7
	c6.5-3.7,11.7-8.8,17.4-13.4c4.3-6.3,9.1-12.3,12.7-19c18.6-34.2,32.2-70.1,39.1-108.6c3.2-17.6,4.4-35.3,5.8-53.1
	c1-13.8-0.8-27.3-0.8-40.9c0-11-2.7-22.1-4.3-33.1c-0.9-6-2.1-11.9-3.1-17.9c-0.9-1.2-2.2-1.7-3.7-1.8c-8.3,1-14.5,6.4-21.4,10.3
	c-16.1,9.1-32,18.7-48.1,27.9c-1.1,0.6-2.1,1.5-3.3,2c-4,1.5-8.7,5.8-11.9,0.5c-3.3-5.5,2.6-7.8,6.2-9.9
	c14.1-8.1,28.1-16.5,42.4-24.4c11.1-6.1,15.1-13.7,11.4-21.1c-3.6-7.1-12.9-8.2-23.8-2.1c-13.9,7.8-27.8,15.8-41.6,23.9
	c-1.9,1.1-3.8,2.4-5.8,3.3c-2.9,1.2-5.8,1.7-7.6-1.5c-1.8-3.2,0-5.5,2.7-7.2c9.5-5.9,19.3-11.2,29-16.8
	c15.2-8.8,30.7-17.2,45.6-26.4C814.5,572,820.1,570.7,820.8,564.3z"/>
<path class="st6" d="M354.5,633.4c-11.6-4.2-13.3-6.8-13.6-21.3c-14-3.3-17.7-15.5-22.8-26.5c-1.1-2.3-1.4-4.9-4-6.1
	c-2.9,1.3-5.9,2.3-8.6,3.9c-16.5,9.6-32.9,19.4-49.5,28.8c-3.5,2-7.7,3.2-11.6,3.6c-7.6,0.9-13.7-1.7-17.3-9
	c-3.7-7.5-2.2-14.4,2.8-20.4c2.4-2.8,5.9-4.8,9.1-6.7c10.4-6.1,21.1-11.9,31.5-17.9c1.3-0.8,2.2-2.2,3.3-3.3
	c-19.5-24.2-34.4-51.3-49.7-78.3c-1.7-3-2.2-6.8-6-8.2c-3.4,3.8-7,7.4-10,11.5c-19.2,25.7-34.4,53.6-46.5,83.4
	c-7.5,18.4-13.2,37.3-17.1,56.7c-4,20-7.9,40.1-7.1,60.7c0.3,8,0.2,16,0,24c-0.4,12.8,1.2,25.5,3.4,38c2.2,12.9,3.8,25.9,7,38.5
	c3,12,7.2,23.8,11.5,35.5c12.3,33.5,29.8,64.3,51.1,92.7c13.4,17.8,28.3,34.4,45.4,49.1c15.3,13.2,31,25.7,48.1,36.3
	c22.6,14.1,46.3,25.6,71.5,34.3c21.2,7.3,42.9,12.6,64.9,16.1c9.7,1.5,19.7,1.8,29.5,2.6c5.7,0.5,11.4,1,17.1,1.4
	c3.2,0.2,6.4,0.4,9.6,0.2c7.9-0.4,15.9-0.9,23.8-1.7c10.8-1.1,21.6-2,32.2-4c14.1-2.7,28-6.1,41.9-9.6c4.6-1.2,8.8-3.5,13.2-5.3
	c0.5-0.9,0.5-2.3-0.3-2.5c-14.5-4.4-16.9-19.7-26-28.9c-1.9-2-2.7-5.1-4.6-7.2c-5.3-5.7-8.7-11.1-0.6-17.4c2-1.5,2.8-4.4,1.2-7
	c-1.6-2.6-4.3-2.4-6.9-2.2c-1.6,0.1-3.1,0.7-4.7,0.9c-6.1,0.8-9.4-3.1-12.6-7.3c-3.5-4.6-0.1-7.4,2.7-10.7c1.9-2.3,6.1-5.5-0.2-8
	c-5.6,3.1-11,6.4-16.7,9.2c-7.1,3.6-14.2,3.4-20.6-1.7c-10.2-8.2-9.1-23.9,2-31c6.7-4.3,13.4-8.6,20.1-12.9
	c-0.6-6.2-3.2-8.9-8.5-5.8c-9.8,5.6-14.3,0-19.8-6.2c-4.9-5.5-9-11.5-12.7-17.9c-5.8-10.1-13.7-18.8-19.9-28.8
	c-1.8-2.9-3.8-5.8-5.6-8.8c-2.8-4.7-1.8-7.1,3.1-9.5c5.1-2.6,10.4-6,5.7-13.3c-2.6,1.1-5.2,2.7-7.9,3.3c-7.4,1.6-13.9-0.2-18.8-6.2
	c-4.4-5.5-5.2-11.4-2.3-17.8c0.7-1.4,1.4-2.9,2.1-4.3c1-8.7-5.1-6.4-7.5-3.5c-6.7,8.3-10.2,3.2-13.2-2.4
	c-10.2-18.6-26.9-32.8-35.3-52.6c-1.2-2.9-3.5-5.4-6.1-7.2c-7-4.7-5.6-8.5,0.3-13.1c4-3.1,9.2-6.8,4.2-13.2
	c-10.6,5.8-21.3,11.7-31.9,17.5c-3.1,1.7-6.1,3.7-9.4,4.8c-9.4,3.1-18.2-0.9-22.4-9.6c-3.9-8.2-1.6-17.3,6.7-22.5
	c11.1-6.9,22.6-13.2,33.9-19.9c2.1-1.3,3.9-3.1,5.9-4.7C368.4,657.4,364.2,643,354.5,633.4z"/>
<path class="st9" d="M218.1,472.1c1,3.9,1.2,8.3,3.2,11.7c9.7,16.7,20,33.1,30,49.6c3.4,5.7,7.1,11.3,9.9,17.2
	c2.7,5.5,6.4,8.5,12.6,7.9c3.5-1.5,7.2-2.7,10.5-4.6c29.4-16.8,58.6-33.6,87.9-50.5c3.6-2.1,7.1-4.2,10.7-6.3
	c6.8-4,9.5-10.6,8.9-17.8c-0.6-7.4-5.6-12.5-12.8-15.3c-5.7-2.2-10.7-0.7-15.5,2.1c-16.9,9.7-33.6,19.5-50.6,29
	c-3.5,2-7.6,3.4-11.6,3.7c-8.6,0.7-15.8-3.8-17.6-10.2c-2.6-9.2,0.4-18.1,8-22.6c11.2-6.7,22.6-13.2,33.8-19.9
	c2.1-1.3,4-3.1,5.9-4.7c0.6-1.3,0.4-2.8-0.7-3.3c-9.5-4.1-14-11.7-16-21.4c-0.2-1.2-1.5-1.9-2.7-2.4c-2.4,0.5-4.8,1.1-7.3,1.5
	c-7.9,1.4-14.9,0.3-19.5-7.1c-8.9,6.7-18.4,12.6-26.5,20.2C244.5,442.6,229.7,455.9,218.1,472.1z"/>
<path class="st4" d="M555.9,942.1c2.2,2.9-0.5,3.9-2.1,5.2c-9.1,7.3-9.3,10.4-1.6,19c5.3,5.9,11,8.4,18.6,4.8c0.9-0.4,1.8-0.9,2.7-1
	c0.7,0,1.6,0.5,2.2,1.1c0.2,0.2,0,1.3-0.4,1.7c-2.6,2.3-5.5,4.4-7.9,6.8c-3.8,3.8-4,5.1-0.3,8.7c5.1,4.9,8.3,11.2,12.3,16.8
	c5.3,7.5,11.3,14.5,15.1,23c1.5,3.4,4.5,4,8.1,3.5c1.7-0.3,3.6,0.4,5.3,0.6c9.3-3.3,18.7-6.1,27.7-9.9c8.2-3.4,16-7.7,24-11.6
	c1.8-2.3,2.1-5,0.6-7.1c-6.6-9.1-11.8-19.2-19.8-27.3c-2.6,0-5.1,0.2-7.6-0.1c-16.5-1.7-20.9-17.9-13.6-29c1.2-1.8,2.7-3.5,4.1-5.3
	c-8.5-7.8-12.5-19.2-21.2-26.8C586.7,924.3,571.3,933.2,555.9,942.1z"/>
<path class="st5" d="M640.3,976.6c0.2,9,6.1,15.1,11.1,21.7c3,4.1,5.5,8.5,8.2,12.7c22.4-11.7,43.2-25.6,62.3-42.1
	c10.6-9.1,20.8-18.7,30.5-28.7c13.3-13.7,25.1-28.7,35.5-44.7c1-1.6,1.7-3.4,2.5-5.1c-4,1.8-8.3,3.2-12.1,5.4
	c-27.6,15.8-55.1,31.7-82.6,47.6c-17.3,10-34.7,19.9-52,30C642.4,974,641.5,975.4,640.3,976.6z"/>
<path class="st9" d="M820.8,564.3c-3.9,2.5-7.7,5-11.6,7.6c-1.8,1.9-1.8,4.3-0.5,6.2c9.2,13.3,15.7,28.4,27.4,39.9
	c1.2,0,2.5-0.1,3.7-0.2c3.9-3.1,7.8-6.2,11.7-9.3c-0.9-3-1.2-6.4-2.8-9c-6.1-9.7-12.6-19.2-19-28.6
	C827.5,567.8,825,564.8,820.8,564.3z"/>
<path class="st3" d="M3525.8,218.2c-3.5-4.2-8.6-3.9-13.2-4.7c-20.1-3.3-37.5,1.1-52.8,15.6c-11.2,10.7-17,23.5-17.8,38
	c-0.6,12.7,2.7,25.6,10.8,36c13.2,17,31.2,26,52.6,24c22.2-2.1,40.3-12,48.8-34.4c2.4-6.2,4-12.7,6-19.1c-4.9-3.9-9.1-0.8-13.2,1.5
	c-10.6,5.9-20.4,13.1-31.1,18.8c-16.7,8.9-34.1,2.7-41-14.4c-5.3-13,0.7-28.5,14.3-35.5c9.6-5,19-10.4,28.5-15.6
	C3521.7,226.4,3526.9,224.6,3525.8,218.2z"/>
<path class="st5" d="M3525.8,218.2c-12.1,7-24.1,14.4-36.5,20.9c-10.6,5.6-17.4,14-20.1,25.4c-0.8,3.6-0.7,7.6,0.1,11.3
	c4.6,21.6,29.3,34.4,50.3,21.2c9.5-6,18.9-11.9,28.5-17.6c3.8-2.3,8-3.8,12.1-5.7c3.9-2.6,7.7-5.1,11.5-7.7
	c-0.9-15.2-8-27.9-16.3-40.1c-2.1-3.2-4.4-6.4-7.2-8.8c-2.6-2.2-6.1-3.2-9.1-4.8C3534.7,214.3,3530.2,216.3,3525.8,218.2z"/>
<path class="st10" d="M3593,210.5c-1.5,1.6-3.2,3-4.3,4.7c-0.7,1.1-1.3,3.4-0.7,4.1c0.9,1.2,2.9,2.1,4.5,2.1c2.1,0,4.2-0.9,6.3-1.5
	c8.1-5,16.2-10,24.3-15c1.9-1.2,4-2,5.8-3.3c2-1.5,2.7-3.6,1.3-5.9c-1.4-2.2-3.6-2.7-5.8-1.5c-5,2.7-9.9,5.8-15,8.4
	C3604,205.5,3598.5,208,3593,210.5z"/>
<path class="st5" d="M1814.1,267.9c-0.2,3.9,0.9,7.2,3.5,10.4c3.1,3.9,5.5,8.4,8.2,12.7c3.2,5,7.4,8.5,13.4,9.6
	c6.8-3.4,13.7-6.7,20.4-10.3c9.5-5.2,18.9-10.6,28.2-16.1c4.7-2.8,5.8-5.6,4.1-9.2c-1.9-4-5.8-5.5-10.5-3.5c-2.9,1.2-5.6,3-8.4,4.5
	c-3.6,2-7.3,4-10.9,6c-2.9,1.6-5.5,1.4-7.7-1.3c-2.2-2.9-2.4-6,0-8.7c1.4-1.6,3.4-2.9,5.2-4c4.1-2.5,8.4-4.6,12.3-7.4
	c2.2-1.6,4.4-3.9,5.2-6.4c1.7-5-1.8-9-7.1-8.4c-2.5,0.3-5,1.2-7.2,2.4c-15.4,8.9-30.8,18-46.1,27.1
	C1815.6,265.7,1814.9,267,1814.1,267.9z"/>
<path class="st5" d="M1747,172.1c1.5,7.8,1.8,8,9.6,9.6c2.3-1,4.8-1.7,7-2.9c12.8-7.2,25.5-14.4,38.1-21.8c3.6-2.1,7-4.4,10.3-6.9
	c2.7-2.1,4.2-4.8,2.2-8.3c-1.9-3.4-4.9-4.8-8.8-3.9c-0.9,0.2-1.8,0.6-2.7,1C1784.1,150,1765.5,161,1747,172.1z"/>
<path class="st5" d="M1760.5,195.2c-1.3,6.6,3.4,9.9,7.6,13.3c9.8-5.3,19.6-10.5,29.3-15.8c4.5-2.4,8.8-5,13.3-7.5
	c1.1-0.6,2.3-1.1,3.3-1.8c3.8-2.6,5-7,2.9-10.8c-2.1-4-5.8-4.9-10.6-2.2c-8.6,4.8-17,9.9-25.5,14.9c-3.8,2.3-7.5,4.9-11.4,6.9
	C1766.6,193.6,1763.4,194.2,1760.5,195.2z"/>
<path class="st5" d="M1875.5,314c10-5.4,20.1-10.6,29.9-16.3c4.3-2.5,5.2-6.2,3.6-9.6c-1.9-3.9-6.1-5.9-10.4-3.5
	c-9.9,5.5-20.7,9.6-28.9,17.8C1865.5,309.3,1867.6,313.1,1875.5,314z"/>
<path class="st9" d="M1875.5,314c-4.1-2.8-6.5-6.5-5.8-11.6c-6.3,2.3-12.7,4.3-17.2,9.7c1,9.7,1.9,10.6,11.5,11.5
	C1867.8,320.4,1871.7,317.2,1875.5,314z"/>
<path class="st5" d="M577.1,884.6c3.2-1.4,6.6-2.4,9.6-4.1c29.9-17.1,59.8-34.3,89.7-51.5c1.4-0.8,2.7-1.7,4-2.6
	c8.6-6.3,9.9-15,3.9-24.4c-4.6-7.2-15-9.8-22.9-5.5c-10.1,5.5-19.9,11.5-29.9,17.2c-6.9,4-13.7,8.4-20.9,11.7
	c-11,4.9-21.8-0.5-25-11.7c-1.6-5.8,0-10.9,3.7-15.1c2.7-3,6.2-5.5,9.8-7.5c13.5-7.9,27.1-15.6,40.7-23.3c8.3-4.7,11.2-11.9,10-21
	c-1.3-10-12.3-17.2-22.1-14.2c-2.1,0.6-4.2,1.7-6.1,2.8c-26.7,15.6-53.4,31.3-80.2,46.9c-6.9,4-14,7.7-20.9,11.7
	c-1.9,1.1-3.4,2.8-5.1,4.2c-2.6,4.2-0.7,7.9,1.3,11.7c8.9,15.9,19.6,30.6,30.8,44.9c5.5,7,9.5,15.1,14.9,22.3
	C566.3,881.9,570.5,885.4,577.1,884.6z"/>
<path class="st4" d="M577.1,884.6c-9.9-5.6-14.8-15.4-20.8-24.3c-2.5-3.7-5.1-7.2-7.7-10.9c-8.3-12-18.1-23.1-24.7-36.3
	c-2.6-5.1-5.6-10-8.3-14.9c-8.4,4.3-16.8,8.7-25.2,13.1c-2.5,1.3-4.9,2.9-7.4,4.3c0.1,6.2-3.8,9-9,10.8c-1.2,0.4-2.5,0.4-3.7,0.7
	c-6.9,1.3-7.3,2.5-2.9,8.4c1.7,2.2,2.8,4.9,4.3,7.3c1.5,2.3,2.7,5.1,4.9,6.7c3.9,2.9,6.2,6.3,6.5,11.1c0.3,3.5,1.8,5.9,5.3,7.1
	c3.6,1.2,5.3,4.1,6.6,7.6c3.2,8.5,8.3,15.6,14.8,21.9c2.5,2.4,4.5,5.3,6.6,8.1c3.3,4.5,4.4,4.8,9.4,2.2c2.8-1.5,5.4-3.4,8.3-4.6
	c3-1.3,5.7-0.5,6.7,3.1C553.5,900,565.7,893,577.1,884.6z"/>
<path class="st5" d="M354.5,633.4c0.1,1.6-0.4,3.5,0.3,4.7c4.4,7.3,8.9,14.5,13.6,21.5c3.1,4.5,8.1,4.5,12.9,4.4
	c9.4-4.8,18.9-9.2,28-14.4c27.7-15.8,55.2-32.1,83-47.8c10.9-6.1,17.1-21,2.7-32c-6.4-4.9-13-4.6-19.7-0.8
	c-8.8,5.1-17.7,10.2-26.5,15.4c-25.9,15.1-51.9,30.1-77.8,45.3C365.9,632.9,360.4,633.6,354.5,633.4z"/>
<path class="st4" d="M398.6,698.5c0.1,3.8-1.4,6.8-4.6,8.9c-1.9,1.2-3.8,2.4-5.6,3.8c-6.7,4.9-6.7,10.3,0.4,15
	c3.9,2.5,7.8,5,8.8,9.6c2.4,10.9,10.6,17.9,17.2,26c3,3.7,5.6,7.5,8.1,11.7c4.8,8.2,10.7,15.9,16.6,23.3c3.3,4.2,6.1,3.3,8.5-1.6
	c0.9-2,1.4-4.4,2.8-6c2.5-2.9,4.4-1.5,5.4,1.6c9.3-5.9,18.7-11.8,28-17.8c1.6-1,3.1-2.2,4.6-3.3c0.7-1.1,1.2-2.5,0.6-3.6
	c-5.2-8.9-10.1-18.1-17.8-25.2c-3.5,1.4-7,2.9-10.5,4.3c-7.2,2.8-13,0.9-19.2-6.2c-5.5-6.3-6.5-12.6-2.1-19c2.4-3.6,5.9-6.5,8.9-9.7
	c1.8-2,1.6-4.2,0.3-6.2c-5.7-8.3-10.4-17.3-17.6-24.6C420.3,685.7,409.4,692.1,398.6,698.5z"/>
<path class="st5" d="M602,915.3c-0.2,3.6,0.5,6.8,2.9,9.8c2.8,3.4,5.4,7.2,7.4,11.1c2.3,4.8,5.9,6.3,10.8,6c3.2-1.4,6.6-2.4,9.6-4.1
	c27.9-16.1,55.8-32.2,83.7-48.4c2.5-1.4,4.9-3,7-4.9c8.9-8.2,7.5-16.6,1.8-24.8c-4.6-6.7-14.5-8.1-22.5-3.5
	c-14.4,8.3-28.7,16.8-43,25.1c-16.6,9.6-33.2,19.1-49.8,28.7C607.4,911.9,604.7,913.6,602,915.3z"/>
<path class="st5" d="M312.2,414.5c0.2,5.9-0.3,11.7,3.4,17.1c3.1,4.5,6,7.8,11.7,8.1c1.4,0.1,2.8,1.2,4.2,1.9
	c8.8-4.5,17.7-8.7,26.3-13.5c19.7-11.2,39.1-22.7,58.7-34c7.2-4.1,11.8-9.4,10.9-18.4c-1.3-12.7-13.5-20.4-25-14.7
	c-11.1,5.5-21.7,12.1-32.5,18.3c-15.5,8.9-30.9,17.8-46.3,26.8C319.6,408.6,316,411.7,312.2,414.5z"/>
<path class="st9" d="M314.1,579.6c-0.4,7.1,0.1,13.7,6.1,19.2c3.1,2.8,4,7.8,6.5,11.5c4.3,6.1,4.5,6,11.5,2.8
	c0.9-0.4,1.8-0.5,2.7-0.8c1.1-6.2,5-9.8,10.3-12.9c27.4-15.7,54.6-31.6,81.9-47.5c2.2-1.3,4-3.1,5.9-4.7c-3.2-4.8-7.9-3.6-12.1-2.3
	c-6.2,2-9.4-0.9-12.5-5.6c-3.5-5.3,0.9-7.3,3.5-10.2c2.8-3.2,5.7-6.4,1.8-10.7c-8.9,4.9-17.9,9.6-26.7,14.7
	c-23.2,13.3-46.3,26.8-69.4,40.2C320.3,575,317.3,577.4,314.1,579.6z"/>
<path class="st5" d="M836.1,617.9c0.8-5.6-2.4-9.7-5.5-13.8c-1.5-2-3.6-3.7-5-5.8c-5.6-8.8-11-17.7-16.5-26.5
	c-2.7,1.1-5.5,1.8-7.9,3.2c-19.7,11.2-39.3,22.5-58.9,33.8c-3.6,2.1-7.4,3.8-10.8,6.1c-6,4-6.3,10.4-1,15.3c2.6,2.5,5.4,3.2,8.7,1.5
	c2.5-1.3,5.1-2.7,7.5-4.2c15.2-8.8,30.3-17.7,45.6-26.3c2.4-1.4,5.3-2.1,8.1-2.4c3.2-0.4,6.7-0.1,8.1,3.5c1.4,3.7,1.5,7.7-1.5,10.8
	c-2,2-4.6,3.3-7.1,4.8c-15.2,8.7-30.5,17.3-45.7,26c-1.9,1.1-3.8,2.3-5.5,3.8c-3.6,3.1-4.5,6.5-2.8,10.1c2,4.3,5.6,6.7,9.9,5.9
	c3.1-0.6,6.1-1.8,8.8-3.4c16.8-9.7,33.6-19.6,50.3-29.5C822,626.6,829,622.2,836.1,617.9z"/>
<path class="st5" d="M419.7,518.2c0.1,3.5-1.1,6.1-4.2,7.9c-2.2,1.3-4.3,2.8-6.3,4.3c-2.8,2.1-3.1,4.6-1.1,7.5
	c1.7,2.3,3.3,4.7,5.1,6.9c4.9,6.2,6.8,6.5,14.7,4c3.6-1.1,7.4-1.2,11.2-1.7c5.7-2.9,11.4-5.6,16.9-8.7c9.5-5.2,18.9-10.5,28.2-16.1
	c12.6-7.5,13.3-21.6,1.8-30.8c-5.8-4.6-12.2-5.5-18.7-1.7C451.3,499.2,435.5,508.8,419.7,518.2z"/>
<path class="st5" d="M515.6,754.1c12.5-6.9,25.1-13.7,37.5-20.8c8.6-5,10.5-14.8,5.3-24.1c-4.9-8.6-14.2-11.4-22.8-6.6
	c-11.1,6.2-22.1,12.5-33.1,18.9c-1.6,0.9-2.8,2.5-4.2,3.8c-1.2,1.5-2.3,3-2.4,5C495.7,738.8,507.1,752.6,515.6,754.1z"/>
<path class="st9" d="M431.2,679.3c-0.2,4.8,0.7,8.7,4.4,12.6c5,5.4,8.7,12,12.9,18.1c11-6.3,22.5-12,33-19.1
	c12-8.1,12.3-21,1.7-29.7c-6-4.9-12.7-4.1-18.9-1.2c-8.1,3.8-15.7,8.4-23.4,12.9C437.4,674.9,434.4,677.2,431.2,679.3z"/>
<path class="st9" d="M515.6,754.1c-7.8-5.8-10.8-15.1-16.4-22.5c-1.1-1.5-0.7-4.2-0.9-6.3c-8.9,5.1-17.9,10.2-26.8,15.3
	c0.4,9.7,7.4,15.8,12.5,23c1.4,2.1,3.2,3.9,4.8,5.9C497.7,764.4,506.7,759.3,515.6,754.1z"/>
<path class="st8" d="M228.3,758.1c-0.2,6.9,7.2,12.9,12.5,10.3c7.6-3.8,14.8-8.4,21.6-13.5c4.4-3.3,4.2-6.7,1.4-10.8
	c-2.5-3.7-7.2-6-10.6-4.1c-7.4,4.1-14.6,8.8-21.6,13.5C229.9,754.6,229.1,756.9,228.3,758.1z"/>
<path class="st8" d="M322.9,757.7c-2.6,0.8-4.3,1-5.6,1.7c-6.4,3.5-13,6.8-19.1,10.7c-4.6,2.9-6,8.7-3.9,12.5
	c2.6,4.6,7.9,6.3,13.1,3.6c5.9-3,11.8-6.3,17.4-9.9c4.4-2.7,6.2-8.1,4-12.5C327.6,761.3,324.8,759.6,322.9,757.7z"/>
<path class="st8" d="M239.7,823c0.7-0.2,2.4-0.4,3.8-1.1c5.9-3.2,12-6.2,17.3-10.1c6.6-4.8,6.4-11.9-0.1-15.6
	c-1.9-1.1-5.3-1.7-7.1-0.8c-7.2,3.4-14.3,7.2-21,11.4c-4,2.6-5.1,6.8-3.7,9.9C230.4,820.4,234.9,823.2,239.7,823z"/>
<path class="st11" d="M3525.9,269.2c-0.3-13.2-12-24.2-25.1-23.7c-13.5,0.5-23.9,11.5-23.5,25.1c0.3,13.5,11.5,24,25,23.6
	C3515.5,293.8,3526.1,282.6,3525.9,269.2z"/>
</svg>
