<?xml version="1.0" encoding="utf-8"?>
<!-- Generator: Adobe Illustrator 19.0.0, SVG Export Plug-In . SVG Version: 6.00 Build 0)  -->
<svg version="1.1" id="图层_1" xmlns="http://www.w3.org/2000/svg" xmlns:xlink="http://www.w3.org/1999/xlink" x="0px" y="0px"
	 viewBox="190 300 250 200" style="enable-background:new 0 0 612 792;" xml:space="preserve">
<style type="text/css">
	.st0{fill:#93A1C2;}
	.st1{fill:#E4E2E3;}
	.st2{fill:#858585;}
	.st3{fill:#545E72;}
	.st4{fill:#5D677C;}
	.st5{fill:#666F81;}
	.st6{fill:#5C687E;}
	.st7{fill:#6D7687;}
	.st8{fill:#5A6377;}
	.st9{fill:#61697A;}
	.st10{fill:#81868E;}
	.st11{fill:#A3A3A3;}
	.st12{fill:#778199;}
	.st13{fill:#C3C3C3;}
	.st14{fill:#9F9F9F;}
	.st15{fill:#6C7487;}
	.st16{fill:#81858D;}
	.st17{fill:#888888;}
	.st18{fill:#585B59;}
	.st19{fill:#646B7A;}
	.st20{fill:#FEFEFE;}
	.st21{fill:#5B6479;}
	.st22{fill:#626E85;}
	.st23{fill:#636F87;}
	.st24{fill:#30323A;}
	.st25{fill:#D7ECF8;}
	.st26{fill:#6B7A8F;}
	.st27{fill:#637596;}
	.st28{fill:#738198;}
	.st29{fill:#60728F;}
	.st30{fill:#64666A;}
	.st31{fill:#D5E4EC;}
	.st32{fill:#404F69;}
	.st33{fill:#464E5C;}
	.st34{fill:#4A5470;}
	.st35{fill:#E3E1E2;}
	.st36{fill:#676C79;}
	.st37{fill:#64697B;}
	.st38{fill:#B1574E;}
	.st39{fill:#908F8F;}
	.st40{fill:#5F5D5C;}
	.st41{fill:#6C3831;}
	.st42{fill:#774440;}
	.st43{fill:#E1E0E1;}
	.st44{fill:#8A534D;}
	.st45{fill:#49261D;}
	.st46{fill:#676C77;}
	.st47{fill:#D0CFD0;}
	.st48{fill:#647186;}
	.st49{fill:#53434A;}
	.st50{fill:#D0E3F1;}
	.st51{fill:#E2E0E1;}
	.st52{fill:#FBFBFB;}
	.st53{fill:#7A423B;}
	.st54{fill:#763F39;}
	.st55{fill:#7E443F;}
</style>
<g>
	<path class="st0" d="M232.9,436.3c0.8-2.6,2.3-4.8,4-6.8c3.8-3.8,7.8-7.3,7.6-13.5c-0.2-6,2.7-11.3,4.8-16.7
		c5.1-13.2,11-26,20.1-37.1c5.9-8.1,13-14.8,22-19.6c12.8-6.9,26.6-10.8,40.8-13.7c5.9-0.9,11.7-0.6,17.5,0.6
		c8.9,1.7,17.2,4.6,24.4,10.3c1.4,1.1,2.9,2.3,3.8,3.9c6,10.4,9,21.5,7.6,33.6c-2.6,0.9-3-1.3-3.8-2.7c-1.8-3.2-3.1-6.6-5-9.7
		c-4.3-6.9-10-11.4-18.7-12.3c-7.3-0.8-14.2,0-21.2,1.3c-7.8,1.5-14.7,4.8-20.4,10.6c-2.5,2.5-4.9,5.5-9,5.6c-1.3-0.7-1.7-2-2-3.2
		c-1.1-3.6-3.4-4.6-6.8-3.5c-2.3,0.8-3.7,2.4-4.2,4.9c-0.2,2.4,0.1,4.6,3.2,5c3.2,0.8,5.4-3.3,8.7-1.6c0.7,3.7-1.8,4.7-4.5,5.2
		c-4.4,0.8-6.9,3.3-8.7,7.3c-2.3,5.1-3.7,10.7-7.5,15c-2.1,0.1-3.6,1.5-5.3,2.4c-4.3,2.3-6.7,1.3-8.3-3.2c-1-2.9-1.1-5.8-1-8.1
		c-0.1,2.1-0.1,5,0.8,7.8c1.6,5.2,3.4,6,8.3,3.7c1.3-0.6,2.6-2.3,4.4-0.7c0.8,2.1,0,3.9-0.7,5.8c-4.3,11-6,22.5-7.4,34
		c1.9,13.7,1.5,27.7,6.1,41.1c2.2,6.4,0.5,11.4-4.5,14.7c-7.7,0-15.3,0-23,0c-1-1-1.9-2.1-2.9-3.1c-0.9-5.7-3.1-11.2-4-17
		c-0.9-5.5-0.5-10,5-13.3c4.4-2.6,8-6.4,12.8-8.4c-8.9,4.3-15.8,12-25.1,15.7c-2.7,1.3-5.2,3-8.1,3.8c-2.7,0.8-5.6,1.1-8-1.2
		c-2.9-5.8-0.2-11.3,1-16.8c1.1-5.3,3.2-10.4,5.8-15.3C232.3,439.5,233.4,438.1,232.9,436.3z"/>
	<path class="st1" d="M278,496.5c4.4-5,5.1-10.3,2.4-16.5c-1.9-4.2-2.3-8.9-2.8-13.5c-1-8.7-1.7-17.4-2.5-26c1.9,0,2.4,1.5,2.9,2.9
		c2.7,7.5,4.3,15.3,5.5,23.2c1,6.5,2.7,12.7,6.3,18.3c1.8,2.7,4,4.3,7.3,4.7c2,0.2,4,0.5,6,0.5c18.8,0,37.6,0.4,56.4-1.8
		c7-0.8,8.3,0.2,10.9,6.6c0.2,0.6,0.1,1.1-0.3,1.6C339.3,496.5,308.7,496.5,278,496.5z"/>
	<path class="st2" d="M370,496.5c0.1-0.3,0.2-0.6,0.1-0.9c0.5-2.7,2.7-4.5,4-6.8c2.7-2.1,3.2-2.2,5-0.3c-1.7,2.6-3.4,5.3-5.1,7.9
		C372.7,496.5,371.3,496.5,370,496.5z"/>
	<path class="st0" d="M223.1,426.8c-1.7,0.7-3,0.3-3.9-1.3c0.9-2.3,1.6-4.6,1.7-7.1c0.2-1.5,0.8-2.9,1.9-4c4.4-3.6,6.2-9.1,9.8-13.3
		c5.5-6.3,11.5-11.8,18-16.9c1.1-0.9,3.2-3.8,4.9-0.1c-4,10.5-9.2,20.6-11.3,31.8c-0.6,3,0,6.2-2.6,8.8c-2.1,2.1-3.8,3-6.9,2.4
		C231,426.3,227,425.3,223.1,426.8z"/>
	<path class="st3" d="M223.1,426.8c1.8-1.5,6.8-2,11.1-1.1c5.4,1.1,7.3-0.8,8.2-6.2c2.1-12.7,7.2-24.5,12.7-36
		c0.4-1-0.1-2.3,0.8-3.2c3.9-6.6,7.8-13.2,13-18.8c1-0.3,1.3,0.1,1.1,1.1c-10.4,14.1-17.4,29.8-22.9,46.3c-1.1,3.4-3.1,7.1-0.4,10.8
		c0.2,0.2,0,1.1-0.3,1.3c-3.3,2.2-5,5.7-7,8.9c-0.6,0.9-1.8,0.5-2.6-0.3C232.8,425.9,227.7,427.7,223.1,426.8z"/>
	<path class="st4" d="M241,469.5c7.9-5.1,15.8-10.3,23.8-15.3c1.3-0.8,2.9-2.4,5.9-0.3c-7.3,2.7-12.6,7.2-18.3,11.3
		c-2.5,1.8-3.5,3.7-3.3,6.6c0.4,5.8,1.7,11.4,3.3,17c0.4,1.6,1.5,3.1-0.2,4.6c-3.7-6.1-4.1-13.3-6.9-19.8c-0.7-1.6-0.8-3.3-3.1-3
		C241.1,471.1,240.8,470.5,241,469.5z"/>
	<path class="st5" d="M385,377.5c0.8-9.6-1.5-18.8-4.9-27.6c-3.4-9-11.2-13.1-19.6-16.3c-3.4-1.3-7-2.1-10.4-3.1
		c0.3-2.5,2-1.2,3.2-1.1c6.3,1,12,3.5,17.5,6.7c8,4.6,12.1,11.9,13.9,20.7c1.5,7.5,3.2,14.9,2.3,22.6c-1,0.6-1.6,0-2.2-0.7
		C384.6,378.3,384.7,377.9,385,377.5z"/>
	<path class="st6" d="M255.9,380.3c0.1,1.2,0.3,2.4-0.8,3.2c-5.5,0.8-8.2,5.5-12,8.7c-7.3,6.1-13.1,13.6-17.9,21.9
		c-0.4,0.7-1.1,3.9-2.4,0.4C228.3,397.7,241.3,388.2,255.9,380.3z"/>
	<path class="st7" d="M332,330.4c-14.3,2.2-27.9,6.7-40.9,13.2c-1.1,0.2-1.5-0.3-1.2-1.3c10.8-6.4,22.6-10.1,34.8-12.9
		c1.9-0.5,3.8-0.7,5.7-1.1C332,327.9,332.9,328.6,332,330.4z"/>
	<path class="st8" d="M232.9,436.3c2.4-0.7,2,0.4,1.2,1.9c-4.6,8.7-7.5,17.9-9.4,27.5c-0.5,2.5-0.2,4.5,0.4,6.7
		c0.1,1.1-0.3,1.5-1.4,1.3c-2.3-6.1-0.6-12,0.7-17.9C226.1,448.8,229.2,442.4,232.9,436.3z"/>
	<path class="st9" d="M389.1,420.4c3.4,1.3,4.5,4,4.9,7.4c1.1,8.7-0.2,17.2-2.1,25.6c-0.4,0.7-0.3,1.9-1.2,2
		c-0.9,0.2-1.3-0.8-1.6-1.6c0.1-6.4,1.8-12.6,1.6-19.1c-0.2-4.4-0.6-8.5-3.2-12.1C387.5,421.6,387.2,420.3,389.1,420.4z"/>
	<path class="st10" d="M289.9,342.3c0.4,0.4,0.8,0.9,1.2,1.3c-8.1,5.1-14.9,11.6-21,18.9c-0.4-0.4-0.7-0.7-1.1-1.1
		C274.2,353.2,281,346.6,289.9,342.3z"/>
	<path class="st11" d="M389.9,454.5c1.4,1,1-1.2,2-1.1c-0.1,1,0.1,2.3-0.5,2.8c-5.5,5-4.6,12.4-7.2,18.5c-1-0.4-1.5-1.3-1.8-2.2
		c-0.2-0.7-0.2-1.5-0.1-2.2c0.9-3.2,0.1-6.6,1.4-9.8c0.8-0.5,2.4-0.5,1.1-2.1C386.4,457.1,387.3,454.7,389.9,454.5z"/>
	<path class="st12" d="M332,330.4c-2-3.3-5,0.3-7.3-1.1c9.5-3.2,19-2.4,28.6,0c-1.1,0.3-2.4-0.2-3.2,1.1
		C344,330,338,328.3,332,330.4z"/>
	<path class="st13" d="M379.1,488.6c-1.7-1.1-3.2-0.8-4.2,1c-2.6,0.4-4.2-0.8-4.5-3.3c-0.3-2.3,1.5-3.1,3.4-3.6
		c2.3-0.6,3.5-3.1,5.9-3.5c2.3,1.7,0,4.3,1.3,6.2C381.1,486.9,380.3,487.9,379.1,488.6z"/>
	<path class="st14" d="M385.2,378.4c0.6,0.3,1.2,0.7,1.8,1c0.6,5.1-1,9.8-3,14.4c-1,2.2-1.9,4.5-2.8,6.8c-1.2,0.2-2.5,0.6-2.7-1.3
		C380.7,392.4,383,385.4,385.2,378.4z"/>
	<path class="st15" d="M223.8,473.6c0.5-0.4,0.9-0.8,1.4-1.3c3.8,2.4,7.3,0.9,10.9-0.8c1.6-0.8,3.3-1.4,5-2.1
		c0.4,0.4,0.8,0.8,1.2,1.1c-2.7,1.6-5.2,3.4-8,4.6C230.5,476.9,226.7,477.9,223.8,473.6z"/>
	<path class="st16" d="M389.1,420.4c-0.8,0.4-1,1.1-1,1.9c-3.9,1.1-6-1.5-8.2-3.9c-0.3-1,1-1.8,0.5-2.9c-0.1-1.1-0.9-2-0.6-3.1
		c0.6-0.8,1.4-1,2.3-1.1C384.1,414.7,384.2,419.4,389.1,420.4z"/>
	<path class="st17" d="M380.9,485.4c-3.9-1.4-0.6-4-1-6c-0.3-2.9,0.5-5.3,3.1-6.9c0.4,0.8,0.8,1.5,1.2,2.3
		C383.9,478.6,382.5,482,380.9,485.4z"/>
	<path class="st18" d="M382.1,411.4c-0.6,0.3-1.2,0.7-1.8,1c-3.3-3.5-3.7-7.1-1.2-11.8c0.7-0.4,1.3-1.1,2,0
		C381.9,404.1,379.9,408,382.1,411.4z"/>
	<path class="st19" d="M221,418.4c1.8,3,0.8,5.2-1.7,7.1C218.6,422.8,218.9,420.4,221,418.4z"/>
	<path class="st20" d="M379.1,400.6c0.1,4-0.5,8,1.2,11.8c-0.1,1.1,2.1,1.7,0.7,3.2c-3.5-0.1-4.9-2.8-6.4-5.2
		c-0.2-1.7,0.3-3.4,0.1-5.1c0-2-0.3-3.9-0.8-5.9c-0.5-7.2-1.7-14.2-4.8-20.8c-3.5-6.6-13.1-10.8-20.4-8
		c-14.1,5.2-25.4,14.3-34.5,26.1c-3.1,4-5.7,8.5-9.3,12.2c-1,0.9-2.2,1.6-3.4,2.4c-0.8,0.5-1.6,0.9-2.5,1.2c-1.9,0.4-3.9,0.5-5.4,2
		c-2.1,2.1-1.7,3.4,1.4,3.5c2.4-0.7,4.4-2.1,6.7-2.9c17.8-7.6,36.4-9.9,55.5-8.8c0.8,0,1.6,0.2,2.4,0.4c1.7,0.9,4.5,1,3.2,4.2
		c-1.5,1.8-1.5,4-2,6.1c-3.1,16.2,3,29.1,14,40.3c2.1,2.1,4.3,4.1,6.4,6.2c2,2,2.9,4.4,1.9,7.2c0,0.6,0,1.3,0,1.9
		c-1,2.3-2.1,4.6-3.1,6.9c-2.5,1.4-3.4,5.4-7.4,4.5c-0.7-0.2-1.4,0.9-1.4,1.7c-0.2,2.7,2.3,2.8,3.8,3.9c-1.2,2.3-2.7,4.4-4.8,6
		c-0.7-0.5-1.9-0.9-1.9-1.5c-0.5-6.2-5.1-5-8.7-4.5c-16.8,2.2-33.7,1.9-50.6,1.9c-3,0-6-0.1-9,0c-7.3,0.2-11.3-3.9-13.9-10.1
		c-3.7-8.8-4-18.3-6.3-27.4c-1.1-4.5-2.2-9.3-4.6-13.5c1.4-11.5,2.8-22.9,7.2-33.8c0.8-2,1.2-4.1,1.8-6.2c-0.1-0.9,0.2-1.6,1-2
		c2.5-5.5,5.2-11,7.5-16.5c1.7-4,4.3-6.4,8.8-6.4c2.6,0,4.5-1.1,4.6-4c-0.7-1.1-0.5-1.9,0.8-2.2c4.4-1.1,7.2-4.5,10.3-7.3
		c10.7-9.9,24-11.2,37.6-11.1c7.7,0,14.1,2.6,19.5,8.2c2.6,2.7,4.1,6,5.8,9.2c1.6,3.1,2.7,6.4,5,9.1c0,0.3,0.1,0.6,0.2,0.9
		C385.7,386.5,381.2,393.2,379.1,400.6z"/>
	<path class="st21" d="M314,360.4c-0.2,1.3-0.9,2.6-2.2,1.7c-4.9-3.5-9.6-7.2-14.6-11.1c6.7-1.5,10.6,2.6,14.9,5.6
		C313.7,357.4,315.2,358.2,314,360.4z"/>
	<path class="st22" d="M285.1,398.6c-0.3,0.7-0.6,1.3-1,2c-3.3,1.6-6.2,5.3-10.3,2.6c-3.7-2.4-3.8-6.7-3.8-10.7
		c0-2.4-0.7-4.9,1.3-7.9c1.5,4.2,0.3,7.9,1.3,11.5c1.7,6.2,3,6.8,8.3,3.5C282.1,398.9,283.1,396.5,285.1,398.6z"/>
	<path class="st23" d="M264.5,402c0.3,2.8,0.5,5.7,1,8.5c0.4,2.9,1.2,6,4.3,6.7c2.8,0.6,3.2-2.8,4.7-4.4c0.4-0.5,1-0.7,2.6-1.8
		c-1.3,4.6-2.3,8.1-6.6,8.6c-4.3,0.5-5.6-2.7-6.5-6.1C262.9,409.6,262.4,405.9,264.5,402z"/>
	<path class="st24" d="M306.8,369.3c-0.3,0.7-0.5,1.5-0.8,2.2c-3,0.7-5.3,3.7-8.9,2.8c-1.4-1.6-0.7-2.7,0.8-3.6
		c1.7-0.8,4.1-0.4,4.4-3c-0.4-2-2.4-2-3.7-2.9c-0.7-0.7-1.3-1.4-0.7-2.4C304.1,360.4,305.8,361.7,306.8,369.3z"/>
	<path class="st25" d="M275.9,360.6c0.6-2.1,1.4-4.3,4.1-3.9c2.7,0.5,1.9,3,2,4.8c0.1,1.6-0.1,3.2-0.1,4.9
		C277,367.9,276.1,367,275.9,360.6z"/>
	<path class="st26" d="M275.9,360.6c1.1,2.9,1,7,6,5.8c2.3-2,0.2-4.8,2-8c1.2,3.9,0.6,6.9-1,9.5c-1.4,2.4-3.7,1.1-5.3,0.2
		C274.5,366.4,274.1,363.7,275.9,360.6z"/>
	<path class="st27" d="M314,360.4c0.2-1.7-1.3-2.5-2-3.7c3.9-2.2,3.3-7.2,6.1-10.1c2.4,2.6-0.1,6,1.3,8.8c0.3,0.3,0.5,0.7,0.6,1.1
		C318.4,358.5,315.4,358.3,314,360.4z"/>
	<path class="st28" d="M347.2,340.6c3.6,0.8,1,2.9,0.8,4.3c-0.3,1.9-1.4,3-3.5,2.3c-3-1.1-3.7-5.2-1.3-7.6c1.2,0.9,0.9,2.7,2.1,3.7
		C346.2,342.5,346,341,347.2,340.6z"/>
	<path class="st29" d="M320,356.5c-0.4,0-0.7,0-1.1-0.1c-0.1-3.3-0.2-6.5,0-9.8c3-0.5,5.3,0,5,3.9c-0.3,0.6-1.2-0.7-1.1,0.2
		c0.2,1.7,0.3,3.3-0.8,4.8C321.3,355.8,320.7,356.2,320,356.5z"/>
	<path class="st30" d="M299.2,371.3c-1.7,0.3-2.4,1.3-2.1,3c-4.6-0.4-4.2-3.7-4-6.8c1-0.7,2-1.1,3.2-0.7c1.4,0.7,1.3,2.6,2.7,3.3
		C299.3,370.5,299.3,370.9,299.2,371.3z"/>
	<path class="st31" d="M347.2,340.6c-0.8,1.4,0.5,4.5-2.3,4c-2.4-0.4-1.9-3.1-1.7-5.1C344.9,338.5,346.6,337.6,347.2,340.6z"/>
	<path class="st32" d="M318.9,346.6c0.3,3.3,2.4,6.5,0,9.8c-1.4-0.1-2.2-0.9-1.6-2.2c1.1-2.5,0.4-5.1,0.8-7.6
		C318.4,346.6,318.6,346.6,318.9,346.6z"/>
	<path class="st33" d="M297,367.5c-1.3,0-2.6,0-3.9,0c1-2.2,1.7-4.8,4.8-5c0.4,0.7,0.7,1.4,1.1,2C298.5,365.5,297.7,366.5,297,367.5
		z"/>
	<path class="st34" d="M322,355.5c0-1.6-0.2-3.3,0-4.9c0.4-2.8,1.2-0.1,1.9-0.1C324.1,352.5,324.5,354.5,322,355.5z"/>
	<path class="st0" d="M362,410.4c1.7-2.6-1.7-1.6-2-2.8c0.9-1.2,2.2-1.2,3.5-1c1.4,0.4,3.1,0.5,4,1.6c1.5,1.9-0.6,1.5-1.5,1.9
		c1.8-0.1,3.5-0.4,5,0.5c3.5,1.6,7.3,2.9,9,6.9c2.3,2.2,4.8,4.1,8,4.9c3,1.9,3.8,4.7,4,8.1c0.3,8.1-0.3,16.2-2.1,24.1
		c-1.5,1.5-2.2,4-4.9,4c-2.1,1.3-3.4-0.4-4.8-1.4c-9.7-7-14.3-17.2-17.4-28.2C361.1,422.8,359.8,416.7,362,410.4z"/>
	<path class="st35" d="M383.1,470.6c-0.2-6.7-5.8-9.4-9.9-12.9c-8.2-7-18.7-29.4-13.3-41.3c1.9,3,1.5,6.6,2.3,9.9
		c3.4,12.9,8.7,24.5,20.1,32.5c0.7,0.5,1.3,1,1.6,1.8C384.4,464,384.5,467.4,383.1,470.6z"/>
	<path class="st36" d="M383.9,460.6c-7.6-3.7-12.4-10-16.2-17.1c-4.6-8.4-7.4-17.4-7.8-27.1c0.5-2.1-0.7-4.8,2.1-6.1
		c0,8.4,0.9,16.6,4,24.5c3.9,9.8,8.9,18.9,19,23.7c0.4,0.6,0.8,1.2,1.2,1.8C385.4,460.4,384.7,460.5,383.9,460.6z"/>
	<path class="st37" d="M380,417.5c-3-2-6.1-3.9-9.1-5.9c0.4-0.9,1.2-1.3,2-1.6c0.7-0.1,1.3-0.1,1.8,0.5c2.1,1.7,4.2,3.3,6.3,5
		C381.4,416.6,381.7,417.6,380,417.5z"/>
	<path class="st38" d="M374.7,410.6c-0.6,0-1.2,0-1.8,0c-2.5,0.5-3.8-1.2-5.1-2.8c-7.7-1.9-15.5-2.6-23.3-1.7
		c-0.7,0.5,0.5,0.7,0,0.2c-0.2-0.2-0.1-0.3,0.3-0.4c4.4-0.5,8.9-1.1,13,1.3c-15.2-0.3-30.3,0.5-44.9,5.3c-3.9,1.3-7.9,2.5-11.8,3.7
		c-2.1-2-0.5-3.8,0.2-5.6c0.2-1.5,1.5-1.6,2.5-2.1c3.3-0.3,3.8-3.4,5.3-5.3c2.5-3.2,4.5-7,9.2-7.5c1.2-0.2,2.4-0.3,3.5,0.4
		c1.2,1.2,0,1.6-0.8,2.1c1.3,0.3,2.4-0.2,2.9-1.2c1.4-2.8,3.8-5.3,3.4-8.8c0.6-3.1,2-3.8,4.3-1.4c6.2,6.2,10.9,4.4,14.8-5.5
		c2.6-2.4,5.2-1.5,8.1,2.7c1.2,1.8,1.8,4.8,5,2.4c0.5-1,1-1.9,2.3-2.1c2.6-1.1,4.4-0.5,6.1,2c2.7,4.1,7.4,7.3,6.1,13.3
		c1.1,1.9-1.5,4.8,1.8,6C376.6,407.5,376.3,409.2,374.7,410.6z"/>
	<path class="st39" d="M312.9,396.5c9.6-12.7,21.3-22.7,36.7-27.5c7.5-2.3,16.9,2.1,20.4,8.4c-0.7,0.6-0.2,2-1.4,2.3
		c-3-2.1-4.7-5.5-8.8-6.7c-5.9-1.7-11.1-1.3-16.3,1.6c-9.8,5.5-18.4,12.4-25.9,20.8C316,395.7,314.7,397,312.9,396.5z"/>
	<path class="st40" d="M368.9,379.6c0.1-0.8,0.1-1.7,1.1-2.1c3.5,6.9,4.7,14.4,5,22c-0.7,0.6-1.3,0.6-2,0c1.4-6.9-5.6-9.6-7.6-14.9
		c-1.1-3-2.6,3.5-3.6-0.2c-0.9-2.5-0.1-4,2.6-4.4c2.4,0.8,2.8,3.6,4.7,5.1C369.4,383.2,367.4,381.4,368.9,379.6z"/>
	<path class="st41" d="M357.8,407.2c-4.8-1.6-9.8-0.1-14.7-1c0.5-1.3,1.9-1.3,2.8-1.4c6.9-0.5,13.8,0.9,20.7,1.1
		c0.8,0,1.6,1,2.4,1.6c-1.7,0.9-3.5,0.6-5.2,0.1c-1.2,0-2.5,0-3.7,0C359.3,407.5,358.5,407.3,357.8,407.2z"/>
	<path class="st42" d="M312.9,396.5c1.3-0.6,2.4-2.1,4.2-1.2c0.8,0,1.2,0.3,1.1,1.2c-5.6,1.4-7.6,6.3-10.4,10.5
		c-1,1.5-1.6,3.7-4,1.5C306.8,404.5,309.9,400.5,312.9,396.5z"/>
	<path class="st43" d="M295.2,419.4c-2.2,0.3-4.2-0.4-4.7-2.5c-0.5-2,1.6-3,3-4c1.6-1.2,3.5-1.6,5.6-1.4
		C299.2,414.8,295.9,416.5,295.2,419.4z"/>
	<path class="st44" d="M295.2,419.4c-1.1-3.8,2.4-5.4,3.8-7.9c0.8-0.3,1.6-0.6,2.4-0.9c1,1.9-1.1,3.7-0.2,5.6
		C299.1,417.3,297.1,418.3,295.2,419.4z"/>
	<path class="st45" d="M373,399.5c0.7,0,1.3,0,2,0c1.1,1.9,0.9,4,0.8,6c-1,0.6-0.4,2.7-1.8,2.5c-1.5-0.1-1-1.7-1-2.8
		C373,403.3,373,401.4,373,399.5z"/>
	<path class="st46" d="M297,367.5c-1.2-2.3,0.1-2.8,2-3c2.4-0.1,4.5,0.2,4.8,3.2c-1.4,1.4-3.9,1-5,2.9
		C296.3,370.7,295.8,369.6,297,367.5z"/>
	<path class="st47" d="M298.8,370.5c-1.1-5.8,3.6-1.4,5-2.9c-0.4,2.7-1.6,4.3-4.6,3.6C299.2,371,299.1,370.7,298.8,370.5z"/>
	<path class="st48" d="M382.1,430.5c1.6,1.4,1,2.6-0.5,3.6c-1.2,0.7-2.2,0.1-3.1-0.8c-2.2-2.3-2-6.1,0.5-6.8
		C380.5,427.4,380,430,382.1,430.5z"/>
	<path class="st49" d="M363.7,407.6c1.7,0,3.5-0.1,5.2-0.1c0.8,1.7,2.6,2.1,4,3c-0.3,1-1.2,0.9-2,1.1c-0.9-0.3-1.9-0.6-2.8-0.8
		c-1-0.2-1.9-0.2-3-0.4c0.1-1.4,1.6-0.5,2-1.4C366,408.6,364.8,408.1,363.7,407.6z"/>
	<path class="st50" d="M382.1,430.5c-3,0.9-3.1,0.8-3.1-4.1C385.8,423.4,380.7,429.4,382.1,430.5z"/>
	<path class="st51" d="M318.2,396.5c-0.4-0.4-0.7-0.8-1.1-1.2c1.2-3.7,4.3-5.8,7-8.2c5.6-5.2,11.8-9.6,18.4-13.5
		c7.4-4.4,14.5-3.4,21.9-0.3c2.9,1.2,2.6,4.5,4.6,6.2c0.5,2.9,2.5,5.6,1.7,9.5c-2.6-3-4.7-5.4-5.7-8.6c-3.5-2.4-6.6-5.9-11.5-4.4
		c-7.4,2.2-15.1,3.9-20.2,10.4c-0.6,0.9-1.4,1.1-2.4,1c-0.6-0.5-1.3-1.4-1.7-1.3c-1,0.3-1,1.4-1,2.4c-1.4,3.2-1.8,7.3-6.3,8.2
		C320.7,396.6,319.4,396.6,318.2,396.5z"/>
	<path class="st52" d="M332.8,386.8c-0.4-1.2-2.1-2.1,0.3-3.4c6.3-3.5,12.6-6.8,19.5-8.6c5.6-1.4,9.4,0.4,12.4,5.6
		c-2.4,0.3-2.8,2.1-3.1,4c-0.6,0.7-1.2,1.4-1.8,2.2c-2.8,1.3-4.5-0.4-6.1-2.3c-1.8-2.2-3.4-5-7-3c-0.8,2.4-2.6,4.2-4.1,6.1
		C339.9,391.2,335.5,390.8,332.8,386.8z"/>
	<path class="st53" d="M332.8,386.8c4.9,3.3,7.2,2.9,10.4-1.8c1-1.5,1.9-3,3.7-3.6c0.1,3.3-4.2,9.2-7.8,10.6c-4.5,1.7-6-2.2-8.3-4.5
		C331.3,386.4,332.1,386.8,332.8,386.8z"/>
	<path class="st54" d="M322,396.7c3.5-1.7,3.4-6.1,6.3-8.2c0.7,4.3-2.1,7.2-4.2,10.3c-1,1.4-3.2,0.7-3.9-0.5
		C319.4,397.3,321.6,397.6,322,396.7z"/>
	<path class="st55" d="M354.1,384.3c2,0.8,4,1.6,6.1,2.3c0.1,0.8,1.3,2.4,0.1,2.4C357.3,388.8,354.1,388.4,354.1,384.3z"/>
</g>
</svg>
