<?xml version="1.0" encoding="utf-8"?>
<!-- Generator: Adobe Illustrator 19.0.0, SVG Export Plug-In . SVG Version: 6.00 Build 0)  -->
<svg version="1.1" id="图层_1" xmlns="http://www.w3.org/2000/svg" xmlns:xlink="http://www.w3.org/1999/xlink" x="0px" y="0px"
	 viewBox="220 300 250 200" style="enable-background:new 0 0 612 792;" xml:space="preserve">
<style type="text/css">
	.st0{fill:#C5C5C5;}
	.st1{fill:#AFB2B8;}
	.st2{fill:#E8E8E8;}
	.st3{fill:#93A1C2;}
	.st4{fill:#918F8C;}
	.st5{fill:#6B717E;}
	.st6{fill:#EAEAEA;}
	.st7{fill:#858585;}
	.st8{fill:#515A6C;}
	.st9{fill:#4F5767;}
	.st10{fill:#646D82;}
	.st11{fill:#918956;}
	.st12{fill:#767778;}
	.st13{fill:#8B8360;}
	.st14{fill:#606A7F;}
	.st15{fill:#696F7D;}
	.st16{fill:#626A7A;}
	.st17{fill:#777778;}
	.st18{fill:#838384;}
	.st19{fill:#A5A29B;}
	.st20{fill:#3F4552;}
	.st21{fill:#787878;}
	.st22{fill:#9E9E9E;}
	.st23{fill:#636462;}
	.st24{fill:#84868F;}
	.st25{fill:#5B616A;}
	.st26{fill:#515866;}
	.st27{fill:#FEFEFE;}
	.st28{fill:#5B667B;}
	.st29{fill:#2E343F;}
	.st30{fill:#636F85;}
	.st31{fill:#4E5769;}
	.st32{fill:#727A90;}
	.st33{fill:#FEEF84;}
	.st34{fill:#74735B;}
	.st35{fill:#73787D;}
	.st36{fill:#EACE70;}
	.st37{fill:#96A1BE;}
	.st38{fill:#F9ED86;}
	.st39{fill:#E9CF6E;}
	.st40{fill:#525A66;}
	.st41{fill:#838382;}
	.st42{fill:#7C7B7B;}
	.st43{fill:#818181;}
	.st44{fill:#70605D;}
	.st45{fill:#48474A;}
	.st46{fill:#BC574A;}
	.st47{fill:#F9F9F8;}
	.st48{fill:#F9F8F8;}
	.st49{fill:#6C3A33;}
	.st50{fill:#794139;}
	.st51{fill:#E9E8E8;}
	.st52{fill:#7D4E47;}
	.st53{fill:#725049;}
	.st54{fill:#653028;}
	.st55{fill:#A34D44;}
	.st56{fill:#D6CDCC;}
	.st57{fill:#E7E7E7;}
	.st58{fill:#865A54;}
	.st59{fill:#E0DFDF;}
	.st60{fill:#5F362F;}
	.st61{fill:#72453D;}
	.st62{fill:#EFEFEE;}
</style>
<g>
	<path class="st0" d="M399.9,513.2c-21,0-41.8,0-62.8,0c-0.3-0.7-0.1-1.2,0.5-1.6c2-1,4.3-0.8,6.4-0.8c16.9,0,33.8,0,50.8,0
		c1.6,0.1,3.1,0,4.6,0.8C400,512.1,400.2,512.6,399.9,513.2z"/>
	<path class="st1" d="M399.9,513.2c0-0.3,0-0.6,0-0.8c1.8-2.1,4.3-1.5,6.5-1.5c4.5,0,8.9-0.3,13.4,0c1.9,0.1,3.9-0.2,5.5,1.4
		c0,0.3-0.1,0.6,0,1C416.7,513.2,408.3,513.2,399.9,513.2z"/>
	<path class="st2" d="M337,512.4c0,0.3,0.1,0.6,0.1,0.9c-6.1,0-12.1,0-18.2,0c0-0.3,0-0.6,0-0.9c2.7-2.5,6.1-1.1,9.1-1.5
		C331,511.2,334.3,509.9,337,512.4z"/>
	<path class="st3" d="M450.5,446.2c-2.5-3.9-5.2-7.6-8.6-10.7c-9-9.4-19.5-16.7-32-20.9c-2.9,0.1-2.4,1.9-1.4,3.4
		c1.6,2.5,3.3,5,5,7.5c1.8,2.8,3.4,5.7,5.4,8.5c1.8,2.7,3.3,5.6,4.2,8.7c-7.2-16-18.5-29.2-29.9-42.4c-18-14-37.9-24.1-60.4-27.7
		c1.1-0.4,2.8,0.9,4.3-0.4c-3.7-2.7-7.9-1.5-12-1c-1.3,0.7-2.8,0.8-4.4,1c-12.4,1.6-24.2,4.2-31.5,15.7c-0.7,1-1.2,2-1.7,3
		c-6.1,13.1-7.6,27.1-8.3,41.3c-0.1,1.9-0.3,4.1,1.9,5.3c2.5-0.7,2.7-2.8,2.7-4.8c0.1-9.1,2.7-17.7,5.7-26.2
		c2-5.8,5.7-9.8,11.5-11.6c8.9-2.8,18-3.9,27.4-2.9c14.2,1.6,25.5,8.9,36.5,17.1c1.6,1.2,2.8,3,5.2,2.6c1.5-1.1,0.5-2.4,0.2-3.6
		c-0.4-1.7-0.3-3.3,0.3-4.9c0.4-0.9,0.8-1.9,2-1.9c1.3,0.1,1.4,1.2,1.6,2.2c0.7,3.4-1.1,5.6-3.5,7.6c-0.9,2.1,1,2.9,2.1,4
		c4.7,4.9,10.2,9.1,10.6,16.6c0.1,1.7,1.6,2.4,3.4,2c1.8-1,3.2,0.2,4.8,0.7c4.6,1.5,6.1,0.6,7.1-4c0.3-1.4,0.1-2.9,0.6-4.7
		c-0.4,1.7-0.2,3.1-0.4,4.4c-0.7,6-1.7,6.5-7.4,4.6c-1.3-0.5-2.7-1.6-4.2-0.1c0.7,3.8-0.2,8.2,3.9,10.9c0.8,0,1.1-1.1,2.1-0.6
		c6.3,3.2,7.5,2.7,9.1-4c0.3-1.1,0.2-2.3,1-3.5c-0.4,1.9-0.7,3.5-1,5.2c-0.9,5.3-1.7,5.8-7,4.6c-1.4-0.3-2.6-0.8-3.4,0.8
		c0.4,8,2.4,15.7,3.8,23.5c2.5,2.5,1.5,5.1,0.3,7.8c-1.8,8.6-2,17.4-2.8,26.1c-0.2,2.4,0.3,5.3,3.1,5.5c6,0.4,12,1.5,17.9-0.8
		c4.8-3.4,8.3-7.5,9.5-13.3c1.6-2.3,2.3-5.1,3.7-7.5c-0.4,2.8-2.5,5.1-1.9,8.1c-18.2,17.9,26.4,21.2,12.8-5.6
		c-1.1-11.5-4.8-22.4-7.7-33.6c1.7,0.3,3.3,1,4.8-0.4c3.1-3.2,7.3-3.9,11.4-4.5C452.4,452.4,453,451.1,450.5,446.2z"/>
	<path class="st4" d="M248.2,390.3c-3.6,1.3-5.8-0.1-6.6-3.7c-4.8-22.9-11-45.4-16.5-68.2c-1-4,0.6-6,4.2-7c6.8-2,13.6-3.7,20.8-3.1
		c0.3,0.5,0.2,0.9-0.2,1.3c-1,0.6-2.1,1-3.2,0.6c-1.7-0.6-2.3-0.2-2,1.5c-3.1,1.2-6.6,1.2-9.8,2.1c-6.1,1.7-6.5,2.2-5.1,8.4
		c2.2,9.4,4.9,18.7,7.4,28.1c2.5,9.5,4.7,19.1,6.9,28.7c0.6,2.8,1.6,5.4,3.2,7.8C247.5,387.9,247.5,389.2,248.2,390.3z"/>
	<path class="st5" d="M437.4,492.2c-1.1-10.9-4.3-21.4-7.3-31.9c-0.5-1.8-1.8-3.6,0.1-5.9c2.1,4.8,4.3,3.5,7.1,0.7
		c2.3-2.3,5.9-2.4,9-2.8c5.7-0.8,5.8-0.8,3.1-6c-0.7-1.2-0.7-2.1,1.1-2c0.5,0.5,1,0.9,1.4,1.4c1.2,2.1,3.6,4.1,2.5,6.7
		c-1,2.5-4,1.7-6.3,2.1c-3,0.5-6,0.8-8.7,2.3c-3.7,2.1-5.7,5.5-4.9,9.5c2,10.1,4.6,20,6.9,30c0.4,0.8,0.5,1.5-0.1,2.2
		c-0.7,0.4-1.5,0.5-2.3,0.1C436.5,497,438.8,494.1,437.4,492.2z"/>
	<path class="st6" d="M443,507.7c0-2.6,0.3-5.3,0-7.9c-0.3-1-0.5-2-0.5-3.1c0-0.1,0-0.2,0-0.3c-0.3-0.1-0.6-0.1-0.9-0.2
		c-0.1,0.7-0.1,1.3-0.2,2c-0.7,1-0.3,2.1-0.3,3.2c-0.7,2.3,1.4,5.5-2.2,6.9c-1.1,0.7-2.8,1-2.6,2.9c1.3-0.1,3,0.2,3.8-0.5
		c0.9-0.8,1.8-1.5,2.8-2C443,508.4,443,508.1,443,507.7z"/>
	<path class="st7" d="M337,512.4c-3-0.1-6.1-0.2-9-0.3c-6.8-1.1-13.7,0.4-20.4-0.8c-1.3,0-2.6-0.1-3.9-0.1c-2.8-1.3-6.2,0.4-9.5-1.3
		c3.6-3.4,7.8-1.5,11.4-2.2c2.2-0.1,4.4,0,6.6,0.4c8.4,1.3,16.8,0.3,25.2,0.6c3.5,0.1,7.1,0.1,10.6-0.1c12-0.1,24.1-0.1,36.1,0
		c3.3,0,5.9-0.8,7.2-4.1c1.3-1.1,2.3-0.4,2.2,0.9c-0.1,2.6,1.4,4.4,2.3,6.5c-17.6,0-35.2,0.1-52.9,0.1
		C341.1,512.2,339.1,512.3,337,512.4z"/>
	<path class="st8" d="M409.9,415.3c-2.4,1.3-0.3,2.2,0.3,3.1c4.6,6.8,9.1,13.5,12.9,20.8c0.6,1.2,1,2.4,1.5,3.7
		c0.4,1.1,1.1,2.4-0.3,3c-1.5,0.6-1.7-0.9-2.3-1.9c-2.3-4.6-4.6-9.3-7.2-13.7c-6.3-10.5-14.5-19.5-22.2-29c0-1.7,0.7-2,2-1.1
		c5.2,4.3,8.9,10.1,15.4,12.9C411.6,414.9,411.6,414.9,409.9,415.3z"/>
	<path class="st9" d="M290.5,388.1c-5.4,9.7-8.3,20.2-8.9,31.1c-0.4,6-2.4,12-0.2,18.1c1.9,2.2,1.7,4.6,0.3,7
		c-4.9,0.6-4.5-2.1-3.4-5.3c-1.7-14.7,0.1-28.9,5.3-42.8c1-2.9,2.6-5.4,3.7-8.2l0,0c1.1-0.5,1.5-2.3,3-1.8
		C291.2,386.5,291.2,387.4,290.5,388.1z"/>
	<path class="st10" d="M394.7,400.3c-0.9,0-1.6,0.3-2,1.1c-14.2-10.9-29.6-19.3-46.6-24.8c-5.3-1.7-10.5-3.1-16-4.3
		c2.3,0,4.6,0,6.9,0c17.2,3.1,32.7,10.2,47.1,19.8C387.8,394.5,391.5,397.1,394.7,400.3z"/>
	<path class="st11" d="M257,332.3c1.6,16.9,1.9,33.8,4.3,50.6c0.3,2.4-0.1,4.6-1.9,6.4c-2-0.9-4.5-0.3-6.3-1.9
		c-0.2-2.6,3.4-1.9,3.6-4.1c0.6-7.4-1.1-14.6-1.5-21.9c-0.5-9.5-2.4-18.8-1.1-28.4C254.7,331.7,255.2,329.9,257,332.3z"/>
	<path class="st12" d="M257.2,477.2c-8.7-12.3-12.6-25.4-7.5-40.2c0.6-1.7,1.1-3.5,2.5-4.8c1.1-0.9,1.9-4.1,3.6-0.5
		c0,2.4-1.2,4.4-2,6.6c-2.9,7.8-2.8,15.5,0.3,23.2c0.8,4,2.1,7.9,5.1,11c1,1.1,1.8,2.3,1.7,3.9C259.9,478.5,258.3,476.9,257.2,477.2
		z"/>
	<path class="st13" d="M252,408.1c-4.6,0.1-7.6-4-6.6-10.8c0.8-5.2,6.5-3.5,10-4c4.6-0.6,5.7,1.3,5.7,9.7
		C261.1,410.6,254.3,406.1,252,408.1z"/>
	<path class="st14" d="M290.5,388.1c-1-3-2.1,0.8-3.2,0c4.8-10.2,14.1-13.8,24.2-15.8c4.4-0.8,8.9-1.7,13.5-1c-2.9,2.9-7,2-10.4,2.9
		C305.2,376.7,295.8,379.1,290.5,388.1z"/>
	<path class="st15" d="M409.9,415.3c1.1-0.7,0.2-1.4,0.1-2.2c12.6,4.4,23.5,11.3,32.3,21.2c0.7,1.2,0.7,2-1,1.9
		C432.3,427.2,421.7,420.4,409.9,415.3z"/>
	<path class="st16" d="M439.4,509.3c-1,0.6-2,1.3-3.1,1.9c-3.6,0.4-7.4,0.7-11,1.1c-1.7-0.1-3.3-0.2-5.1-0.2
		c0.4-2.1,1.9-1.1,3.5-1.2c-3.3-0.4-7.2,1.5-8.8-2.7c4.4-2.9,6.5-7.2,8.2-11.9c1.1,0.8,1.4,2,1.8,3.2c0.2,1,0.2,1.9-0.1,2.9
		c-0.5,1.7-2,3-2.5,5.1c5.4,1.7,10.7-0.6,16.1,0.1C439.1,507.9,439.6,508.4,439.4,509.3z"/>
	<path class="st17" d="M286.3,510.3c-13.8,1-16-5.8-18.2-18.1c5,0.1,4.3,4.7,6,7.4c0.4,1.9,0.8,3.8,1.7,5.5c0.9,1.8,1.3-0.7,2.1-0.4
		c3.1,0.2,6.1,1.1,9.1,1.7c1.3,0.7,3.4,1.2,2.6,3.3C289.1,511.3,287.5,510.8,286.3,510.3z"/>
	<path class="st18" d="M278.2,439c0.4,2.1,0.2,4.6,3.1,5.2c0.9,1,1,2.1,0,3c-0.9,0.8-1.9,0.4-2.6-0.4c-6.7-6.6-14.2-12.6-16.5-22.4
		c0-0.8,0.3-1.5,0.9-2.1c2.8,0.9,3.4,3.7,4.9,5.9C270.7,432.4,273.1,437,278.2,439z"/>
	<path class="st19" d="M257,332.3c-0.6-0.2-1.3-1.2-1.9,0c-2.5-0.5-2.2-2.6-2.2-4.2c0.1-5.1-0.8-10.1-1.4-15.1
		c0.1-1.4-0.6-2.6-1.3-3.8c0-0.3,0-0.5-0.1-0.7c4.2-0.6,5.9,1.7,6.1,5.3C256.5,319.8,256.7,326,257,332.3z"/>
	<path class="st20" d="M273.4,500.1c-2.1-2.4-1.5-6.5-5.3-7.9c-0.9-1.7-3.1-2.4-3.1-4.7c-0.3-0.9-0.6-1.9,0.5-2.6
		c3.7,0.6,5.9,3.2,8.1,5.8c0.3,0.4,0.5,0.9,0.6,1.4C273.8,494.8,277.6,497.9,273.4,500.1z"/>
	<path class="st21" d="M263.1,422.4c0,0.7,0,1.3,0,2c-2.3,2.6-2.6,7.7-8.1,6.8c-1.5-1.1-1.9,1-3,1c1.2-4.1,6.1-5.9,6.8-10.8
		C259.1,419.3,261.8,421.2,263.1,422.4z"/>
	<path class="st22" d="M286.3,510.3c0.9-0.5,2.6,0.3,2.6-1.2c0-0.6-1.6-1.2-2.5-1.8c6.6-1,13.3-2.5,19.4,1.8c-3.3,0-6.8,0-11.3,0
		c3.6,1.9,6.8-0.1,9.2,2C297.9,511.1,292.1,511.6,286.3,510.3z"/>
	<path class="st23" d="M253.1,387.1c2,0.9,5.2-1.6,6.2,2.1c-3.5,1.9-7.4,0.6-11.1,1.1c-2-0.2-1.4-1.5-1.2-2.7
		C248.9,385.9,250.9,385.5,253.1,387.1z"/>
	<path class="st24" d="M441.3,436.3c0.8-0.4,1-1.1,1-1.9c3.7,2.4,6.4,5.8,8.2,9.8c-0.9,0.4-1.1,1.2-1.1,2
		C446.8,442.9,444.1,439.6,441.3,436.3z"/>
	<path class="st25" d="M266.3,485.2c-1,0.5-1,1.5-1.2,2.4c-2.9-3.2-5.8-6.5-7.9-10.3c1-3.1,1.9,0.3,2.9,0
		C263.4,478.9,266.4,480.9,266.3,485.2z"/>
	<path class="st22" d="M307.6,511.3c6.8,0.1,13.7-0.9,20.4,0.8c-3,0.1-6.1,0.2-9.1,0.3C315.1,511.7,311.2,512.9,307.6,511.3z"/>
	<path class="st14" d="M287.3,388c-0.2,3.2-1.9,5.7-3.7,8.2C283.6,393,285.3,390.4,287.3,388z"/>
	<path class="st26" d="M414.9,508.1c2.6,2.2,6,2.2,9.5,2.2c-1.3,1.5-3.3,0.3-4.3,1.7c-6.8,0.1-13.6,0.2-20.4,0.4
		c-1.3-0.1-2.6-0.2-3.9-0.3c-4.2-1.5-2.4-5.3-3.2-8c-1.6-1.8-1.3-4.1-1.2-6.2c0.3-6,1.6-11.8,2.2-17.8c0.1-1.2,0.7-2.2,1.7-3
		c1.2-0.5,2.3-0.8,2.5,1.1c-1.7,9.3-2.2,18.7-2.8,28.1c-0.1,1.5-0.1,3.6,1.8,3.5C402.9,509.6,409.2,511.9,414.9,508.1z"/>
	<path class="st27" d="M395.9,477.2c-2,8.8-3.1,17.8-3.3,26.8c0.4,5.9-3.2,6.1-7.9,6c-12-0.2-24.2,0-36.2,0
		c-10.2-0.9-20.5-0.1-30.7-0.4c-2-0.1-4,0.4-6-0.4c-2,0-3.9-0.1-6-0.1c-6.5-0.6-13-1.2-19.4-1.8c-3.1-0.3-6.3-0.5-9.1-2
		c-2.6-0.1-3-2.2-2.7-3.9c0.7-3.6-0.5-6.8-1.3-10.1l0.1-0.2c-7.9-8.9-14.7-18.6-20.1-29.2c-4.7-8.2-3.3-16.5-0.6-24.9
		c0.7-2,1.6-4,2.5-5.9c2.1-2,6-2.4,5.8-6.5c0-0.1,1.5-0.2,2.2-0.4c2.8,7.7,7.6,14,14.2,19c0.9,0.7,1.3,1.4,1.7,2.3s0.8,2.1,2,1.3
		c1-0.6,0.6-1.7,0.3-2.7c0-2.3,0-4.6,0-6.9c2.3-4.5,0.9-9.5,1.8-14.2c1.4-7.1,3.4-13.9,6.3-20.5c3.8-8.8,12.5-9.8,20.6-11.4
		c22.1-4.2,40.2,4.3,56.7,17.6c1.1,0.9,1.9,2.4,3.6,2.4h0.1c4.6,4.2,9.3,8.3,12.3,14c1,1.9,3,3.4,1.6,6.1c-0.5,1,1.1,1.8,2.3,1.8
		c0.6,0.1,0.9,0.4,1,1c2.6,3.2,0.7,8,4,10.9c0.9,0.3,1.4,0.9,1.2,1.9c1.3,8.4,3.5,16.6,3.9,25.1
		C398.2,474.2,397.1,475.7,395.9,477.2z"/>
	<path class="st28" d="M392.9,447.1c-0.4-0.6-0.8-1.3-1.2-1.9c-0.2-1.1-0.4-2.1-0.6-3.3c0.4,0,0.5,0,0.6,0.1
		c2.3,1.3,3.8,5.3,6.9,3.9c3.1-1.4,2.3-5.5,3-8.4c0.3-1.3-0.4-3.6,1.6-3.5c1.9,0.1,1.3,2.3,1.2,3.7c-0.1,1.1-0.5,2.3-0.7,3.4
		C402.8,450.3,401.1,451.2,392.9,447.1z"/>
	<path class="st29" d="M370.4,411.3c-2.9-3.3-2.2-6.8-0.5-10.2c0.9-1.9,2.8-2.8,4.5-0.9c1.9,2.2,1.2,5.1,0.8,7.7
		C374.7,410.3,373.1,411.6,370.4,411.3C370.5,411.4,370.4,411.3,370.4,411.3z"/>
	<path class="st30" d="M387.7,434.3c-0.3-0.3-0.7-0.7-1-1c1.1-3.5,3-0.8,4.3-0.3c5.4,1.9,5.7,1.7,6.8-3.8c0.5-2.2-1-6.7,1.5-6.3
		c3.6,0.5,0.6,4.4,0.6,6.7C399.6,438.2,397.4,439,387.7,434.3z"/>
	<path class="st31" d="M424,499.2c-1-0.8-0.7-1.9-0.8-2.9c1.2-2.7,2.3-5.4,3.5-8.1c0.5-1,0.9-2.4,2.4-1.7c1.2,0.5,0.6,1.7,0.3,2.6
		c-1,2.8-2,5.5-3,8.3C426.3,498.9,425.2,499.2,424,499.2z"/>
	<path class="st32" d="M395.9,477.2c0.3-1.7,0.7-3.3,1-5c2.4,0.6,2.6,1.9,0.9,6C397.4,477.5,396.7,477.3,395.9,477.2z"/>
	<path class="st33" d="M253.1,387.1c-2,0.2-4,0.3-6.1,0.5c-2.5-0.9-3.3-3.2-3.8-5.4c-3.9-20.2-9.8-39.9-14.8-59.8
		c-2-7.9-1.9-8.1,6.1-9.9c3.4-0.8,6.9-1.3,10.3-1.9c1.8-1.1,3.3-1.2,4.3,1.1c1.8,13.3,2.9,26.7,3.4,40.1c0.3,8.3,1.4,16.5,1.2,24.8
		c-0.1,3.6,1.5,6.4,4.3,8.6C257,387.3,254.3,385.5,253.1,387.1z"/>
	<path class="st34" d="M248.1,311.1c-0.9-1-2.1-0.1-3.2-0.5c-0.1-0.4-2.1-0.9-0.1-1.3c1.7-0.4,3.5-0.2,5.4-0.3c0.7,0.6,3.5-0.8,2,2
		C250.8,312.3,249.4,312.3,248.1,311.1z"/>
	<path class="st35" d="M439.4,503.2c1.5,0.3,0-4.3,2.9-1.8c-1.4,2.5,2.8,7-2.9,7.9c-0.4-0.4-0.7-0.7-1.1-1.1
		C439.5,506.7,439.3,504.9,439.4,503.2z"/>
	<path class="st22" d="M311.8,509.3c12.3,0.1,24.5-0.5,36.7,0.8c-11.3,0-22.6,0.1-33.9,0.1C313.6,510.2,312.5,510.1,311.8,509.3z"/>
	<path class="st36" d="M248.1,311.1c1.3,0,2.7,0,4,0c1.5,4.9,2,9.9,2,15c0,2.1-0.7,4.3,0.9,6.2c-0.3,16.1,2.2,32.1,3.3,48.1
		c0.1,1.7,0,3.3-0.4,4.8c-2.9,0.3-5-0.6-5.1-3.9c-0.1-1.5-0.8-2.9-0.8-4.4c0-14.3-1.3-28.4-2.1-42.7
		C249.6,326.6,248.8,318.8,248.1,311.1z"/>
	<path class="st37" d="M253.2,462c7.2,9.4,13.7,19.3,20.1,29.2c-2.6-1.7-5.1-3.6-7.1-5.9c-1.1-3.4-4.3-5.2-6.2-7.9
		c-0.3-3.5-3.9-5.1-5-8.3C254.2,466.7,252.8,464.6,253.2,462z"/>
	<path class="st38" d="M256.1,405.1c-3.2,0.1-7,1.9-8.2-3.5c-0.8-3.9,0-5.6,4.2-5.4c1,0.1,2,0,3,0
		C256.4,399.1,258.6,401.8,256.1,405.1z"/>
	<path class="st39" d="M256.1,405.1c1.1-3.1-2-5.7-1-8.8c1.7-0.2,3.3,0.2,2.9,2.2C257.6,400.7,260.3,403.9,256.1,405.1z"/>
	<path class="st40" d="M273.3,491.3c2.2,2.8,2,6.1,2.1,9.3c0,1.9,0.3,3.5,1.9,4.7c0.1,0.8,0.5,1.9,0.2,2.3c-0.7,0.8-1.5-0.1-2-0.7
		c-1.5-2-2.2-4.3-2.1-6.8C275.6,497.2,272.3,494.3,273.3,491.3z"/>
	<path class="st41" d="M292.5,443.4c-1.5-7.9-2.4-15.9,0.2-23.6c5-14.7,25-19,39.5-12.3c12.5,5.7,21.4,15.2,28.2,26.7
		c-1.5,0.8-2.5-0.5-3.7-0.9c-1.4-0.7-3-0.8-4.6-1.6c-0.8-0.5-1.3-1.3-1.4-2.2c1.2-3.7-1.5-5.1-3.9-6.7c-1.2-0.5-1.8-1.7-2.6-2.7
		c-1.2-1.6-3.3,0.4-4.6-1.2c-1.6-5.1-8.6-9.2-14.7-8.8c-2.3,0-3.6,3.2-6.4,2c-0.8-1.4,0.3-2.4,0.8-3.5c-10.8-0.4-13,0.7-13.4,6.7
		c-1.7,1-3.2,2.4-5.2,3.2c-1-1.1-1.9-3.5-3.4-0.2c-0.7,1.5-1.4,3-2.5,4.2c-2.1,4-1.1,8.1-0.6,12.2c0.3,0.9,0.7,1.7,0.9,2.6
		c0.2,0.7,0.2,1.4,0.1,2.2C294.9,441.1,294.4,442.7,292.5,443.4z"/>
	<path class="st42" d="M292.5,443.4c0.7-1.4,1.4-2.8,2.1-4.2c2.5-1.2,5.3,0,7.9-0.4c3.8,1.4,7.8,2.7,11.2-0.9
		c0.6-0.4,1.3-0.6,1.9-0.8c4.2-0.4,5.3-5.6,9.6-5.8c1.1-0.1,2,0.1,2.8,0.9c-1.3,3.7-4.2,5.7-7.2,7.2c5.3-1.5,11.4,0.9,17.1-1.7
		c0.8-0.2,1.6-0.2,2.3,0.1c5.4,2.2,10.9,0.8,16.4,0.9c0.8,0,1.5,0.3,1.9,1.2c0.3,1.9-1.5,1.8-2.4,2.5c-20.6-0.3-41,0.5-61.6,1.7
		C294,444,293.2,443.6,292.5,443.4z"/>
	<path class="st43" d="M260.9,441.6c0.1-1.8,0-3.7,1.4-5.2c1.3-1.4,2.9-2,4.4-0.4c1.6,1.9-0.7,1.7-1.5,2.4c-2.9,2.7-1,7.7,3.3,9.1
		c1.2,0.4,3.7-0.2,3.2,1.9c-0.4,1.7-2.5,1-3.9,0.8C262.8,449.7,260.7,446.9,260.9,441.6z"/>
	<path class="st44" d="M356.3,442.3c0.7-0.7,1.4-1.4,2.1-2.2c0.6-0.3,1.5-0.1,1.8-0.9c-0.1-2.7-4.8-3.6-2.9-7.1c1,0.7,2.1,1.3,3.1,2
		c1.4,1.5,3,3,3.7,5.1c-0.1,1.3,0.6,2.9-0.8,4C361,443.3,358.6,443.2,356.3,442.3z"/>
	<path class="st45" d="M363.4,443.3c0.1-1.4-0.4-2.8,0.8-4c1,1.1,3.2,1.8,2.5,3.7C366.2,444.6,364.6,443.7,363.4,443.3z"/>
	<path class="st46" d="M325.2,432c-1.9,0.9-3.6,2-4.8,4c-0.9,1.7-2.5,2.5-4.6,2.1c-4.4-2.6-8.6-3.8-13.2-0.1c-2.5,2.1-5.3-0.5-8-0.7
		c-0.4-0.7-0.7-1.4-1.1-2.1c-0.9-1.7-0.3-3.6-0.4-5.4c-0.2-2.3-0.3-4.4,3.3-3.6c1.9,0.5,2.1-1.7,3.1-2.7c1.7-2,1.3-5.7,3.9-6.6
		s4.2,2.3,6.5,3.3c1.1,0.5,2.2,0.6,3.4,0.6c2.9-0.2,3.5-2.7,4.8-4.7c1.3-2.1,2-5.2,4.9-5.2c2.7-0.1,3.1,3.1,4.3,5
		c1.3,2.2,2.5,4.3,3.8,6.4c1.8,2.9,4,3.2,6.7,0.9c1.6-1.4,2.8-3.4,5.4-3.4c3.2,3.3,6,7,7.3,11.5c-2.6,1.5-5.5,2.3-7.9,4.2
		c-4.2,3.2-6.7-0.7-9.6-2.5C330.6,431.1,327.9,430.9,325.2,432z"/>
	<path class="st47" d="M305.8,415.2c-2.6-5.1-2.5-5.3,3.3-7.1c4.3-1.3,7.6-1.4,12.3-0.5c-0.1,1.9-2.6,2.6-2.4,4.6
		c0.5,3.7-1.9,6-3.9,8.5C309.9,422,307.6,419,305.8,415.2z"/>
	<path class="st48" d="M325,409.2c6-2,9.6,2.8,14.2,5c2.6,1.3,1.9,3,0.8,4.8c-0.4,2.9-2.3,4.5-5,4.9c-2.8,0.4-4.2-1.7-5.3-3.9
		C328,416.5,325.2,413.4,325,409.2z"/>
	<path class="st49" d="M325,409.2c1.7,3.2,3.5,6.4,5.3,9.5c3.1,5.7,3.6,5.8,8.6,1.2c0.4-0.3,0.7-0.6,1.1-0.9
		c1.7,0.5,3.6-3.3,5.2,0.2c-0.5,0.7-1.1,1-1.9,1.1c-2,0.8-3,2.6-4.5,3.9c-3.4,3.1-6.2,2.8-8.6-1.1c-1.7-2.8-3.3-5.8-5-8.7
		c-0.6-1.1-0.7-2.9-2.4-2.8c-1.5,0.1-1.8,1.8-2.5,2.9c-1.8,2.8-1.9,7-6.4,7.7c-0.7-1.1,0.6-1.5,0.9-2.3c1.4-2.6,2.7-5.1,4.2-7.7
		C320.8,411.2,322,408.4,325,409.2z"/>
	<path class="st50" d="M294.6,437.3c5,0.4,9.2-1.6,13.8-3c3-1,5.8,1.1,7.5,3.8c-0.7,0-1.4,0.1-2.1,0.1c-3.7-1.2-7.3,0.1-10.8,1.1
		c-2.8,1.6-5.5,0.6-8.2-0.2C294.6,438.6,294.6,437.9,294.6,437.3z"/>
	<path class="st51" d="M294.4,422.3c0.9-3.5,2.4-6.6,5.6-8.9c1.4,1.7,0.1,3.4,0.7,4.9c1.3,1.9-0.1,3.4-0.5,5.1
		c-1.3,1-1.3,3.9-3.9,2.8C294.5,425.5,293.4,424.3,294.4,422.3z"/>
	<path class="st52" d="M299.6,423.2c0.4-1.6,0.7-3.3,1.1-4.9c1.1-2.1,2.4-3.7,5.1-3c2.9,1.7,4.4,6.2,8.9,4.7
		c-0.3,0.8-0.6,1.5-0.9,2.3c-3,0.4-5.5-0.8-7.5-3c-1.9-2-3.3-2.8-3.8,1c-0.2,1.3-0.4,3-1.8,3.9C300.1,423.9,299.8,423.6,299.6,423.2
		z"/>
	<path class="st53" d="M299.6,423.2c0.3,0.3,0.7,0.6,1,0.9c-1.3,2.6-2.3,6-7.1,2.2c0,3.5,0,6.2,0,8.9c-2.2-4.2-0.6-8.6-0.7-12.9
		c0-0.6,1.1-0.2,1.7,0C295.7,425.3,297.1,427.5,299.6,423.2z"/>
	<path class="st54" d="M343.1,420.3c0.4-0.8,1.1-1,1.9-1.1c0.7,1,1.3,2,2,3.1c2.8,1.4,3.4,4.2,4.2,6.9c0.3,0.6,0.6,1.2,0.9,1.9
		c0,0.7-0.4,1.2-1.1,1.4c-0.7-0.1-1.2-0.4-0.8-1.3C347.4,427.9,344.8,424.3,343.1,420.3z"/>
	<path class="st55" d="M351.4,432.3c0.2-0.4,0.5-0.8,0.7-1.2c1.7,0.2,3.5,0.1,5.2,1.1c0,2,1.6,3,2.8,4.3c1,1,2.4,1.9,1.2,3.6
		c-3.9-0.7-5.9-4.2-8.9-6.1C351.9,433.6,351.5,433,351.4,432.3z"/>
	<path class="st56" d="M351.2,429.2c-1.4-2.3-2.7-4.6-4.2-6.9C351.5,424,353,426.5,351.2,429.2z"/>
	<path class="st57" d="M337.9,438.3c0,1.7-1.1,1.7-2.3,1.7c-5.2,0-10.3,0-15.9,0c2.6-3.2,5.6-5.5,8.5-7.8c0.7-0.9,1.7-0.9,2.7-0.7
		C333,434,337,434.5,337.9,438.3z"/>
	<path class="st58" d="M337.9,438.3c-2.3-2-4.8-3.9-7.1-5.9c0.7-0.9,1.5-0.7,2.3-0.2c4,3.7,8.1,4.6,12.3,0c1.1-1.3,3.1-1.1,4.8-1
		c0.4,0.4,0.8,0.7,1.2,1.1c0.3,0.3,0.6,0.5,0.8,0.8c0.3,0.2,0.4,0.5,0.4,0.8s-0.1,0.5-0.1,0.5c-4.4-0.1-7.6,2.4-11,4.5
		c-0.5,0-0.9-0.2-1.3-0.5C339.4,438.3,338.7,438.3,337.9,438.3z"/>
	<path class="st59" d="M302.8,439.3c3.3-3.1,6.8-4.7,10.8-1.1c0.2,0.5,0.6,1.1,0.5,1.4C312.7,442,304.9,441.7,302.8,439.3z"/>
	<path class="st60" d="M352.1,434.5c0.1-0.5,0.1-1,0.2-1.4c4,1.1,5.7,5.2,9.1,7.1c-0.9,3.6-1.9,0.5-2.9,0c-0.4-0.3-0.7-0.6-1.1-0.9
		c-0.9,0.6-1.6-0.1-2.4-0.5C353.8,437.5,352,436.5,352.1,434.5z"/>
	<path class="st57" d="M355.5,438c0.6,0.4,1.2,0.8,1.9,1.2c-5.8,1.1-11.5,2.2-17.1-0.9c0.3,0,0.6,0,1,0
		C346,437.8,350.7,437.6,355.5,438z"/>
	<path class="st61" d="M333.2,432.2c-0.8,0.1-1.6,0.1-2.3,0.2c-0.9,0-1.8-0.1-2.7-0.1c-1-0.1-1.9-0.2-2.9-0.2
		C327.9,429.7,330.6,429,333.2,432.2z"/>
	<path class="st62" d="M355.5,438c-4.8,2.1-9.5,1.7-14.3,0.3c1.1-1,2.3-1.8,3.2-2.9c2.3-2.7,4.9-3,7.7-0.9
		C353.2,435.7,354.4,436.8,355.5,438z"/>
</g>
</svg>
