<svg xmlns="http://www.w3.org/2000/svg" width="32" height="32" viewBox="0 0 32 32"><defs><style>.cls-3{fill:#f1e5d7;stroke:rgba(255,255,255,.8);stroke-width:.8px}.cls-5{stroke:none}.cls-7{fill:none}</style><linearGradient id="all" x1=".5" x2=".5" y2="1" gradientUnits="objectBoundingBox"><stop offset="0" stop-color="#f1e7db"/><stop offset="1" stop-color="#b39472"/></linearGradient><linearGradient id="all-2" x1=".5" y1="1" x2=".5" y2="-.228" gradientUnits="objectBoundingBox"><stop offset="0" stop-color="#ccbdaa"/><stop offset="1" stop-color="#ebe4dc"/></linearGradient></defs><g  transform="translate(-459.665 -1472.826)"><circle cx="16" cy="16" r="16" transform="translate(459.665 1472.826)" fill="url(#all)"/><g  transform="translate(0 2)"><g transform="translate(463.78 58.122)" fill="url(#all-2)"><path class="cls-5" d="M5.684 1438.263l-2.755-7.356a.68.68 0 0 1 .914-.854l2.723 1.165a.69.69 0 0 0 .857-.269l4.257-6.919a.688.688 0 0 1 1.159-.016l4.541 6.953a.689.689 0 0 0 .851.252l2.692-1.172a.681.681 0 0 1 .923.838l-2.57 7.363a.682.682 0 0 1-.647.456H6.326a.683.683 0 0 1-.642-.441z"/><path d="M18.63 1438.705a.682.682 0 0 0 .647-.456l2.57-7.363c.16-.462-.205-.898-.646-.898a.696.696 0 0 0-.278.06l-2.692 1.171a.69.69 0 0 1-.85-.252l-4.542-6.953a.68.68 0 0 0-.575-.31.68.68 0 0 0-.584.326l-4.257 6.919a.687.687 0 0 1-.857.269l-2.723-1.166a.697.697 0 0 0-.275-.057c-.447 0-.813.447-.639.912l2.755 7.356a.683.683 0 0 0 .642.442H18.63m0 1H6.326a1.69 1.69 0 0 1-1.579-1.093l-2.754-7.355a1.644 1.644 0 0 1 .189-1.533 1.689 1.689 0 0 1 2.055-.59l2.477 1.059 4.114-6.687a1.674 1.674 0 0 1 1.436-.801c.573 0 1.1.285 1.412.763l4.396 6.73 2.452-1.067c.217-.095.445-.143.677-.143.545 0 1.06.267 1.376.714.316.444.394.996.214 1.513l-2.57 7.364a1.683 1.683 0 0 1-1.591 1.126z" fill="rgba(255,255,255,.6)"/></g><g  class="cls-3" transform="translate(474.665 1476.826)"><circle class="cls-5" cx="1.5" cy="1.5" r="1.5"/><circle class="cls-7" cx="1.5" cy="1.5" r="1.1"/></g><g  class="cls-3" transform="translate(485.665 1483.826)"><circle class="cls-5" cx="1.5" cy="1.5" r="1.5"/><circle class="cls-7" cx="1.5" cy="1.5" r="1.1"/></g><g  class="cls-3" transform="translate(463.665 1483.826)"><circle class="cls-5" cx="1.5" cy="1.5" r="1.5"/><circle class="cls-7" cx="1.5" cy="1.5" r="1.1"/></g><path  d="M-7398.834-6487.175h-6.062a.687.687 0 0 1-.641-.44l-2.754-7.357a.656.656 0 0 1 .073-.612.689.689 0 0 1 .565-.3.694.694 0 0 1 .275.057l2.724 1.164a.679.679 0 0 0 .272.057.694.694 0 0 0 .585-.324l4.256-6.918a.679.679 0 0 1 .584-.326.7.7 0 0 1 .122.011v14.987z" transform="translate(7874.999 7984)" fill="#f6efe6" opacity=".47"/></g></g></svg>
